<?xml version="1.0" encoding="UTF-8"?>
<svg id="Capa_2" data-name="Capa 2" xmlns="http://www.w3.org/2000/svg" xmlns:xlink="http://www.w3.org/1999/xlink" viewBox="0 0 285.56 429.15">
  <defs>
    <style>
      .cls-1 {
        fill: url(#Degradado_sin_nombre_5);
      }

      .cls-2 {
        stroke-width: 4px;
      }

      .cls-2, .cls-3, .cls-4 {
        fill: #600f74;
      }

      .cls-2, .cls-4 {
        stroke: #020202;
        stroke-miterlimit: 10;
      }

      .cls-5 {
        fill: #c2c2c2;
      }

      .cls-6 {
        fill: #bdbdbd;
      }

      .cls-7 {
        fill: #cc8e50;
      }

      .cls-4 {
        stroke-width: .81px;
      }

      .cls-8 {
        fill: #ffa300;
      }

      .cls-9 {
        fill: #1d1d1d;
      }

      .cls-10 {
        fill: #0e0e0e;
      }

      .cls-11 {
        fill: #fafafa;
      }

      .cls-12 {
        fill: #ffd91d;
      }

      .cls-13 {
        fill: #bebebe;
      }

      .cls-14 {
        fill: #161616;
      }
    </style>
    <radialGradient id="Degradado_sin_nombre_5" data-name="Degradado sin nombre 5" cx="1252.86" cy="410.48" fx="1252.86" fy="410.48" r="49.43" gradientTransform="translate(1173.67 -104.66) rotate(-180) scale(.81 -.88)" gradientUnits="userSpaceOnUse">
      <stop offset="0" stop-color="#3ebf00"/>
      <stop offset=".43" stop-color="#d8f2cc"/>
      <stop offset=".68" stop-color="#fff4bd"/>
      <stop offset="1" stop-color="#97dc75"/>
    </radialGradient>
  </defs>
  <g id="Capa_1-2" data-name="Capa 1">
    <g>
      <g>
        <path class="cls-10" d="M196.76,106.58c3.49-21.58,9.62-42.62,12.68-64.3,2.82-19.96.2-25.81-17.46-35.2-7.61-2.74-15.38-2.9-23.16-1.05-13.09,3.1-22.02,10.71-25.2,24.16-4.09,17.24-6.18,34.81-6.37,52.46-.27,24.92-.9,49.86.92,74.76-1.21-21.66-3.28-43.26-5.15-64.87-.33-3.79-.37-7.92-3.22-11.09-1-7.93-1.18-15.95-3.23-23.76-1.52-5.79-4.41-10.06-10.48-11.59-2.22-1.41-4.63-2.1-7.23-1.54-16.31,3.55-31.04,10.02-41.51,23.68-6.08,7.94-7.94,16.88-6.5,26.99,3.68,25.8,13.84,49.73,20.74,74.6,2.18,7.84,4.86,15.56,5.85,23.74-1.7-1.18-2.66-3.53-5.17-3.58-12.42-12.89-18.78-29.55-27.63-44.64-4.33-7.39-8.72-14.37-17.8-16.46-7.92-1.92-13.25,2.45-18.35,7.49-13.5,13.32-16.01,26.32-7.54,43.11,4.1,8.12,7.65,16.72,14.62,23.08,7.67,8.59,15.33,17.18,22.99,25.77,7.92,10.11,7.65,22.96,11.36,34.46,3.11,9.66,7.01,18.67,14.34,25.89,6.12,6.74,12.23,13.49,18.35,20.23,2.54,4.99,4.23,10.06,4.84,15.81.64,6.04.43,10.19-5.13,14.39-6.4,4.83-2.5,11.67-.38,17.68,7.56,3.31,4.98-4.03,6.97-6.58,2.14-3.57,5.75-3.08,9.04-3.13,35.08-.48,70.12.16,105.08,3.39,2.24.21,4.49.31,6.54,1.38,2.93,1.53,3.77,4.29,3.2,7.14-.69,3.44-3.62,1.46-5.59,1.59-1.67.11-3.36-.16-5.05-.05-7.48-.02-15,1.05-22.37-1.08-14.97-2.43-30.05-2.79-45.17-2.32-10.08.42-20.17-.06-30.25.28-2.48.08-6.19.04-6.34,2.76-.19,3.54,3.79,3.33,6.35,3.57,6.14.58,12.32.41,18.48.23,25.81-.72,51.34,4.29,77.14,3.57.83-.02,1.67.15,2.5.28q15.76,2.47,18.06-13.2c1.47-5.25,2.43-9.61-5.45-10.88-4.01-.65-10.91-.1-11.67-4.33-1.2-6.62-1.25-13.94,1.78-20.62,1.56-3.43,4.24-5.84,6.67-8.55,15.71-17.56,31.28-35.31,39.82-57.75,8.41-22.08,1.66-44.84-17.52-58.64-4.22-3.04-2.41-5.94-1.35-8.66,6.6-16.95,13.11-33.95,20.44-50.59,6.19-14.06,13.85-27.45,18.83-42.1,7.09-20.87,3.94-28.7-16.03-37.93-9.33-5.63-19.43-4.44-29.43-3.02-4.35.62-7.35,3.87-9.85,7.4-3.58,5.07-6.69,10.47-8.68,16.3-8.18,23.84-18.64,46.84-25.39,69.35,1.48-11.54,4.41-24.59,4.04-38.03Z"/>
        <path class="cls-6" d="M129.8,81.45c2.34,28.25,3.37,56.65,9.78,84.48,0-24.04.23-48.08-.07-72.11-.24-19.7,2.09-39.13,5.36-58.45,2.96-17.5,11.73-25.72,29.52-27.91,5.79-.71,11.73-.28,17.6-.36-17.91-15.23-49.87-4.39-54.42,18.24-3.42,17.04-5.63,34.18-6.19,51.54-.05,1.71-.14,3.37-1.59,4.59Z"/>
        <path class="cls-6" d="M82.28,189.99c1.87,3.45,4.23,6.43,8.34,8.69-2.97-20.03-9.72-38.4-15.52-57.02-4.58-14.7-9.14-29.37-11.73-44.61-2.62-15.4,2.11-27.63,14.84-36.58,11.36-7.99,23.6-13.92,37.87-14.37-6.07-8.9-14.59-5.78-21.96-3.44-17.34,5.51-33.87,12.99-39.02,32.81-3.2,12.29,1.32,24.25,4.42,35.98,6.97,26.35,16.6,51.94,22.75,78.54Z"/>
        <path class="cls-13" d="M196.76,106.58c-4.25,14.88-4.99,30.22-5.08,45.95,1.89-4.8,3.87-9.57,5.67-14.41,7.71-20.76,15.36-41.53,23.03-62.3.19-.52.25-1.11.48-1.61,10.42-22.65,14.16-23.22,38.61-20.56,2.21.24,4.4.62,6.61.93-3.21-6.87-10.05-5.94-15.76-7.16-20.77-4.45-27.84-.9-36.29,18.16-6.09,13.75-11.49,27.78-15.56,42.28-.05.2-.22.36-.33.54-.46-.61-.92-1.22-1.38-1.83Z"/>
        <path class="cls-13" d="M74.74,419.66c.21-13.99.43-27.97.64-41.96-3.47-7.46-3.98-14.55-.76-17.38,1.82-1.59,5.66-2.44,9.01-2.28,3,.14,6.71,1.82,9.18-1.73-.5-3.32-.97-6.64-1.52-9.94-.63-3.82.11-7.02,4.59-7.29,5.16-.31,6.26-3.3,4.74-7.21-2.9-7.42,2.33-17.43-7.22-22.67-.24-.13-.53-.19-.79-.28-2.93,4.11-1.63,8.39-.86,12.83.86,4.95,3.12,10.88-5.74,11.45-3.17.21-2.92,2.98-2.64,5.82,1.21,11.96,1.06,11.98-10.39,12.45-4.77.2-8.04,1.7-7.69,7.44.35,5.84-.79,11.81.33,17.55,4,20.54-2.61,40.99,4.39,43.74.93.36,2.41.54,4.72-.55Z"/>
        <path class="cls-6" d="M25.58,202.56c-4.06-7.59-8.3-15.09-12.14-22.78-11.24-22.48-.91-44.82,23.41-50.89-3.91-8.11-10.88-6.61-16.3-3.54-16.8,9.51-26.73,25.61-16.25,46.5,4.26,8.5,8.58,16.94,13.57,25.05,1.91,3.11,4.09,5.19,7.71,5.66Z"/>
        <path class="cls-5" d="M74.27,288.69c-8.81-14.84-14.72-30.7-16.86-47.9-.7-5.67-3.95-9.68-8.84-12.46,2.13,21.11,6.64,41.34,21.63,57.61,1.08,1.17,2.7,1.84,4.07,2.75Z"/>
        <path class="cls-7" d="M106.6,319.47c-.65,18.69-.65,18.45,16.82,18.46,25.81,0,51.67-2.19,77.42,1.15,3.29.43,4.44-.08,4.36-3.68-.3-12.28,5.37-21.4,13.9-30.21,16.98-17.52,29.81-37.87,35.53-62.06,3.46-14.64-1.52-26.99-10.45-38.24-.85-1.07-3.17-5.53-4.38-6.21-2.05-3.09-2.98-2.62-5.03-5.71l6.29-16.02c10.8-26.17,22.06-52.14,32.78-78.34,2.85-6.96,4.66-14.39,6.48-21.72,1.57-6.33-1.07-10.98-7.1-13.52-6.22-2.62-12.66-4.68-19.42-5.14-12.48-.84-16.65,1.31-21.41,12.92-11.46,27.99-22.42,56.19-33.63,84.29-1.35,3.38-2.92,6.66-4.47,9.96-1.08,2.3-2.16,4.89-5.49,3.84-2.91-.91-2.18-3.55-2.26-5.68-.74-19.17,1.18-38.19,4.6-56.96,4.17-22.88,9.67-45.52,13.96-68.38,3.27-17.43-4.42-25.43-22.23-24.23-2.77.19-5.51.89-8.25,1.45-11.28,2.32-17.86,8.53-20.11,20.47-4.81,25.58-5.22,51.36-5.36,77.2-.11,20.52-1.31,40.95-3.84,61.31-.3,2.44-.06,5.94-2.79,6.54-3.52.77-4.17-3.18-5.37-5.45-7.23-13.71-8.74-28.91-10.78-43.89-2.98-21.98-5.43-44.02-6.92-66.16-.91-13.58-4.41-15.84-17.15-11.31-4.2,1.49-8.22,3.57-12.17,5.67-19.35,10.3-23.16,19.24-17.65,40.49,6.82,26.31,17.09,51.64,22.32,78.38,1.45,7.42,1.94,15.02,2.82,22.54.33,2.81.67,5.52-2.83,7.06-2.86,1.26-5.34,1.37-7.91-.4-5.85-4.02-10.6-9.17-14.97-14.68-10.41-13.11-17.18-28.23-23.28-43.62-6.63-16.73-11.38-18.29-25.61-7.58-11.6,8.73-14.4,18.25-8.53,31.72,7.46,17.11,16.86,33.23,31.1,45.49,11.32,9.75,18.34,21.73,22.93,35.45,6.98,20.86,21.06,39.12,35.82,55.42.3.34,1.69,1.78,2,3.94.14.97.02,1.78-.08,2.26"/>
        <path class="cls-11" d="M95.99,349.24c-.16,7.74,3.96,8.87,10.95,8.73,12.76-.26,25.54.89,38.31,1.45,15.05-.37,30.04.47,44.99,2.22,7.45,1.64,15.1-.58,22.54,1.22,3.89,0,7.78,0,12.12,0-.03.11.26-.54.26-1.18-.11-12.85-.16-12.47-13.69-13.8-36.09-3.57-72.3-2.97-108.47-3.88-3.96-.1-7.48-.27-7.02,5.24Z"/>
        <path class="cls-4" d="M270.53,78.5c-1.38,12.9-8.36,22.66-17.2,24.53-1.43.3-7.08,1.28-11.11-1.99-5.84-4.73-6.37-16.75.89-28.87"/>
        <path class="cls-4" d="M194.52,33.87c1.84,12.84-2.51,24.02-10.6,28.02-1.32.65-6.54,2.99-11.26.82-6.82-3.14-10.31-14.65-6.28-28.19"/>
        <path class="cls-4" d="M110.65,73.47c5.17,11.9,3.92,23.83-2.84,29.82-1.1.97-5.52,4.61-10.64,3.76-7.41-1.23-13.81-11.42-13.49-25.54"/>
        <path class="cls-4" d="M37.73,149.67c6.45,7.29,8.33,16.09,4.91,21.94-.56.95-2.87,4.57-6.72,5.16-5.57.85-12.51-4.94-15.56-15.09"/>
        <g>
          <g>
            <path class="cls-1" d="M211.83,263.42c-9.04-22.42-29.52-36.79-51.65-36.32-20.59.44-39.38,13.65-48.53,34.06,4.71,4.85,21.22,20.65,46.69,22.37,29.23,1.97,49.2-16.04,53.48-20.1Z"/>
            <g>
              <path class="cls-9" d="M190.55,237.18l-.49-.37s.11.12.49.37Z"/>
              <path class="cls-9" d="M166.99,282.84s.1-.01.14-.02c-.1,0-.14.01-.14.02Z"/>
              <path class="cls-9" d="M168.95,226.63s.02,0,.03,0c.05,0,.11.01.16.02l-.2-.02Z"/>
              <path class="cls-9" d="M197.37,240.74c-.78-.71-1.49-1.35-2.15-1.94-.65-.61-1.32-1.07-1.91-1.55-.6-.48-1.17-.92-1.71-1.36-.58-.39-1.13-.78-1.69-1.16-.56-.38-1.13-.76-1.72-1.16-.6-.37-1.26-.72-1.94-1.1-.7-.37-1.41-.81-2.25-1.2-.84-.37-1.75-.77-2.76-1.22-3.87-1.61-8.2-2.84-12.25-3.42-.97-.08-2.31-.17-3.69-.33-.69-.09-1.39-.12-2.07-.12-.67,0-1.32,0-1.89.02l-.89-.12c-.79.05-1.71.18-2.51.16l.05-.03c-.59.08-1.21.12-1.77.16-.55.08-1.02.14-1.31.2l.05-.04-1.42.21.24-.08c-.51.1-1.02.17-1.53.27-.51.12-1.01.23-1.51.35-.99.24-1.98.38-2.88.66l.18.08c-1.93.5-3.24.88-4.45,1.41-1.22.49-2.4.93-4.05,1.65l.03-.05c-2.02,1.05-3.56,1.97-5.19,2.78-1.54.96-3.17,1.83-4.91,3.42.44-.38-.24.1-.22.05-.42.33-.86.67-1.27.99-.38.35-.74.68-1.06.98-.62.59-1.01,1.02-.94,1.12-1.19,1.02-.99.8-1.21.87.08.07-.85,1.06-1.71,1.93l.37-.43c-.4.42-.83.82-1.22,1.26l-1.14,1.33.6-.38c-1.26,1.35-.5.19-1.63,1.56l.14.09c-.84.96-1.48,1.76-2.17,2.5-.7.74-1.33,1.52-2.06,2.53-.47.72-.99,1.42-1.41,2.17-.43.76-.86,1.51-1.29,2.27-.45.75-.82,1.55-1.2,2.34l-1.37,2.88,1.34,1.34.96.91c.64.61,1.31,1.19,1.96,1.78.67.57,1.34,1.14,2.01,1.7.68.55,1.36,1.09,2.04,1.63,2.73,2.12,5.53,4.01,8.23,5.76l.3.32c.07.25,2.43,1.1,2.68,1.4l1.04.43c.26.17.84.5.32.29.92.48.96.46,1.64.75l.96.56c.93.43,1.82.84,2.71,1.22.91.33,1.81.65,2.71.98.9.34,1.83.61,2.78.88.96.27,1.92.62,2.96.88,1.24.34,2.76.81,4.45,1.13,1.7.28,3.54.69,5.43.81.94.08,1.89.17,2.82.25.93.05,1.86.03,2.75.04.89,0,1.75.01,2.56.02.81,0,1.57-.1,2.27-.14.98-.09,1.98-.16,2.99-.22,1.01-.09,2.03-.26,3.07-.37,2.08-.18,4.17-.62,6.28-.99,4.17-.92,8.36-2.1,11.97-3.91.25-.08.85-.39.84-.41,2.24-1.02,4.44-2.09,6.58-3.31,0,0,.12-.07.35-.19.23-.12.55-.3.94-.55.78-.49,1.9-1.13,3.11-1.96,2.45-1.6,5.32-3.81,7.37-5.66,2.06-1.85,3.33-3.29,2.86-3.11-.25.08-.92.57-2.22,1.51-1.31.94-3.21,2.37-6.04,4.15l.12-.14c-3.28,2.21-5.4,3.5-7.7,4.99-.25,0-.96.38-1.72.82-.76.43-1.6.84-2.03,1.02l.07-.06c-1.04.62-2.18,1.13-3.34,1.54-1.16.42-2.27.91-3.35,1.34.08-.05.1-.13.6-.31-1.58.58-3.75,1.41-3.91,1.3-3.85,1.24-9.37,2.31-11.93,2.75l.17-.06c-1.45.35-1.89.3-3.53.44-.09-.01-.21-.02-.19-.03-.8.12-1.97.19-3.11.24-1.14,0-2.23-.07-2.88-.05l-.08-.1c-1.07-.04-2.14,0-3.2-.11.4.05.79.1,1.19.1-.44.3-2.4-.39-4.73-.44-1.08-.14-2.18-.24-3.3-.3-.56-.04-1.13-.07-1.69-.14-.56-.1-1.11-.22-1.66-.39-1.08-.14.97.03-.62-.26-.02-.15.75.09.38-.11-.78-.16-1.4-.34-2.07-.54-.66-.23-1.36-.48-2.3-.72l-.04-.13c-.62-.14-1.22-.31-1.79-.49-.56-.21-1.09-.43-1.59-.64-1.01-.44-1.93-.77-2.73-1.06-1.22-.49-1.59-.74-1.98-.99-.39-.24-.8-.46-2.05-1l-.88-.61c-1.02-.56-.84-.2-1.93-.91.11-.04-1.38-.88-.68-.57-2.47-1.55-5.2-2.91-8.15-5.42-.79-.35-2.23-1.65-2.8-1.95-.05-.1-2.94-2.55-1.19-1.24.15.11.4.33.36.34l.26.09c-1.54-1.57-3.06-2.56-4.59-4.11.43.48,1.06,1.07.6.72l-.72-.71-.33-.35c.06.02.12.04.17.04l-.06-.08c-.03.1.52-1,.86-1.67l-.28.32c.69-1.3,1.06-1.68,1.77-3.18.3-.69-.82,1.14-.08-.23.53-.83,1.14-1.9,1.92-2.94.76-1.05,1.49-2.2,2.3-3.16-.24.11.17-.42.57-.99h.13c1.5-2.2.76-.63,2.39-2.7l-.1.22.29-.67c1.41-1.94,1.02-.8,2.66-2.89-.73.75-.52.18.43-.7l-.16.31c.49-.52.63-.72,1.01-1.01-.28.32-.07.26.71-.44l-.44.56,1.37-1.44c.31-.23.64-.51.99-.8.36-.27.73-.55,1.08-.82.7-.53,1.31-.99,1.6-1.12,0,0,.16-.13.43-.3.27-.17.63-.41,1.02-.65.77-.5,1.6-1.07,1.87-1.34-.25.23,0,.09.29-.04.29-.12.59-.24.39-.07.69-.48,2.81-1.87,3.81-2.12l-.17.09c.85-.36,1.64-.72,2.38-1.07.75-.33,1.48-.6,2.19-.9,1.41-.63,2.85-1.04,4.46-1.45-.09-.04.29-.17.64-.28.35-.1.67-.19.44-.22,1.67-.43,3.23-.74,4.53-.83,1.29-.12,2.3-.32,2.9-.56,1.57-.12,1.87,0,2.69-.02l-.37.05c.73-.07,1.34-.07,1.87-.06.53,0,.98.01,1.41.02.86.02,1.62,0,2.71.14,1.09.07,1.29-.16,3.24.13-.64-.03.15.1.88.24-.46-.07-.61-.07.33.17.14,0,.35.02.54.04,0,0,.04.02.02.03,1.21.19,1.01.13.45.01.03,0-.01-.03-.18-.09.61.19,1.5.29,2.21.52.72.2,1.31.37,1.36.46.89.25,1.73.4,2.5.68.77.25,1.51.49,2.22.72.36.11.71.23,1.07.34l1.02.42c.68.29,1.37.57,2.08.87.28.21-.41-.02-1.23-.36.66.3,1.34.56,1.99.88-.05.07-1.17-.46-1.78-.72.57.32,1.17.57,1.77.88.59.3,1.2.61,1.82.93.62.32,1.27.6,1.89,1,.61.39,1.23.8,1.85,1.25l.58.27.14.11s.64.26,1,.54c.28.34-.16.17,1.04,1.08.44.4,1.13.89,1.84,1.43.69.56,1.43,1.16,2.03,1.65-.62-.57-.38-.43-.08-.22.56.5.84.84,1.28,1.23l-.04.15c-.12-.3,1.47,1.31,1.71,1.47.23.38-.88-.78-1.07-.86,1.06,1.08,1.33,1.34,1.59,1.61.13.13.26.27.5.51.21.25.52.61,1.01,1.19,1.12,1.17-.09-.31.5.21.48.53.95,1.06,1.44,1.61.45.58.9,1.19,1.35,1.88l-.21-.49c1.71,2.09,2.49,3.52,3.36,5.11.73,1.02,1.24,2.02,1.78,2.85.51.85.99,1.57,1.32,2.25.7,1.32,1.21,2.23,1.56,2.82.7,1.17.76,1.04.59.32-.2-.71-.69-2-1.13-3.11-.42-1.12-.89-2.02-.89-2.02-.89-1.81-1.67-3.41-2.6-4.81-.45-.71-.89-1.4-1.32-2.08-.49-.65-.97-1.29-1.46-1.94-.5-.64-.97-1.32-1.54-1.96-.57-.64-1.16-1.3-1.78-2-.6-.72-1.3-1.41-2.05-2.14-.76-.72-1.5-1.56-2.42-2.33Z"/>
            </g>
          </g>
          <path d="M129.51,249.5c2.36,19,18.46,32.32,35.95,29.75,17.49-2.56,29.76-20.04,27.4-39.04-2.36-19-18.46-32.32-35.95-29.75-17.49,2.56-29.76,20.04-27.4,39.04Z"/>
          <path class="cls-8" d="M164.08,228.79c-4.91,10.47-9.82,20.93-14.72,31.4,3.78.04,7.55.09,11.33.13v14.65c1.16-.12,2.31-.24,3.47-.35-.02-15.27-.05-30.55-.07-45.82Z"/>
          <path class="cls-3" d="M212.46,264.16c.4-.41-.47-1.64-2.79-7.23-5.62-13.55-9.64-19.64-12.28-23.44-3.58-5.16-14.53-20.93-32.97-23.35-19.71-2.58-34.21,11.89-35.94,14.25-.92,1.26-1.88,2.69-1.88,2.69-1.54,2.26-2.7,4.26-3.51,5.72.74-.65,1.65-1.35,2.73-2.01,1.53-.93,2.96-1.51,4.14-1.88-2.28,1.85-4.75,4.21-7.16,7.22-7.29,9.08-10.03,19.09-11.15,25.02,22.26-30.14,39.31-36.3,51.64-34.88,25.49,2.94,46.98,40.12,49.17,37.89Z"/>
          <path class="cls-12" d="M162.6,258.48l.26-.03s-.07.03-.26.03Z"/>
          <path class="cls-12" d="M159.67,260.88s.04,0,.06.01c-.04,0-.05-.01-.06-.01Z"/>
          <path class="cls-12" d="M164.34,263.86s.01,0,.01,0c.02,0,.05,0,.07,0h-.09Z"/>
        </g>
      </g>
      <path class="cls-14" d="M212.78,362.86c-7.43-1.91-15-1.36-22.54-1.22,7.38,2.82,15.01,1.1,22.54,1.22Z"/>
      <path class="cls-2" d="M73.66,359.6c-4.28,6.25-1.61,15.45.7,21.28.11,10.59.21,21.18.32,31.77-.57,1.89-.99,4.52.07,7.02,5.06,11.87,36.02,2.57,83.19,3.68,42.94,1.01,73.32,10.05,81.13-3.91.75-1.35,1.12-2.59,1.3-3.39-.36-10.16-.71-20.32-1.07-30.49,4.35-7.28,9.13-17.56,5.11-24.2-7.37-12.17-35.89,1.68-83.08,1.21-49.25-.49-78.62-16.17-87.67-2.96Z"/>
      <g>
        <path class="cls-8" d="M161,375.45c0-.07-.04-.1-.1-.1-.35-.07-.56-.1-.63-.1v.1l.31.05s.17-.02.42.05Z"/>
        <path class="cls-8" d="M124.87,399.71s.03-.05.04-.11c-.04.09-.06.12-.04.11Z"/>
        <path class="cls-8" d="M155.19,375.97l.1.05h.1s.07.02.21-.05c-.07-.03-.23-.06-.47-.08-.24-.02-.4,0-.47.03,0,.04.07.05.21.05h.31Z"/>
        <g>
          <path class="cls-8" d="M97.98,389.33c-.07.04-.21.18-.41.44-.2.26-.39.48-.58.66.04,0,.03.04-.03.11-.05.07-.05.09.03.05l.82-.93c.07-.11.1-.17.08-.19-.02-.02,0-.06.08-.14ZM98.97,396.8l.05-.05-.05.05ZM99.02,396.85s.05.02.05.05c0-.04-.02-.05-.05-.05ZM99.13,396.85h.05-.05ZM99.35,396.91h-.11.11ZM99.41,396.91s.02.05.05.05l-.05-.05ZM101.6,384.72s.05-.07.05-.11c-.15.04-.24.13-.27.27-.04.15.04.09.22-.16ZM103.96,396.8s.02-.06-.05-.08c-.07-.02-.16-.02-.27,0-.11.02-.2.03-.27.03s-.09-.02-.05-.05c-.22.04-.37.06-.44.08-.07.02-.24.05-.49.08h-.16s-.14.05-.3.05-.27.02-.3.05c.22,0,.52-.03.91-.08s.61-.06.69-.03l.77-.05ZM119.84,389.65s-.11.17-.09.26c.02.09.18.13.21.04-.13.04-.26.08-.4.12.55.02,1.1.04,1.65.06-.54-.02-1.88-.15-1.96.62.21-.05.37.01.58.01.29-.04.63-.05,1.02-.05s.83.04,1.34.11c.04.07-.04.11-.22.11s-.2.04-.05.11c.22.07.37.1.44.08.07-.02.22-.03.44-.03.07-.07.2-.09.38-.05.18.04.37.09.55.16l.22.05c.22.04.44.09.66.16.22.07.46.15.71.22.26.11.51.24.77.38.26.15.51.33.77.55.11.15.22.28.33.41.11.13.2.27.27.41.18.29.31.62.38.99.07.33.11.64.11.93s-.02.55-.05.77c-.07.11-.12.19-.14.25-.02.05-.03.14-.03.25l-.05.05s-.02.05-.05.05c.04-.11.07-.23.11-.36.04-.13.07-.26.11-.41.04-.18.06-.38.08-.6.02-.22,0-.44-.08-.66-.07-.55-.24-1.01-.49-1.37-.07-.11-.16-.22-.25-.33-.09-.11-.17-.22-.25-.33l-.66-.49c-.48-.29-.82-.44-1.04-.44-.22-.11-.35-.16-.38-.16s-.18-.04-.44-.11c-.18-.07-.33-.11-.44-.11s-.22-.02-.33-.05c-.07,0-.16,0-.25-.03-.09-.02-.23-.03-.41-.03-.04.07.04.11.22.11s.27.02.27.05v.05c-.07-.04-.15-.05-.22-.05s-.16-.02-.27-.05c-.18-.04-.31-.05-.38-.03-.07.02-.2,0-.38-.03-.37,0-.74,0-1.12.03-.38.02-.69.06-.91.14.22.04.46.05.71.05h.82c.26,0,.5,0,.74.03.24.02.45.05.63.08-.18.04-.41.05-.69.03-.27-.02-.56-.05-.85-.08h-.8c-.24,0-.39.02-.47.05.18.04.36.05.52.05h1.02c.26.04.47.05.63.05s.32.02.47.05c.15,0,.29,0,.44.03.15.02.33.05.55.08.07.04.16.06.27.08.11.02.2.05.27.08.26.07.35.13.27.16-.04,0-.07,0-.11-.03-.04-.02-.07-.03-.11-.03-.29-.07-.59-.15-.88-.22-.29-.07-.53-.09-.71-.05-.26-.04-.43-.05-.52-.05s-.28-.02-.58-.05h-.22c-.33-.04-.6-.05-.8-.03-.2.02-.45.03-.74.03-.07.04-.22.05-.44.03-.22-.02-.38,0-.49.08-.04.07.05.08.27.03s.31-.05.27.03h1.21c.26-.04.42-.05.49-.03.07.02.22.05.44.08-.07.07-.18.1-.33.08-.15-.02-.31-.03-.49-.03h-.38c-.22-.04-.38-.04-.49,0-.11.04-.29.05-.55.05h-.33s-.05.05-.16.05h-.6c-.07,0-.05.02.05.05l.82-.05h.33v-.05c.18.04.28.05.3.05s.12-.02.3-.05c.29.04.6.05.93.03.33-.02.66,0,.99.03.73,0,1.26.05,1.59.16h-.33c-.44-.07-.96-.12-1.56-.14-.6-.02-1.25,0-1.95.03-.04.04-.07.05-.11.05s.04,0,.22,0h.22c.4,0,.81,0,1.23.03.42.02.85.06,1.29.14.44.07.89.16,1.34.25.46.09.89.25,1.29.47.07.07.15.13.22.16.07.04.16.11.27.22.44.29.68.68.71,1.15.11.4.09.86-.05,1.37-.07.18-.14.35-.19.49-.05.15-.1.26-.14.33-.07.07-.11.1-.11.08s.04-.14.11-.36c.07-.07.12-.16.14-.27.02-.11.05-.2.08-.27.11-.48.15-.91.11-1.32-.11-.48-.33-.82-.66-1.04-.15-.18-.33-.33-.55-.44-.07-.07-.16-.13-.25-.16-.09-.04-.23-.09-.41-.16-.22-.07-.48-.16-.77-.25-.29-.09-.53-.12-.71-.08-.11,0-.22,0-.33-.03-.11-.02-.22-.03-.33-.03s-.36-.03-.74-.08c-.38-.05-.67-.06-.85-.03-.18.04-.37.06-.55.08-.18.02-.38.03-.6.03h-.11c-.29,0-.58,0-.85.03-.27.02-.52.05-.74.08l-.05.05h.38c.07-.07.24-.1.49-.08.26.02.48,0,.66-.03h.44s-.02.05-.05.05-.05.02-.05.05h-.33c-.07.04-.15.05-.22.03-.07-.02-.13,0-.16.08-.18-.04-.32-.04-.41,0-.09.04-.25.05-.47.05-.15.07-.29.11-.44.11l-.05.16c.18,0,.35-.02.49-.05.15-.04.26-.02.33.05-.15.04-.29.05-.44.05s-.29.02-.44.05l-.27.49-.44.77-.16.27-.05.22-.44.77c-.07.15-.13.2-.16.16.07-.18.18-.39.33-.63.15-.24.24-.43.27-.58l-.22.38-.44.77-.11.33-.11.16h-.05c-.26.55-.54,1.14-.85,1.78-.31.64-.56,1.16-.74,1.56-.04.18-.1.33-.19.44-.09.11-.12.2-.08.27-.07.07-.12.16-.14.25-.02.09-.05.14-.08.14l-.11.22c-.04.07-.08.2-.14.38-.05.18-.1.37-.14.55-.07.04-.15.13-.22.27-.04-.07,0-.18.08-.33.09-.15.12-.26.08-.33l.05-.11c.07-.07.12-.17.14-.3.02-.13.08-.28.19-.47.04-.11.04-.16,0-.16-.07.07-.15.2-.22.38-.07.18-.13.27-.16.27-.07.15-.1.24-.08.27.02.04,0,.09-.08.16-.07.18-.12.34-.14.47-.02.13-.06.28-.14.47-.11.33-.24.64-.38.93l-.05.22-.05.05c-.11.33-.19.53-.25.6-.05.07-.16.31-.3.71-.04.04-.05.07-.05.11-.07.18-.15.34-.22.47-.07.13-.15.3-.22.52-.07.11-.12.27-.14.47-.02.2-.06.32-.14.36-.04-.15,0-.28.08-.41.09-.13.12-.25.08-.36.07-.15.17-.38.3-.71.13-.33.16-.46.08-.38-.07.18-.14.34-.19.47-.05.13-.12.23-.19.3.04-.07.05-.16.05-.27s-.04-.05-.11.16l-.05.05c-.07.15-.13.31-.16.49-.04.18-.09.29-.16.33v.11c-.11.29-.21.57-.3.82-.09.26-.17.53-.25.82-.04.11-.06.26-.08.44-.02.18-.06.27-.14.27l-.11.33s-.06.05-.08.16c-.02.11-.03.2-.03.27-.11.55-.23,1.06-.36,1.54-.13.48-.23.93-.3,1.37-.07.22-.1.27-.08.16.02-.11,0-.18-.03-.22.07-.26.14-.51.19-.77.05-.26.06-.46.03-.6-.11.4-.2.86-.27,1.37-.07.51-.13.93-.16,1.26h-.11c.07-.29.11-.53.11-.71.07-.29.09-.48.05-.55l.16-.82.22-.88c.04-.07.07-.2.11-.38.04-.18.05-.33.05-.44l.05-.33c.07-.26.12-.47.14-.63.02-.16.08-.37.19-.63-.07.07-.16.27-.27.6-.11.33-.16.62-.16.88l-.05.11c-.07.18-.14.4-.19.66-.05.26-.1.49-.14.71-.04.22-.07.38-.11.49-.04.11-.05.11-.05,0,.04-.29.06-.48.08-.55.02-.07.05-.22.08-.44v-.11c.04-.18.06-.37.08-.55.02-.18.05-.35.08-.49v-.22s-.08,0-.14.11c-.05.11-.05.05.03-.16-.07,0-.12.09-.14.27-.02.18-.05.33-.08.44-.04.15-.07.25-.11.3-.04.05-.07.17-.11.36,0,.07-.03.18-.08.33-.05.15-.05.22.03.22,0,.07,0,.13-.03.16-.02.04-.03.07-.03.11-.07.29-.09.44-.05.44-.04.11-.05.19-.05.25s-.02.12-.05.19c-.04.26-.07.56-.11.91-.04.35-.09.72-.16,1.12-.07.04-.11-.03-.11-.19s-.04-.19-.11-.08c-.07.18-.1.31-.08.38.02.07.03.2.03.38.07.04.09.15.05.33-.04.18-.05.33-.05.44-.04.04-.05.11-.05.22v1.04c0,.37.02.73.05,1.1,0,.73.11,1.37.33,1.92,0,.11.02.2.05.27v.05s-.02.05-.05.05c-.07-.22-.11-.38-.11-.49-.07-.22-.12-.44-.14-.66-.02-.22-.05-.46-.08-.71-.07-.26-.1-.55-.08-.88.02-.33,0-.59-.08-.77.04-.18.05-.28.03-.3-.02-.02,0-.14.03-.36v-1.15c-.07-.04-.1.02-.08.16.02.15,0,.24-.08.27,0-.07,0-.15.03-.22.02-.07.03-.15.03-.22.04-.18.05-.3.03-.36-.02-.05-.03-.16-.03-.3.04-.33.07-.68.11-1.04.04-.37.02-.64-.05-.82-.11.4-.17.86-.19,1.37-.02.51-.06.91-.14,1.21-.04-.15-.05-.34-.03-.58.02-.24.05-.5.08-.8.04-.26.07-.49.11-.71.04-.22.02-.37-.05-.44-.04.18-.05.35-.05.49s-.02.31-.05.49l-.05.22v.22c-.07.44-.11.77-.11.99v.88c-.04.15-.05.33-.03.55.02.22,0,.29-.08.22v-.99c.04-.26.04-.48,0-.66,0-.22,0-.37.03-.44.02-.07.05-.26.08-.55l.05-.22c.07-.29.1-.53.08-.71-.02-.18,0-.42.08-.71-.04-.07-.03-.21.03-.41.05-.2.08-.36.08-.47-.07-.07-.11,0-.11.25s-.04.32-.11.25l-.05.44c-.07.29-.11.51-.11.66-.04.26-.05.42-.05.49s-.04.2-.11.38c-.07-.11-.07-.37,0-.77l.05-.33c.07-.22.1-.38.08-.49-.02-.11,0-.27.08-.49l.05-.33s-.05-.05-.03-.16c.02-.11.05-.22.08-.33.04-.11.05-.19.05-.25s-.02-.05-.05.03l-.16.82-.05.33-.05.27v.27c-.07.29-.12.59-.14.91-.02.31-.05.61-.08.91v.88c0,.26-.02.48-.05.66-.04,0-.05-.04-.03-.11.02-.07,0-.11-.03-.11v-.11c0-.4.03-.91.08-1.51s.12-1.23.19-1.89c-.04,0-.05-.02-.05-.05s-.02.02-.05.16v.22c-.11.73-.22,1.55-.33,2.44-.11.9-.13,1.76-.05,2.61-.04.11-.04.19,0,.25.04.05.05.16.05.3.07.4.13.8.16,1.21.04.4.11.8.22,1.21.04.33.11.58.22.77.04.07.04.11,0,.11s-.09-.09-.16-.27c-.04-.15-.09-.33-.16-.55-.07-.4-.14-.8-.19-1.18-.05-.38-.12-.76-.19-1.12v-.71c-.04-.11-.05-.33-.05-.66-.04-.22-.03-.49.03-.8.05-.31.05-.54-.03-.69,0-.11,0-.22.03-.33.02-.11.03-.22.03-.33s.04-.36.11-.74c.07-.38.09-.67.05-.85v-.52c0-.2.04-.41.11-.63v-.11c.07-.44.15-.86.22-1.26.07-.4.13-.77.16-1.1-.07.15-.11.32-.11.52s-.04.41-.11.63c0,.07-.03.23-.08.47-.05.24-.1.45-.14.63l-.05.44s-.05-.02-.05-.05v-.05c0-.15.02-.26.05-.33-.04-.07-.05-.15-.03-.22.02-.07,0-.13-.03-.16.07-.18.1-.33.08-.44-.02-.11,0-.26.08-.44-.07-.15-.08-.36-.03-.63.05-.27.12-.56.19-.85.07-.18.13-.36.16-.52.04-.16.05-.3.05-.41l.05-.11c-.07-.07-.07-.18,0-.33-.04,0-.06.05-.08.16-.02.11-.05.2-.08.27l-.05.11h.05l-.16.66c.04.07.02.21-.05.41-.07.2-.13.38-.16.52-.04.15-.06.33-.08.55-.02.22-.06.37-.14.44,0-.29.05-.63.14-1.02.09-.38.1-.67.03-.85.04-.07.05-.14.03-.19-.02-.05,0-.14.03-.25.11-.07.15-.16.11-.27-.04-.11-.02-.26.05-.44-.07-.07-.11-.03-.11.14s-.04.23-.11.19c.07-.33.15-.54.22-.63.07-.09.15-.28.22-.58l.11-.44c0-.07,0-.16-.03-.25-.02-.09,0-.21.03-.36-.07.04-.16.2-.27.49-.07.22-.14.43-.19.63-.05.2-.06.34-.03.41-.04.04-.07.1-.11.19-.04.09-.07.17-.11.25.07-.22.13-.41.16-.58.04-.16.05-.32.05-.47.11-.22.16-.4.16-.55-.07.07-.14.2-.19.38-.05.18-.12.26-.19.22-.07.11-.1.19-.08.25.02.05,0,.12-.03.19-.04,0-.05-.02-.03-.05.02-.04,0-.05-.03-.05.04-.07.05-.13.03-.16-.02-.04,0-.09.03-.16l.05-.27.16-.44c.04-.22.07-.35.11-.38.04-.04.05-.05.05-.03s0,.05.03.08c.02.04.05.02.08-.05.07,0,.13-.07.16-.22l.05-.11c.07-.22.11-.35.11-.38s.04-.16.11-.38c0-.18.04-.37.11-.55.04-.07.05-.13.05-.16s.02-.09.05-.16c-.04-.04-.05-.08-.03-.14.02-.05.03-.1.03-.14-.07.15-.13.24-.16.27-.04.04-.07.07-.11.11l.11-.33v-.11l.16-.33c-.07-.04-.06-.14.03-.3.09-.16.16-.32.19-.47v-.05c0-.07.02-.13.05-.16,0-.18-.02-.2-.05-.05-.04.15-.09.18-.16.11l.11-.33.11-.22s-.05-.02-.03-.05c.02-.04,0-.05-.03-.05l-.16.49c-.04.18-.13.47-.27.85-.15.38-.24.67-.27.85l-.11.33c-.04.07-.05.07-.05,0,.07-.22.14-.42.19-.6.05-.18.1-.37.14-.55.11-.11.15-.2.11-.27-.04-.07,0-.2.11-.38.18-.51.37-.99.55-1.43-.04,0-.05-.02-.03-.05.02-.04,0-.02-.08.05-.07.26-.15.38-.22.38,0,.07-.02.13-.05.16-.11.11-.13.16-.05.16-.11.26-.18.47-.22.63-.04.16-.09.32-.16.47.04.04.04.09,0,.16-.04.07-.07.13-.11.16l-.05.11-.11.33-.11.22c.07-.26.09-.46.05-.6l.05-.11c-.04-.07,0-.24.11-.49.11-.26.2-.42.27-.49.07-.18.08-.27.03-.27s-.03-.09.08-.27c.07-.18.09-.29.05-.33-.04-.04-.05-.09-.05-.16.07-.07.14-.18.19-.33.05-.15.08-.26.08-.33,0-.18.04-.31.11-.38.07-.07.15-.2.22-.38l.05-.11c.11-.15.11-.22,0-.22.07-.22.2-.44.38-.66.07-.22.16-.45.27-.69.11-.24.16-.41.16-.52h-.05c.07-.11.11-.19.11-.25s.02-.12.05-.19c.15-.26.21-.42.19-.49-.02-.07.03-.22.14-.44h-.11c-.07.07-.12.16-.14.27-.02.11-.06.24-.14.38-.07-.04-.08-.1-.03-.19.05-.09.05-.12-.03-.08l.11-.33-.05.05c-.15.07-.27.09-.38.05-.11-.04-.26-.04-.44,0h-.11c-.15,0-.22.04-.22.11-.07.04-.18.05-.33.05h-.44c-.4.07-.81.14-1.23.19-.42.05-.72.12-.91.19-.22.04-.38.06-.47.08-.09.02-.21.05-.36.08-.26,0-.45.02-.58.05-.13.04-.25.06-.36.08-.11.02-.23.05-.36.08-.13.04-.3.05-.52.05.04.04-.04.05-.22.05.18.07.39.08.63.03.24-.05.56-.1.96-.14-.04.07-.14.11-.3.11s-.23.04-.19.11c-.55.07-.89.09-1.02.05-.13-.04-.38-.02-.74.05.4-.07.51-.14.33-.19-.18-.05-.48-.08-.88-.08h-.16s-.09.05-.16.05-.11.02-.11.05l-.16.22c-.22-.04-.38-.06-.47-.08-.09-.02-.23,0-.41.03h-.33l-.05.05c-.22-.07-.4-.11-.55-.11-.26,0-.3,0-.14.03.16.02.19.06.08.14-.18-.07-.35-.12-.49-.14-.15-.02-.26-.05-.33-.08-.18-.07-.3-.12-.36-.14-.05-.02-.12-.05-.19-.08-.07-.07-.14-.12-.19-.14-.05-.02-.12-.06-.19-.14-.29-.11-.57-.29-.82-.55-.11-.11-.19-.22-.25-.33s-.12-.22-.19-.33c-.07-.11-.13-.21-.16-.3-.04-.09-.07-.17-.11-.25,0-.11-.04-.13-.11-.05,0,.07-.02.11-.05.11v-.11c-.04-.07-.06-.12-.08-.14-.02-.02-.03-.1-.03-.25-.04-.07-.02-.15.05-.22.07-.04.1.04.08.22-.02.18,0,.24.08.16v-.44c0-.11-.02-.2-.05-.27v-.27l.11-.44s-.05-.14-.05-.3-.04-.1-.11.19c-.07.04-.08-.02-.03-.16.05-.15.05-.24-.03-.27l.05-.11v-.11l.16-.27.33-.55c-.07-.04-.02-.2.16-.49,0-.04.07-.2.22-.49.65-1.3,1.57-2.16,2.14-2.62.19-.16.35-.27.41-.31.01,0,.02-.02.02-.02.3-.21,22.56-21.43,23.32-20.85.35.27-3.19,5.75-16.1,23.47.62-.05,1.23-.11,1.85-.16-.28.06-.55.12-.83.19,1.31.19,3.02.19,4.73-.55.18-.08.35-.16.52-.25-.12-.07-.27-.15-.43-.21-.37-.14-.7-.18-.94-.18-.03,0,.6-.07,1.26-.06.1,0,.18,0,.24,0,2.4-6.1,4.8-12.19,7.2-18.29.79,12.75,1.03,18.28.88,18.49ZM106.96,396.4l.83-.12c.09-.04.18-.08.28-.12.09-.04.18-.08.28-.12l.28-.06c.23-.04.37-.04.41,0,.05.04.16.04.35,0,0-.04.03-.07.1-.09.07-.02.13-.05.17-.09l-.62.06-.83.12.14-.12h.14c.37-.04.63-.08.79-.12.16-.04.4-.08.73-.12.05-.04.14-.08.28-.12.14-.04.05-.04-.28,0l-.83.12c-.28.08-.54.11-.79.09-.25-.02-.43.01-.52.09-.09,0-.22.01-.38.03-.16.02-.27.07-.31.15-.41.04-.73.08-.93.12-.21.04-.5.08-.86.12,0,.08.07.1.21.06.37-.04.63-.08.79-.12.16-.04.43-.08.79-.12,0,.04-.03.06-.1.06s-.1.02-.1.06c-.37.04-.59.07-.66.09-.07.02-.24.05-.52.09l-.21.06c-.51,0-.9.06-1.18.17.32,0,.53.02.62.06l.97-.12.97-.12ZM106.32,411.45c0,.11-.04.35-.11.71,0,.07-.04.11-.11.11.07-.26.09-.42.05-.49l.05-.33h.11ZM106.49,405.25c0,.07-.03.25-.08.52s-.12.45-.19.52v-.27l.05-.11v-.11c.07-.07.12-.18.14-.33.02-.15.05-.22.08-.22ZM107.37,404.81s-.03.14-.08.3l-.16.49c-.05.16-.1.3-.14.41-.04.11-.02.13.05.05.07-.15.13-.25.16-.3.04-.05.05-.14.05-.25.04-.15.06-.26.08-.36.02-.09.06-.26.14-.52l.11-.22s-.04-.13,0-.27l-.22.55v.11ZM107.42,402.72c-.15.4-.22.71-.22.93l-.11-.05.22-.66s.05-.08.05-.14.02-.08.05-.08ZM107.81,413.42c0-.07,0-.16.03-.25.02-.09.03-.17.03-.25,0-.11-.02-.16-.05-.16-.04.04-.05.15-.05.33s.02.29.05.33ZM108.35,399.49s.05.02.03.05c-.02.04,0,.07.03.11l-.05.11c-.11.26-.18.46-.22.6-.04.15-.11.33-.22.55.04.04.04.11,0,.22-.04.11-.02.05.05-.16l.27-.66c.07-.22.16-.4.27-.55.11-.15.15-.27.11-.38.11-.22.15-.38.11-.49.11-.18.17-.33.19-.44.02-.11.06-.26.14-.44,0,.04,0,.05-.03.03-.02-.02-.05,0-.08.08-.07.18-.12.31-.14.38-.02.07-.06.2-.14.38-.04-.04-.05-.06-.03-.08s0-.05-.03-.08c.07-.15.11-.24.11-.27s.04-.13.11-.27l.05-.11c.11-.22.16-.4.16-.55-.07.07-.12.13-.14.16-.02.04-.05.07-.08.11l-.22.44-.16.44-.16.38c0,.22-.02.38-.05.49l-.11.22c-.04.18-.07.28-.11.3-.04.02-.07.1-.11.25v.27l.16-.44.27-.66ZM108.52,406.45s-.05.02-.05.05l.05-.05ZM108.52,407.11v-.05.05ZM108.57,406.73l.05-.05s-.05.02-.05.05ZM108.63,406.45s0-.06.03-.08.03-.05.03-.08c0,.04,0,.06-.03.08s-.03.05-.03.08ZM108.74,405.47s-.02-.05-.05-.05l.05.05ZM108.74,405.96c0,.07-.02.13-.05.16.04-.04.05-.09.05-.16ZM109.01,397.24c.07.07.14.02.19-.16.05-.18.12-.26.19-.22.07-.11.1-.18.08-.22-.02-.04,0-.13.08-.27l.05-.11s0-.07.03-.11c.02-.04.03-.09.03-.16,0,.04-.02.05-.05.05-.07.15-.14.3-.19.47s-.12.27-.19.3l-.22.44ZM109.12,395.75h.22s0-.05.03-.05.03-.02.03-.05l-.27.05s-.02.05-.05.05-.02,0,.05,0v-.05.05ZM110.06,395.42s-.05.02-.05.05l.05-.05ZM111.48,390.27c-.22.04-.4.06-.55.08-.15.02-.18.05-.11.08.11-.04.22-.05.33-.05s.2-.02.27-.05l.05-.05ZM112.3,405.25c0-.07.03-.2.08-.38.05-.18.12-.29.19-.33,0,.11-.04.25-.11.41-.07.16-.09.28-.05.36-.15.33-.24.62-.27.88l-.05.11c-.07.07-.11.07-.11,0s.03-.17.08-.3c.05-.13.11-.26.16-.41.05-.15.1-.26.14-.33h-.05ZM113.18,402.83c.11,0,.13.07.05.22-.11.18-.17.34-.19.47-.02.13-.06.28-.14.47l-.11.27c-.11-.07-.09-.26.05-.55.15-.29.26-.58.33-.88ZM114.66,399.43v.11c0,.07-.05.17-.14.3-.09.13-.1.19-.03.19-.07.18-.15.36-.22.52-.07.16-.15.28-.22.36-.07.15-.1.21-.08.19s.05-.07.08-.16c.04-.09.07-.18.11-.27.04-.09.04-.14,0-.14l.05-.11.44-.99ZM114.61,385.66c-.07,0-.15.09-.22.27-.07.18-.15.33-.22.44.04,0,.04.03,0,.08-.04.05-.02.08.05.08l.33-.6c.04-.07.05-.12.03-.14-.02-.02,0-.06.03-.14ZM116.7,382.25c.07-.07.07-.11,0-.11-.11.07-.18.18-.22.33-.04.15.04.07.22-.22ZM119.66,392.96s.07.02.11.05c-.07.04-.16.05-.27.03-.11-.02-.16,0-.16.03l-.38.05v-.11c.11-.04.35-.05.71-.05ZM120.29,391.31c.2-.04.34-.07.41-.11h-.6l-.11.11s.1.04.3,0ZM125.99,352.24s0-.11.11-.22c.04.04.1.02.19-.05.09-.07.14-.07.14,0-.15.15-.24.21-.27.19-.04-.02-.09,0-.16.08Z"/>
          <path class="cls-8" d="M118.51,369.27h-.18c-.1.04-.16.06-.16.08s-.04.06-.1.13l-.26.1s.02.04.05.03c.03-.02.05,0,.05.03l.05.05c.14-.07.24-.12.29-.16.05-.03.17-.09.34-.16.03-.07,0-.1-.08-.1Z"/>
          <path class="cls-8" d="M122.26,390.83v.07c.01-.06.03-.11.05-.18-.04.04-.05.07-.05.1Z"/>
        </g>
        <path class="cls-8" d="M167.79,374.38c.1.02.31.08.63.18.21.07.32.1.34.1s.11.05.29.16c.21.04.48.12.81.26.33.14.64.28.92.42.24.1.49.23.73.37.1.07.22.13.34.18.12.05.24.11.34.18l.47.31s.03-.06,0-.08c-.04-.02-.05-.04-.05-.08-.07,0-.16-.05-.26-.16-.59-.28-1.26-.61-1.99-.99-.21-.07-.41-.15-.6-.24-.19-.09-.38-.17-.55-.24-.07-.03-.16-.07-.26-.1-.1-.03-.19-.07-.26-.1-.1-.03-.2-.06-.29-.08-.09-.02-.18-.04-.29-.08l-.21-.1c-.1-.07-.24-.13-.42-.18-.18-.05-.3-.04-.37.03-.18-.07-.3-.1-.37-.08-.07.02-.19-.03-.37-.13-.14-.07-.13-.1.03-.1s.24-.03.24-.1c-.38-.03-.77-.12-1.15-.26-.38-.03-.7-.09-.94-.16-.07-.03-.13-.06-.18-.08-.05-.02-.13-.03-.24-.03-.04.04-.19.02-.47-.05l-.31-.05c0,.07-.07.08-.21.03-.14-.05-.26-.08-.37-.08-.18-.03-.29-.06-.34-.08-.05-.02-.15-.04-.29-.08-.1-.03-.25-.05-.44-.05s-.29-.02-.29-.05c.21.04.26.04.16,0-.1-.03-.16-.09-.16-.16.07.04.1.04.1.03s.03-.03.1-.03c.17,0,.35,0,.52.03.17.02.37.04.58.08v-.05h.16c.21.04.36.06.44.08.09.02.27.04.55.08.1,0,.1-.02-.03-.05-.12-.03-.3-.07-.52-.1-.23-.03-.48-.08-.76-.13-.28-.05-.51-.1-.68-.13h-.1c-.14,0-.28,0-.42-.03-.14-.02-.3-.03-.47-.03-.38-.07-.59-.12-.63-.16.28.04.5.04.65.03.16-.02.37,0,.65.08l.31.05h.47c.21,0,.35.04.42.1l.89.16c.28,0,.58.05.89.16.14-.03.35-.02.63.05.28.07.52.12.73.16v-.05c-.35-.07-.8-.16-1.36-.26-.56-.1-1.03-.19-1.41-.26.14-.03.34-.03.6.03s.53.11.81.18c.03-.03.11-.04.24-.03.12.02.06,0-.18-.08-.49-.07-.99-.16-1.49-.26-.51-.1-1.06-.17-1.65-.21-.07-.03-.16-.05-.26-.05s-.16-.02-.16-.05l-.31-.05c-.04-.07-.15-.1-.34-.08-.19.02-.34,0-.44-.03-.28-.07-.57-.11-.86-.13-.3-.02-.58-.04-.86-.08h-.16c-.04-.07-.15-.1-.34-.08-.19.02-.36,0-.5-.03h-.1c-.24-.03-.31-.06-.18-.08.12-.02.22-.03.29-.03-.18-.1-.47-.16-.89-.16-.07-.07.07-.08.42-.03.35.05.61.08.79.08.1-.03.24-.03.39.03s.29.06.39.03c-.04-.07-.16-.1-.37-.1s-.38-.02-.52-.05c-.24,0-.44,0-.58-.03-.14-.02-.3-.04-.47-.08,0-.03-.04-.05-.1-.05-.42-.03-.68-.06-.79-.08-.1-.02-.33-.04-.68-.08h-.1l-.21-.05-.99-.05c-.18,0-.33.02-.47.05-.14.04-.31.05-.52.05-.1-.07-.16-.09-.16-.05s-.09.05-.26.05c-.04-.03-.16-.04-.37-.03-.21.02-.35,0-.42-.08,0-.07.03-.1.1-.1.21.04.39.04.55,0,.16-.03.27-.02.34.05h.1c.07-.07.19-.09.37-.05.17.04.28.04.31,0-.07-.03-.13-.05-.18-.05s-.1-.02-.13-.05c-.18.04-.37.05-.58.05h-.68s-.05-.05-.16-.05h-.26c-.1.07-.22.08-.34.03-.12-.05-.27-.08-.44-.08-.45.04-1.06.04-1.81.03-.75-.02-1.42,0-2.02.08v-.05h-.26l-.31.05h-.44c-.12,0-.27.02-.44.05h-.42c.1-.07.3-.1.58-.08.28.02.52,0,.73-.03.03-.03-.04-.05-.21-.05h-.47c-.14,0-.28.02-.42.05h-.58l-.89.1c-.14,0-.28,0-.42.03-.14.02-.28.03-.42.03,0-.03,0-.05.03-.05s.03-.02.03-.05l.21-.37.1-.05-.05-.05-.05-.05-.21.31-.1.16s-.05.09-.05.16l-.26.05.16-.16.05-.1s-.02-.03-.05,0-.07.09-.1.16l-.1.1h-.05v-.05l-.37.05.05-.16c-.1.1-.16.14-.16.1s0-.08.03-.13c.02-.05.03-.1.03-.13s-.05-.03-.16,0c.07-.14.13-.21.18-.21h.13c.07-.07.1-.14.1-.21.07-.24.04-.29-.08-.13-.12.16-.22.27-.29.34s-.13.18-.18.34-.11.22-.18.18l-.05.05-.63.05h-.1c.07-.03.14-.14.21-.31,0-.03-.04-.02-.1.05-.07,0-.14.04-.21.1,0,.07-.02.14-.05.21h-.1c0-.07.02-.16.05-.26l.16-.26s-.02-.03-.05,0-.07.04-.1,0c-.07.1-.12.2-.16.29-.04.09-.09.18-.16.29-.28.04-.58.08-.92.13-.33.05-.58.06-.76.03-.56.07-1.05.12-1.47.16-.42.04-.89.09-1.41.16-.18.04-.31.04-.39.03-.09-.02-.22,0-.39.03l-1.36.21-.1.05-.52.1h-.1l-1.31.31-1.41.31-.79.16-.31.1-.1.05-.79.16v.05l-.31.1c-.24.07-.42.12-.52.16-.1.04-.3.09-.58.16-.28.1-.57.2-.86.29-.3.09-.58.18-.86.29-.28.07-.49.15-.63.24-.14.09-.33.17-.58.24-.21.07-.29.15-.24.24.05.09-.06.17-.34.24v.05c-.18.07-.32.12-.44.16-.12.04-.27.09-.44.16l-.21.1c-.07.07-.19.13-.37.18-.17.05-.24.1-.21.13s.09.05.16.05c-.07.04-.11.06-.13.08-.02.02-.08.04-.18.08-.07.04-.14.09-.21.16-.03.04-.06.05-.08.05s-.06.04-.13.1c-.17.07-.28.1-.31.1s-.14.05-.31.16c-.03,0-.03-.02.03-.05.05-.03.11-.07.18-.1.07-.03.11-.06.13-.08.02-.02-.03,0-.13.03l-.26.16s0,.08-.1.13-.12.08-.05.08l.21-.1.16-.05v.05l.73-.42c.1,0,.19-.02.26-.05-.56.28-.87.52-.94.71-.07.19-.09.36-.05.5,0,.07.04.24.13.52.09.28.19.58.31.89.12.31.24.6.37.86.12.26.2.44.24.55.07.21.25.44.55.68.3.24.53.38.71.42,0,.07.03.09.08.05.05-.03.1-.03.13,0,.07,0,.1-.03.1-.1.42-.1.85-.28,1.31-.52-.07.07-.14.11-.21.13-.07.02-.16.06-.26.13h.05s.07.04.1,0c.03.04.1.05.21.05,0-.07.1-.14.31-.21.14-.07.26-.12.37-.16.17-.07.35-.12.52-.16.17-.03.33-.07.47-.1h.05c.07.04.18.03.34-.03s.25-.04.29.03l-.21.05c-.14-.03-.26,0-.37.08-.1.09-.16.17-.16.24.14-.03.29-.07.44-.1.16-.03.32-.09.5-.16.1,0,.3-.03.58-.1.28-.07.49-.1.63-.1.03-.03.1-.05.21-.05l.84-.26c.35-.07.61-.14.79-.21.07,0,.15-.02.24-.05.09-.03.15-.03.18,0,.21-.07.41-.12.6-.16.19-.03.39-.09.6-.16.07,0,.13,0,.18-.03.05-.02.1,0,.13.03l.1-.05c.1.04.38-.02.84-.16.17-.03.34-.07.5-.1.16-.03.27-.03.34,0l.73-.16.42-.1.26-.05c.07-.03.14-.05.21-.05s.14-.02.21-.05v.1c-.18.42-.33.7-.47.84l-.31.68-.21.42-.16.31c-.14.31-.31.65-.5,1.02-.19.37-.32.69-.39.97l.05.05-.05.1c-.1.28-.19.46-.26.55-.07.09-.16.22-.26.39l-.21.52-.05.1c-.07.1-.12.2-.16.29-.04.09-.07.18-.1.29-.07.07-.18.27-.31.6-.14.33-.21.55-.21.65-.07.18-.09.28-.05.31l-.26.73c0,.07-.03.16-.08.26s-.06.16-.03.16c.1-.24.14-.29.1-.13-.04.16-.05.25-.05.29l-.16.42c-.07.18-.15.38-.24.63-.09.24-.17.4-.24.47-.07.04-.05-.04.05-.24.1-.19.12-.29.05-.29l-.05.05s0,.05-.03.05-.03.04-.03.1c-.07.14-.1.23-.08.26.02.04,0,.12-.08.26l-.05.1h.05s.02-.07.05-.1c.03,0,.04.02.03.05-.02.04,0,.07.03.1-.07.21-.13.38-.18.5-.05.12-.13.34-.24.65-.07.18-.12.34-.16.5-.04.16-.07.31-.1.44-.07.21-.12.35-.16.42-.04.07-.09.24-.16.52,0,.07-.07.28-.21.63.07.07.12.04.16-.1.03-.14.05-.12.05.05l-.16.42h.05l-.05.21c0,.14-.05.33-.16.58l.16.05s.05.02.05.05v.16c-.07.24-.16.42-.26.52s-.16.05-.16-.16c0,.21-.04.35-.1.42s-.14.24-.21.52c.07-.03.09,0,.05.08-.04.09-.02.15.05.18.07-.21.11-.38.13-.52.02-.14.06-.24.13-.31v.1c-.07.24-.09.4-.05.47.03.07-.02.24-.16.52,0,.14-.02.28-.05.42.03.1.03.27-.03.5-.05.23-.11.46-.18.71-.14.21-.23.42-.26.63.1,0,.1.07,0,.21v.1c-.07.18-.13.31-.18.39-.05.09-.08.2-.08.34.03.07.03.18,0,.34-.04.16-.09.27-.16.34.03.07.07.12.1.16.03.04.02.12-.05.26-.07.21-.07.31,0,.31s.07.09,0,.26c-.07.07-.14.23-.21.47-.07.24-.09.42-.05.52v.1c.03.07.06.13.08.18,0,.01,0,.03,0,.04l.07-.22v-.1s.07-.09.1-.16c.03-.07.03-.12,0-.16.07-.14.1-.3.1-.47s.03-.37.1-.58c-.04-.03-.04-.1,0-.21.03-.1.07-.16.1-.16l.1-.42c.03-.07.05-.08.05-.03s.02.08.05.08l-.31,1.36c-.07.21-.09.34-.05.39.03.05.02.15-.05.29-.04.14-.06.31-.08.5-.02.19-.06.39-.13.6,0,.04,0,.06.03.08.02.02.03,0,.03-.08l.1-.31c-.04-.21,0-.49.1-.84.1-.35.16-.61.16-.79l.1-.58s0,.05.03.05.03.02.03.05v.05l-.05.21-.05.31c.07.07.11.04.13-.1.02-.14.03-.12.03.05v.21c-.04.1-.08.24-.13.42-.05.18-.04.28.03.31l-.1.31v.1l-.05.37c.03-.07.07-.12.1-.16s.07-.12.1-.26v.58c-.1.24-.12.42-.05.52-.07.21-.1.33-.1.37s-.02.16-.05.37v.1c-.04.14-.07.21-.1.21-.04.07-.06.09-.08.05-.02-.03-.04-.06-.05-.08-.02-.02-.04,0-.05.05-.02.05-.04.18-.08.39l-.05.42-.05.21c-.04.1-.04.18-.03.21.02.04.03.09.03.16l.05.05v.05c.03-.1.04-.18.03-.24-.02-.05,0-.11.03-.18.07,0,.11-.09.13-.26.02-.17.06-.3.13-.37.03.07.02.24-.05.52v.5c0,.16-.04.32-.1.5.03-.07.06-.15.08-.24.02-.09.06-.15.13-.18-.07-.07-.09-.2-.05-.39.03-.19.07-.39.1-.6.03-.24.09-.42.16-.52,0,.18.03.37.1.58l-.05.42c-.04.31-.08.52-.13.6-.05.09-.1.29-.13.6.07.04.1-.03.08-.21-.02-.17,0-.21.08-.1-.07.18-.08.31-.03.39.05.09.04.17-.03.24-.04.1-.04.18-.03.24.02.05.03.13.03.24.03.07.05.17.05.29v.44c-.04.18-.05.35-.05.52v.47c.07-.07.1-.21.1-.42s.02-.38.05-.52c0-.14.03-.31.08-.5.05-.19.04-.32-.03-.39l.1-.63h-.05l.05-.1v-.26c0-.1.03-.16.1-.16v.42c0,.07,0,.19-.03.37-.02.18-.04.35-.08.52,0,.14,0,.27-.03.39-.02.12-.03.25-.03.39,0,.31.02.52.05.63-.04.18-.04.31-.03.39.02.09,0,.24-.03.44.03.04.04.09.03.16-.02.07,0,.12.03.16l-.05.31c.05.05.09.09.1.12v-.43c0-.17.03-.37.08-.6.05-.23.06-.37.03-.44.03-.1.04-.21.03-.31-.02-.1-.03-.19-.03-.26,0-.17.03-.33.1-.47v.99c-.04.18-.06.37-.08.58-.02.21-.03.44-.03.68l-.05.1v1.05c.07.17.08.44.03.81s-.06.6-.03.71c0,.1,0,.21-.03.31-.02.1-.03.21-.03.31.07.14.09.35.05.63-.04.28-.04.54,0,.79.03.28.05.49.05.63v.63c0,.17,0,.35.03.52.02.17.04.37.08.58v.52c.03.1.05.21.05.31s.02.21.05.31l.05.52c.07.38.1.46.08.24-.02-.23-.04-.48-.08-.76,0-.1,0-.21-.03-.31-.02-.1-.03-.21-.03-.31v-.58c-.04-.21-.06-.41-.08-.6-.02-.19-.03-.38-.03-.55,0-.14-.02-.24-.05-.29-.04-.05-.02-.13.05-.24-.07-.8-.09-1.63-.05-2.49.03-.86.07-1.63.1-2.33l.05-.21v-.16s0-.01,0,0c0,0,0,0,0,0,0,.03.02.05.05.05,0,.31,0,.62-.03.92-.02.3-.03.58-.03.86v1.52s.05.08.05.13.02.08.05.08v-.99c0-.14-.02-.28-.05-.42v-.89c0-.18,0-.33.03-.47.02-.14.03-.28.03-.42v-.26l.05-.26h-.05c0-.07,0-.12.03-.16.02-.03.03-.09.03-.16l.05-.73c.03-.1.05-.12.05-.05v.26c0,.1,0,.2-.03.29-.02.09,0,.13.03.13l-.05.31c-.04.21-.04.37-.03.47.02.1,0,.28-.03.52v.31c-.07.38-.05.63.05.73.03-.18.05-.3.05-.37v-.47l.05-.63.05-.42c.07.03.09-.06.05-.29-.04-.23-.02-.31.05-.24.03.07.03.21,0,.42-.04.21-.04.35,0,.42-.04.28-.04.51-.03.68.02.17,0,.4-.03.68v.21c0,.28,0,.45-.03.52-.02.07-.03.21-.03.42.03.17.04.39.03.65-.02.26,0,.5.03.71v.21c.07.07.1,0,.08-.21-.02-.21-.03-.38-.03-.52v-1.78l.05-.21v-.21l.05-.94c.07.07.1.21.08.42-.02.21-.04.44-.08.68v.76c0,.23.02.41.05.55.03-.14.05-.31.05-.5v-.65c0-.24,0-.48.03-.71.02-.23.04-.44.08-.65.07.21.1.48.08.81-.02.33,0,.65.03.97-.04.14-.04.24,0,.29.03.05.03.17,0,.34,0,.24-.02.38-.05.42h.05s.04-.07.03-.21c-.02-.14,0-.19.08-.16,0,.28,0,.46.03.55.02.09.03.27.03.55v.63c.03.17.04.43.03.76-.02.33,0,.64.03.92.03.24.05.48.05.71s.02.46.05.71l.05.52s.05-.02.05-.05.02-.05.05-.05c-.04-.04-.05-.14-.05-.31-.07-.35-.1-.66-.1-.94-.04-.18-.05-.35-.05-.52v-.52c-.04-.18-.05-.35-.05-.52v-1.83c0-.1.02-.24.05-.39.03-.16.02-.25-.05-.29-.04-.18-.06-.3-.08-.37-.02-.07,0-.19.03-.37.07-.14.12-.13.16.03.03.16.09.22.16.18,0-.38,0-.74.03-1.07.02-.33.03-.64.03-.92.03-.07.05-.21.05-.42-.04,0-.02-.14.05-.42v-.26s-.04-.07,0-.21c.03-.14.03-.24,0-.31.03-.17.06-.3.08-.37.02-.07.04-.16.08-.26.03-.1.04-.24.03-.42-.02-.17,0-.28.08-.31-.04.21-.04.26,0,.16.03-.1.07-.16.1-.16,0,.07,0,.11.03.13.02.02.03.04.03.08,0,.18,0,.35-.03.52-.02.18-.03.35-.03.52v.52c0,.07-.02.24-.05.52.03.1.06.1.08,0,.02-.1.03-.26.03-.47.03-.14.05-.26.05-.37s.02-.23.05-.37c0-.21.03-.42.1-.63v-.5c0-.16.02-.31.05-.44.03-.17.07-.31.1-.39.02-.05.03-.09.04-.12,0-.02,0-.04.01-.06,0,.01,0,.04-.01.06-.03.16-.04.33-.04.52,0,.24-.02.45-.05.63l-.05.31v.44c0,.19-.02.32-.05.39l-.1.84c0,.14,0,.27-.03.39-.02.12-.03.25-.03.39.03.1.03.29,0,.55-.04.26-.05.5-.05.71h.05c0-.18,0-.37.03-.58.02-.21.03-.44.03-.68,0-.49.05-.92.16-1.31.03.14.03.33,0,.58-.04.24-.05.49-.05.73.03.03.04.1.03.21,0-.03.01-.08.03-.15.03-.45.09-.91.16-1.36.07-.45.12-.96.16-1.52.03-.07.05-.16.05-.26s.02-.16.05-.16c0-.14.02-.24.05-.31.07,0,.1-.09.1-.26s.02-.31.05-.42c.03-.28.07-.55.1-.81.03-.26.09-.53.16-.81l.05-.1s.06-.15.08-.34c.02-.19.04-.34.08-.44l.05-.1c.03-.21.06-.26.08-.16.02.1,0,.19-.03.26.14-.17.23-.44.26-.79.03-.03.04-.02.03.05-.02.07-.04.18-.08.31-.04.14-.07.28-.1.42-.04.14-.05.24-.05.31.03.07.03.18-.03.31-.05.14-.06.28-.03.42.07-.03.1-.15.1-.34s.02-.34.05-.44c.07-.38.16-.73.26-1.05.03.04.05.02.05-.05.07-.38.13-.62.18-.71.05-.09.11-.29.18-.6l.05-.1.05-.21c.03-.14.06-.28.08-.42.02-.14.06-.3.13-.47.03-.17.05-.33.05-.47s.02-.3.05-.47c.07-.07.1-.11.08-.13-.02-.02,0-.1.03-.24.03-.03.07-.14.1-.31.03-.17.09-.3.16-.37.03,0,.05.04.05.1-.07.18-.1.33-.1.47s-.04.24-.1.31l-.05.1c.03.07.03.18-.03.34s-.06.25-.03.29c.07-.14.12-.23.16-.26,0-.17.02-.36.05-.55.03-.19.07-.32.1-.39l.05-.21s.09-.12.16-.37c-.04-.07-.02-.16.05-.26.07-.1.12-.24.16-.42.07-.21.14-.45.21-.73.07-.28.16-.56.26-.84.07-.31.16-.63.26-.94s.21-.61.31-.89v.05l.1-.21.1-.31.26-.79.1-.37c0,.1-.04.28-.13.52-.09.24-.17.45-.24.63.03.07.09.02.16-.16.07-.14.11-.27.13-.39.02-.12.06-.25.13-.39l.05-.21.1-.26.31-.79c.03-.17.12-.44.26-.79l.16-.37h.05l.21-.58.31-.79.1-.31c.14-.28.27-.58.39-.92.12-.33.24-.58.34-.76.1-.28.21-.51.31-.71.1-.19.21-.37.31-.55.1-.17.2-.36.29-.55.09-.19.2-.39.34-.6.07-.17.13-.29.18-.34s.11-.15.18-.29c.17-.45.35-.84.52-1.15v-.1l.26-.47.05-.1.52-1.1c.1-.21.21-.41.31-.6.1-.19.21-.39.31-.6l.31-.63.16-.31v-.05l.37-.68h-.05l.16-.26c.14-.21.22-.37.24-.5.02-.12.1-.27.24-.44.07-.14.15-.27.24-.39.09-.12.17-.27.24-.44h.39c.12,0,.31-.03.55-.1.28,0,.59-.03.94-.1.21-.03.35-.04.42-.03.07.02.23.03.47.03.14-.07.35-.1.63-.1.03-.07,0-.1-.13-.08-.12.02-.11,0,.03-.08h.42v-.05h.21c.07-.07.13-.1.18-.08.05.02.15.03.29.03v-.16s.02-.05.05-.05.05-.02.05-.05h.1c.24,0,.43.03.55.08.12.05.08.11-.13.18.17-.07.31-.07.39,0,.09.07.27.09.55.05-.07-.07-.05-.1.05-.1s.16-.02.16-.05c-.21-.03-.38-.03-.5,0-.12.04-.24.02-.34-.05.07,0,.1-.02.1-.05.24.04.39.03.44-.03s.22-.06.5-.03c.07-.03.21-.05.42-.05v-.05c.07-.07.22-.1.44-.08.23.02.44.03.65.03.1.04.2.06.29.08.09.02.2.03.34.03,0-.07.07-.09.21-.05h.1c.17,0,.31.03.39.08.09.05.2.04.34-.03h.31c.14,0,.24.02.31.05.07-.03.12-.07.16-.1s.12-.03.26,0c.21.04.31.02.29-.05-.02-.07.06-.09.24-.05.07.07.23.12.47.16.24.04.4.02.47-.05h.1c.07-.03.14-.06.21-.08.07-.02.19,0,.37.03,0-.03-.07-.05-.21-.05l-.31-.05h-.1c-.07-.03-.14-.06-.21-.08-.07-.02-.1,0-.1.08-.18-.07-.34-.09-.5-.05-.16.04-.36.02-.6-.05,0,.04-.05.05-.16.05s-.16-.02-.16-.05-.14-.05-.42-.05c-.07-.03-.08-.05-.03-.05s.06-.02.03-.05c.24.04.48.05.71.05s.46.02.71.05c.17.04.29.03.34-.03s.15-.04.29.03h.47c.17,0,.37.02.58.05.07-.07.07-.1,0-.1h-.31c-.18.04-.44.03-.79-.03-.35-.05-.61-.06-.79-.03-.24,0-.42-.02-.52-.05h.05s.05-.02.05-.05h.21l.31.05c.03-.07,0-.1-.13-.1s-.11-.02.03-.05c.14,0,.21-.02.21-.05.1,0,.24.02.42.05.17.04.28.02.31-.05l.31.05h.42s-.07-.06-.1-.08c-.04-.02-.14-.03-.31-.03.03-.03.08-.05.13-.05s.1-.02.13-.05c.07.04.11.04.13.03s.08-.03.18-.03c.14.04.24.04.31.03.07-.02.14-.03.21-.03.21.04.33.04.37.03.03-.02.16,0,.37.03h.1c.14,0,.21.04.21.1.07.04.09.06.05.08-.04.02-.06.04-.08.05s0,.03.05.03h.39l.42.05.21.05h.31s.03-.05.1-.05c-.1-.03-.18-.04-.24-.03-.05.02-.11,0-.18-.03,0-.07-.09-.11-.26-.13-.18-.02-.3-.06-.37-.13.21,0,.38.02.52.05h.44c.16,0,.32.02.5.05-.07-.03-.14-.06-.21-.08-.07-.02-.12-.04-.16-.08-.07.07-.2.09-.39.05-.19-.03-.39-.07-.6-.1-.21,0-.38-.03-.52-.1.14,0,.25-.02.34-.05.09-.03.17-.07.24-.1l.42.05c.28,0,.46.04.55.1.09.07.29.1.6.1.03-.07-.03-.1-.18-.08-.16.02-.2,0-.13-.08.17.07.31.08.39.03.09-.05.17-.04.24.03.1.04.18.04.24.03.05-.02.11-.03.18-.03.17-.07.44-.09.79-.05.35.04.66.07.94.1-.07-.07-.21-.11-.42-.13-.21-.02-.38-.04-.52-.08-.14,0-.3-.03-.47-.08-.18-.05-.3-.04-.37.03-.28-.07-.49-.1-.63-.1v.05l-.1-.05h-.26c-.1,0-.16-.02-.16-.05.14,0,.24-.02.31-.05h.1c.07-.03.18-.03.34,0,.16.04.32.07.5.1.28.04.55.06.81.08.26.02.46,0,.6-.03.17.04.31.04.42.03.1-.02.24,0,.42.08.03-.03.09-.05.16-.05h.16l.31.05c.07,0,.12-.02.16-.05l-.42-.05c-.18-.03-.38-.08-.63-.13-.24-.05-.4-.06-.47-.03-.18-.07-.36-.1-.55-.08-.19.02-.36,0-.5-.08h.52c.17,0,.35.02.52.05.17.04.37.06.58.08.21.02.42.06.63.13h.1c.42.1.77.16,1.05.16.17-.03.44,0,.79.13.35.12.58.18.68.18l.63.16c.07,0,.16.02.26.05.1.04.23.07.37.1.07.04.13.06.18.08.05.02.11.04.18.08.07.04.13.06.18.08.05.02.11.04.18.08.28.07.48.13.6.18.12.05.31.15.55.29.35.14.69.29,1.02.44.33.16.67.36,1.02.6.1.04.26.12.47.26.35.18.43.2.24.08-.19-.12-.41-.27-.65-.44-.8-.45-1.5-.82-2.09-1.1-.14-.07-.24-.1-.31-.1s-.14-.03-.21-.1c-.8-.28-1.61-.54-2.41-.79-.8-.24-1.55-.44-2.25-.58h-.21c-.14-.03-.2-.05-.18-.05s.04-.02.08-.05c.63.1,1.22.22,1.78.34.56.12,1.03.22,1.41.29l.1.05s.08-.03.13,0c.05.04.08.04.08,0-.35-.14-.82-.26-1.41-.37-.28-.07-.58-.13-.89-.18s-.61-.11-.89-.18h-.26l-.26-.1v.05c-.07,0-.12,0-.16-.03-.04-.02-.09-.03-.16-.03l-.73-.1c-.1-.03-.12-.05-.05-.05s.16,0,.26.03c.1.02.2.04.29.05.09.02.13,0,.13-.03.07,0,.12,0,.16.03.03.02.09.03.16.03.21.07.37.1.5.08.12-.02.29,0,.5.08.07.04.12.05.16.05s.09.02.16.05c.17.04.32.07.44.1.12.04.22.04.29,0-.18-.07-.3-.12-.37-.16-.07-.03-.23-.07-.47-.1l-.63-.16-.42-.05c.07-.07-.02-.1-.26-.1s-.33-.03-.26-.1c.1,0,.26.03.47.08s.35.06.42.03c.17.04.4.09.68.16.1,0,.21,0,.31.03.1.02.23.04.37.08l.21.05c.28.07.45.12.52.16.07.04.23.07.47.1.17,0,.38.05.63.16.24.1.49.19.73.26.03,0,.07,0,.1.03.03.02.07.03.1.03.03-.03-.04-.09-.21-.16-.07-.03-.15-.06-.24-.08-.09-.02-.17-.04-.24-.08-.18-.07-.33-.11-.47-.13-.14-.02-.28-.06-.42-.13-.14-.03-.28-.07-.42-.1-.14-.03-.31-.07-.52-.1l-.21-.05-.21-.05c-.18-.07-.34-.11-.5-.13-.16-.02-.32-.04-.5-.08.07-.03.22-.03.44,0,.23.04.47.09.73.16.26.07.51.13.76.18.24.05.44.08.58.08-.14-.07-.31-.12-.52-.16-.21-.03-.44-.09-.68-.16-.14-.03-.26-.06-.37-.08-.1-.02-.23-.04-.37-.08l-.63-.16c.24-.07.52-.05.84.05.17.04.35.06.52.08.17.02.35.04.52.08.14.04.24.05.29.05s.17.04.34.1c.24.07.38.12.42.16l.05-.05s-.08-.07-.24-.1c-.16-.03-.22-.07-.18-.1.28.07.47.11.58.13ZM128.53,403.88l-.05.21c-.04.13-.07.24-.08.33,0,.04-.01.08-.02.13,0,.01,0,.02,0,.03v.34c0,.1,0,.18-.03.24-.02.05-.04.15-.08.29-.07.1-.1.1-.08,0,.02-.1.04-.24.08-.39.03-.16.07-.32.1-.5,0,0,0,0,0,0,0-.04,0-.08.02-.13,0-.09,0-.15-.02-.17v-.1l.1-.52h.05v.26ZM129.03,398.12c.02.1,0,.24-.08.42,0,.18-.02.33-.05.47.03.1,0,.24-.08.39-.09.16-.15.34-.18.55l-.16.63c-.07.24-.1.31-.08.18.02-.12,0-.18-.03-.18.07-.24.11-.44.13-.58.02-.14.08-.35.18-.63v-.16l-.05-.05-.16.63-.1.42s-.04-.08-.03-.13c.02-.05,0-.08-.03-.08.03-.14.06-.23.08-.26.02-.03.04-.12.08-.26l.05-.21c0-.24-.02-.4-.05-.47l.16-.42.1-.47.1-.42s.09-.12.16-.26h.05c0,.07-.04.24-.1.52l-.05.1c-.04.14-.04.23-.03.26.02.04,0,.12-.08.26.03.04.04.07.03.1-.02.04,0,.05.03.05.07-.17.1-.3.08-.37-.02-.07,0-.19.08-.37l.05-.1h.05c-.07.18-.1.31-.08.42ZM129.42,395.97l-.05.1c-.07.14-.1.23-.08.26.02.04,0,.12-.03.26-.07-.07-.12,0-.16.18-.04.19-.09.25-.16.18l.16-.42c.07-.07.12-.21.16-.42.03-.21.09-.38.16-.52.03.04.03.1-.03.18-.05.09-.04.15.03.18ZM129.63,395.34l-.05.1s.02-.07.05-.1ZM129.68,405.65l-.05.05.05-.05ZM129.68,406.02v.05-.05ZM129.73,412.36c-.04-.07-.06-.19-.08-.37-.02-.18,0-.28.03-.31.03.03.05.06.05.08s.02.04.05.08l-.05.52ZM129.73,404.71v-.05.05ZM129.79,405.65v-.16.16ZM129.84,405.18v.1-.26.16ZM129.79,404.92s.05.02.05.05l-.05-.05ZM129.84,394.61v-.05.05ZM129.89,394.35v-.05.05ZM129.97,393.98c-.05.1-.1.23-.13.37-.04.14-.07.3-.1.47-.04.18-.07.33-.1.47.03-.14.07-.3.1-.47.03-.17.07-.33.1-.47.03-.14.08-.26.13-.37s.1-.14.13-.1c-.04-.03-.08,0-.13.1ZM132.59,385.55s.03.04.03.1l-.26.63c-.07,0-.1-.03-.08-.08.02-.05,0-.08-.03-.08.07-.1.13-.24.18-.42.05-.17.11-.26.18-.26-.04.07-.04.1-.03.1ZM134.03,381.99c-.1.28-.17.34-.18.18-.02-.16.04-.27.18-.34.03,0,.03.05,0,.16ZM135.33,378.07h-.1s.03-.07.1-.1h.05l-.05.1ZM147.69,375.92h.05-.05l-.05.05s.02-.05.05-.05ZM147.53,376.03c-.35.04-.52,0-.52-.1,0,.1.17.14.52.1.35-.03.66-.07.94-.1-.28.04-.59.07-.94.1ZM150.15,376.03l-.42.05c-.07-.07-.21-.1-.42-.08-.21.02-.38.03-.52.03,0-.03.05-.04.16-.03.1.02.16,0,.16-.08h.1c.17.04.27.04.29,0,.02-.03.1-.03.24,0-.04.07.04.09.24.05.19-.03.25-.02.18.05ZM153.76,375.71c-.1,0-.18.02-.21.05-.24-.03-.43-.03-.55,0-.12.04-.32.04-.6,0h-.16l-.05.05c.1,0,.21,0,.31.03.1.02.21.03.31.03h.42s-.03.05-.08.05-.1.02-.13.05c-.14,0-.22,0-.24-.03-.02-.02-.11-.03-.29-.03h-.21c-.18,0-.31.05-.42.16l-.42-.05h-.79c-.07-.03-.12-.05-.16-.05s-.09-.02-.16-.05c.07-.03.24-.05.52-.05h.1c.1.04.17.04.21,0s.12-.03.26,0l.1-.1c-.18,0-.29,0-.34.03-.05.02-.17.03-.34.03-.07-.03-.1-.07-.1-.1.17,0,.31,0,.39-.03.09-.02.22,0,.39.03.14-.07.28-.1.42-.1.1-.03.24-.03.42.03.17.05.35.06.52.03l.68.05h.16s.06,0,.05,0c0,0-.01,0-.05,0ZM158,373.67c-.07,0-.12.02-.16.05.03-.03.09-.05.16-.05ZM157.53,373.75s.02-.03.05-.03c-.04,0-.05,0-.05.03s-.02.03-.05.03c.03,0,.05,0,.05-.03ZM158.26,375.32c-.1-.02-.24-.03-.39-.05-.16-.02-.31-.03-.47-.05-.16-.02-.25,0-.29.03h-.1l-.52-.05v-.05h.42c.28.04.46.05.55.05h.29c.1-.03.18-.04.24-.03.05.02.15.04.29.08.1.07.1.1,0,.08ZM158.52,373.67h.05-.05ZM158.89,373.67s.05-.02.05-.05c0,.04-.02.05-.05.05ZM164.86,373.91c-.18-.02-.28-.04-.31-.08,0-.03.02-.04.05-.03.03.02.07,0,.1-.03l.52.1c-.07.04-.19.04-.37.03Z"/>
        <path class="cls-8" d="M152.31,375.71s.06,0,.08.03c.02.02.04.03.08.03h.63v-.1c-.1.04-.38.05-.84.05h.05Z"/>
        <path class="cls-8" d="M121.68,411.51s0,0,0,0c-.01.07-.01.07,0,0Z"/>
        <path class="cls-8" d="M121.85,407.38s.01-.04.01-.06c0,.02,0,.04-.01.06Z"/>
        <path class="cls-8" d="M150.45,412.6h.06s-.04-.01-.06-.03c-.1-.05-.1-.04,0,.03Z"/>
        <path class="cls-8" d="M150.55,412.6h-.04s.06,0,.05-.02c0,0-.01.01-.01.02Z"/>
        <path class="cls-8" d="M170.53,377.91l.1.05s.07-.04.1-.03c.03.02.05,0,.05-.08h-.1c0,.07-.05.09-.16.05Z"/>
        <path class="cls-8" d="M158.64,377.39l.02-.07s-.05.07-.02.07Z"/>
        <path class="cls-8" d="M145.09,374.67l.37-.1v-.1l-.16.05s-.12.05-.26.05c0,.07.02.1.05.1Z"/>
        <path class="cls-8" d="M148.38,372.86c.14-.02.24-.04.31-.08,0-.07-.04-.09-.13-.05-.09.04-.17.05-.24.05h-.1s-.05.05-.16.05c.07.04.17.04.31.03Z"/>
        <path class="cls-8" d="M145.35,402.46c-.04.07-.06.16-.08.26-.02.1-.06.21-.13.31l.16.05c-.04-.21.02-.49.16-.84l-.1.21Z"/>
        <path class="cls-8" d="M145.5,375.39l.17-.02c-.08,0-.13,0-.17.02Z"/>
        <path class="cls-8" d="M160.34,378.63c-1.48-1.59-5-.45-5.97.23-.56.39-.89.83-.89.83-.08.11-.12.13-.49.8-.16.3-.35.6-.53.89-.24.39-.52.74-.68,1.17-.14.37-.28.62-.42.76-.14.18-.26.4-.37.68l-.16.37-.16.26c-.14.31-.3.65-.47.99-.18.35-.3.65-.37.89l-.05.1c-.07.28-.15.45-.24.52-.09.07-.17.19-.24.37l-.21.47-.1.1-.26.52c-.07.07-.17.25-.29.55-.12.3-.18.5-.18.6-.1.14-.12.24-.05.31l-.31.63c.03.07.02.15-.05.24-.07.09-.09.15-.05.18.14-.24.18-.29.13-.13s-.06.25-.03.29l-.21.37c-.07.18-.15.38-.24.6-.09.23-.17.38-.24.44-.07,0-.04-.09.08-.26.12-.17.15-.26.08-.26s-.12.05-.16.16c-.07.14-.1.23-.08.26.02.04,0,.1-.08.21l-.05.1s.03.02.1-.05c.03,0,.04.02.03.05-.02.04,0,.05.03.05-.07.21-.13.38-.18.5-.05.12-.13.32-.24.6-.07.18-.12.32-.16.44-.04.12-.09.25-.16.39-.07.21-.12.35-.16.42-.04.07-.09.23-.16.47,0,.04-.07.23-.21.58.07.07.12.04.16-.08.03-.12.05-.11.05.03l-.16.37.05.05-.1.16c.03.14-.02.31-.16.52l.16.05c.07,0,.1.02.08.05-.02.04,0,.05.03.05l-.05.1c-.07.21-.16.36-.26.44-.1.09-.16.04-.16-.13-.04.18-.09.29-.16.34-.07.05-.14.22-.21.5.07-.03.09,0,.05.08-.04.09-.02.15.05.18.07-.21.11-.37.13-.5.02-.12.08-.22.18-.29v.1c-.1.24-.14.39-.1.44.03.05-.02.2-.16.44,0,.14-.04.28-.1.42h.05c.03.1,0,.26-.08.47-.09.21-.17.42-.24.63-.07.07-.11.15-.13.24-.02.09-.06.18-.13.29,0,.04,0,.06.03.08.02.02,0,.06-.03.13l-.05.1c-.07.18-.13.3-.18.37-.05.07-.08.18-.08.31,0,.07-.02.17-.05.29-.04.12-.09.22-.16.29,0,.07.02.12.05.16.03.04.03.12,0,.26-.1.18-.12.26-.05.26s.07.09,0,.26c-.1.04-.2.17-.29.39-.09.23-.11.38-.08.44v.1c0,.07,0,.13.03.18.02.05,0,.17-.08.34.03,0,.05-.02.05-.05s.02-.07.05-.1l.05-.31.05-.1c.1-.1.14-.19.1-.26.07-.14.12-.29.16-.45.03-.16.09-.34.16-.55-.04,0-.04-.04,0-.13.03-.09.07-.13.1-.13s.09-.12.16-.37c.03-.07.05-.09.05-.05s.02.05.05.05l-.47,1.26c-.07.18-.09.3-.05.37.03.07,0,.14-.1.21,0,.24-.09.58-.26.99,0,.04,0,.07.03.1.02.04.04.02.08-.05l.05-.31c.03-.17.11-.42.24-.73.12-.31.18-.56.18-.73l.16-.47s.04.02.03.05c-.02.04,0,.05.03.05l-.05.21-.1.26c.07.07.11.04.13-.08.02-.12.03-.11.03.03v.21c-.04.1-.09.24-.16.39-.07.16-.09.25-.05.29l-.1.31v.1l-.1.26c.1-.03.17-.14.21-.31.03,0,.04.03.03.08-.02.05,0,.1.03.13-.04.07-.04.11-.03.13.02.02,0,.06-.03.13-.1.28-.14.45-.11.52.04.09-.01.27-.02.36.16-.39.33-.8.35-.79.02,0-.28.47-.16.83.28.89,3.06,1.26,3.9.24.23-.28.53-.91.58-1.03.15-.33.26-.62.33-.82l.05-.16.31-.84c.07-.17.1-.32.08-.44-.02-.12,0-.27.08-.44.07-.07.1-.11.08-.13-.02-.02,0-.1.08-.24.03-.03.08-.13.13-.29s.11-.27.18-.34c.07,0,.07.04,0,.1-.07.18-.11.32-.13.44-.02.12-.06.22-.13.29v.1c.03.07,0,.18-.08.31-.09.14-.11.23-.08.26.03-.1.1-.17.21-.21,0-.17.03-.35.08-.52.05-.17.1-.3.13-.37l.05-.16s.06-.09.08-.16c.02-.07.04-.14.08-.21-.04-.1,0-.2.08-.29s.15-.22.18-.39c.14-.38.32-.87.55-1.47.23-.59.44-1.13.65-1.62l.1-.21.1-.26.26-.73.16-.37c0,.1-.05.27-.16.5-.1.23-.19.43-.26.6.03.07.09.02.16-.16l.31-.68.05-.21.1-.26.31-.73.31-.73.16-.37.26-.52.31-.73.1-.26c.07-.14.13-.28.18-.42.05-.14.11-.28.18-.42.07-.17.13-.32.18-.44.05-.12.11-.22.18-.29.21-.45.41-.84.6-1.15.19-.31.39-.68.6-1.1.07-.14.14-.24.21-.29.07-.05.14-.15.21-.29l.47-1.05.05-.1.21-.42.05-.1.52-1.05.58-1.1.31-.63.16-.26.05-.05.31-.63.1-.26c.14-.17.22-.32.24-.44.02-.12.1-.27.24-.44.1-.21.23-.43.37-.65.14-.23.28-.44.42-.65l-.05-.05c.1-.1.22-.26.29-.47.25-.79-.5-1.62-.62-1.75ZM145.44,398.43s.02.12-.05.26v.16c.07-.17.1-.29.1-.34s.03-.17.1-.34l.05-.1h.05c-.07.18-.1.31-.1.39s-.04.22-.1.39c0,.14-.02.28-.05.42,0,.1-.04.23-.13.37-.09.14-.15.3-.18.47l-.21.58c-.07.21-.1.27-.08.18.02-.09.03-.15.03-.18.07-.21.11-.38.13-.52.02-.14.08-.33.18-.58l.05-.05s-.05-.09-.05-.16c-.07.1-.11.21-.13.31-.02.1-.04.19-.08.26l-.16.42v-.26c.03-.1.06-.17.08-.18s.04-.11.08-.29l.1-.16v-.47l.1-.37.16-.37.16-.42s.09-.12.16-.26l.05.05c-.04.07-.05.14-.05.21s-.04.16-.1.26l-.05.1c-.07.1-.09.18-.05.21ZM146.06,396.34v.16l-.05.05c-.07.14-.1.23-.08.26.02.04,0,.12-.03.26-.07-.07-.12-.02-.16.16-.04.18-.09.23-.16.16l.16-.37c.07-.07.13-.2.18-.39.05-.19.11-.34.18-.44-.04.07-.05.12-.05.16ZM146.59,395.24v-.05.05ZM146.59,395.08s.02-.05.05-.05l-.05.05ZM146.64,394.87h.05-.05ZM146.56,395c-.09.33-.17.64-.24.92-.04,0-.05.04-.05.1,0-.07.02-.1.05-.1.07-.28.15-.58.24-.92.09-.33.18-.48.29-.44-.1-.03-.2.11-.29.44ZM149.42,387.02l-.26.58s-.04-.02-.03-.05c.02-.03,0-.07-.03-.1.07-.07.12-.19.16-.37.03-.17.09-.26.16-.26-.04.07-.04.1,0,.1s.03.04,0,.1ZM150.83,383.62c-.1.28-.16.35-.16.21s.05-.24.16-.31c.07,0,.07.04,0,.1Z"/>
        <path class="cls-8" d="M150.06,372.62h-.07c.05,0,.11,0,.18,0h-.1Z"/>
        <path class="cls-8" d="M149.96,372.64l-.32.04.05.1c.03-.08.12-.12.27-.15Z"/>
        <path class="cls-8" d="M149.96,372.64h.02s-.02,0-.02,0Z"/>
        <path class="cls-8" d="M204.93,395.08s.06-.02.09-.05l-.09.05Z"/>
        <path class="cls-8" d="M156.66,408.93c.07.04.15.07.23.12,0-.03-.08-.07-.23-.12Z"/>
        <path class="cls-8" d="M185.6,384.14c-.02.06-.03.12-.05.19.03-.03.05-.09.05-.19Z"/>
        <path class="cls-8" d="M191.52,384.14s.02-.09.03-.13c0,0,0,0,0,0-.02.02-.03.06-.03.13Z"/>
        <path class="cls-8" d="M191.99,403.51c-.21.1-.41.2-.6.29-.19.09-.34.17-.44.24l.05.05.52-.21c.1-.1.33-.23.68-.37.07-.07,0-.07-.21,0Z"/>
        <path class="cls-8" d="M178.95,403.56c-.28.07-.55.13-.81.18s-.53.11-.81.18c-.1.1-.28.18-.52.21-.35.07-.56.12-.63.16.03,0,.1,0,.21-.03.1-.02.23-.03.37-.03.14-.07.26-.11.37-.13.1-.02.19-.04.26-.08.07-.03.24-.07.5-.1.26-.03.53-.09.81-.16.24-.07.43-.13.55-.18.12-.05.1-.08-.08-.08l-.21.05Z"/>
        <path class="cls-8" d="M174.37,404.4c-.16.04-.41.07-.76.1-.28,0-.38.04-.31.1.45-.03.95-.08,1.49-.13.54-.05.81-.13.81-.24-.07,0-.15,0-.24.03-.09.02-.17.03-.24.03-.35.04-.6.07-.76.1Z"/>
        <path class="cls-8" d="M169.95,404.42c.14.02.26.04.37.08h.26s-.05-.02-.26-.05c-.1-.07-.27-.12-.5-.16-.23-.03-.43-.09-.6-.16,0,.04-.07.02-.21-.05-.04,0-.06,0-.08-.03-.02-.02-.04-.03-.08-.03l-.1-.05c-.07-.03-.1-.04-.1-.03s-.02.03-.05.03c.38.18.73.31,1.05.42h.16s.02,0,.16.03Z"/>
        <path class="cls-8" d="M190.99,386.44s.07.02.1-.05c.03-.07.07-.1.1-.1h.05c.17-.35.29-.62.34-.81.05-.19.17-.48.34-.86-.04-.1-.09-.08-.16.08-.07.16-.14.25-.21.29-.14.28-.2.44-.18.47.02.04,0,.14-.08.31-.07.18-.18.4-.31.68Z"/>
        <polygon class="cls-8" points="191.57 383.88 191.57 383.88 191.57 383.88 191.57 383.88"/>
        <path class="cls-8" d="M200.97,395.71c-.12.07-.3.18-.52.31-.23.14-.46.26-.71.37-.66.35-1.3.69-1.91,1.02-.61.33-1.21.65-1.81.97-.28.1-.46.18-.55.24-.09.05-.22.11-.39.18-1.33.7-2.69,1.36-4.08,1.99-1.4.63-2.67,1.2-3.82,1.73l-.37.1c-.24.14-.34.18-.29.13s.08-.1.08-.13c1.05-.45,2.04-.89,2.98-1.31s1.71-.8,2.3-1.15l.16-.1s.1-.07.21-.1c.1-.03.14-.07.1-.1-.24.1-.58.26-.99.47s-.87.44-1.36.68c-.49.24-.99.49-1.49.73-.51.24-.97.45-1.39.63-.28.14-.43.21-.44.21s-.17.05-.44.16l-.52.26-.42.16-.84.31c-.18.04-.22.04-.13,0,.09-.03.23-.08.42-.13.19-.05.37-.11.55-.18.17-.07.24-.12.21-.16l.52-.26c.35-.14.6-.25.76-.34.16-.09.43-.22.81-.39l.52-.21c.28-.1.53-.21.76-.31.23-.1.37-.19.44-.26-.31.1-.53.18-.65.24-.12.05-.38.17-.76.34l-1.05.47-.73.26s-.04-.03-.13.03c-.09.05-.19.1-.31.16-.12.05-.23.1-.31.13-.09.04-.13.02-.13-.05.17-.07.42-.17.73-.29.31-.12.52-.24.63-.34.49-.17.87-.34,1.15-.5.28-.16.66-.32,1.15-.5l.37-.16c.42-.17.7-.29.84-.34.14-.05.4-.2.79-.44.21-.14.54-.31.99-.5.45-.19.87-.37,1.26-.55l.31-.16c.03-.14-.11-.11-.44.08-.33.19-.6.32-.81.39l-.73.37-.63.31c-.21.1-.44.22-.71.34-.26.12-.57.27-.92.44l-.37.1-.31.16-1.62.68c.1-.07.33-.19.68-.37.35-.17.73-.36,1.15-.55.42-.19.84-.38,1.26-.58.42-.19.73-.36.94-.5-.52.18-1.19.47-1.99.89-.8.42-1.55.75-2.25.99.28-.21.7-.44,1.26-.71.56-.26,1.1-.55,1.62-.86.21-.07.37-.14.47-.21.1-.07.31-.16.63-.26.17-.07.31-.12.42-.16.1-.03.19-.07.26-.1v-.05s-.18,0-.42.13c-.24.12-.35.15-.31.08.21-.1.38-.19.52-.26l.37-.18c.1-.05.23-.11.37-.18l.63-.31c.31-.14.5-.23.55-.26.05-.03.22-.1.5-.21.28-.21.7-.44,1.26-.68.56-.24,1.06-.49,1.52-.73.38-.21.78-.41,1.18-.6.4-.19.79-.43,1.18-.71l.75-.42s0,0-.01,0h-.1c-.07.07-.14.11-.21.13-.07.02-.16.06-.26.13-.94.59-2.04,1.2-3.3,1.81-1.26.61-2.44,1.2-3.56,1.75l-.37.16c-.18.07-.41.17-.71.29-.3.12-.46.22-.5.29-.31.14-.52.24-.6.31-.09.07-.31.16-.65.26-.1.04-.15.04-.13,0,.02-.03.06-.08.13-.13.07-.05.14-.1.21-.16.07-.05.09-.1.05-.13-.7.28-1.33.56-1.88.84-.56.28-1.05.51-1.47.68-.1.07-.2.11-.29.13-.09.02-.22.06-.39.13-.04.04-.12.08-.26.13-.14.05-.3.11-.47.18l-.58.26c.07.04-.03.09-.29.16-.26.07-.44.14-.55.21-.28.1-.48.17-.6.18-.12.02-.29.08-.5.18-.18.07-.41.17-.71.29-.3.12-.48.17-.55.13.35-.14.44-.18.26-.13-.18.05-.28.06-.31.03.1-.03.17-.06.21-.08l.16-.08c.45-.24,1.03-.51,1.73-.79l.16-.1c.38-.17.64-.29.76-.34.12-.05.41-.17.86-.34.17-.1.16-.11-.05-.03-.21.09-.5.2-.86.34-.37.14-.77.29-1.2.45-.44.16-.81.29-1.13.39l-.16.05c-.18.1-.39.21-.65.31s-.52.2-.79.29c-.26.09-.5.15-.71.18-.21.04-.33.05-.37.05.45-.14.8-.26,1.05-.37.24-.1.61-.24,1.1-.42l.52-.16c.17-.07.41-.18.71-.34.3-.16.53-.25.71-.29l1.36-.52,1.47-.52c.17-.1.49-.25.94-.44.45-.19.84-.37,1.15-.55l-.05-.05c-.52.21-1.22.52-2.09.92-.87.4-1.64.71-2.3.92.17-.1.5-.24.97-.42.47-.17.92-.35,1.33-.52.14-.1.24-.17.29-.21.05-.03.06-.04.03-.03-.04.02-.14.08-.31.18-.77.31-1.56.6-2.38.86-.82.26-1.68.6-2.59,1.02-.18.04-.33.08-.47.13-.14.05-.23.06-.26.03l-.52.26c-.07-.03-.25,0-.55.1-.3.1-.53.19-.71.26-.49.14-.97.28-1.44.42-.47.14-.95.28-1.44.42l-.16.05c-.07-.03-.27,0-.6.1-.33.1-.62.18-.86.21l-.16.05c-.18.04-.28.05-.31.05s-.03-.02.03-.05c.05-.03.12-.07.21-.1.09-.03.17-.05.24-.05-.18,0-.38.02-.63.05-.24.04-.52.09-.84.16-.1,0-.08-.02.08-.05.16-.03.35-.08.58-.13.23-.05.47-.1.73-.16s.46-.1.6-.13c.1-.07.29-.12.55-.16.26-.03.48-.1.65-.21-.07,0-.27.04-.6.13-.33.09-.6.17-.81.24-.38.07-.71.12-.97.16-.26.04-.55.09-.86.16h-.16c-.31.07-.57.11-.76.13-.19.02-.36.04-.5.05-.14.02-.29.04-.44.05-.16.02-.36.04-.6.08h-.16l-.37.05-.79.05c-.18.04-.42.05-.73.05-.31.04-.58.07-.79.1-.21.04-.45.05-.73.05-.18-.07-.27-.09-.29-.05-.02.04-.13.04-.34,0-.07-.03-.24-.06-.5-.08-.26-.02-.44-.06-.55-.13,0-.07.05-.09.16-.05.07,0,.13,0,.18.03.05.02.11.03.18.03h.31c.28,0,.45.02.52.05l.16.05s.19-.05.47-.05h.34c.12,0,.18-.02.18-.05-.28,0-.45-.02-.52-.05-.21.04-.46.04-.76.03-.3-.02-.5-.04-.6-.08h-.31s-.06-.06-.18-.08c-.12-.02-.24-.04-.34-.08-.1.04-.23.02-.37-.05-.1-.07-.26-.14-.47-.21-.04,0-.06,0-.08-.03-.02-.02-.04-.03-.08-.03-.04-.03-.06-.05-.08-.05s-.04-.02-.08-.05l-.31-.16c-.28-.21-.45-.38-.52-.52-.14-.1-.26-.35-.37-.73-.14-.35-.21-.66-.21-.94v-.58c0-.17,0-.34.03-.5.02-.16.04-.36.08-.6,0-.03,0-.07.03-.1.02-.03.03-.09.03-.16,0-.03,0-.07.03-.1.02-.03.03-.09.03-.16,0,.07,0,.17-.03.29-.02.12-.04.27-.08.44-.04.21-.06.38-.08.52-.02.14,0,.28.03.42.03,0,.05-.09.05-.26.03-.17.06-.36.08-.55.02-.19.04-.37.08-.55,0-.07,0-.12.03-.16.02-.03.03-.07.03-.1.07-.21.1-.35.1-.42.07-.17.14-.37.21-.58.07-.21.14-.42.21-.63.07-.17.16-.37.26-.58s.19-.42.26-.63c.07-.1.12-.2.16-.29.03-.09.09-.18.16-.29l.05.05c.07-.17.15-.34.24-.5.09-.16.18-.32.29-.5.1-.17.22-.36.34-.55.12-.19.25-.37.39-.55l.31-.47c.28-.42.62-.88,1.02-1.39.4-.51.76-.86,1.07-1.07.28-.38.56-.71.84-.99s.56-.54.84-.79c.28-.28.55-.54.81-.79.26-.24.55-.51.86-.79.21-.17.38-.31.52-.42.14-.1.3-.24.47-.42.28-.21.56-.44.84-.68.28-.24.58-.49.89-.73l.16-.1c.1-.1.22-.2.34-.29.12-.09.24-.17.34-.24l.16-.1c.28-.21.57-.44.86-.68.3-.24.58-.45.86-.63.31-.21.64-.41.97-.6.33-.19.65-.39.97-.6.17-.07.34-.15.5-.24.16-.09.32-.17.5-.24.07-.07.14-.12.21-.16.07-.03.14-.07.21-.1.03,0,.06,0,.08-.03s.04-.03.08-.03c.17-.07.33-.13.47-.18.14-.05.3-.11.47-.18h-.05l.1-.05h.05s.05,0,.05-.03.02-.03.05-.03v-.05l.05.05h.05s.05.02.05.05h.1c.07,0,.1.04.1.1h.05l-.05.16-.1.31c-.07.1-.11.21-.13.31-.02.1-.06.21-.13.31l-.1.31c-.07.1-.16.25-.26.44-.1.19-.12.31-.05.34.03,0,.09-.03.16-.1-.07.07-.1.13-.1.18s-.04.15-.1.29c-.07.18-.11.3-.13.37-.02.07-.06.18-.13.31-.1.18-.18.29-.24.34s-.13.18-.24.39c-.04.04-.04,0,0-.08.03-.09.08-.17.13-.24.05-.07.09-.12.1-.16.02-.03-.03.02-.13.16l-.16.26s0,.1-.08.21c-.09.1-.1.16-.03.16l.21-.31.1-.1h.05c.07-.14.15-.28.24-.42.09-.14.17-.3.24-.47.02,0,.04,0,.05-.02.02-.07.03-.13.05-.19,0,.1-.02.16-.05.19-.05.2-.09.43-.13.68-.05.33-.06.58-.03.76-.04.04-.05.07-.05.1v.05c-.04.1-.04.18,0,.21.03.04.09.02.16-.05.1.1.27.27.5.5.23.23.46.46.71.71.24.24.48.44.71.6.23.16.37.22.44.18.14-.07.31-.1.52-.08.21.02.38,0,.52-.03-.07.18-.08.24-.03.18s.13-.15.24-.29c.07-.1.31-.32.71-.65.4-.33.71-.64.92-.92.03,0,.09-.05.16-.16.1-.07.21-.19.31-.37-.04-.07,0-.18.08-.34.09-.16.17-.32.24-.5.07-.14.12-.28.16-.42.03-.14.09-.31.16-.52.07-.1.11-.21.13-.31.02-.1.06-.21.13-.31.07-.21.1-.35.1-.42.03-.07.06-.16.08-.26.02-.1.04-.19.08-.26.17-.7.28-1.31.31-1.83h.05c.03-.1.06-.28.08-.52.02-.24,0-.51-.03-.79-.04-.21-.06-.4-.08-.58-.02-.17,0-.24.08-.21.03.1.05.21.05.31s.02.21.05.31v1.36c0,.1,0,.2.03.29.02.09.03.17.03.24,0,.21.02.31.05.31.07-.52.1-1.1.1-1.73s-.12-1.26-.37-1.88c-.1-.56-.42-1.15-.94-1.78-.1-.17-.23-.32-.37-.44-.14-.12-.28-.24-.42-.34-.14-.1-.28-.21-.42-.31-.14-.1-.26-.21-.37-.31-.1-.07-.24-.13-.42-.18-.18-.05-.26-.1-.26-.13-.24-.07-.49-.14-.73-.21-.24-.07-.51-.12-.79-.16-.28-.03-.55-.05-.81-.05h-.81c-.49,0-.96.05-1.41.16-.07,0-.13,0-.18.03-.05.02-.11.03-.18.03l-.31.1-.16.05h-.16l-.26.1c-.18.07-.36.15-.55.24-.19.09-.32.1-.39.03-.45.24-.88.46-1.28.65-.4.19-.79.39-1.18.6-.1.07-.22.13-.34.18-.12.05-.2.08-.24.08l-.21.1c-.31.18-.86.49-1.62.94-.28.21-.55.41-.81.6-.26.19-.48.32-.65.39-.45.35-.86.63-1.2.84-.1.1-.21.2-.31.29-.1.09-.23.18-.37.29l-.47.42c-.52.42-1.1.9-1.73,1.44-.63.54-1.12,1-1.47,1.39h.05l-.16.16c-.38.38-.67.65-.86.79-.19.14-.43.37-.71.68l-.34.34c-.12.12-.24.25-.34.39-.14.14-.21.18-.21.1-.14.18-.28.34-.42.5-.14.16-.28.32-.42.5l-.37.37c-.18.18-.35.37-.52.58-.18.24-.34.46-.5.65-.16.19-.25.32-.29.39-.14.14-.23.24-.26.31-.04.07-.07.14-.1.21-.14.28-.28.52-.42.71-.14.19-.3.39-.47.6,0,.07-.08.2-.24.39-.16.19-.22.32-.18.39.14-.21.23-.32.26-.34.03-.02.03.02-.03.1-.05.09-.1.18-.16.29s-.08.18-.08.21c-.07.18-.15.31-.24.42-.09.1-.17.23-.24.37-.21.31-.44.72-.68,1.23-.24.51-.44.85-.58,1.02-.04,0-.02-.06.05-.18.07-.12.14-.27.21-.44l.21-.52s-.07.02-.1.05-.09.14-.16.31c-.18.28-.26.47-.26.58-.04.1-.06.19-.08.26-.02.07-.06.18-.13.31l-.1.16c0,.07.05.02.16-.16.03,0,.03.04,0,.1-.04.07-.05.12-.05.16-.07.21-.14.4-.21.58-.07.18-.14.35-.21.52-.04.18-.1.38-.21.63,0,.07-.04.18-.1.31-.07.21-.12.38-.16.52-.14.42-.24.82-.29,1.2-.05.38-.1.73-.13,1.05-.04.18-.05.38-.05.63,0,.07,0,.17-.03.29-.02.12-.03.22-.03.29v1.26c.03.18.07.43.1.76.03.33.09.67.16,1.02.03.04.05,0,.05-.08s0-.18-.03-.29c-.02-.1-.03-.17-.03-.18s.03.06.1.24c0,.18.03.37.1.58.03.07.06.16.08.26.02.1.04.19.08.26h.05l.16.52c.07.18.12.31.16.39.03.09.09.17.16.24.07.14.12.26.16.37.03.07.06.14.08.21.02.07.06.14.13.21l.1-.1c.03-.07.08-.05.13.05s.1.16.13.16c.03.07.06.11.08.13.02.02.04.06.08.13.17.28.35.53.52.76.17.23.3.39.37.5.07.14.09.21.05.21-.04-.03-.09-.07-.16-.1-.07-.03-.16-.1-.26-.21.24.24.42.4.52.47.07.1.17.23.31.37.14.14.29.28.44.42.16.14.41.3.76.47-.04-.1.03-.1.21,0,.05.01.09.03.13.04-.05-.02-.09-.05-.13-.07-.1-.05-.19-.11-.26-.18-.1-.07-.2-.12-.29-.16-.09-.03-.17-.09-.24-.16-.28-.17-.51-.38-.68-.63.07.07.13.12.18.16.05.04.06.04.03,0,.31.24.52.38.63.42.14.1.28.18.42.21.07.04.14.07.21.1.07.04.14.07.21.1.07.07.17.13.29.18.12.05.25.13.39.24.21.07.37.11.5.13.12.02.31.1.55.24v-.05c.07,0,.14,0,.21.03.07.02.16.03.26.03.14.07.35.12.63.16.14.04.38.09.73.16.14,0,.38.04.73.1.21.04.42.06.63.08.21.02.44.04.68.08.03-.03.08-.06.13-.08.05-.02.17,0,.34.03h.21c.38,0,.67.02.86.05.19.04.43.02.71-.05.07-.03.16-.05.26-.05s.23-.02.37-.05h.63c.14-.03.24-.07.29-.1.05-.03.22-.09.5-.16.21,0,.34,0,.39-.03.05-.02.1-.04.13-.08s.08-.06.13-.08c.05-.02.17-.03.34-.03.14.07.45.04.94-.08.49-.12.8-.22.94-.29h.16c.1-.07.22-.13.34-.18.12-.05.34-.11.65-.18-.04-.03-.1-.04-.18-.03-.09.02-.17.03-.24.03l-.58.16h-.21c-.07.04-.19.06-.37.08-.18.02-.26.06-.26.13-.28,0-.57.04-.86.13-.3.09-.69.17-1.18.24,0,.04-.1.06-.29.08-.19.02-.29,0-.29-.03-.04-.03-.14-.04-.31-.03-.18.02-.35.04-.52.08-.18,0-.22,0-.13-.03.09-.02.13-.04.13-.08.45-.03.9-.09,1.33-.16.44-.07.86-.14,1.28-.21.38-.07.62-.14.71-.21.09-.07.27-.1.55-.1.24-.07.53-.14.86-.21.33-.07.69-.14,1.07-.21.07-.03.11-.07.13-.1.02-.03-.03-.03-.13,0l-.63.16c-.18.07-.39.12-.65.16-.26.04-.55.09-.86.16-.28.07-.55.13-.81.18s-.48.11-.65.18c-.18.04-.34.06-.5.08-.16.02-.32.03-.5.03.14,0,.21-.03.21-.1.17,0,.3-.02.37-.05l.63-.1s.02-.05-.05-.05h-.34s.04-.03.18-.1c.17,0,.3-.03.37-.1.1,0,.23,0,.37-.03.14-.02.3-.04.47-.08.14-.03.27-.06.39-.08.12-.02.18-.04.18-.08.1-.03.21-.05.31-.05s.19-.02.26-.05l.21-.05c.1-.03.2-.06.29-.08.09-.02.18-.03.29-.03-.14-.03-.4-.02-.79.05.03-.03.1-.06.21-.08.1-.02.16-.04.16-.08.14-.03.23-.06.26-.08.03-.02.14-.06.31-.13.24-.03.44-.08.6-.13s.27-.11.34-.18c.38-.07.6-.12.65-.16.05-.03.27-.1.65-.21l.21-.05c.24-.07.37-.07.37,0,.14,0,.19,0,.16.03-.04.02-.07.04-.1.08s0,.04.08,0c.09-.03.32-.1.71-.21l.73-.21.37-.1c.17-.07.28-.12.31-.16s.1-.07.21-.1c0-.03.03-.06.08-.08.05-.02.1-.04.13-.08-.18.07-.3.12-.37.16-.07.04-.19.09-.37.16-.07-.07-.24-.06-.52.03-.28.09-.51.13-.68.13.1-.03.23-.09.37-.16.14-.07.33-.14.58-.21.21-.07.44-.16.71-.26s.57-.21.92-.31c-.07,0-.19.03-.37.08-.18.05-.3.06-.37.03-.07.1-.28.21-.63.31-.35.1-.7.21-1.05.31-.38.18-.7.26-.94.26.38-.17.68-.35.89-.52.14-.03.38-.12.73-.26.24-.1.44-.17.58-.18.14-.02.28-.04.42-.08.14-.03.28-.07.42-.1.14-.03.35-.1.63-.21,0-.03-.04-.03-.1,0-.07.04-.16.07-.26.1-.1.04-.18.06-.24.08-.05.02-.04,0,.03-.08.31-.07.53-.16.65-.26.12-.1.27-.16.44-.16.17-.07.29-.12.34-.16.05-.03.17-.09.34-.16.21-.17.62-.39,1.23-.65.61-.26,1.16-.5,1.65-.71-.1,0-.34.08-.71.24s-.69.27-.97.34c-.21.07-.49.18-.84.31-.35.14-.56.24-.63.31l-1.1.37.05.05-.21.05c-.14.07-.29.13-.44.18s-.25.06-.29.03c.1-.07.2-.11.29-.13.09-.02.17-.06.24-.13l.21-.05c.1-.07.3-.15.58-.24.28-.09.56-.18.84-.29.49-.21.95-.41,1.39-.6.44-.19.74-.36.92-.5.38-.1.64-.2.76-.29.12-.09.36-.2.71-.34.03-.03.11-.08.24-.13.12-.05.22-.1.29-.13l.52-.21.16-.16-.68.26c-.28.14-.62.29-1.02.44-.4.16-.65.27-.76.34-.38.1-.73.24-1.05.39s-.59.25-.84.29c1.05-.45,2.3-.98,3.77-1.57l.21-.1c.35-.17.67-.32.97-.44.3-.12.55-.25.76-.39.28-.17.72-.38,1.33-.63.61-.24,1-.42,1.18-.52l1.05-.42c.17-.17.51-.37.99-.6.49-.23.91-.43,1.26-.6.49-.21.85-.38,1.07-.52.23-.14.58-.3,1.07-.47.56-.31,1.13-.64,1.7-.97.58-.33,1.19-.67,1.86-1.02l.84-.42c.28-.21.44-.33.47-.37s0-.02-.13.05ZM186.53,401.65c.05-.02.08-.04.08-.08l.89-.37c-.07.07-.24.18-.52.34-.28.16-.45.22-.52.18,0-.03.03-.06.08-.08ZM185.79,385.06s-.03.06-.03.13c0-.07,0-.11.03-.13s.03-.06.03-.13c0,.07,0,.11-.03.13ZM186.71,381c.03-.28.05-.51.05-.68v-.58c0-.14,0-.27-.03-.39-.02-.12-.03-.24-.03-.34,0,.04,0,.04.03,0,.02-.03.03-.06.05-.08s.03,0,.05.03c.02.04.04.14.08.31v.73c.03.07.05.22.05.44s-.02.48-.05.76c-.07.28-.13.52-.18.73s-.1.33-.13.37c-.04.21-.08.41-.13.6-.05.19-.1.34-.13.44-.1.28-.19.45-.26.52,0,0,0,0,0,0,0,.07,0,.11-.03.12,0,.04-.02.09-.03.13,0-.07,0-.11.03-.13,0,0,0,0,0,0,0-.04.02-.08.03-.12,0,0,0,0,0,0,0,0,0,0,0,0,.02-.08.03-.16.05-.23.03-.16.07-.32.1-.5l.1-.21s-.03-.11.03-.34c.05-.23.11-.48.18-.76.07-.28.12-.56.16-.84ZM180.85,375.03c.59,0,1.06.03,1.41.08.35.05.66.11.94.18.31.1.66.24,1.05.42l.31.16c.24.18.44.32.58.44.14.12.26.25.37.39.07.14.16.29.26.44s.21.34.31.55c.28.66.42,1.29.42,1.88.03.38.03.75,0,1.1,0-.1-.04-.19-.1-.26.03-.17.05-.35.05-.52v-.52c-.07-.17-.13-.41-.18-.71-.05-.3-.15-.62-.29-.97-.21-.38-.4-.7-.58-.94-.14-.17-.28-.31-.42-.42-.14-.1-.3-.23-.47-.37-.18-.07-.32-.13-.44-.18-.12-.05-.25-.11-.39-.18-.42-.14-.8-.26-1.15-.37-.07-.03-.16-.05-.26-.05s-.21-.02-.31-.05h-.79v-.05c-.24,0-.35-.02-.31-.05ZM167.26,381.68c.05-.07.13-.15.24-.24.1-.09.21-.17.31-.24.03.04,0,.1-.1.21-.24.21-.39.32-.44.34-.05.02-.05,0,0-.08ZM161.11,409.69c-.07-.03-.15-.07-.24-.1-.09-.03-.17-.07-.24-.1-.07-.07-.15-.11-.24-.13-.09-.02-.17-.06-.24-.13-.1-.1-.21-.17-.31-.21-.07-.03-.16-.1-.26-.21-.14-.07-.23-.12-.26-.16-.07-.07-.12-.12-.16-.16-.04-.03-.09-.09-.16-.16-.07-.03-.16-.1-.26-.21-.14-.1-.31-.26-.52-.47.07,0,.19.1.37.29.17.19.28.27.31.24.07.07.14.12.21.16.28.28.46.44.55.47.09.04.27.14.55.31-.07,0-.04.04.1.1.14.07.26.14.37.21.35.14.49.23.42.26ZM161.64,387.75s.02-.07.05-.1c.14-.17.31-.41.52-.71.21-.3.35-.44.42-.44-.07.1-.1.18-.1.21s-.04.09-.1.16c-.14.18-.27.34-.39.5-.12.16-.25.32-.39.5-.07,0-.07-.03,0-.1ZM168.86,410.26h-.03c-.05,0-.17.02-.34.05-.49.04-.87.07-1.15.1-.28.04-.68.04-1.2,0h-.21c-.14,0-.21.02-.21.05h2.15s-.1.05-.21.05-.18.04-.21.1c-.24,0-.41-.02-.5-.05-.09-.03-.29-.03-.6,0h-.42c-.21,0-.38,0-.52.03-.14.02-.26.04-.37.08-.18-.03-.32-.06-.44-.08-.12-.02-.27-.03-.44-.03-.18-.03-.33-.06-.47-.08-.14-.02-.28-.04-.42-.08-.18-.07-.33-.12-.47-.16-.14-.03-.3-.09-.47-.16-.07-.07-.17-.12-.29-.16-.12-.03-.25-.1-.39-.21.14,0,.31.05.52.16l.31.1c.07,0,.17.04.31.1l.26.1c.17.04.35.05.52.05.07,0,.14,0,.21.03.07.02.19.04.37.08.03-.03.09-.04.16-.03.07.02.1,0,.1-.03-.14-.03-.28-.05-.42-.05-.07,0-.13,0-.18-.03-.05-.02-.11-.03-.18-.03-.1,0-.22-.02-.34-.05-.12-.03-.27-.09-.44-.16-.1-.03-.16-.06-.16-.08,0,0,0-.01-.01-.02-.01,0-.03,0-.04,0,.02,0,.03,0,.04,0,.16.03.29.05.4.07.12.02.25.04.39.08.24,0,.56.07.94.21.03-.03.16-.05.37-.05h.24c.09,0,.18.02.29.05.17-.07.44-.07.79,0,.35.07.73.09,1.15.05.21-.03.42-.05.63-.05h1.01-.02ZM177.08,405.92c-.07,0-.12.02-.16.05.03-.03.09-.05.16-.05ZM176.87,405.97s-.09.05-.16.05c.07,0,.12-.02.16-.05ZM176.82,406.02v.05-.05ZM176.66,406.07c-.1,0-.18.02-.21.05.03-.03.1-.05.21-.05ZM176.61,406.23h-.1.1ZM175.82,406.34h-.05.05ZM175.25,406.54s-.02.05-.05.05l.05-.05ZM175.09,406.65h-.05.05ZM176.97,407.77c-.18.05-.4.11-.68.18-.28.07-.56.14-.84.21-.28.07-.45.12-.52.16l-.21.05c-.18.07-.33.12-.47.16-.14.04-.3.07-.47.1.14-.03.26-.1.37-.21l.37-.05c.45-.14.77-.23.94-.26.17-.03.37-.09.58-.16.17-.07.31-.11.42-.13.1-.02.28-.06.52-.13.17,0,.17.03,0,.08ZM177.03,406.02l.1-.05s-.07.05-.1.05ZM177.13,405.86c.07,0,.12-.02.16-.05-.04.04-.09.05-.16.05ZM177.24,405.97h-.05.05s.07-.05.1-.05l-.1.05ZM177.34,405.81s.07-.05.1-.05c-.04,0-.07.02-.1.05ZM177.5,405.71c.07,0,.12-.02.16-.05-.04.04-.09.05-.16.05Z"/>
        <path class="cls-8" d="M159.13,409.05s-.02,0-.04,0c.01,0,.03,0,.04,0Z"/>
        <path class="cls-8" d="M219.21,372.1c.07-.03.07,0,.02.07-.05.08-.06.14-.02.17l-.1.15c-.07.1-.1.14-.1.12s.02-.05.05-.1c.03-.05.07-.1.1-.15.03-.05.03-.07,0-.07-.07.13-.12.21-.17.22-.05.02-.11.09-.17.22-.03.13-.13.36-.3.69.03-.03.08-.05.15-.05.03.03,0,.11-.07.22-.08.12-.16.21-.22.27l-.1.2-.2.4-.25.35.05.05c-.07.1-.11.17-.12.22-.02.05-.02.09,0,.12.02.03.02.07.02.12s-.02.12-.05.22c-.1.2-.17.37-.22.52s-.16.34-.32.57h.05c-.16.26-.3.53-.42.79-.12.26-.24.53-.37.79-.13.23-.21.4-.25.52-.03.12-.1.29-.2.52l-.15.3v.05c-.07.1-.12.21-.17.32-.05.12-.11.24-.17.37l-.05.1-.1.3-.34.74-.59,1.33c-.1.2-.19.4-.27.62-.08.21-.17.42-.27.62l-.05.1-.2.54-.05.1-.54,1.24c-.07.17-.12.29-.17.37-.05.08-.11.21-.17.37-.23.49-.44.93-.64,1.31-.2.38-.39.83-.59,1.36-.1.17-.19.36-.27.59-.08.23-.17.48-.27.74.26.07.44.12.54.15-.03.07-.1.11-.2.12-.1.02-.18,0-.25-.07l-.15-.05c-.03.07,0,.11.12.12.11.02.2.06.27.12v.05c.1.07.21.11.34.12.13.02.28.04.44.07l.3.05c.07,0,.12,0,.17.02.05.02.09,0,.12-.02.07.07.1.12.1.15.1,0,.11.03.05.1-.16-.03-.27-.06-.32-.07-.05-.02-.14,0-.27.07.23.1.46.3.69.59.07.03.16.05.3.05.07.07.16.12.27.15.11.03.09.07-.07.1h-.15c0-.1-.07-.16-.2-.2.03.03.05.08.05.15.2.26.33.53.39.79h.05v.1c0,.13-.02.35-.05.64-.03.3-.08.61-.15.94-.07.33-.15.62-.25.86-.1.25-.2.39-.3.42,0,.03-.03.05-.1.05-.03,0-.07,0-.1.02-.03.02-.07.02-.1.02,0,.03.02.05.05.05,0,.03-.02.05-.05.05h-.15c-.2.07-.39.1-.59.1l.39.2.39.05v.05s-.02.05.05.05h.1c.03.07.02.09-.02.07-.05-.02-.09,0-.12.02h-.1c-.13-.07-.13-.08,0-.05.13.03.18.03.15,0-.1,0-.16-.02-.17-.05-.02-.03-.07-.05-.17-.05-.07-.03-.11-.04-.12-.02-.02.02-.06.02-.12.02-.07-.03-.1-.04-.1-.02s-.03.02-.1.02c.03,0,.05.03.05.1s-.04.08-.12.05c-.08-.03-.16-.05-.22-.05l-.1-.05c-.1-.03-.19-.05-.27-.05s-.16-.02-.22-.05l-.05.05c-.16-.03-.24,0-.22.07.02.08-.04.11-.17.07-.13,0-.24,0-.32.02-.08.02-.21,0-.37-.07l-.05.05c-.16-.03-.33-.06-.49-.07-.16-.02-.33-.04-.49-.07h-.1s-.02.05-.05.05v-.05h-.05l-.1.35-.1.2c-.2.63-.42,1.28-.66,1.98-.25.69-.45,1.27-.61,1.73-.03.17-.09.31-.17.44-.08.13-.11.25-.07.35-.03.07-.06.15-.07.25-.02.1-.04.15-.07.15l-.05.25c-.03.07-.08.21-.15.42-.07.21-.1.4-.1.57-.03.03-.1.13-.2.3-.03-.03,0-.14.07-.32.08-.18.11-.3.07-.37l.05-.1c.07-.07.11-.18.12-.35.02-.16.06-.35.12-.54.03-.03.03-.07,0-.1-.07.07-.13.2-.2.4-.07.2-.12.31-.15.35-.07.17-.09.26-.07.27.02.02,0,.07-.07.17-.07.17-.1.32-.1.47s-.03.32-.1.52l-.3.99-.1.25v.1c-.1.36-.18.59-.25.67-.07.08-.16.34-.3.77,0,.03-.02.07-.05.1-.07.17-.12.32-.17.47-.05.15-.11.35-.17.62-.07.13-.12.3-.15.49-.03.2-.08.31-.15.35-.03-.13,0-.27.07-.42.08-.15.11-.27.07-.37.03-.07.07-.17.12-.32.05-.15.1-.3.15-.44.05-.15.08-.26.1-.35.02-.08,0-.11-.02-.07-.07.17-.12.33-.17.49-.05.17-.11.28-.17.35.03-.07.05-.16.05-.3s-.03-.08-.1.15l-.05.1c-.07.17-.12.35-.15.54-.03.2-.08.31-.15.35l-.05.1-.49,1.78c-.07.13-.12.29-.15.47-.03.18-.07.29-.1.32l-.1.3c-.07,0-.11.06-.12.17-.02.12-.04.21-.07.27-.13.63-.28,1.19-.44,1.68-.16.49-.3.97-.39,1.43-.07.23-.09.29-.07.17.02-.12,0-.17-.02-.17.07-.3.14-.58.22-.84.08-.26.12-.48.12-.64-.16.36-.3.82-.42,1.38-.12.56-.22,1.02-.32,1.38h-.05c.03-.23.1-.48.2-.74.1-.26.13-.46.1-.59l.25-.89.25-.89c.07-.1.11-.25.15-.44.03-.2.07-.35.1-.44l.1-.35c.07-.26.11-.49.15-.67.03-.18.1-.4.2-.67-.07.07-.16.27-.27.62-.12.35-.19.65-.22.91l-.05.1c-.07.2-.13.43-.2.69-.07.26-.13.51-.2.74-.07.23-.12.41-.17.54-.05.13-.07.13-.07,0,.07-.26.11-.44.15-.52.03-.08.07-.24.1-.47l.05-.1-.05-.05c.07-.2.11-.4.15-.59.03-.2.07-.38.1-.54.03-.03.04-.06.02-.07-.02-.02,0-.06.02-.12-.03-.03-.07.02-.12.15-.05.13-.04.07.02-.2-.07.03-.12.14-.15.32-.03.18-.07.34-.1.47-.07.13-.12.23-.15.3-.03.07-.07.18-.1.35,0,.07-.03.17-.1.32-.07.15-.07.22,0,.22l-.1.35c-.03.1-.07.2-.1.3-.03.1-.03.15,0,.15-.03.13-.06.22-.07.27-.02.05-.04.11-.07.17-.07.26-.15.58-.25.94-.1.36-.2.76-.3,1.19-.07.03-.1-.04-.1-.22s-.03-.21-.1-.07c-.1.2-.14.34-.12.42.02.08,0,.21-.07.37.07.07.07.19,0,.37-.07.18-.12.32-.15.42l-.1.25c-.07.36-.16.74-.27,1.14-.12.4-.22.77-.32,1.14-.1.4-.19.78-.27,1.16-.08.38-.16.73-.22,1.06-.03.07-.06.12-.07.15-.02.03-.02.08-.02.15l-.1.1.15-.54.39-1.58c.07-.26.15-.58.25-.94.1-.36.16-.64.2-.84.07-.17.09-.26.07-.3-.02-.03,0-.17.07-.4.1-.33.16-.54.17-.64.02-.1.06-.3.12-.59-.07-.03-.11.02-.12.17-.02.15-.04.24-.07.27l-.05-.05s.08-.17.15-.4c.07-.17.09-.29.07-.37-.02-.08,0-.19.07-.32.07-.36.14-.72.22-1.09.08-.36.12-.64.12-.84-.16.4-.3.86-.42,1.38-.12.53-.22.95-.32,1.28,0-.17.03-.38.1-.64.07-.26.13-.53.2-.79.07-.26.12-.51.17-.74.05-.23.07-.38.07-.44l-.3.99-.05.25-.05.2c-.13.46-.23.81-.3,1.04-.07.23-.13.53-.2.89-.07.13-.12.3-.15.52-.03.21-.08.29-.15.22l.1-.2c.07-.26.13-.54.2-.82.07-.28.11-.5.15-.67.03-.23.07-.39.1-.47.03-.08.08-.26.15-.52l.05-.25c.1-.26.16-.49.2-.69.03-.2.1-.44.2-.74-.03-.1-.02-.25.05-.44.07-.2.1-.36.1-.49-.03-.03-.06.07-.07.3-.02.23-.06.31-.12.25l-.15.44-.15.69c-.07.26-.12.43-.15.49-.03.07-.08.2-.15.4-.03-.07-.03-.18,0-.35.03-.17.08-.33.15-.49l.1-.3c.07-.26.11-.44.12-.54.02-.1.06-.26.12-.49l.1-.35s-.04-.05-.02-.15c.02-.1.04-.21.07-.32.03-.12.06-.21.07-.27.02-.07,0-.05-.02.05l-.25.79-.05.35c-.07.16-.09.25-.07.27.02.02,0,.11-.07.27-.16.56-.31,1.19-.44,1.88-.13.69-.25,1.2-.34,1.53-.03,0-.04-.03-.02-.1.02-.07.02-.12.02-.15v-.1c.07-.43.18-.94.34-1.53.16-.59.33-1.22.49-1.88-.03-.03-.05-.07-.05-.1s-.02.03-.05.2l-.1.25c-.07.36-.16.74-.27,1.14-.12.4-.24.82-.37,1.28-.13.43-.25.86-.37,1.28-.12.43-.21.87-.27,1.33-.07.1-.1.17-.1.22s-.02.16-.05.32c-.1.4-.2.79-.3,1.19s-.21.82-.34,1.28c-.03.16-.07.32-.12.47-.05.15-.08.26-.1.35-.02.08-.03.11-.05.07-.02-.03,0-.15.02-.35l.15-.54c.13-.46.25-.88.34-1.26.1-.38.18-.75.25-1.11.1-.3.16-.52.2-.67.03-.15.08-.37.15-.67.07-.26.14-.54.22-.82.08-.28.12-.5.12-.67l.2-.69c0-.1.07-.34.2-.72.13-.38.2-.67.2-.86,0-.26.08-.64.25-1.14v-.1c.13-.46.24-.88.32-1.26.08-.38.16-.75.22-1.11-.07.13-.12.3-.15.49-.03.2-.08.41-.15.64.03.07,0,.22-.07.47-.08.25-.16.45-.22.62l-.1.49s-.05-.03-.05-.1v-.05l.1-.35c0-.07,0-.13.02-.2.02-.07,0-.12-.02-.15.07-.2.11-.35.12-.44.02-.1.06-.25.12-.44-.03-.17-.02-.39.05-.67.07-.28.13-.57.2-.86.07-.17.12-.33.17-.49.05-.17.07-.3.07-.4v-.1c0-.07,0-.12.02-.17.02-.05.02-.11.02-.17-.03,0-.06.05-.07.15-.02.1-.04.18-.07.25l-.05.15h.05l-.2.69c.03.07.02.19-.05.37-.07.18-.13.35-.2.52-.07.16-.12.35-.15.57-.03.21-.08.35-.15.42.07-.3.15-.63.25-1.01.1-.38.11-.65.05-.82.03-.1.04-.17.02-.22-.02-.05,0-.14.07-.27.07-.07.09-.15.07-.25-.02-.1,0-.23.07-.4-.07-.13-.11-.11-.12.07-.02.18-.04.25-.07.22.07-.36.14-.58.22-.64.08-.07.16-.26.22-.59l.1-.44c0-.07,0-.14-.02-.22-.02-.08,0-.21.02-.37-.07.03-.15.21-.25.54-.07.2-.13.4-.2.59-.07.2-.07.33,0,.4-.07.07-.11.14-.12.22-.02.08-.06.16-.12.22.07-.2.11-.38.15-.54.03-.16.07-.33.1-.49.1-.23.15-.41.15-.54-.07.07-.13.19-.2.37-.07.18-.13.26-.2.22-.03.1-.04.17-.02.22.02.05,0,.14-.07.27v-.15c0-.1.02-.21.05-.35l.05-.25.15-.44c.07-.23.11-.37.12-.42.02-.05.02-.06.02-.02s0,.07.02.1c.02.03.04.02.07-.05.07,0,.11-.07.15-.2l.05-.1c.07-.23.1-.36.1-.4s.05-.16.15-.4c-.03-.03-.02-.23.05-.59.07-.07.09-.12.07-.17-.02-.05,0-.11.02-.17-.03,0-.04-.03-.02-.1.02-.07.02-.12.02-.15-.07.17-.11.26-.12.3-.02.03-.06.08-.12.15l.1-.35.05-.1.1-.35c-.07-.03-.06-.14.02-.32.08-.18.14-.34.17-.47,0-.07.02-.15.05-.25,0-.16-.02-.17-.05-.02-.03.15-.08.19-.15.12l.1-.35.1-.25s-.05-.02-.05-.05v-.05l-.2.54c0,.2-.07.48-.2.84-.13.36-.21.64-.25.84l-.1.35c-.03.1-.05.1-.05,0,.13-.43.23-.81.3-1.14.1-.13.13-.23.1-.3-.03-.07,0-.2.1-.4l.44-1.43s-.05-.02-.05-.07-.02-.04-.05.02c-.03.1-.06.2-.07.3-.02.1-.04.15-.07.15s-.07.05-.1.15c-.03.1-.03.17,0,.2-.1.26-.16.48-.2.64-.03.17-.08.31-.15.44.03.03.03.08,0,.15-.03.07-.07.13-.1.2l-.05.1-.1.35-.1.2c.07-.26.08-.44.05-.54l.05-.15c-.03-.07,0-.23.1-.49.1-.26.18-.43.25-.49.07-.16.07-.25.02-.27-.05-.02-.04-.12.02-.32.07-.16.08-.26.05-.3-.03-.03-.05-.1-.05-.2.07-.07.11-.17.15-.32.03-.15.05-.25.05-.32,0-.16.03-.3.1-.4.07-.1.13-.23.2-.4l.05-.1c.03-.1.04-.16.02-.17-.02-.02-.02-.04-.02-.07.07-.13.11-.25.15-.35.03-.1.07-.2.1-.3.1-.26.19-.51.27-.74.08-.23.11-.4.07-.49l-.05-.05c.07-.13.1-.28.1-.44.13-.26.18-.43.15-.49-.03-.07.02-.23.15-.49-.1,0-.1-.05,0-.15-.1.1-.16.21-.2.35-.03.13-.08.31-.15.54-.03-.03-.03-.1,0-.2.03-.1.02-.13-.05-.1.07-.3.13-.48.2-.54s.11-.21.15-.44c-.03.23,0,.3.12.2.11-.1.2-.28.27-.54l.05-.1s-.04-.07-.02-.1c.02-.03,0-.05-.02-.05l-.15-.05c.07-.16.11-.28.12-.35.02-.07.02-.15.02-.25l.05-.1c-.16,0-.32,0-.47-.02-.15-.02-.3-.02-.47-.02-.16-.07-.36-.08-.59-.05-.23.03-.44.03-.64,0h-.74l-.39.05v-.05h-.79l-.54.05h-.89c-.1,0-.15-.02-.15-.05.13-.03.29-.04.47-.02.18.02.3,0,.37-.02h-1.03l-.15.05v-.05c-.16,0-.35,0-.57.02-.21.02-.42.02-.61.02-.23.03-.44.05-.61.05s-.34.02-.47.05c-.1.03-.19.02-.27-.02-.08-.05-.16-.04-.22.02h-.49c-.16.4-.31.78-.44,1.16-.13.38-.23.7-.3.96-.03.17-.08.29-.15.37-.07.08-.08.16-.05.22-.07.23-.12.35-.15.35l-.05.2c-.03.07-.07.18-.12.35-.05.17-.07.31-.07.44-.03.03-.08.12-.15.25-.07-.03-.06-.12.02-.27.08-.15.11-.24.07-.27v-.1c.07-.07.11-.16.12-.27.02-.12.06-.25.12-.42,0-.07-.02-.1-.05-.1-.07.07-.12.17-.15.32-.03.15-.07.22-.1.22-.07.13-.09.21-.07.22.02.02,0,.07-.07.17-.03.17-.05.3-.05.4s-.03.23-.1.4l-.25.79-.05.2-.05.1c-.07.26-.12.43-.17.49-.05.07-.12.28-.22.64-.07.07-.1.08-.1.05-.07.17-.12.3-.15.42-.03.12-.08.27-.15.47-.07.1-.11.23-.12.4-.02.17-.06.26-.12.3-.03-.1,0-.21.07-.35.08-.13.11-.23.07-.3.07-.13.14-.35.22-.64.08-.3.09-.41.02-.35-.07.36-.15.59-.25.69v-.25c0-.1-.03-.05-.1.15v.1c-.07.1-.11.23-.12.4-.02.17-.06.26-.12.3l-.05.1c-.07.23-.14.46-.22.69-.08.23-.16.48-.22.74-.03.07-.06.18-.07.35-.02.17-.06.25-.12.25l-.1.3c-.07,0-.1.12-.1.35-.07.26-.13.49-.2.69-.07.2-.13.41-.2.64-.07.2-.12.4-.17.59-.05.2-.11.38-.17.54-.07.2-.08.26-.05.17.03-.08.03-.14,0-.17.07-.23.13-.45.2-.67.07-.21.08-.39.05-.52-.1.33-.21.72-.32,1.16-.12.44-.21.82-.27,1.11l-.05-.05c.03-.17.09-.36.17-.59.08-.23.11-.4.07-.49l.2-.69.2-.74c.07-.07.11-.18.12-.35.02-.16.04-.3.07-.4l.05-.25c.07-.23.11-.41.15-.54.03-.13.08-.31.15-.54-.07.07-.15.24-.25.52-.1.28-.15.52-.15.72l-.05.1c-.07.17-.12.35-.17.57-.05.21-.11.41-.17.59-.07.18-.12.32-.15.42-.03.1-.05.1-.05,0,.07-.23.11-.38.12-.44.02-.07.04-.18.07-.35l.05-.1h-.05c.07-.16.11-.32.12-.47.02-.15.04-.3.07-.47v-.2s-.07.04-.12.12c-.05.08-.04.04.02-.12-.07,0-.11.08-.12.25-.02.17-.04.28-.07.35-.07.13-.11.21-.12.25-.02.03-.04.13-.07.3-.03.07-.07.16-.12.27-.05.12-.04.17.02.17l-.1.3c0,.23-.02.35-.05.35-.03.1-.06.17-.07.2-.02.03-.04.08-.07.15-.03.23-.09.49-.17.77-.08.28-.16.6-.22.96-.07.03-.1-.02-.1-.17s-.03-.17-.1-.07c-.07.16-.1.27-.1.32s-.02.16-.05.32c.07.07.07.16.02.3-.05.13-.11.25-.17.35l-.05.2c-.16.59-.33,1.21-.49,1.85-.16.64-.3,1.24-.39,1.8-.07.13-.08.21-.05.25-.03,0-.05.02-.05.05s-.02.05-.05.05l.1-.44.34-1.28c.07-.26.14-.54.22-.82.08-.28.12-.5.12-.67.07-.13.09-.21.07-.25-.02-.03,0-.13.02-.3.07-.26.11-.44.12-.52.02-.08.06-.24.12-.47-.07-.07-.1-.03-.1.1s-.03.21-.1.25l-.05-.05s.08-.15.15-.35c.07-.13.09-.23.07-.3-.02-.07,0-.15.02-.25.07-.26.13-.55.2-.86.07-.31.08-.55.05-.72-.16.33-.28.71-.34,1.14-.07.43-.15.77-.25,1.04,0-.13.02-.3.07-.52.05-.21.1-.43.15-.64.05-.21.1-.41.15-.59.05-.18.06-.3.02-.37l-.25.79-.05.2-.05.2c-.07.36-.12.63-.17.82-.05.18-.11.42-.17.72-.07.1-.11.24-.12.42-.02.18-.06.24-.12.17l.05-.15c.07-.2.13-.41.2-.64.07-.23.1-.41.1-.54.03-.2.06-.33.07-.4.02-.07.06-.21.12-.44l.05-.15c.07-.26.11-.47.15-.62.03-.15.08-.35.15-.62-.03-.07-.02-.18.05-.35.07-.16.08-.3.05-.4-.03-.03-.06.05-.07.25-.02.2-.06.26-.12.2l-.1.4-.15.54c-.03.2-.06.32-.07.37-.02.05-.06.16-.12.32-.03-.1,0-.31.1-.64l.05-.3c.07-.16.1-.3.1-.4s.03-.23.1-.4l.1-.3s-.04-.04-.02-.12c.02-.08.04-.16.07-.25.03-.08.05-.15.05-.2s-.02-.04-.05.02l-.15.64-.1.25h.05l-.1.25-.05.2c-.16.46-.29.97-.37,1.53-.08.56-.16.97-.22,1.24-.03,0-.04-.02-.02-.07.02-.05,0-.09-.02-.12l.05-.1c.03-.17.07-.35.1-.54.03-.2.08-.41.15-.64.07-.26.12-.53.17-.79.05-.26.11-.53.17-.79v-.05l-.05.05v.1l-.05.2c-.16.59-.34,1.24-.54,1.95-.2.71-.38,1.42-.54,2.15-.07.07-.09.12-.07.17.02.05,0,.14-.02.27-.07.33-.14.65-.22.96-.08.31-.19.65-.32,1.01-.07.26-.12.49-.17.69-.05.2-.04.12.02-.25l.1-.44c.2-.69.34-1.33.44-1.93.07-.23.11-.4.15-.52.03-.12.08-.3.15-.57.03-.2.09-.41.17-.64.08-.23.11-.41.07-.54l.15-.54c0-.1.06-.3.17-.59.11-.3.17-.53.17-.69,0-.26.05-.58.15-.94l.05-.1c.23-.82.36-1.47.39-1.93-.07.1-.11.23-.12.4-.02.17-.06.33-.12.49.03.07.02.2-.05.4-.07.2-.12.38-.15.54l-.1.35s-.05-.03-.05-.1l.05-.25c0-.07,0-.13.02-.2.02-.07,0-.1-.02-.1.07-.16.1-.29.1-.37s.03-.21.1-.37c-.07-.13-.07-.31,0-.54.07-.23.13-.46.2-.69.03-.13.07-.27.12-.42.05-.15.06-.25.02-.32l.05-.1v-.3s-.08.17-.15.4v.1l-.15.54s.02.13-.02.3c-.05.17-.09.31-.12.44-.07.1-.12.24-.15.42-.03.18-.08.3-.15.37.03-.26.09-.54.17-.84.08-.3.09-.53.02-.69.03-.07.05-.12.05-.17s.02-.11.05-.17c.07-.07.08-.14.05-.22-.03-.08-.02-.21.05-.37-.03-.07-.06-.02-.07.12-.02.15-.04.19-.07.12.07-.26.12-.42.17-.47.05-.05.11-.21.17-.47l.1-.4c-.03-.07-.06-.13-.07-.2-.02-.07,0-.16.02-.3-.1.1-.16.25-.2.44-.07.17-.12.33-.17.49-.05.17-.04.28.02.35-.07.03-.11.08-.12.15-.02.07-.06.12-.12.15.07-.16.11-.31.15-.44.03-.13.05-.25.05-.35.07-.16.1-.33.1-.49-.07.07-.12.17-.15.32-.03.15-.08.21-.15.17l-.1.4c0-.07-.02-.1-.05-.1.03-.07.04-.12.02-.15-.02-.03,0-.08.02-.15l.05-.2.1-.35c.03-.2.07-.31.1-.35.03-.03.05-.04.05-.02s0,.04.02.07c.02.03.04.02.07-.05.07,0,.11-.05.15-.15l.05-.1c.03-.16.05-.26.05-.3s.03-.15.1-.35v-.17c0-.08.03-.17.1-.27.03-.07.04-.12.02-.15-.02-.03,0-.08.02-.15-.03,0-.04-.02-.02-.07.02-.05,0-.09-.02-.12-.03.13-.06.21-.07.22-.02.02-.06.06-.12.12l.1-.3v-.1l.1-.25c-.03-.07-.02-.16.05-.3.07-.13.1-.25.1-.35,0-.07.02-.13.05-.2-.03-.16-.06-.18-.07-.05-.02.13-.06.17-.12.1l.1-.3.05-.15c0-.07-.02-.12-.05-.15l-.1.44c-.03.17-.1.4-.2.69-.1.3-.16.53-.2.69l-.05.3s-.07.03-.1,0c.07-.16.11-.33.15-.49.03-.16.07-.31.1-.44.07-.1.09-.17.07-.22-.02-.05,0-.16.07-.32l.39-1.19s-.05-.02-.05-.07-.02-.04-.05.02c-.03.07-.06.15-.07.25-.02.1-.04.15-.07.15-.03-.03-.06,0-.07.07-.02.08-.02.14-.02.17-.07.2-.11.37-.12.52-.02.15-.06.27-.12.37,0,.13-.03.23-.1.3l-.05.1-.05.25-.1.2c.07-.16.09-.27.07-.32-.02-.05-.04-.11-.07-.17l.05-.1c-.03-.07,0-.21.07-.42.08-.21.16-.34.22-.37.07-.16.07-.25.02-.25s-.04-.08.02-.25c.03-.13.03-.21,0-.25-.03-.03-.05-.08-.05-.15.07-.07.11-.16.15-.27.03-.12.05-.21.05-.27-.03-.16-.02-.27.05-.32.07-.05.13-.16.2-.32v-.1c.03-.13.03-.2,0-.2.07-.1.11-.19.12-.27.02-.08.06-.17.12-.27.07-.2.13-.39.2-.57.07-.18.08-.32.05-.42.03-.1.05-.17.05-.22s.02-.11.05-.17l.1-.3h-.2v.05l-.05-.05c-.36.1-.69.15-.98.15s-.59.03-.89.1c-.13.03-.16.04-.1.02.07-.02.1-.04.1-.07.16-.03.34-.06.52-.07.18-.02.3-.06.37-.12-.26,0-.56.03-.89.1-.33.07-.59.12-.79.15l-.05-.05c.13-.07.29-.09.47-.07.18.02.3,0,.37-.07l.54-.1.54-.05c.07.03.16.03.27,0,.11-.03.2-.07.27-.1l.2-.05h.05s.02-.07.05-.1c-.07,0-.12,0-.15.02-.03.02-.07.02-.1.02h-.05c-.13,0-.28.02-.44.05-.16.03-.32.06-.47.07-.15.02-.25.02-.32.02s-.07-.02,0-.05l.59-.1.05-.05c.33-.07.56-.13.69-.2.03,0,.07-.02.1-.05,0-.03-.04-.05-.12-.05s-.04-.02.12-.05c-.03-.03-.11-.03-.22,0-.12.03-.21.05-.27.05s-.12,0-.17-.02c-.05-.02-.12,0-.22.02-.07.03-.14.04-.22.02-.08-.02-.12,0-.12.07h-.2c-.16,0-.25.03-.25.1h-.3c-.16.03-.35.06-.57.07-.21.02-.45.06-.71.12-.03-.07,0-.12.1-.15.1-.03.1-.08,0-.15-.13,0-.21,0-.25.02-.03.02-.12.04-.25.07,0,.07-.06.11-.17.12-.11.02-.2.02-.27.02h-.15c-.46.07-.93.13-1.4.2-.48.07-.91.15-1.3.25-.07,0-.13.02-.2.05l-.1-.05.34-.05.98-.15c.16-.07.35-.11.57-.12.21-.02.39-.06.52-.12.1.03.16.04.17.02.02-.02.09-.04.22-.07.2-.03.33-.05.39-.05s.18-.03.34-.1c0-.07-.04-.08-.12-.05-.08.03-.14.03-.17,0v-.05h.3c.1,0,.16,0,.2-.02.03-.02.1-.04.2-.07.2-.07.4-.12.61-.15.21-.03.39-.1.52-.2-.26,0-.56.03-.89.1-.33.07-.57.12-.74.15.16-.13.44-.21.84-.25.39-.03.62-.08.69-.15l-.64.05-.1.05h-.15c-.26.07-.47.11-.61.12-.15.02-.34.04-.57.07-.07,0-.16.02-.3.05-.13.03-.18.02-.15-.05h.1c.16-.03.34-.06.52-.07.18-.02.3-.06.37-.12.16-.03.27-.04.32-.02.05.02.16,0,.32-.02l.1-.05c.2,0,.35-.02.47-.05.11-.03.25-.07.42-.1.07-.07.16-.09.27-.07.11.02.2,0,.27-.07.03-.07-.02-.07-.15,0-.13.07-.2.07-.2,0h-.25l-.44.05c-.16.07-.26.1-.3.1s-.12-.02-.25-.05c.03-.03.18-.08.44-.15h.25c.13,0,.23-.02.3-.05.07-.03.16-.05.3-.05l.2-.05c-.03-.07.06-.1.27-.1s.25-.02.12-.05l-.44.1h-.25l.05.05h-.2l-.15.05c-.36.03-.74.11-1.13.22-.39.12-.7.17-.93.17,0-.03.02-.05.07-.05s.07-.02.07-.05h.05c.13-.03.27-.07.42-.1.15-.03.3-.07.47-.1.16-.03.34-.07.54-.1.2-.03.41-.07.64-.1,0-.03,0-.06.02-.07.02-.02-.02,0-.12.02h-.15c-.46.07-.95.13-1.48.2-.52.07-1.05.17-1.57.3-.07-.03-.18-.02-.34.05-.26.07-.52.11-.76.12-.25.02-.5.06-.76.12-.16.03-.32.06-.47.07-.15.02-.11-.02.12-.12l.34-.05c.26-.03.51-.07.74-.1.23-.03.46-.08.69-.15.16-.03.3-.05.39-.05s.25-.03.44-.1c.13-.03.3-.05.49-.05s.33-.03.39-.1l.39-.05c.07-.07.21-.1.44-.1s.39-.03.49-.1c.13-.03.36-.08.69-.15h.1c.59-.1,1.07-.2,1.43-.3-.1-.07-.21-.07-.32-.02-.12.05-.24.07-.37.07-.07.07-.17.1-.32.1s-.27.02-.37.05l-.3.05s0-.05.02-.05.02-.02.02-.05l.25-.05c.1,0,.16-.03.2-.1.13,0,.21-.02.25-.05.03-.03.13-.05.3-.05.07-.07.18-.12.34-.15.16-.03.33-.07.49-.1.1-.03.2-.05.32-.05s.2-.02.27-.05h.05c.07-.07.13-.1.2-.1-.03-.03-.07-.04-.12-.02-.05.02-.11.02-.17.02h-.05v.05l-.39.05s-.12.05-.25.05-.25.02-.34.05c-.07,0-.17.02-.32.05-.15.03-.24.03-.27,0,.16-.07.37-.12.61-.17s.4-.12.47-.22c.07,0,.11,0,.12-.02.02-.02.06-.02.12-.02.07.07.12.07.17,0,.05-.07.12-.1.22-.1.07-.07.05-.08-.05-.05-.1.03-.15.03-.15,0,.2-.07.33-.07.39-.02.07.05.2.04.39-.02h.05c.07-.13.1-.21.1-.25h-.32c-.12,0-.19.03-.22.1-.03-.03-.07-.04-.12-.02-.05.02-.11,0-.17-.02.13-.03.25-.05.34-.05s.2-.02.3-.05c.07-.03.15-.05.25-.05v-.05c-.07-.03-.14-.05-.22-.05s-.12-.03-.12-.1c-.07.03-.12.06-.15.07-.03.02-.08.02-.15.02l.1-.1s.06,0,.07-.02c.02-.02.06-.02.12-.02h.15l.25-.05h.05c0-.07,0-.11.02-.12.02-.02.02-.06.02-.12h-.05s.02-.05.05-.05c.07-.2.13-.36.2-.49.1-.26.16-.44.2-.54.03-.1.08-.25.15-.44v-.05l-.05-.05c0,.1-.03.12-.1.05l.05-.1c.07-.1.09-.16.07-.2-.02-.03,0-.12.07-.25.03-.1.08-.15.15-.15s.04.07-.07.22c-.12.15-.14.22-.07.22.07-.07.14-.2.22-.4.08-.2.16-.38.22-.54l.15-.4s.02-.12.05-.25c.03-.13,0-.08-.1.15-.07-.03-.07-.09,0-.17.07-.08.08-.16.05-.22l.25-.64c0-.1.02-.2.05-.3,0-.07.06-.24.17-.52.11-.28.2-.45.27-.52l.25-.54.1-.1.15-.44c.1-.16.18-.28.25-.35.07-.07.15-.23.25-.49l.05-.1h-.05c.07-.23.18-.51.34-.84.16-.33.31-.64.44-.94l.1-.25.2-.35c.03-.13.07-.25.12-.35.05-.1.11-.2.17-.3.13-.13.26-.37.39-.72.13-.35.26-.58.39-.72l.05-.1.15-.25c.07-.16.15-.34.25-.52.1-.18.2-.35.3-.52.03,0,.07-.03.1-.1.03-.07.07-.13.1-.2l.39-.69.39-.79.15-.15c.1-.13.2-.3.32-.49.11-.2.24-.35.37-.44.07-.16.15-.31.25-.44.1-.13.2-.26.3-.4.03.03.03.12,0,.27-.03.15-.1.26-.2.32l-.1.15c.07.07.13.03.2-.1.07-.13.13-.23.2-.3.16-.23.32-.46.47-.69.15-.23.3-.43.47-.59.1-.16.13-.26.1-.3l.2-.1s.05,0,.05-.02.02-.02.05-.02c.36-.3.75-.48,1.18-.54,0-.03,0-.05.02-.05s.02.02.02.05h.05c.16,0,.5.03,1.01.1.51.07.94.18,1.3.35.2.07.38.2.54.4.16.2.3.4.42.62.11.21.2.41.27.59.07.18.08.32.05.42v.05s.05,0,.05-.02.02-.02.05-.02l.1-.2c.07,0,.07.03.02.1-.05.07-.06.12-.02.15l-.1.15c-.13.13-.15.12-.05-.02s.11-.21.05-.17c-.07.13-.11.2-.12.2s-.06.05-.12.15c-.07.07-.1.12-.1.17s-.02.11-.05.17c-.07.07-.09.11-.07.12.02.02,0,.06-.07.12h.15c.07,0,.06.05-.02.15-.08.1-.14.18-.17.25l-.1.15-.39.64h.05c-.13.17-.16.26-.07.3.08.03.07.13-.02.3-.07.17-.12.3-.17.42-.05.12-.14.27-.27.47h.05c-.13.23-.25.44-.37.64-.12.2-.24.41-.37.64-.1.17-.16.3-.2.4-.03.1-.1.23-.2.4l-.1.25-.3.59-.05.05-.1.25-.3.59-.54,1.04-.49.99v.1l-.2.4-.05.1-.44.99c-.07.1-.12.18-.17.25-.05.07-.11.17-.17.3-.2.4-.39.74-.57,1.04-.18.3-.35.66-.52,1.09-.13.13-.25.36-.34.69-.07.1-.11.2-.12.3-.02.1-.06.18-.12.25h.05l.25-.05c.1-.07.11-.09.02-.07-.08.02-.11,0-.07-.07.23,0,.36-.02.39-.05.16,0,.27,0,.32.02.05.02.16,0,.32-.02.26-.07.48-.1.64-.1h.42c.08,0,.2-.02.37-.05l.1-.05c-.07,0-.1-.03-.1-.1h.05c.1,0,.16,0,.2-.02.03-.02.1-.02.2-.02.03,0,.08.03.15.1,0,.07-.07.07-.2.02-.13-.05-.2-.04-.2.02.07.07.18.08.34.05.16-.03.31-.03.44,0l.3-.05s.1,0,.2-.02c.1-.02.07-.04-.1-.07,0-.03.03-.04.1-.02.07.02.11,0,.15-.02h.54c0-.07.07-.1.2-.1.07-.03.2-.05.42-.05s.35.02.42.05h.44s.03.05.1.05h.34c.13,0,.24.02.32.07.08.05.2.06.37.02h.1v-.05c.16-.03.34-.04.54-.02.2.02.39.02.59.02.03-.1.05-.18.05-.25s-.03,0-.1.2c-.03,0-.02-.06.02-.17.05-.12.07-.21.07-.27l.3-.79c-.07-.07-.05-.18.05-.35,0-.1.07-.32.2-.67.13-.35.23-.57.3-.67l.25-.64.1-.1.2-.54c.1-.2.19-.35.27-.47.08-.12.16-.32.22-.62l.05-.1h-.05c.07-.3.2-.65.39-1.06.2-.41.36-.8.49-1.16l.15-.35.2-.4.3-.79c.13-.16.28-.47.44-.91.16-.44.31-.75.44-.91l.05-.1s.07-.03.1-.1c.03-.07.07-.13.1-.2.1-.23.2-.45.3-.67.1-.21.2-.42.3-.62.03-.03.07-.1.1-.2.03-.1.08-.18.15-.25l.39-.84.49-.99s.08-.07.15-.2c.1-.16.21-.37.34-.62.13-.25.26-.45.39-.62.13-.2.25-.38.34-.54.1-.16.2-.33.3-.49.03.03.03.14,0,.32-.03.18-.12.3-.25.37l-.1.25c.23-.33.48-.71.76-1.14.28-.43.53-.79.76-1.09.13-.2.18-.3.15-.3.1-.1.16-.15.2-.15.03-.07.08-.1.15-.1.16-.1.37-.23.61-.4.25-.16.43-.28.57-.35.1-.1.15-.12.15-.05.16-.07.47-.09.93-.07.46.02.9.06,1.33.12.23.03.43.16.59.37.16.21.3.46.42.74.11.28.2.56.25.84.05.28.06.47.02.57l.1-.1v.05l.1-.1.1-.15ZM186.96,395.42s-.06-.02-.17.02c-.12.05-.19.09-.22.12l.34-.05s0-.05.02-.05.02-.02.02-.05ZM187.01,393.94c-.07,0-.1-.03-.1-.1.16,0,.25-.02.25-.05l.25-.05v.1c-.07.03-.13.05-.2.05s-.13.02-.2.05ZM187.65,409.06l-.1.1c.07-.23.08-.36.05-.4l.1-.3.05.05c0,.1-.03.28-.1.54ZM187.9,403.42c0,.07-.02.21-.07.42-.05.21-.11.35-.17.42v-.2l.05-.1.05-.1c.03-.07.06-.16.07-.3.02-.13.04-.18.07-.15ZM188.49,401.5c0-.1.03-.15.1-.15-.13.3-.2.54-.2.74l-.1-.05c.03-.07.07-.15.1-.25.03-.1.07-.2.1-.3ZM188.44,404.07c.03-.1.07-.17.1-.22.03-.05.03-.12,0-.22.03-.1.06-.19.07-.27.02-.08.06-.24.12-.47l.05-.2v-.05l.05-.1-.05-.05-.15.49v.05s-.02.12-.05.25c-.03.13-.07.27-.12.42s-.08.26-.1.35c-.02.08,0,.09.07.02ZM189.13,398.63s.04.02.02.05c-.02.03,0,.05.02.05l-.05.1c-.07.23-.11.4-.12.52-.02.12-.07.27-.17.47.03.03.04.09.02.17-.02.08,0,.04.07-.12l.15-.54c.07-.16.14-.32.22-.47.08-.15.11-.27.07-.37.03-.1.05-.21.05-.35.07-.16.1-.29.1-.37s.03-.21.1-.37c-.07,0-.1.02-.1.05-.07.17-.1.28-.1.35s-.03.17-.1.3v-.1c.07-.13.08-.21.05-.25-.03-.03-.02-.12.05-.25l.05-.05c.03-.13.06-.23.07-.3.02-.07.02-.13.02-.2h-.05c-.07.13-.12.21-.15.25l-.1.35-.15.4-.1.35v.4l-.05.2c-.03.13-.07.21-.1.22-.03.02-.07.09-.1.22.03.03.04.07.02.1-.02.03,0,.07.02.1l.1-.35c.07-.16.13-.35.2-.54ZM189.03,409.75c-.07,0-.11.07-.12.22-.02.15,0,.26.02.32l.15-.44s-.05-.07-.05-.1ZM189.27,396.11s.05,0,.05-.02.02-.02.05-.02l.05-.1h-.1s-.05.08-.05.15ZM189.47,396.75c.07.07.11.02.15-.15.03-.16.08-.23.15-.2v-.05h-.15l-.15.4ZM189.72,404.41l-.05.05s.05-.02.05-.05ZM189.81,395.96l-.05.05h.1v-.05h-.05ZM189.77,404.96v-.05.05ZM189.81,404.61v-.05.05ZM189.91,404.02l-.05.1s.05-.07.05-.1ZM192.82,386.72s-.07.08-.12.25c-.05.17-.11.28-.17.35.03.03.04.07.02.1-.02.03,0,.05.07.05l.2-.54c.03-.07.03-.1,0-.1s-.03-.03,0-.1ZM194.09,383.71c.03-.07.03-.1,0-.1-.1.07-.15.17-.15.3s.05.07.15-.2ZM195.23,396.21s-.05.08-.05.15c.03,0,.07,0,.1-.02.03-.02.08-.02.15-.02s.08-.02.05-.05c-.03-.03-.12-.05-.25-.05ZM195.72,396.61l.69-.05s-.04.05-.02.05,0,.02-.07.05c-.03,0-.1,0-.2-.02-.1-.02-.13,0-.1.07-.13,0-.25,0-.37.02-.12.02-.21,0-.27-.02-.2-.03-.2-.05,0-.05s.3-.02.3-.05h.05ZM197.93,391.17c0-.07-.06-.1-.17-.1s-.25.03-.42.1c.16-.07.3-.1.42-.1s.17.03.17.1ZM199.36,374.12c-.07,0-.12.02-.17.07s-.09.04-.12-.02c.13-.16.21-.28.25-.35.03-.07.08-.18.15-.35l.05.05s.02-.05.05-.05h.1l-.2.25c-.07.1-.08.16-.05.17.03.02.02.09-.05.22ZM200.49,372.89s-.02-.07.05-.2c.03.03.07,0,.12-.07.05-.08.09-.09.12-.02-.07.13-.12.2-.15.2s-.08.03-.15.1ZM201.33,414.39c0,.07-.03.1-.1.1.03-.1.07-.2.1-.3.03-.1.03-.15,0-.15l.1-.35h.05c0,.16-.05.4-.15.69ZM201.97,407.52c0,.07-.03.24-.1.52-.07.28-.13.45-.2.52v-.25l.05-.1.05-.15c.03-.07.06-.18.07-.35.02-.16.06-.23.12-.2ZM202.7,407.03c0,.07-.02.18-.07.35-.05.17-.1.33-.15.49-.05.17-.08.3-.1.4-.02.1,0,.12.07.05.03-.16.07-.27.1-.32.03-.05.05-.14.05-.27.03-.13.07-.25.1-.35.03-.1.08-.28.15-.54l.05-.2c0-.1.02-.18.05-.25h-.05l-.15.54-.05.1ZM202.56,405.89l-.1-.05.2-.64.1-.2c-.13.36-.2.66-.2.89ZM203.44,390.53s.05-.02.05-.05.03-.05.1-.05c-.03-.03-.11-.04-.22-.02-.12.02-.21.02-.27.02,0,.03-.02.05-.05.05s-.05.02-.05.05h.44ZM203.49,401.65s.04.07.02.1c-.02.03,0,.05.02.05l-.05.1c-.1.26-.16.47-.2.62-.03.15-.08.35-.15.62,0,.03,0,.11-.02.22-.02.12,0,.06.07-.17l.2-.69c.07-.23.14-.42.22-.57.08-.15.12-.29.12-.42.07-.26.08-.41.05-.44.1-.23.15-.4.15-.49s.03-.25.1-.44c0,.03,0,.04-.02.02-.02-.02-.04,0-.07.07-.07.2-.1.34-.1.42s-.03.21-.1.37c-.03,0-.04-.02-.02-.05.02-.03,0-.07-.02-.1.07-.16.09-.26.07-.3-.02-.03,0-.12.07-.25l.05-.1c.1-.23.15-.43.15-.59h-.05c-.07.17-.12.26-.15.3l-.15.44-.15.44-.15.44v.49l-.1.25c-.03.17-.07.26-.1.27-.03.02-.07.11-.1.27.03.03.04.07.02.12-.02.05,0,.09.02.12l.15-.44.2-.69ZM203.69,408.66s.05-.02.05-.05c0,.03-.02.05-.05.05ZM203.69,409.06v-.05.05ZM203.79,409.25v-.05.05ZM203.93,408.32l-.05.1s.05-.07.05-.1ZM203.93,399.37c.03.07.07,0,.12-.17.05-.18.11-.25.17-.22.07-.16.09-.26.07-.3-.02-.03,0-.13.07-.3l.05-.1s-.02-.05.02-.15.06-.16.02-.2c-.07.17-.13.35-.2.57-.07.21-.13.35-.2.42l-.15.44ZM203.98,407.97s-.02.07-.05.1c.03-.03.05-.07.05-.1ZM204.62,397.74s.05-.07.05-.1c0,.03-.02.07-.05.1ZM204.97,396.51c-.07.17-.12.35-.15.54-.03.2-.08.38-.15.54.07-.16.11-.35.15-.54.03-.2.08-.38.15-.54ZM204.97,396.61v.05-.05ZM206,390.43c.07,0,.1-.03.1-.1-.07-.07-.15-.07-.25,0-.1.07-.05.1.15.1ZM207.82,387.07c-.07,0-.12.1-.17.3s-.11.35-.17.44c.03.03.04.07.02.1-.02.03,0,.05.07.05.03-.2.11-.41.25-.64.03-.07.03-.11,0-.12-.03-.02-.03-.06,0-.12ZM209.25,383.31c0-.1-.02-.15-.05-.15-.1.1-.15.23-.15.4s.07.08.2-.25ZM215.15,371.26s-.07.03-.12.1c-.05.07-.09.07-.12,0,.13-.2.21-.35.25-.44.03-.1.1-.23.2-.4h.05s.06.02.07-.02c.02-.05.04-.06.07-.02l-.2.35c-.07.1-.09.16-.07.17.02.02-.02.11-.12.27ZM216.53,369.68c-.07,0-.05-.08.05-.25.07.03.12,0,.17-.1s.09-.12.12-.05c-.07.17-.12.25-.17.25s-.11.05-.17.15Z"/>
      </g>
    </g>
  </g>
</svg>