<?xml version="1.0" encoding="UTF-8"?>
<svg id="pPoseFin" xmlns="http://www.w3.org/2000/svg" xmlns:xlink="http://www.w3.org/1999/xlink" viewBox="0 0 4844.84 2735.75">
  <defs>
    <style>
      .cls-1 {
        fill: #d1aa07;
      }

      .cls-2, .cls-3 {
        fill: none;
      }

      .cls-2, .cls-3, .cls-4, .cls-5, .cls-6, .cls-7, .cls-8, .cls-9 {
        stroke: #000;
        stroke-miterlimit: 10;
      }

      .cls-2, .cls-6, .cls-8 {
        stroke-width: .5px;
      }

      .cls-10, .cls-7, .cls-8, .cls-9 {
        fill: #ffd93a;
      }

      .cls-11 {
        fill: #0c5113;
      }

      .cls-12 {
        fill: #04160d;
      }

      .cls-13 {
        fill: #1a7b1d;
      }

      .cls-14 {
        fill: #19661b;
      }

      .cls-4, .cls-15 {
        fill: #601075;
      }

      .cls-16 {
        fill: #062410;
      }

      .cls-17 {
        fill: #1e781c;
      }

      .cls-18 {
        fill: #043010;
      }

      .cls-19 {
        fill: #004500;
      }

      .cls-20 {
        fill: #04581e;
      }

      .cls-21 {
        fill: #fff;
      }

      .cls-22 {
        fill: #600f74;
      }

      .cls-5 {
        fill: url(#Degradado_sin_nombre_5);
      }

      .cls-23 {
        fill: #2a023d;
      }

      .cls-24 {
        fill: #022100;
      }

      .cls-25 {
        fill: #1f7a1c;
      }

      .cls-26 {
        fill: #1a751c;
      }

      .cls-27 {
        fill: #0a4b12;
      }

      .cls-28 {
        fill: #ffa300;
      }

      .cls-29 {
        fill: #999;
      }

      .cls-30 {
        fill: #004240;
      }

      .cls-31 {
        fill: #eda06b;
      }

      .cls-32 {
        fill: #a74535;
      }

      .cls-33 {
        fill: #663612;
      }

      .cls-34 {
        fill: #257c1d;
      }

      .cls-35 {
        fill: #f5b88d;
      }

      .cls-36 {
        fill: #005e00;
      }

      .cls-9 {
        stroke-width: .75px;
      }

      .cls-37 {
        fill: #bc7d51;
      }

      .cls-38 {
        fill: #c1682d;
      }
    </style>
    <radialGradient id="Degradado_sin_nombre_5" data-name="Degradado sin nombre 5" cx="807.51" cy="473.16" fx="807.51" fy="473.16" r="52.93" gradientTransform="translate(4885 -129.11) rotate(177.09) scale(.81 -.88)" gradientUnits="userSpaceOnUse">
      <stop offset="0" stop-color="#3ebf00"/>
      <stop offset=".43" stop-color="#d8f2cc"/>
      <stop offset=".68" stop-color="#fff4bd"/>
      <stop offset="1" stop-color="#97dc75"/>
    </radialGradient>
  </defs>
  <g id="ZapatoD">
    <g id="TenniD">
      <path class="cls-31" d="M4196.38,2343.34c10.49,14.67,22.76,7.1,44.18,24.77,24.4,20.13,30.72,48.31,39.71,46.1,4.14-1.02,2.69-6.97,8.48-11.58,9.57-7.63,53.7,25.84,73.63,22.41,20.11,4.51,17.73,1.18,14.55-14.78-4.32-21.75-20.92-39.23-42.57-44.04-9.33-2.07-10.78-5.44-18.81-16.17,0-24.4,13.11-71.35-8.85-94.84-7.91-2.25-15.6-3.54-22.89-3.8-34.88,84.21-57.63,79.26-87.44,91.92Z"/>
      <path class="cls-4" d="M4334.92,2425.34c-116.22-10.83-36.36-87.75-221.61-99.68,0,0-47.11,42.15-83.99,53.61-19.07,5.93-69.49,12.16-52.77,81.1.98,4.05,4.39,7.07,8.53,7.53,25.72-3.11,493.39,43.19,428.54-42.55,0-.01-78.71-.01-78.71-.01Z"/>
      <path d="M4415.81,2393.26c-94.58,31.99-64.64-1.88-122.76,1.64-10.68,1.49-14.42,17.8-12.73,18.41,1.03,28.74,41.97,30.56,66.62,26.04,23.76-3.73,50.54-31.81,68.87-46.09Z"/>
      <path class="cls-23" d="M3984.43,2404.5s-2.25,1.49-4.3,6.72c10.84,13.16,50.95,26.1,53.34,23.43-9.46-3.68-50.16-24.14-49.04-30.15Z"/>
      <path class="cls-10" d="M3981.7,2407.91s-1.2,2.4-3.24,7.63c8.93,12.81,26.7,16.95,42.47,17.22-11.92-3.08-39.38-19.95-39.22-24.85Z"/>
      <path class="cls-23" d="M4050.04,2432.78c36.1,33.26,189.16-37.43,184.91-38.97-5.76,3.18-144.3,48.26-184.91,38.97Z"/>
      <path class="cls-10" d="M4053.39,2436.78c-2.62,4.83,32.49,10.88,55.12,7.14,26.57-5.91,55.11-23.04,55.11-23.04,0,0-33.46,14.14-76.53,15.87-12.2.49-33.7.02-33.7.02Z"/>
    </g>
    <path class="cls-7" d="M3977.48,2462.71c1.53,19.44.25,37.4,24.68,35.64,6.57.21,114.12,5.28,116.65,4.63,68.72.97,218.39-.08,285.74-6.43,19.96-.64,13.82-28.04,14.35-40.74-33.58,18.4-127.14,15.91-151.5,19.02-83.68.27-181.3-.58-276.08-6.22-5.17-.24-10.07-2.33-13.83-5.89Z"/>
    <g id="Detalle">
      <path d="M4045.36,2385.53c.41,8.32-28.52,8.32-28.11,0-.41-8.32,28.52-8.32,28.11,0Z"/>
      <path d="M4123.66,2370.3c.3,6.05-21.04,6.05-20.73,0-.3-6.05,21.04-6.05,20.73,0Z"/>
      <path d="M4148.19,2389.83c1.67,8.2-27.49,12.61-28.32,4.28-1.67-8.2,27.49-12.61,28.32-4.28Z"/>
      <path d="M4152.73,2365.54c.82,4.82-16.29,6.84-16.62,1.96-.82-4.82,16.29-6.84,16.62-1.96Z"/>
      <path d="M4108.5,2354.23c.17,3.45-12.01,3.45-11.83,0-.17-3.45,12.01-3.45,11.83,0Z"/>
      <path d="M4100.91,2388.2c.36,7.22-25.13,7.22-24.77,0-.36-7.22,25.13-7.22,24.77,0Z"/>
      <path d="M4076.97,2368.39c1.37,5.46-18.94,9.41-19.71,3.83-1.37-5.45,18.94-9.41,19.71-3.83Z"/>
    </g>
    <path class="cls-23" d="M4117.71,2338.25c34.97,8.77,72.96,14.99,101.75,37.46"/>
  </g>
  <g id="ZapatoI">
    <path class="cls-31" d="M4494.8,2354.26c10.49,14.67,22.76,7.1,44.18,24.77,24.4,20.13,30.72,48.31,39.71,46.1,4.14-1.02,2.69-6.97,8.48-11.58,9.57-7.63,53.7,25.84,73.63,22.41,30.35,6.8,25.1-4.64,27.59-50.03,2.98-54.34-30.92-104.88-83.26-119.8-7.91-2.25-15.6-3.54-22.89-3.8-34.88,84.21-57.63,79.26-87.44,91.92Z"/>
    <path class="cls-4" d="M4630.53,2430.45c-116.22-10.83-36.36-87.75-221.61-99.68,0,0-47.11,42.15-83.99,53.61-19.07,5.93-69.49,12.16-52.77,81.1.98,4.05,4.36,7.44,8.53,7.53,289.73,6.26,473.63,35.4,428.54-42.55,0-.01-78.71-.01-78.71-.01Z"/>
    <path class="cls-6" d="M4711.42,2398.37c-94.58,31.99-64.64-1.88-122.76,1.64-10.68,1.49-14.42,17.8-12.73,18.41,1.03,28.74,41.97,30.56,66.62,26.04,23.76-3.73,50.54-31.81,68.87-46.09Z"/>
    <path class="cls-8" d="M4711.42,2398.37c-50.1,25.4-70.75,32.32-135.5,20.05,1.03,28.74,41.97,30.57,66.62,26.04,23.73-3.76,50.56-31.79,68.87-46.09Z"/>
    <path class="cls-23" d="M4342.73,2438.48c-3.07,5.34,32.43,10.68,55.12,7.14,111.38-21.3,128.33-50.39,128.33-50.39-17.73,10.63-129.06,51.08-183.45,43.25Z"/>
    <path class="cls-23" d="M4279.85,2409.95s-2.25,1.49-4.3,6.72c13.7,14.12,48.28,27.99,53.34,23.43-15.42-4.95-46.2-19.89-49.04-30.15Z"/>
    <path class="cls-10" d="M4276.64,2414.33s-1.51,2.59-3.56,7.83c8.93,12.81,26.7,16.95,42.47,17.22-12.37-3.3-38.8-19.6-38.91-25.04Z"/>
    <path class="cls-10" d="M4346.83,2442.75c-2.62,4.83,32.49,10.88,55.12,7.14,26.57-5.91,55.11-23.04,55.11-23.04,0,0-33.46,14.14-76.53,15.87-12.2.49-33.7.02-33.7.02Z"/>
    <path class="cls-23" d="M4421.03,2346.55c34.97,8.77,72.96,14.99,101.75,37.46"/>
    <path class="cls-7" d="M4273.09,2467.82c1.53,19.44.25,37.4,24.68,35.64,6.57.21,114.12,5.28,116.65,4.63,68.72.97,218.39-.08,285.74-6.43,19.96-.64,13.82-28.04,14.35-40.74-33.58,18.4-127.14,15.91-151.5,19.02-83.68.27-181.3-.58-276.08-6.22-5.17-.24-10.07-2.33-13.83-5.89Z"/>
    <g id="Detalle-2" data-name="Detalle">
      <path d="M4342.73,2392.56c.41,8.32-28.52,8.32-28.11,0-.41-8.32,28.52-8.32,28.11,0Z"/>
      <path d="M4421.03,2377.33c.3,6.05-21.04,6.05-20.73,0-.3-6.05,21.04-6.05,20.73,0Z"/>
      <path d="M4445.56,2396.86c1.67,8.2-27.49,12.61-28.32,4.28-1.67-8.2,27.49-12.61,28.32-4.28Z"/>
      <path d="M4450.1,2372.57c.82,4.82-16.29,6.84-16.62,1.96-.82-4.82,16.29-6.84,16.62-1.96Z"/>
      <path d="M4405.87,2361.26c.17,3.45-12.01,3.45-11.83,0-.17-3.45,12.01-3.45,11.83,0Z"/>
      <path d="M4398.28,2395.23c.36,7.22-25.13,7.22-24.77,0-.36-7.22,25.13-7.22,24.77,0Z"/>
      <path d="M4374.33,2375.42c1.37,5.46-18.94,9.41-19.71,3.83-1.37-5.45,18.94-9.41,19.71-3.83Z"/>
    </g>
  </g>
  <g id="Tren_inferior" data-name="Tren inferior">
    <g id="PantoD">
      <path class="cls-19" d="M4206.41,1861.18c-1.31,10.08-15.64,213.04-19.12,214.62,0,0-44.75,120.81-44.75,120.81l-29.24,127.18,48.84,5.38c8.74.96,17.32,2.66,25.67,5.05,38.5,11.03,68.08,40,88.22,73.76l1.16-1.2c16.41-15.94,26.9-18.53,48.15-23.42l12.22-5.35c-12.85-17.4,8.33-410.97.94-448.45l-14.72-38.98c-1.5-6.89-4.59-30.62-10.69-52.05-5.4-18.95-18.44-34.79-35.77-44.17l-21.86-11.84c-20.74-11.24-39.99,56.89-49.03,78.68h0Z"/>
      <path class="cls-24" d="M4113.3,2323.78c13.19,1.85,29.03,3.42,44.27,4.83,34.07,4.87,67.93,18.25,90.29,44.25,9.8,11.39,17.71,24.3,28.17,35.1,6.21-142.34-101.32-77.45-104.75-194.73-.34-12.27,6.46-70.89-5.93-78.2-2.99,13.82-12.12,22.45-22.81,61.57-5.64,31.28-28.39,92.7-29.24,127.18Z"/>
      <g id="Bolsillo2">
        <path class="cls-36" d="M4247.62,1981.78c-.35-8.32-5.33-15.75-12.91-19.21-7.6-3.47-16.81-7.16-22.66-7.37-9.97-.35-18.93,5.94-23.03,15.03-5.02,11.12-7.85,24.79,1.78,33.04,0,0-5.53,28.04-5.34,68.72.04,7.89,1.83,15.74,5.21,22.87,7.94,16.71,17.12,26.6,25.12,29.77,6.45,2.85,12.82-1.64,14.39-8.51,3.3-14.47,18.99-96.92,17.43-134.34Z"/>
        <path class="cls-24" d="M4191.06,2101.18c6.72,20.59,14.76,26.52,30.52,24.14-3.4-26.1-29.12-73.89-33.74-97.59,0,0-2.18,15.42-2.31,36.73-.07,12.44,1.66,24.89,5.52,36.71Z"/>
        <path d="M4184.94,1994.46c5.88,5.64,11.44,11.75,18.68,15.61,3.52,1.99,7.3,3.37,11.2,4.42,3.81,1.03,8.26,2.01,11.86,2.87,3.08.45,6.16.91,9.23,1.41,2.67.46,6.57,1.1,9.2,1.63-2.66-.1-6.62-.42-9.33-.59-3.13-.25-6.25-.51-9.37-.82-8.07-1.58-16.55-2.96-23.71-7.3-7.31-4.18-12.64-10.72-17.75-17.23h0Z"/>
      </g>
    </g>
    <g id="MusloD">
      <path id="MusloD-2" data-name="MusloD" class="cls-19" d="M4259.13,1307.19s-59.97,400.18-54.61,527.36l18.8,101.91,13.25,4.58c11.79,12.07,17.99,28.56,16.96,45.4-1.38,22.55-8.75,49.61,7.28,52.66h0c26.39,5.01,52.59-9.55,62.29-34.6l16.64-53.53,7.31-220.6c5.45-110.26,43.63-154.01,97.6-250.3,7.59-13.55-.31-100.98,4.34-156.89,0,0-98.05-9.64-189.86-15.98Z"/>
      <path class="cls-24" d="M4296.39,1316.65c24.49,7.81,29.51,4.04,43.2,9.2-8.84,29.33-42.08,47.56-73.32,81.48,20.86-22.65,43.51-74.56,30.12-90.69Z"/>
      <path d="M4249.64,1422.84c23.98-23.23,49.78-56.26,49.83-91.09-.05-5.07-.75-10.12-1.89-15.11,1.57,4.86,2.48,9.94,2.87,15.07,1.42,35.61-24.72,69.34-50.81,91.12h0Z"/>
      <path class="cls-24" d="M4233.26,1495.63c-12.18,94.1-30.92,247.61-28.75,338.91,0,0,17.12,9.01,35.74,18.72,3.45-43.26,1.47-99.33,1.41-143.07-.11-81.07-7.51-221.49-8.4-214.56Z"/>
    </g>
    <g id="MusloI">
      <path class="cls-19" d="M4422.75,1320.46l224.37-15.76,5.02,54.33,1.7,17.02c.94,13.97,3.42,45.55,3.21,59.84,9.95,131.51,19.52,331.88,52.63,465.61,2.42,9.79-3.83,19.59-13.75,21.43h0c-43.22,8.05-77.89,40.79-87.75,83.64-29.31,127.49-111.76,68.12-145.12,51.77h0c-43.65-21.38-59.54-53.62-72.08-95.6-7.31-24.45-51.31-62.11-51.31-62.11,2.51-32.15,3.17-110.74,5.15-168.34,3.19-92.97,25.54-184.54,67.75-267.43,11.06-21.72-56.66-55.7-57.25-69.27,0,0-9.27-29.94,11.6-51.1,15.31-15.52,55.83-24.04,55.83-24.04Z"/>
      <path class="cls-24" d="M4651.57,1534.32c-13.33-60.87-42.11-117.54-84.72-163-13.41-14.31-26.7-24.8-40.37-48.28,21.46,27.25,97.59,72.3,128.69,71.93,1.55,26.19,2.33,56.19,4.84,83.73,3.98,43.65,6.93,84.69,7.44,123.06-5.34-20.36-10.71-43.84-15.88-67.44Z"/>
      <path class="cls-24" d="M4367.58,1581.39c-27.29,84.4-29.69,268.92-27.13,296.92,18.79,11.66,85.81,17.69,195.26,45.07-47.28-22.33-151.74-84.23-146.06-152.03,3.63-130.78,7.26-214.06,15.45-291.3-6.48,9.26-33.2,87.96-37.52,101.34Z"/>
      <path d="M4535.55,1332.69c.07-.05.14-.04.21,0,.5.29.9.69,1.33,1.06.87.78,3.3,3.11,4.18,3.95,27.63,26.53,62.21,45.39,99.45,54.36-37.98-6.36-73.6-25.84-99.82-53.99,0,0-2.62-2.81-2.62-2.81-.37-.4-1.56-1.7-1.97-2.09-.11-.11-.23-.22-.36-.32-.12-.08-.27-.25-.41-.16h0Z"/>
      <path d="M4632.59,1394.17c3.24,3.99,4.85,9.17,5.73,14.18.91,4.97.87,10.4.4,15.44-1.35,13.16-6.13,25.74-12.38,37.31.96-2.76,2.04-5.46,3.05-8.18,6.13-17.55,12.59-41.39,3.2-58.75h0Z"/>
      <path d="M4475.24,1337.71c-10.14,13.37-11.31,31.46-7.18,47.25,7.17,26.98,25.75,48.93,44.22,69.22-16.78-14.73-32.03-32.04-41.43-52.5-9.37-19.95-11.65-46.79,4.39-63.96h0Z"/>
      <path class="cls-24" d="M4508.28,1450.24c-66.11-24.79-66.38-83.57-33.04-112.53-19.21,16.69-8.17,76.1,33.04,112.53Z"/>
      <path class="cls-24" d="M4402.14,1364.77c-4.73,11.64-5.87,16.47-4.04,28.9,3.78,25.74,6.47,30.66,54.44,38.16-38.09-15.6-31.15-100.3-31.15-100.3,0,0-9.63,9.59-19.24,33.23Z"/>
      <path d="M4452.54,1431.84c-44.59-.03-70.36-26.69-50.84-70.36,4.94-10.95,11.89-20.86,19.69-29.93-7.13,9.52-13.63,19.59-18.26,30.56-18.15,43.48,6.22,66.91,49.41,69.74h0Z"/>
    </g>
    <g id="PantoI">
      <path class="cls-19" d="M4340.34,1900.65c.1-1.34,1.73-2.44,4.56-3.53,45.61-17.65,81.87-53.14,104.66-96.41,9.28-17.63,18.46-30.84,23.88-30.47l107.1-4.79c27.78,1.88,50.79,78.01,65.97,101.34,13.37,20.55,39.16,21.86,51.16,40.45,10.59,16.4,6.83,59.28,6.59,78.81-.47,39.55-.92,93.57-.72,122.51,0,.88-.42,1.67-1.14,2.17h0c-12.21,8.51-19.06,22.79-18.04,37.64,1.33,19.43,3.01,44.18,4.3,64.89,1.4,22.39,5.85,44.47,13.22,65.66h0c1.83,5.27,2.77,10.82,2.77,16.4v104.38c-3.24.84-11.33,5.08-25.05,8.2-12.72,1.6-25.94,6.38-39.71,2.34-12.8-3.75-23.54-8.62-32.71-10.02-19.75-3.03-23.96-1.21-30.78,11.29-21.19-9.58-24.86-43.44-75.01-64.96-21.04-9.03-47.6-14.65-92.36-17.86-27.28,23.2-35.79,33.42-76.33,51.74-11.86-67.74-8.11-179.82-6.94-248.17,2.51-66.35,9.18-160.16,14.6-231.61Z"/>
      <path class="cls-24" d="M4379.72,2353.45c-12.42,9.2-36.99,23.59-51.05,28.42-3.17-38.14-6.89-81.59-6.47-119.87.35-32.45,12.73-196.48,17.9-355.35,29.79,30.54,66.67,131.68,69.95,223.5,1.19,33.27,33.71,68.71,67.07,100.27,33.51,31.69,59.17,70.78,74.53,114.27,11.77,33.33,24.73,66.82,24.73,66.82,0,0-4.27-1.1-12.38-9.78-.43-.47-3.03-3.46-3.37-4-11.02-17.63-35.41-40.57-54.29-48.93-15.35-9.62-76.15-19.15-97.34-20.11-13.57,13.36-1.6,1.36-29.28,24.76Z"/>
      <g id="Bolsillo1">
        <path class="cls-36" d="M4600.43,2083.64c-.93-4.09-1.19-8.29-1.19-12.49,0-15.27,0-60.39,0-60.39-7.36-2.06-2.01-.89-11.13-4.98-.33-9.73,17.75-46.58,34.1-48.26,22.5-1.7,98.78-11.53,100.39,27.6,4.46,26.66.6,24.1-9.69,44.87,0,0,0,33.24,0,49.8,0,7.01-2.68,29.61-6.77,35.3-28.04,39-96.33,9.71-105.71-31.46Z"/>
        <path class="cls-24" d="M4599.23,2048.51c.25,11.24-.92,25.07,1.19,35.14,4.51,21.44,21.66,35.41,41.97,43.6,10.83,4.37,22.71,5.99,31.02,5.97-.33-.23-.65-.47-.97-.7-35.84-25.9-60.92-63.91-71.32-106.89-.64-2.63-1.26-5.11-1.89-7.41.33,7.11.06,24.9,0,30.29Z"/>
        <path d="M4588.1,2005.78c12.95,3.79,25.8,7.72,39.2,9.17,29.4,3.81,59.07,4.77,88.52,8.13-26.94-1.21-53.94-1.98-80.73-5.27-8.05-1-16.12-2.13-23.97-4.26-7.83-2.12-15.44-4.94-23.02-7.77h0Z"/>
      </g>
    </g>
    <path class="cls-24" d="M4710.2,1911.69c-6.23,17.4-25.72,14.57-40.65,16.29-28.14-175.42-42.93-116.6-.43-302.54"/>
  </g>
  <path class="cls-15" d="M4415.08,647.15h-.83c.25-.08.54,0,.83,0Z"/>
  <path class="cls-15" d="M4727.23,660.89c-86.75-43.73-182.42-54.31-278.42-39.07-60.51,9.58-119.86,35.78-148.23,58.22-11.25,8.87-17.95,19.24-16.28,33.49.87,7.54,2.04,15.33,3,20.49-5.33,11.62-85.63,11-84.63,48.89-.87,7.95-2.37,16.49-4,24.28-3.71,17.7,9.08,32.24,19.74,46.81,9.04,12.37,17.7,27.03,15.7,35.65-22.24,96.33-41.81,205.66,17.49,381.21,5.16,5.96,9.83,14.83,1.29,30.03-5.71,11.49,7.58,12.99,19.95,16.41,45.69,18.45,133.19,11.45,159.93,12.24,48.23-1.79,77.72-.92,98.71-3.21,60.68-6.58,93.17-6.91,109.91-13.58,1.87-.75,3.21-2.5,3.5-4.5,6.29-45.65,10.87-90.71,13.87-130.86.04-.87.12-1.79.17-2.67.25-2.92.46-5.83.62-8.66,1.04-14.45,1.79-28.15,2.42-40.9,1.92-41.56,1.62-73.05-.58-86.84-27.28-153.76-27.74-202.16-32.99-224.36-.08-.29,0-.58.21-.75.25-.42.96-.5,1.37,0,16.2,21.28,43.69,42.36,85.25,49.98,12.29,2.29,25.82,3.37,40.65,2.87,2.96-.04,6-.21,9.08-.42,2.83-.21,8.33-1.08,15.16-2.92.08,0,.17,0,.25-.04,13.49-3.62,31.94-10.91,44.65-24.03,49.1-50.52-2.67-129.9-97.79-177.8ZM4585.17,742.11c-.92-.08-2.37-.83-4-1-1.79-.21-3.46-.75-4.54-.92-.17-.04-.33-.08-.46-.08-1-.12-2.04.08-3,0-2.71-.29-5.33-.75-8-1-2.5-.29-4.79-.79-7-1-2.5-.25-5.16-.83-7-1-7.54-.75-15.49-1.58-22.99-2-2.33-.13-4.71.12-7,0-1-.08-2.04.04-3,0-1.33-.08-2.71.04-4,0-1-.04-2.04,0-3,0-1.67,1.79-5.5.96-8,1-2.33,0-4.71.04-7,0-1.33-.04-2.71.08-4,0-2.71,1.92-7.5.87-11,1-3.08.08-7.58,1-9.5,1h-16.99c-6.83,0-16.2,1.58-23.49,2-.67.04-1.37-.04-2,0-1.33.04-2.71-.08-4,0-1,.04-2.04-.08-3,0-2.42.13-5.08.83-8,1-1,.04-2.04-.08-3,0-2,.08-4.04-.13-6,0-2.29.08-5.75.87-9,1-3,.08-6.04-.04-9,0-1.67,1.79-5.5.96-8,1-3,0-6.04-.04-9,0-1.67,1.79-5.5.96-8,1-14.29.17-29.9,4.12-43.27-1.25-9.87-3.96-15.78-11.08-19.7-20.74v-12.99c1.25-2.21,1.87-4.62,3-7,1.92-4.16,3-5.62,6-9,1.42-1.62,2.29-4.04,5-4,.12-.29-.17-.75,0-1,1.21-2.12,3.58-2.12,5-3,1.62-1.08,3.37-1.96,5-3,3.04-2,5.66-4.25,9-6,1.29-.71,4.33-2.79,5-3,.58-2.83,3.79-1.54,5-2,2.17-.92,5.25-2.79,8-4-1.08-2.92,3.83-3,6-3,1.96-1,4-2,6-3,2.08-1.12,4.08-4.21,7-2,.33-.21.62-.83,1-1,1.54-.83,2.92-2.17,5-3,3.79-1.58,8.5-1.92,11.99-3,2.46-.79,5-2.17,8-3,3.29-.96,6.71-2.17,10-3,1.58-.42,3.33-.62,5-1,3.25-.79,6.71-1.29,10-2,2.04-.46,4.46-1.71,7-2,1.62-.21,3.33.12,5,0,5.75-1.67,10.79-3,16.99-4,1.62-.29,3.54-.87,5-1,.92-.13,2.04-.08,3,0,.46-1.37,1.92-.92,3-1,2.67-.29,5.29-.83,8-1,1.25-.08,2.71-.08,4,0,.46-1.33,1.87-.96,3-1,1.29-.08,2.67.13,4,0,5.29-.58,11.24-1.67,16.99-2,1.08-.08,2.5.29,3-1h53.98v1c1.29,0,2.67-.04,4,0,3.54.04,6.5.62,10,1,.62.04,1.33-.08,2,0,2.5.29,5.54.5,8,1,1.75.33,3.71.54,5,2h1c4.33-.13,2.75-1.04,8,1,3.21-1.54,9.33,1.08,12.99,2,3.83.29,8.5-.25,11.99,2,2.87.37,6.25,1.5,9,2,2.75.5,6.62-.25,9,2,2.5.25,4.91,1.54,7,2,1.46.29,2.58.62,4,1,1.33.33,2.58.58,4,1,1.12.29,2.12.75,3,1,4.08,1.12,7.04,3.08,10,4,.71.21,3.17.08,6,1,1.62.54,3.67.54,5,1,3.37,1.12,6.66,2.79,10,4,2.79,1,4.58,2,7,3,1.17.46,2.83.46,4,1,2.42,1.08,4.5,1.62,7,3,.37.21.67.83,1,1,3.67-.04,6.75,2.62,10,4,7.45,3.08,14.66,6.12,21.99,10,7.04,3.71,14.99,7.79,20.99,12.99,3.33.46,10.95,6.7,13.99,9,4.21,1.83,6.91,4.71,10,8,2.25.62,3.21,1.62,5,3,1.54,1.17,2,2.12,3,3,.79.71,1.33,1.42,2,2,.33.29.62.67,1,1,1.08,1,1.92,1.96,3,3,4.58,4.58,7.04,6.41,11,11.99.87,1.25,1.08,1.33,2,3,.92,1.67,1.08.83,2,4,.25,1,1.21,1.42,1.08,3.5-.08,1.54-.87,1.87-1.08,2.5-1.46,3.87-1.67,2.08-3,3-2.37,1.54-3.33,2.08-6,3-1.29.42-2.71.62-4,1-2.67.67-3.54.62-6,1-.46.04-1.37.83-3,1-1.96.17-4.04-.08-6,0-1.67,1.79-5.5.96-8,1h-3c-11.83.04-23.66-.46-34.98-1-.67-.04-1.37.04-2,0-1-.08-2.04.04-3,0-.67-.04-1.37,0-2,0-2.21-.12-8.45.79-9-1h-3c-1.33-.04-2.71,0-4,0-1.92-.04-4.91.67-6-1-6.04-.08-11.12-.5-16.99-1-1.87-.17-3.83-.79-4.71-.96-.08-.04-.21-.04-.29-.04-1.67-.17-3.37.13-5,0-1.83-.21-3.75-.87-5-1-1.33-.17-2.71.13-4,0-3.04-.33-6-.67-9-1-3-.33-6.04-.67-9-1-2.71-.33-5.33-.71-8-1-4.37-.54-8.75-1.46-12.99-2-10-1.25-20.24-1.42-29.99-4h-3c-2.79,0-6.04-.75-9-1-1-.08-2.04.08-3,0Z"/>
  <path class="cls-23" d="M4627.2,811.65c67.9-33.17,145.36-22.85,213.05,1.81-10.39,21.41-26.31,44.21-74.14,51.79-95.74,10.16-130.62-44.93-138.91-53.6Z"/>
  <path class="cls-23" d="M4228.24,911.33c10.11,88.94-2.43,237.75,35.35,319.66,31.97,57.73,228.18,66.84,282.17,74.13-43.83,2.15-207.44-3.58-250.99-9.94-3.4-1.33-35.56-8.08-37.24-11.79-10.5-18.77-25.74-49.94-29.71-71.27-15.98-85.83-25.66-172.64.42-300.79Z"/>
  <path class="cls-23" d="M4334.61,810.01c-.06-.22-15.97-3.01-42.97-38.49,56.95,13.18,110.95,81.12,99.65,118.16,0,0-2.11-16.16-14.7-22.44-40.22-18.64-69.24-64.31-95.63-98.4,16.57,19.58,20.46,4.78,53.65,41.16Z"/>
  <path class="cls-23" d="M4479.58,807.68c.06-.22,15.97-3.01,42.97-38.49-56.95,13.18-110.95,81.12-99.65,118.16,0,0,2.11-16.16,14.7-22.44,40.22-18.64,69.24-64.31,95.63-98.4-16.57,19.58-20.46,4.78-53.65,41.16Z"/>
  <path d="M4280.56,741.75c-3.91,6.68-6.81,16.18-.71,22.43,2.37,2.38,6.7,5.58,9.38,7.8,22.5,17.68,45.53,35.16,65.92,55.32,15.53,15.68,37.17,38.99,36.15,62.39.03-38.32-65.32-85.34-93.37-108.9-3.06-2.5-11.29-9.24-14.22-11.74,0,0-2.34-2-2.34-2-8.65-6.63-6.1-17.35-.8-25.28h0Z"/>
  <path d="M4535.8,737.68c5.42,8.16,7.86,18.84-1.09,25.53,0,0-2.37,2.03-2.37,2.03-2.95,2.51-11.3,9.34-14.43,11.89-28.13,23.62-95.02,71.92-95.01,110.21-.12-2.07-.05-4.16.18-6.23,5.45-38.07,64.54-81.73,93.85-105.21,3.17-2.47,11.63-9.09,14.66-11.56,0,0,2.41-1.97,2.41-1.97,8.85-6.31,6.58-16.48,1.8-24.69h0Z"/>
  <path class="cls-23" d="M4526.85,855.84c-1.11,1.8,31.6-37.78,63.03-48.47-43.45,1.86-81.31,39.62-74.05,68.11,16.84-25.36,47.38-38.61,83.4-57.92-9.08,2.68-58.98,16.65-72.37,38.28Z"/>
  <path class="cls-23" d="M4627.2,811.65c67.9-33.17,145.36-22.85,213.05,1.81-8.46,21.65-26.31,44.21-74.14,51.79l-138.91-53.6Z"/>
  <path d="M4526.18,855.84c27.45-31.78,73.59-62.73,116.87-62.01-43.34,2.31-87,31.97-116.87,62.01h0Z"/>
  <path class="cls-23" d="M4520.28,751.45l-112.37,87.91.26-1.59c13.71-27.31,67.19-64.25,108.36-85.84l3.74-.48Z"/>
  <path class="cls-23" d="M4299.71,751.92l108.62,87.43-.26-1.59c-27.85-36.35-67.19-64.25-108.36-85.84h0Z"/>
  <path class="cls-23" d="M4596.64,952.78l-1.9,141.35c.06,12.35-1.29,24.66-4.01,36.7l-19.06,86.84,47.29-102.54-12.38-69.85-4.41-24.87-5.53-67.62Z"/>
  <g id="BrazoD">
    <path id="BrazoD-2" data-name="BrazoD" class="cls-15" d="M3920.2,650.56c6.88,5.19-175.63,123.69-19.45,203.94,85.37,41.34,189.19,85.59,259.99,82.54,21.98-2.21,80.2,19.75,101.6,20.54,36.45,12.62,26.67-119.39,62.83-137.49-40.88-109.4-94.34-56.21-180.51-74.04-60.79-12.58-116.45-84.1-123.48-86.18"/>
    <path class="cls-23" d="M4361.48,872.01c.2-.11.22-35.51.22-35.51-13.85-29.56-46.4-55.25-59.23-60.98-76.14-34.01-134.39-12.72-187.98-40.28-2.72,35.02,70.28,48.93,126.56,56.58,32.25,4.38,56.04,18.68,81.25,39.26,12.22,9.97,32.61,45.01,39.17,40.94Z"/>
  </g>
  <g id="BrazoI">
    <path id="BraziI" class="cls-15" d="M4645.66,1036.46c-11.6,35.81-30.26,97.91-36.51,106.79-9.75,13.85-26.77,44.15-49.96,108.56-12.75,35.4-22.95,50.89-7.44,68.68-.32,8.2-16.36,16.29-9.1,20.12h0c17.51,16.91,37.46,31.1,59.19,42.07l9.57,3.77c7.63,3,16.23,2.04,23.06-2.49,5.08-3.37,9.55-7.04,13.39-8.96,52.47,11.05,134.75-101.6,154.28-176.51,1.46-5.61,2.57-11,3.29-16.12.47-3.33-11.37-67.67-18.6-110.89-2.09-12.48-10.78-23.31-22.98-26.66"/>
    <path class="cls-23" d="M4800.26,1205.34c-17.61,54.79-50.47,115.01-111.95,160.22-11.76,8.65-26.77,12.43-40.95,9-5-1.21-9.86-3.16-14.39-5.82-10.1-5.92-29.47-13.22-40.16-18.44-42.39-40.62-79.23-18.48-21.29-131.09-8.58,16.67,4.44,31.36,1.02,49.46-3.18,23.41,18.7,34.59,37.76,46.04,76.19,45.78,115.38-12.39,144.92-43.52,4.44-4.58,39.04-63.7,45.05-65.85Z"/>
    <path d="M4542.4,1307.37l2.44,3.68c3.89,6.24,8.94,11.61,14.84,15.99,11.5,8.97,23.27,18.19,35.86,25.47,20.25,11.82,42.45,20.62,65.99,22.75-11.78-.41-23.54-2.48-34.79-6.21-22.46-7.58-42.95-20.25-61.06-35.37-4.53-3.8-9.3-7.31-13.34-11.67-4.07-4.33-7.08-9.48-9.94-14.64h0Z"/>
  </g>
  <g id="AntebrazoI">
    <path id="AntebrazoI-2" data-name="AntebrazoI" class="cls-15" d="M4694.32,1206.13c0-1.85-4.71-7.1-11.39-13.79-26.65-26.68-48.11-58.14-63.24-92.68-1.23-2.8-2.15-4.91-2.62-5.99-24.1-55.56-17.66-153.66-24.34-200.78,0,0,34.78-81.67,34.78-81.67,126.78,2.41,150.75,3.29,165.96,111.02,5.51,80.88,17.46,134.91,22.42,248.1.16,3.7-4.52,39.71-36.88,64.07l-84.7-28.29Z"/>
    <path class="cls-23" d="M4651.78,821.08c3.6,1.46,7.26,3.1,10.96,4.9,55.06,26.78,94.38,77.86,108.59,137.41,15.65,65.6,36.58,154.9,43.22,180.35-4.48-56.18-13.41-157.84-19.66-213.8-9.14-72.55-19.85-139.55-167.38-118.72l24.27,9.86Z"/>
    <g>
      <path class="cls-23" d="M4694.32,1206.13c-79.5-44.87-94.27-156.78-98.28-245.74l98.28,245.74Z"/>
      <path d="M4596.03,960.38c6.61,33.64,7.88,68.14,14.84,101.73,8.68,44.4,25.04,89.18,57.33,121.93,7.93,8.19,16.74,15.51,26.11,22.08-9.62-6.19-18.59-13.39-26.8-21.39-41.66-40.77-56.95-100.05-63.64-156.23-2.92-22.69-3.97-45.58-7.84-68.13h0Z"/>
    </g>
  </g>
  <g id="Serpiente">
    <path class="cls-12" d="M4333.44,1150.41c-23.45-25.38-29.71-55.12-8.97-85.61,16.83-24.74,38.07-21.84,59.72-34.42,23.6-13.7-.44-46.12-5.52-64.61-12.92-47.11,58.66-79.94,82.37-28.06,8.62,18.87,4.01,21.67-.56,38.62-9.34,34.66-5.24,62.74-39.06,85.26-14.91,9.93-42.59,15.26-52.9,24.34-11.55,10.16-7.44,29.27,9.86,26.8,32.73-4.66,46.44-61.54,86.13-65.99,4.53-.51,20.02,1.58,20.88.98,1.66.42,6.2,2.14,11.05,4.17,10.49,4.4,19.6,11.68,25.9,21.16,1.15,1.74,2.1,3.35,2.67,4.65,13.16,35.97,10.48,68.84-44.6,92.36-15.77,6.73-50.47,7.23-55.9,27.39-1.13,4.18.62,11.61,3.68,14.54,1.69,1.62,5.23,3.07,6.9,3.86,5.11,2.43,10.89,2.91,16.01,6.98,9.73,7.75,6.97,26.95-1.53,35.95-6.24-13.05-4.69-11.17-5.31-13.6-.83-3.27-3.68-5.66-7.03-6.03-7.25-.78-17.89.76-23.79-2.79-3.39-2.04-14.24-12.71-16.57-16.02-11.83-16.8-6.95-38.63,4.15-54.23,4.22-2.03,10.24-10.3,14.58-13.78,5.36-4.29,16.62-11.21,22.83-13.98,14.15-6.32,24.85-5.58,37.41-16.9,7.44-6.7,17.12-20.58,6.66-28.99-15.76-12.68-34.42,22.54-42.9,31.98-10.56,11.75-27.96,26.28-42.6,32.23-21,8.54-44.77,6.3-63.58-6.25ZM4444.85,981.81c2.75-3.33,9.22-6.82,12.21-11.31,9.84-14.76-1.02-38.96-14.6-47.99-29.03-19.32-63.93,7.47-59.44,40.12,1.42,10.33,11.14,14.47,16.81,21.82,3.12,4.04,2.61,10.32,10.34,11.44,5.57.8,8.32-2.2,12.1-2.34,4.27-.16,6.19,3.9,12.61,1.85,6.48-2.08,6.77-9.69,9.97-13.57ZM4436.03,1000.75c-1.61.58-10.57-.82-8.44,4.21,2.42,5.73,8.6-1.31,9.64-1.8,1.08-.51,3.19-.06,5.25-1.35,6.57-4.1,11.69-14.01,12.84-21.58-9.23,3.54-9.94,17.15-19.3,20.52ZM4403.44,1000.75c4.27,3.36,12.12,9.68,10.87,0-3.28.9-6.97-1.19-9.66-1.22-5.95-5.52-7.6-13.57-14.47-18.1,2.17,8.01,6.87,14.26,13.27,19.3ZM4423.96,1029.11v-30.78c-9.31-1.67-5.4,9.81-6.05,16.28-1.12,11.16-7.55,19.14-10.89,24.13,6.07-4.21,6.78-4.2,7.23-4.59,5.29-4.62,3.46,3.1,4.27,7.62M4438.44,1035.75c4.77-4.05,8.08-12.82,9.59-18.79,1.07-4.21-4.69,1.36-4.75-1.71,5.02-1.48,7.18-9.61,7.22-14.5-3.37,2.03-5.34,5.46-8.79,7.49-3.13,1.85-11.08,3.2-11.55,3.58-.61.5.02,1.92-.17,2.21-4.72,7.4-2.18,21.24-7.24,31.38-.83,1.66-9.05,7.22-9.66,7.24l-.6-10.86c-1.46,2.32-5.25,3.5-6.52,5.54-2.33,3.76.63,6.4-3.74,6.52-1.2-2.08-1.58-4.92-1.21-7.24.37-2.27,3.35-6.74,3.03-9.63-3.56,2.95-7.58,4.86-9.06,9.63-4.59-1.55,4.02-8.56,3.62-10.24-.4-1.69-4.81-.84-3.62-4.23,4.87,1.88,10.16,1.62,13.35-2.99,1.22-1.76.79-3.67,1.12-4.26.39-.68,2.11-1.17,3.02-3.59,4.63-12.34,1.26-8.71-6.67-11.47-2.35-.82-3.4-3.31-6-3.04-.62.7.54,9.74,0,12.06-4.67,19.78-37.87,23.66-53.47,32.83-9.42,5.54-12.01,9.09-17.74,17.87-10.73,16.46-13.47,28.44-8.45,48.28,2.18,8.6,8.73,23.07,18.1,25.35.16,4.44,3.64,4.54,6.03,6.03,11.99,7.46,22.62,8.05,36.21,6.03.39-.06.82.07,1.21,0,38.4-6.81,50.19-36.16,73.62-60.35,6.79-7.01,17.55-14.43,27.76-9.66,2.24,1.05,7.98,7.65,8.45,9.66.51,2.18.23,9.4,0,12.07-1.69,19.78-24.95,26.2-39.83,32.59-23.98,10.29-54.07,24.08-56.73,54.31-.13,1.51-.07,3.29,0,4.83.63,13.81,10.52,26.89,23.49,31.43,7.52,2.63,15.82,2.37,22.82,5.47,1.97.88,3.52,2.5,4.42,4.46l4.78,10.53c5.53-14.31,3.45-19.88-9.64-26.54-6.23-3.17-12.95-3.76-18.1-8.45-.48-2.08-1.77-5.02-3.62-6.03-2.27-6.31-1.4-12.37,1.75-18.17,1.69-3.12,12.38-14.09,15.15-15.63,13.87-7.73,36.15-6.8,53.1-15.69,3.24-1.7,3.32-2.62,4.83-3.62,4.42-2.93,7.38-1.94,9.66-8.45.74-.15,1.87.22,2.41,0,9.68-3.84,18.82-30.74,19.32-40.49.19-3.6-1.11-5.14-1.22-6.58-1.21-15.81-1.46-19.51-12.07-31.38-11.22-12.55-26.21-18.82-43.45-18.1-19.9.82-29.41,13.25-41.04,26.55-16.11,18.43-31.94,43.85-60.35,39.83-.66-.09-2.59-1.97-4.83-2.41l-4.83-4.83c-1.22-7.54-.84-11.16-1.21-18.08.3-.57.65-1.22.95-1.8,2.42-1.71,3.38-4.73,5.63-6.73,12.53-11.16,30.89-13.65,45.33-21.05,4.29-2.2,13.05-6.91,14.46-11.49,1.37-.42,2.22.14,4.25-1.14,2.17-1.36,11.39-11.07,11.44-13.35,0-.4.1-1.02,0-1.21Z"/>
    <path class="cls-13" d="M4444.85,981.81c-3.2,3.88-3.49,11.5-9.97,13.57-6.42,2.06-8.34-2-12.61-1.85-3.78.14-6.53,3.15-12.1,2.34-7.73-1.11-7.22-7.4-10.34-11.44-5.67-7.35-15.38-11.48-16.81-21.82-4.5-32.66,30.4-59.45,59.44-40.12,13.58,9.04,24.44,33.23,14.6,47.99-3,4.5-9.47,7.98-12.21,11.31ZM4443.26,969.37c19.62,1.05,10.18-41.61-3.63-21.14-4.78,7.08-5.6,24.54,4.84,25.95l-1.21-4.81ZM4431.19,956.09,4427.56,965.74,4416.71,983.87c-.44-.55-7.47-3.28-8.43-2.43-1.85,1.63,1.99,5.53,4.5,5.85,2.69.35,5.15-1.89,3.94-3.42Z"/>
    <path class="cls-34" d="M4350.33,1057.47v8.46c4.4.09,8.87-.14,13.28,0l1.21,4.83c-16.48-.86-16.62,10.99-8.45,21.72.37,6.94,0,10.55,1.21,18.1.24,1.49-.18,3.28,0,4.83,1.53.21,3.43-.29,4.83,0,2.24.45,4.17,2.32,4.83,2.41-1.48,5.55,2.13,4.5,2.41,4.83.17.19-.19,1.6.33,2.03,1.45,1.17,2.95.98,3.75,1.49,4.76,3.05-12.19,5.21-10.02,10.24.37.86,9.53,7.49,10.76,7.96l-1.21,4.83c-2.81.02-5.63-.01-8.45,0-3.65-1.07-7.04-2.88-10.86-3.62-1.55-.3-5.09.57-5.9-.13-.3-.26-.51-3.6-1.49-5.13-2.67-4.19-7.98-8.77-13.13-9.21l-13.28-13.28c-5.02-19.84-2.28-31.82,8.45-48.28.81.35,5.73,1.23,6.03,1.21-1.79,5.27-6.3,7.42-5.98,13.7.19,3.71,5.44,18.85,10.16,17.68.84-.21,9.86-11.92,10.24-13.94.62-3.36-1.12-16.03-2.59-19.06-1.09-2.24-3.22-1.81-3.38-2.01-.08-.1-.08-1.89,0-2.41.4-2.52,3.72-6.04,6.03-7.24.04.07.81,0,1.21,0ZM4321.38,1087.65c-.8,7.89.9,12.95,7.84,16.87l-4.84-8.43-3.01-8.44ZM4352.74,1110.57c.94-.87-2.06-3.8-2.38-5.45-.48-2.54,1.32-7.88-1.22-9.01-4.98,3.53-.94,18.68,3.6,14.47ZM4329.8,1119.03l-1.79-13.27c-3.38,3.41-2.45,11.05,1.79,13.27ZM4363.6,1127.5c-.14-.17-2.47-.39-3.66-1.74-1.8-2.06-1.8-4.74-3.07-6.63-2.16-3.18-17.46-13.26-19.81-10.97-1.4,12.81.57,21.99,15.03,22.98,1.62.11,14.71.07,11.51-3.64ZM4367.23,1141.97c-.52-.48-11.34-3.97-13.27-4.83.33,4.75,7.47,7.32,11.43,7.28,1.91-.02,3.25-1.15,1.84-2.45Z"/>
    <path class="cls-25" d="M4497.58,1069.54c2.03,7.06,1.27,13.5,2.67,18.45.88,3.1,7.45,8.13,8.82,11.77,6.71,1.27,6.34-18.87,4.53-22.7-.36-.75-4.4-4.63-5.16-5.11.52-1.73,1.86-2.4,3.62-2.41,10.61,11.87,10.86,15.57,12.07,31.38-1.91,3.94-4.59,7.98-6.03,12.07-1.53,4.33-2.5,8.66-2.41,13.28-.98-.25-2.5.17-3.62,0,.71-2.84.24-18.55-3.04-19.31-1.13-.26-16.16,13.7-16.9,15.67-1.73,4.6-2.26,11.89-4.19,16.91,7.64-1.76,18.09-5.59,22.92-12.06.09,1.19-.13,2.44,0,3.62-4.64,6.11-13.05,9.33-18.14,13.84-3.52,3.12-4.09,7.09-5.99,9.09-.61.64-3.63,1.78-4.83,2.41-1.1.13-3.04-1.24-3.62-1.21.88-1.07,1.5-2.65,2.41-3.62,2.51-2.67,7.54-7.44,4.67-11.91-.32-.49-9.96-2.61-11.39-2.62-6.74-.07-12.27,10.11-17.4,13.93,4.68,4.62,12.85,5.41,19.29,5.43l1.21,2.41c-3.62.37-9.62.02-13.28,0-3.28-.02-6.72-1.2-8.45-1.21,1.31-1.24.95-4.96-.26-5.8-.35-.25-7.76-2.59-8.19-2.65.72-3.98,5.76-4.16,4.83-9.66,14.88-6.38,38.14-12.81,39.83-32.59l4.81-3.62v7.23c8.52-1.4.54-9.75.27-12.86-.17-2.02,2.53-5.04,2.24-9.44-.39-5.87-3.49-9.92-9.73-9.07-1.73-1.47-.91-2.98-4.83-3.62-2.19-.36-5,.32-7.24,0v-1.21c1.85-1.09,5.66-5.91,8.45-6.03,2.3-.1,8.52,2.51,12.07,1.21ZM4519.29,1097.29l1.21-9.64c-1.68.52-3.58,9.27-1.21,9.64ZM4513.28,1110.58c3.38-2.22,4.23-8.32,4.8-12.07-4.71,2.35-5.26,7.33-4.8,12.07Z"/>
    <path class="cls-17" d="M4409.47,1024.89c-.33.59.1,2.49-1.12,4.26-3.19,4.61-8.49,4.86-13.35,2.99-1.2,3.4,3.22,2.55,3.62,4.23.4,1.69-8.22,8.69-3.62,10.24h6.03c-.38,2.33,0,5.16,1.21,7.24-.39.01-.82.04-1.21,0-9.89-1.11-10.52-3.87-18.14,4.24-.96,1.02-.89,2.66-1.17,3-.21.26-6.91,1.02,0,2.41-.09.43.14.94,0,1.21-1.46.23-3.56-.34-4.83,0,1.84-2.88,2.99-15.8,3.62-16.9.14-.24,3.67.83,2.4-3.62-1.98-.11-2.19,3.48-2.4,3.62-1.09.71-13.4-3.68-21.66,1.87-3.35,2.25-5.11,7.83-8.51,7.78-.4,0-1.17.07-1.21,0-.26-.45.31-2.16,0-2.41-2.7-2.12-8.64,8.71-8.46,11.44l2.43-1.8c-.08.52-.08,2.31,0,2.41-2.27,2.62-5.17,3.34-8.45,3.62-.31.03-5.23-.86-6.03-1.21,5.73-8.78,8.32-12.33,17.74-17.87,15.6-9.17,48.81-13.04,53.47-32.83,1.99,2.91,6.32,4.83,9.66,6.03ZM4391.37,1039.38c-2.92-.14-7.5,1.18-7.24,4.81.86.85,6.89-3.26,7.24-4.81Z"/>
    <path class="cls-11" d="M4455.34,1094.89c-23.43,24.19-35.22,53.53-73.62,60.35-.24-2.39-3.07-3.96-1.21-6.03,7.85-1.02,8.55-5.68,13.28-6.03.06,0-.18,1.12.56,1.08,5.27-.29,6.79-4.41,7.89-8.32.3-1.06-.84-2.8,1.19-2.4,0,6.35,9.35-3.08,13.29-2.42-.31.94-2.49,2.71-.61,3.61,3.54-3.07,4.18-8.08,6.64-12.06.76-1.23,1.61-2.41,2.41-3.62,2.78-4.05,15.53-7.66,10.86-13.28,1.37-1.79,2.72-6.13,3.62-7.24,1.37-1.68,5.8-3.35,6.03-3.62l2.4,3.61c1.41-4.71.8-10.81,6.05-13.27.97,3.59.42,6.13,1.21,9.66Z"/>
    <path class="cls-25" d="M4420.34,1123.86c-1.17,1.4-3.01,5.4-3.62,7.24-3.94-.66-13.3,8.77-13.29,2.42-2.03-.39-.89,1.34-1.19,2.4l-8.45,7.24c-4.73.36-5.43,5.01-13.28,6.03-2.16.28-4.94-.01-7.24,0l1.21-4.83c6.57,2.52,15.89-2.38,19.21-8.02,2.02-3.44-.06-4.55.11-6.46,6.6.8,19.54-.86,22.93-7.24l3.62,1.21Z"/>
    <path class="cls-25" d="M4429.99,1080.41c-3.84,4.56-10.08,17.41-6.67,22.97,2.05,3.35,11.64-5.19,15.12-4.86h1.21c-.9,1.12-2.25,5.45-3.62,7.24-.34.45-.88.77-1.21,1.21-5.48.01-7.32,5.13-13.28,2.41.4-9.1-10.77-4.88-15.63-1.75-6.79,4.36-11.46,14.53-12.13,22.27-5.08-.62-8.23-5.23-11.66-5.66-3.52-.44-7.83,1.71-12.48-1.58-.29-.33-3.89.72-2.41-4.83,28.41,4.02,44.24-21.4,60.35-39.83l2.41,2.41Z"/>
    <path class="cls-17" d="M4451.72,1139.55c.94,5.49-4.11,5.67-4.83,9.66-13-2.02-18.18,7.88-21.72,18.1-.93,2.68-2.36,3.41-2.41,3.62-18.38-.49-22.68,10.31-16.9,26.55-1.2.08-2.42-.05-3.62,0-.02-.4.04-.81,0-1.21-.11-1.19.08-2.43,0-3.61-3.95-.21-1.16,4.3-7.24,1.2,2.66-30.24,32.74-44.02,56.73-54.31Z"/>
    <path class="cls-11" d="M4422.75,1051.44c-1.41,4.58-10.17,9.29-14.46,11.49-14.45,7.4-32.81,9.89-45.33,21.05-2.52,2.25-3.43,5.77-6.59,7.29-.56-13.68-7.08-15.77,9.09-16.91,2.31-.16,4.85,1.34,4.18-2.4,1.21-.02,2.41.02,3.62,0l-.02,3.61c-.44-4.31,6.83-1.66,9.66-3.63.18-2.06-4.76-1.29-6.03-1.19,1.2-2.35,3.61-3.68,4.83-6.03.14-.27-.09-.78,0-1.21.08-.38-.06-.81,0-1.21,7.68-5.67,5.36-9,15.69-7.24,2.82,10.04,11.27-2.24,15.69-2.41.6-.02,3.77-.63,4.44-.7,1.63-.17,4.26-.22,5.22-.51Z"/>
    <path class="cls-11" d="M4399.82,1198.68c-.45,4.15-.99,8.42,2.41,10.86.25.18,1.69-.48,2.22.22.84,1.12-1.06,4.34,2.61,3.4.1,7.93,6.83,11.16,14.09,12.02,1.65.2,2.66-1.18,2.81-1.16,4.66.61,12.41,3.1,16.9,4.83,4.37,1.68,8.59,5.27,2.96,8.44-7.56-4.98-16.64-4.15-25.33-7.19-12.97-4.54-22.86-17.62-23.49-31.43h4.83Z"/>
    <path class="cls-27" d="M4489.13,1160.06c-16.96,8.89-39.23,7.96-53.1,15.69l-.94-.74.94-4.09c2.09-.47,6.96-3.06,9.92-3.96,4.52-1.38,9.3-2.17,12.69-3.69l5.15-4.41c3.66.02,9.65.37,13.28,0,4.57-.46,3.39-1.66,4.83-2.41,1.2-.63,4.22-1.78,4.83-2.41l2.41,6.03Z"/>
    <path class="cls-26" d="M4512.06,1069.54c-1.76.02-3.1.68-3.62,2.41-1.85-1.17-6.52-1.93-8.77-3.59-1.48-1.08-2.03-3.37-3.92-4.85-.48-.37-2.6-.64-1.03,1.13,1.81,2.05,2,1.91,2.86,4.9-3.54,1.31-9.77-1.31-12.07-1.21,1.87-2.39.9-2.92-.53-4.87-3.34-4.56-10.47-11.73-16.37-9.62v-2.41c17.24-.71,32.23,5.55,43.45,18.1Z"/>
    <path class="cls-32" d="M4418.49,1000.22l5.47-1.88c0,3.24-2.35,41.47-5.44,43.44-1.33-3.05,1.02-12.24-4.27-7.62-.45.39-7.23,4.59-7.23,4.59,0,0,9.77-12.97,10.89-24.13.65-6.46-.88-7.84.58-14.4Z"/>
    <path class="cls-11" d="M4429.99,1014.02c.18-.29-.45-1.71.17-2.21.47-.38,8.42-1.73,11.55-3.58,3.45-2.03,5.42-5.46,8.79-7.49-.04,4.89-2.2,13.01-7.22,14.5.06,3.08,5.81-2.5,4.75,1.71-1.51,5.97-4.82,14.74-9.59,18.79-.15-.28-1.93-.77-2.42-1.74-2.35-4.66-2.59-5.24-1.2-10.33.35-1.29,2.57-2.43,2.3-4.05-.23-1.38-5.1-5.81-7.12-5.6Z"/>
    <path class="cls-27" d="M4475.86,1074.37c.13.58.64,1.13,1.21,1.21,2.24.32,5.05-.36,7.24,0l-1.21,9.66c-10.21-4.78-20.97,2.64-27.76,9.66-.79-3.53-.23-6.07-1.21-9.66-.18-.66.12-1.65,0-2.41,3.93-3.35,9.79-4.65,13.28-8.45,1.42.5,3.13,2.1,4.43,2.19,1.76.12,2.7-1.48,4.02-2.19Z"/>
    <path class="cls-13" d="M4468.61,1051.44v2.41c-2.18.78-10.52,7.75-12.07,9.66l-.66-1.17c-1.94,1.48-6.4,1.69-7.79,2.38-2.69,1.33-4.69,4.23-4.83,7.24-2.19-.53-3.09,2.14-3.62,2.41-3.48,1.77-6.34,2.09-9.66,6.03l-2.41-2.41c11.63-13.3,21.13-25.73,41.04-26.55Z"/>
    <path class="cls-11" d="M4506.03,1147.99c.34-2.94.49-7.3,1.53-9.94,1.28-3.28,3.78-2.61,3.3-6.96-.13-1.18.09-2.43,0-3.62.34-.46,1.17-1.07,1.21-1.21,1.12.17,2.64-.25,3.62,0,.18.05.82,1.75,2.41,1.2-1.17-4.75,2.01-10.86,0-14.48,1.44-4.09,4.12-8.13,6.03-12.07.11,1.44,1.4,2.98,1.22,6.58-.51,9.75-9.64,36.65-19.32,40.49Z"/>
    <path class="cls-11" d="M4436.03,1175.75c-2.77,1.54-13.46,12.51-15.15,15.63-3.15,5.8-4.02,11.86-1.75,18.17-1.03-.57-3.52-1.06-6.03-2.41v-13.28c4.87-4.17,7.14-7.38,8.45-13.28,1.46-1.98,2.89-3.31,4.83-4.83l.73,1.15c3.51-.11,6.9-2.52,7.71-5.98.03.05.9.07,1.21,0l-.94,4.09.94.74Z"/>
    <path class="cls-11" d="M4364.82,1149.2c5.18,1.51,12.01,2.4,15.69,6.03-13.59,2.02-24.22,1.43-36.21-6.03,2.7-3.33,10.72,1.49,9.66-3.62,3.82.74,7.21,2.55,10.86,3.62Z"/>
    <path class="cls-11" d="M4399.82,1018.85c.55-2.32-.62-11.36,0-12.06,2.6-.27,3.65,2.22,6,3.04,7.92,2.76,11.29-.87,6.67,11.47-.91,2.42-2.63,2.91-3.02,3.59-3.34-1.21-7.66-3.13-9.66-6.03Z"/>
    <path class="cls-17" d="M4434.82,1023.68c-6.29.32-2.23,8-2.41,10.86-.1,1.49-4.12,8.1-5.39,9.7-.8,1.01-3.41,3.89-4.27,1.16,5.06-10.14,2.52-23.98,7.24-31.38,2.02-.21,6.89,4.22,7.12,5.6.27,1.62-1.94,2.76-2.3,4.05Z"/>
    <path class="cls-11" d="M4320.16,1117.82l13.28,13.28c3.46,3.05,7.96,5.75,8.45,10.86v1.21c-1.13-.16-2.62.24-3.62,0-9.38-2.28-15.93-16.75-18.1-25.35Z"/>
    <path class="cls-18" d="M4407.06,1213.17c-.03-2.39.6-10.46,3.6-8.42.17.12-.8.65,2.43,2.39,2.52,1.36,5,1.85,6.03,2.41,1.85,1.02,3.14,3.95,3.62,6.03.02.09-1,.83-.86,1.61.41,2.34,1.85,4.43,2.07,6.84-.15-.02-1.16,1.36-2.81,1.16-7.25-.86-13.98-4.09-14.09-12.02ZM4409.48,1209.55c-.84,8.5,3.78,11.85,11.47,13.24-1.49-5.66-4.82-12.44-11.47-13.24Z"/>
    <path class="cls-11" d="M4489.13,1079.2c4.57,3.88,13.31,13.98,2.41,15.69-.46-2.01-6.21-8.61-8.45-9.66l1.21-9.66c3.92.64,3.1,2.15,4.83,3.62Z"/>
    <path class="cls-25" d="M4440.85,1224.03c13.09,6.66,15.17,12.23,9.64,26.54l-6.68-13.27c5.64-3.17,1.41-6.76-2.96-8.44v-4.83Z"/>
    <path class="cls-11" d="M4493.96,1156.44c-9.21,1.43-3.45-5.86-.02-9.07,1.18-1.1,10.1-7.47,10.88-6.61-.33,2.1-.54,5.36-1.2,7.24-2.28,6.51-5.24,5.52-9.66,8.45Z"/>
    <path class="cls-18" d="M4489.13,1079.2c6.24-.85,9.34,3.2,9.73,9.07.29,4.4-2.41,7.41-2.24,9.44.27,3.12,8.25,11.46-.25,12.86v-7.23s-4.83,3.62-4.83,3.62c.23-2.67.51-9.88,0-12.07,10.9-1.71,2.16-11.81-2.41-15.69Z"/>
    <path class="cls-18" d="M4437.23,1003.16l-1.21-2.41c9.36-3.37,10.07-16.97,19.3-20.52-1.14,7.57-6.27,17.48-12.84,21.58-2.07,1.29-4.17.85-5.25,1.35Z"/>
    <path class="cls-18" d="M4506.03,1147.99c-.55.22-1.68-.15-2.41,0,.66-1.88.87-5.14,1.2-7.24-.78-.86-9.7,5.51-10.88,6.61-3.42,3.22-9.18,10.5.02,9.07-1.5,1-1.58,1.92-4.83,3.62l-2.41-6.03c1.91-2,2.47-5.97,5.99-9.09,5.1-4.51,13.51-7.73,18.14-13.84.48,4.35-2.02,3.68-3.3,6.96-1.04,2.64-1.19,7-1.53,9.94Z"/>
    <path class="cls-14" d="M4438.44,1036.96c-.05,2.28-9.27,11.98-11.44,13.35-2.03,1.28-2.88.72-4.25,1.14-.96.29-8.78.9-9.66,1.21,3.52-2.08,8.83-5.59,9.66-7.24.85,2.72,3.47-.15,4.27-1.16,1.26-1.6,5.29-8.21,5.39-9.7l6.03,2.41Z"/>
    <path class="cls-14" d="M4440.85,1224.03v4.83c-4.49-1.73-12.24-4.22-16.9-4.83-.22-2.41-1.66-4.5-2.07-6.84-.14-.78.88-1.52.86-1.61,5.16,4.69,11.87,5.28,18.1,8.45Z"/>
    <path class="cls-14" d="M4413.1,1052.65c-4.42.18-12.87,12.45-15.69,2.41,1.62.28,3.09,1.4,4.83,1.2l-1.21-2.4c.39.04.82.01,1.21,0,4.37-.12,1.41-2.76,3.74-6.52,1.27-2.05,5.06-3.23,6.52-5.54l.6,10.86Z"/>
    <path class="cls-18" d="M4333.44,1131.1c5.15.44,10.46,5.03,13.13,9.21.98,1.53,1.18,4.87,1.49,5.13.81.7,4.36-.16,5.9.13,1.06,5.11-6.95.29-9.66,3.62-2.4-1.49-5.88-1.6-6.03-6.03,1,.24,2.49-.16,3.62,0,3.42.49,3.42-1.69,0-1.21-.49-5.11-4.99-7.81-8.45-10.86Z"/>
    <path class="cls-18" d="M4364.82,1070.75c.54.03,2.12,1.24,4.83,1.21.67,3.74-1.88,2.24-4.18,2.4-16.18,1.14-9.65,3.23-9.09,16.91.02.4-.02.81,0,1.21-8.17-10.74-8.03-22.58,8.45-21.72Z"/>
    <path class="cls-18" d="M4403.44,1000.75c-6.4-5.04-11.1-11.29-13.27-19.3,6.87,4.53,8.52,12.57,14.47,18.1-.54,0-1.43.48-1.21,1.21Z"/>
    <path class="cls-11" d="M4436.03,1000.75l1.21,2.41c-1.04.49-7.22,7.53-9.64,1.8-2.13-5.04,6.82-3.63,8.44-4.21Z"/>
    <path class="cls-11" d="M4404.65,999.54c2.69.03,6.38,2.11,9.66,1.22,1.25,9.67-6.6,3.35-10.87,0-.22-.72.66-1.21,1.21-1.21Z"/>
    <path class="cls-18" d="M4373.27,1149.2c2.3-.01,5.08.28,7.24,0-1.86,2.08.97,3.65,1.21,6.03-.39.07-.81-.06-1.21,0-3.68-3.64-10.51-4.52-15.69-6.03,2.81-.01,5.63.02,8.45,0Z"/>
    <path class="cls-14" d="M4401.03,1046.61h-6.03c1.48-4.77,5.51-6.68,9.06-9.63.32,2.89-2.66,7.36-3.03,9.63Z"/>
    <path class="cls-18" d="M4434.82,1023.68c-1.39,5.09-1.15,5.66,1.2,10.33.49.97,2.27,1.46,2.42,1.74.1.19,0,.81,0,1.21l-6.03-2.41c.19-2.86-3.88-10.55,2.41-10.86Z"/>
    <path class="cls-14" d="M4394.99,1193.86c6.07,3.11,3.29-1.41,7.24-1.2.09,1.19-.1,2.43,0,3.61-2.53-.43-2.21.52-2.41,2.41h-4.83c-.07-1.53-.13-3.32,0-4.83Z"/>
    <path class="cls-25" d="M4362.4,1115.41c-1.41-.28-3.31.21-4.83,0-.18-1.55.25-3.35,0-4.83l4.83,4.83Z"/>
    <path class="cls-1" d="M4443.26,969.37l1.21,4.81c-10.44-1.41-9.62-18.87-4.84-25.95,13.81-20.47,23.25,22.2,3.63,21.14Z"/>
    <path class="cls-1" d="M4403.58,969.37l-1.21,4.81c10.44-1.41,9.62-18.87,4.84-25.95-13.81-20.47-23.25,22.2-3.63,21.14Z"/>
    <path class="cls-16" d="M4416.71,983.87c1.21,1.53-1.25,3.77-3.94,3.42-2.51-.32-6.34-4.22-4.5-5.85.96-.85,7.99,1.88,8.43,2.43Z"/>
    <path class="cls-16" d="M4428.7,983.87c-1.21,1.53,1.25,3.77,3.94,3.42,2.51-.32,6.34-4.22,4.5-5.85-.96-.85-7.99,1.88-8.43,2.43Z"/>
    <path class="cls-27" d="M4426.73,967.94s-.22-12.04,4.45-11.64c.14,1.46-4.45,11.64-4.45,11.64Z"/>
    <path class="cls-27" d="M4420.81,967.94s.22-12.04-4.45-11.64c-.14,1.46,4.45,11.64,4.45,11.64Z"/>
    <path class="cls-18" d="M4334.64,1070.75c3.28-.28,6.18-1,8.45-3.62.16.2,2.29-.23,3.38,2.01,1.47,3.03,3.22,15.7,2.59,19.06-.38,2.02-9.4,13.73-10.24,13.94-4.72,1.17-9.97-13.97-10.16-17.68-.33-6.29,4.19-8.44,5.98-13.7ZM4343.08,1070.75c-.68-.85-9.99,7.23-10.6,9.3-1.61,5.42.44,22.18,7.5,14.75,6.63-6.98,4.23-15.44,3.1-24.04Z"/>
    <path class="cls-18" d="M4380.51,1047.82c.21-.14.42-3.73,2.4-3.62,1.27,4.46-2.26,3.38-2.4,3.62-.63,1.1-1.78,14.01-3.62,16.9-7.57,2-5.51,1.44-13.28,1.21-4.41-.13-8.87.1-13.28,0v-8.46c3.4.05,5.17-5.54,8.52-7.78,8.26-5.55,20.57-1.16,21.66-1.87ZM4378.09,1050.24c-10.28-1.05-21.04-.09-22.92,12.06,3.92-1.33,14.26,1.79,16.84.66,3.73-1.64,5.47-8.98,6.08-12.71Z"/>
    <path class="cls-18" d="M4363.6,1127.5c3.2,3.71-9.89,3.75-11.51,3.64-14.46-.99-16.43-10.17-15.03-22.98,2.35-2.29,17.65,7.79,19.81,10.97,1.28,1.89,1.28,4.57,3.07,6.63,1.18,1.35,3.51,1.58,3.66,1.74ZM4356.37,1127.46c-2.38-8.44-7.57-11.9-15.68-14.47-2.18,12.19,4.93,14.87,15.68,14.47Z"/>
    <path class="cls-18" d="M4393.78,1129.89c-.16,1.92,1.92,3.02-.11,6.46-3.32,5.64-12.63,10.54-19.21,8.02-1.23-.47-10.39-7.11-10.76-7.96-2.18-5.03,14.78-7.18,10.02-10.24-.8-.51-2.31-.32-3.75-1.49-.53-.43-.17-1.84-.33-2.03,4.65,3.29,8.95,1.13,12.48,1.58,3.43.43,6.58,5.05,11.66,5.66ZM4380.19,1128.89c-1.39.21-11.53,5.55-11.75,6.45-.47,1.98,9.66,7.75,11.46,7.75,3.21.01,8.75-5.69,11.45-7.77-2.33-2.7-7.39-7-11.16-6.44Z"/>
    <path class="cls-18" d="M4421.54,1109.37c-.03.71-4.36,12.4-4.83,13.28-3.39,6.39-16.33,8.04-22.93,7.24.66-7.74,5.34-17.91,12.13-22.27,4.86-3.12,16.03-7.35,15.63,1.75ZM4417.92,1108.17c-10.51-.38-17.98,8.14-19.3,18.09,12.73.66,15.99-7.68,19.3-18.09Z"/>
    <path class="cls-26" d="M4381.71,1064.72c-1.22,2.36-3.62,3.68-4.83,6.03-1.36.11-3.03,1.2-3.62,1.21-1.21.02-2.41-.02-3.62,0-2.71.03-4.29-1.18-4.83-1.21l-1.21-4.83c7.77.23,5.71.79,13.28-1.21,1.27-.34,3.37.23,4.83,0Z"/>
    <path class="cls-18" d="M4352.74,1110.57c-4.54,4.21-8.58-10.94-3.6-14.47,2.54,1.14.74,6.47,1.22,9.01.31,1.66,3.31,4.58,2.38,5.45Z"/>
    <path class="cls-27" d="M4367.23,1141.97c1.41,1.3.08,2.43-1.84,2.45-3.97.03-11.1-2.54-11.43-7.28,1.93.86,12.75,4.36,13.27,4.83Z"/>
    <path class="cls-11" d="M4321.38,1087.65l3.01,8.44,4.84,8.43c-6.95-3.91-8.65-8.98-7.84-16.87Z"/>
    <path class="cls-18" d="M4329.8,1119.03c-4.24-2.22-5.17-9.86-1.79-13.27l1.79,13.27Z"/>
    <path class="cls-27" d="M4343.09,1064.72l-2.43,1.8c-.18-2.73,5.76-13.56,8.46-11.44.32.25-.26,1.95,0,2.41-2.32,1.21-5.64,4.72-6.03,7.24Z"/>
    <path class="cls-18" d="M4512.06,1126.27c-.03.14-.87.75-1.21,1.21-4.83,6.48-15.28,10.31-22.92,12.06,1.93-5.02,2.46-12.31,4.19-16.91.74-1.96,15.77-15.93,16.9-15.67,3.28.76,3.74,16.47,3.04,19.31ZM4508.44,1113c-9.62,3.54-14.85,11.83-15.68,21.71,11.31-2.71,17.11-9.8,15.68-21.71Z"/>
    <path class="cls-18" d="M4485.51,1068.34c-2.79.12-6.6,4.94-8.45,6.03-.29.17-.89-.17-1.21,0-1.32.71-2.26,2.3-4.02,2.19-1.3-.09-3.01-1.69-4.43-2.19-2.44-.86-11.83-4.44-12.76-6.01-.51-.86,1.28-4.1,1.9-4.86,1.55-1.91,9.89-8.88,12.07-9.66,5.9-2.11,13.02,5.06,16.37,9.62,1.43,1.95,2.4,2.47.53,4.87ZM4460.22,1068.27c.34.49,9.8,3.76,11.34,3.65,2.3-.15,8.89-5.01,8.9-6.59.01-1.71-6.86-9.43-9.97-9.13-2.47.24-11.97,9.59-10.26,12.07Z"/>
    <path class="cls-18" d="M4446.89,1149.2c.43.07,7.84,2.4,8.19,2.65,1.21.84,1.57,4.56.26,5.8-3.81-.01-5.73,5.47-9.59,6.71-5.73,1.84-14.48,1.1-20.59,2.95,3.55-10.22,8.73-20.13,21.72-18.1ZM4429.99,1162.46c7.65-.04,18.42.93,21.72-7.81-8.22-6.62-17.91-.36-21.72,7.81Z"/>
    <path class="cls-18" d="M4497.58,1069.54c-.86-2.98-1.05-2.85-2.86-4.9-1.56-1.77.56-1.5,1.03-1.13,1.89,1.49,2.45,3.77,3.92,4.85,2.25,1.65,6.91,2.41,8.77,3.59.75.48,4.8,4.35,5.16,5.11,1.81,3.83,2.19,23.97-4.53,22.7-1.37-3.64-7.94-8.68-8.82-11.77-1.4-4.95-.64-11.39-2.67-18.45ZM4510.84,1096.09c2.7-11.2,3.25-18.3-8.42-22.93.23,8.33.02,18.43,8.42,22.93Z"/>
    <path class="cls-26" d="M4455.34,1157.65c1.73,0,5.17,1.19,8.45,1.21l-5.15,4.41c-3.4,1.53-8.18,2.32-12.69,3.69-2.95.9-7.82,3.49-9.92,3.96-.3.07-1.18.05-1.21,0-.23-.43.19-1.69-.01-2.41-1.77-.36-1.31,2.25-2.95,3.67-1.45,1.25-3.63,2.11-5.49,3.57-1.94,1.51-3.37,2.85-4.83,4.83.74-3.32.62-7.38,1.21-9.66.05-.21,1.48-.94,2.41-3.62,6.11-1.85,14.85-1.11,20.59-2.95,3.86-1.24,5.78-6.72,9.59-6.71Z"/>
    <path class="cls-18" d="M4475.86,1156.44c-6.44-.02-14.61-.81-19.29-5.43,5.12-3.82,10.66-14,17.4-13.93,1.43.01,11.07,2.13,11.39,2.62,2.88,4.47-2.15,9.25-4.67,11.91.39-.4,3.1-9.44,2.42-10.86-7.01-2.06-17.67,2.47-20.51,9.07-1.01,2.34,5.19,2.93,6.65,3,1.87.1,10.74-.49,11.44-1.21-.91.97-1.54,2.55-2.41,3.62-1.29.08-2.28,1.21-2.41,1.21Z"/>
    <path class="cls-27" d="M4513.28,1110.58c-.45-4.73.09-9.72,4.8-12.07-.58,3.75-1.42,9.85-4.8,12.07Z"/>
    <path class="cls-18" d="M4518.1,1112.99c2,3.62-1.18,9.73,0,14.48-1.59.54-2.22-1.16-2.41-1.2-.09-4.62.89-8.94,2.41-13.28Z"/>
    <path class="cls-27" d="M4519.29,1097.29c-2.37-.37-.47-9.12,1.21-9.64l-1.21,9.64Z"/>
    <path class="cls-26" d="M4478.27,1155.24c.58-.04,2.52,1.34,3.62,1.21-1.44.76-.25,1.95-4.83,2.41l-1.21-2.41c.13,0,1.12-1.13,2.41-1.21Z"/>
    <path class="cls-26" d="M4477.06,1075.58c-.57-.08-1.08-.63-1.21-1.21.32-.17.91.17,1.21,0v1.21Z"/>
    <path class="cls-18" d="M4401.03,1053.85l1.21,2.4c-1.74.2-3.21-.92-4.83-1.2-10.33-1.76-8.01,1.57-15.69,7.24v-1.21c.28-.34.22-1.98,1.17-3,7.62-8.11,8.25-5.35,18.14-4.24Z"/>
    <path class="cls-18" d="M4391.37,1039.38c-.35,1.55-6.37,5.66-7.24,4.81-.27-3.63,4.32-4.95,7.24-4.81Z"/>
    <path class="cls-26" d="M4381.71,1061.09v1.21c-.06.39.08.82,0,1.21-6.91-1.39-.21-2.15,0-2.41Z"/>
    <path class="cls-34" d="M4456.54,1063.51c-.62.76-2.41,4-1.9,4.86.94,1.56,10.33,5.14,12.76,6.01-3.48,3.8-9.35,5.09-13.28,8.45-4.42,3.77-6.09,9.33-8.45,12.07-.23.27-4.67,1.94-6.03,3.62h-1.21c4.53-7.23,2-16.23,1.21-24.14.53-.27,1.43-2.95,3.62-2.41-.34,7.46,6.48,6.15,12.06,6.02-1.58-2.73-7.31-1.39-9.13-4.8-1.67-3.15,2.44-4.99,1.89-8.46,1.39-.69,5.85-.89,7.79-2.38l.66,1.17Z"/>
    <path class="cls-17" d="M4434.82,1106.96c-3.03,3.99-6.95,7.99-9.66,12.07-.8,1.21-1.65,2.39-2.41,3.62-.63.46-2.03.74-2.41,1.21l-3.62-1.21c.47-.88,4.8-12.57,4.83-13.28,5.96,2.71,7.8-2.4,13.28-2.41Z"/>
    <path class="cls-18" d="M4436.03,1105.75c4.67,5.62-8.08,9.23-10.86,13.28,2.71-4.08,6.63-8.08,9.66-12.07.33-.43.87-.76,1.21-1.21Z"/>
    <path class="cls-18" d="M4393.78,1143.17l8.45-7.24c-1.1,3.91-2.62,8.03-7.89,8.32-.74.04-.5-1.09-.56-1.08Z"/>
    <path class="cls-18" d="M4454.13,1085.23c-5.25,2.46-4.64,8.56-6.05,13.27l-2.4-3.61c2.36-2.74,4.03-8.29,8.45-12.07.12.76-.18,1.76,0,2.41Z"/>
    <path class="cls-18" d="M4422.75,1122.65c-2.46,3.98-3.11,8.99-6.64,12.06-1.88-.91.3-2.67.61-3.61.61-1.84,2.45-5.85,3.62-7.24.39-.46,1.79-.74,2.41-1.21Z"/>
    <path class="cls-18" d="M4439.65,1074.37c.8,7.91,3.32,16.91-1.21,24.14-3.48-.32-13.07,8.21-15.12,4.86-3.41-5.55,2.84-18.41,6.67-22.97,3.32-3.95,6.17-4.27,9.66-6.03ZM4425.17,1100.92c11.59-4.3,13.6-9.65,12.05-21.72-7.54,4.94-11.34,12.89-12.05,21.72Z"/>
    <path class="cls-18" d="M4422.75,1170.93c-.58,2.28-.47,6.34-1.21,9.66-1.31,5.9-3.58,9.1-8.45,13.28-2.64,2.27-3.66,3.38-7.24,3.62-5.78-16.25-1.48-27.04,16.9-26.55ZM4417.92,1174.55c-10.65,1.08-15.71,8.65-9.05,18.07,5.74-5.29,10.69-9.3,9.05-18.07Z"/>
    <path class="cls-14" d="M4413.1,1207.13c-3.23-1.74-2.26-2.27-2.43-2.39-3-2.04-3.63,6.03-3.6,8.42-3.67.94-1.76-2.28-2.61-3.4-.53-.7-1.97-.04-2.22-.22-.13-4.01.18-8.07,0-12.07,1.2-.05,2.42.08,3.62,0,3.58-.25,4.6-1.35,7.24-3.62v13.28Z"/>
    <path class="cls-27" d="M4402.23,1196.27c.04.4-.02.81,0,1.21.18,4-.13,8.06,0,12.07-3.4-2.44-2.87-6.71-2.41-10.86.21-1.9-.11-2.84,2.41-2.41Z"/>
    <path class="cls-18" d="M4376.89,1070.75c1.27-.1,6.21-.87,6.03,1.19-2.83,1.97-10.11-.68-9.66,3.63l.02-3.61c.59,0,2.26-1.1,3.62-1.21Z"/>
    <path class="cls-18" d="M4448.1,1064.72c.55,3.46-3.57,5.31-1.89,8.46,1.81,3.41,7.55,2.08,9.13,4.8-5.58.13-12.4,1.44-12.06-6.02.14-3.02,2.13-5.91,4.83-7.24Z"/>
    <path class="cls-27" d="M4434.82,1170.93c-.82,3.45-4.21,5.86-7.71,5.98l-.73-1.15c1.86-1.45,4.05-2.31,5.49-3.57,1.64-1.42,1.18-4.03,2.95-3.67.2.72-.22,1.99.01,2.41Z"/>
    <path class="cls-27" d="M4341.89,1141.96c3.42-.49,3.42,1.69,0,1.21v-1.21Z"/>
    <path class="cls-20" d="M4409.48,1209.55c6.65.81,9.98,7.58,11.47,13.24-7.7-1.4-12.31-4.74-11.47-13.24Z"/>
    <path class="cls-20" d="M4343.08,1070.75c1.13,8.6,3.53,17.06-3.1,24.04-7.06,7.44-9.11-9.33-7.5-14.75.61-2.07,9.92-10.14,10.6-9.3Z"/>
    <path class="cls-20" d="M4378.09,1050.24c-.61,3.74-2.35,11.08-6.08,12.71-2.58,1.13-12.92-1.99-16.84-.66,1.88-12.15,12.65-13.11,22.92-12.06Z"/>
    <path class="cls-20" d="M4356.37,1127.46c-10.74.4-17.85-2.28-15.68-14.47,8.11,2.57,13.3,6.03,15.68,14.47Z"/>
    <path class="cls-20" d="M4380.19,1128.89c3.77-.56,8.83,3.74,11.16,6.44-2.7,2.08-8.24,7.78-11.45,7.77-1.8,0-11.93-5.77-11.46-7.75.21-.9,10.36-6.24,11.75-6.45Z"/>
    <path class="cls-20" d="M4508.44,1113c1.43,11.91-4.37,19-15.68,21.71.82-9.88,6.06-18.18,15.68-21.71Z"/>
    <path class="cls-20" d="M4460.22,1068.27c-1.71-2.48,7.8-11.83,10.26-12.07,3.11-.3,9.98,7.42,9.97,9.13-.01,1.58-6.6,6.44-8.9,6.59-1.54.1-11-3.16-11.34-3.65Z"/>
    <path class="cls-20" d="M4429.99,1162.46c3.81-8.18,13.49-14.44,21.72-7.81-3.3,8.75-14.07,7.77-21.72,7.81Z"/>
    <path class="cls-20" d="M4510.84,1096.09c-8.4-4.5-8.19-14.6-8.42-22.93,11.68,4.63,11.12,11.73,8.42,22.93Z"/>
    <path class="cls-20" d="M4480.68,1151.61c-.7.72-9.57,1.31-11.44,1.21-1.46-.08-7.66-.66-6.65-3,2.84-6.6,13.5-11.13,20.51-9.07.69,1.42-2.03,10.46-2.42,10.86Z"/>
    <path class="cls-20" d="M4417.92,1108.17c-3.31,10.42-6.57,18.75-19.3,18.09,1.32-9.95,8.79-18.47,19.3-18.09Z"/>
    <path class="cls-20" d="M4425.17,1100.92c.71-8.82,4.51-16.77,12.05-21.72,1.55,12.06-.46,17.42-12.05,21.72Z"/>
    <path class="cls-20" d="M4417.92,1174.55c1.65,8.77-3.3,12.78-9.05,18.07-6.67-9.43-1.6-16.99,9.05-18.07Z"/>
    <path class="cls-32" d="M4417.45,998.33c2.22-.35,6.51,0,6.51,0,3.89,33-3.8,38.02-5.44,43.44"/>
  </g>
  <g id="Cuello">
    <path class="cls-31" d="M4414.3,786.08c44.69-26.58,85.9-47.01,96.94-55.25-4.91-.22-31.19-6.74-37.71-11.14-22.22-16.87-25.42-69.68-16.57-98.34l-99.96,48.19-4.47,43.59c-.84,8.17-5.35,15.52-12.27,19.96l-11.91,7.65"/>
    <path class="cls-30" d="M4527.14,747.26c-6.83.95-108.29,63.24-111.95,87.91-25.44-36.92-68.35-60.69-104.83-85.19l18-9.23c92.19,50.57,109.15,21.59,182.88-9.92,12.53,10.97,15.9,16.43,15.9,16.43Z"/>
    <path class="cls-37" d="M4454.68,630.64c-2.23,18.18-2.14,51.2,4.45,67.33,14.3,31.88,26.8,23.64,52.12,32.85-26.1,14.83-45.63,21.78-75.75,33.84-.03-13.85,13.98-16.18,3.35-58.14-3.62-14.27-31.02-49.97-31.02-49.97,0,0,26.99-12.97,46.85-25.91Z"/>
  </g>
  <g id="Cara">
    <path class="cls-31" d="M4591.37,320.43s20.07-22.78-11.16-81.21c-31.57-59.1-142.98-50.77-158.85-49.98-108.16,3.29-302.28,25.45-273.09,128.53,9.83,32.07,28.11,155.43,34.78,198.12,19.7,73.18,70.68,138.27,149.56,158.18,71.18-9.5,145.14-63.01,186.75-94.79,44.65-34.65,62.35-93.17,53.27-147.73,10.79-.67,24.66-2.21,28.95-13.99,1.67-6.91,16.7-51.73,16.45-58.02,7.45-29.32-8.83-41.4-26.65-39.11ZM4339.35,415.1c1.83-6.66,6.33-12.16,10.58-17.37,1.79-2.17,2.17-2.71,4.29-4.75.33-.33.71-.62,1.04-.96,1.17-1.04,1.71-1.71,3.17-2.79,1.71-1.29,3.37-2.62,5.25-3.71,3.33-1.96,4.91-2.25,8.2-3.54,5.21-2.04,5.5-2.25,11.2-3.37,1.08-.21,3.04-1.17,4.12-1.75l4.96.29,13.99.79c1.33,1,3.33,1.75,4.87,2.29,1.29.46,2.42.62,3.91,1.25,1,.37,1.96.71,2.96,1.17,1.92.87,2.29,1.25,3.87,2.21,1.29.83,2.54,1.04,3.87,2.25.92.83,1.17.87,1.87,2.08,5.62,1.12,18.95,17.24,17.74,22.07-.92,3.62-12.24,11.91-15.83,14.12-1.92,1.17-2.96,1.17-4.12,1.75-.92.46-1.37,1.04-3.08,1.83-.71.29-1.37.58-2.08.87-.67.29-1.29.58-2.04.87-1.92.75-3.21,1.12-5.12,1.71-5.29,1.71-7.62,2.42-13.2,3.25-.33.04-1.08.75-2.04.87-6.83.87-13.54.42-19.99-.17-1.67-.13-3.42-.04-5-.29-2.46-.37-3.79-.83-5.96-1.33-1.71-.42-2.67-.87-3.91-1.21-.87-.25-2.21.08-3-.21-1.58-.5-2.75-1.75-3.87-2.21-6.37-2.71-19.16-7.16-16.66-16.03ZM4261.01,446.67c-.37.29-.71.62-1.08.92-.75.58-1.33,1.37-2.08,1.87-1.96,1.33-3.37,1.75-5.16,2.71-1.04.58-1.79,1.25-3.12,1.83-.71.33-1.33.58-2.04.87-4.5,1.83-6.41,2.42-11.2,3.37-2.29.46-4.54,1.33-7.12,1.58-6.04.58-10.37-.04-15.95-.92-.67-.12-1.37,0-2-.12-1.92-.42-2.54-.79-3.96-1.21-1.5-.46-2.21-.58-3.91-1.25-2.08-.79-3-1.29-4.87-2.29-6.08-3.17-9.83-5.5-14.41-10.83l.25-4c2.83-6.5,5.08-11.58,9.04-17.49,1.5-2.29,2.46-3.71,4.33-5.75,1.62-1.87,2.67-2.37,4.21-3.79,1.17-1.04,1.71-1.71,3.17-2.79,1.58-1.17,2.12-1.21,3.12-1.83,5.37-3.42,4.91-3.54,11.33-5.37,5-1.42,7.5-2.37,13.12-2.21.67,0,1.33.04,2,.08,2.67.25,3.37.96,4.96,1.29,2.12.46,2.75.54,4.91,1.29,1.21.42,1.83.71,2.96,1.17,2.21.96,2.5.87,4.87,2.29,2.08,1.29,2.46,2.12,3.79,3.21,1.92,1.54,1.75,2,1.87,2.12.71.62,1.5.79,2.87,2.17,1.79,1.75,3.91,2.62,5.75,4.87,1.58,1.96,7.25,11.41,7.25,13.49-.04,4.5-9.41,11.87-12.87,14.7Z"/>
    <g id="Sonrisa">
      <path class="cls-21" d="M4285.78,582.37c83.87-26.39,111.01-69.33,134.52-74.9,14.77-6.27,70.85-17.84,86.48-.09,3.97,4.51,19.18,28.43-24.33,62.57-31.15,30.08-172.44,58.62-196.67,12.41Z"/>
      <path class="cls-29" d="M4288.77,583.66s32.1-11.16,54.66-22.76c-14.63,13.19-42.33,39.28-54.66,22.76Z"/>
      <path class="cls-29" d="M4490.73,526.96c4.79-7.67,3.28-17.33-.83-25.42,16.57.64,33.97,17.02,17.51,37.27,5.38-6.62-6.82-13.18-16.69-11.85Z"/>
      <path class="cls-3" d="M4285.78,582.37c75.54-19.81,81.44-50.21,134.19-76.57,40.21-19.14,146.01-11.74,62.48,64.16-31.22,30.11-172.43,58.6-196.67,12.41Z"/>
      <path d="M4352.64,579.47c38.76-6.92,76.91-18.95,111.26-38.43,0,0,.24.26.24.26l14.34,15.56-.64.22,2.17-24.15v-.12s.11-.05.11-.05c2.88-1.45,5.74-2.98,8.53-4.62,2.68-1.71,5.77-3.18,7.69-5.79-1.86,2.66-4.93,4.2-7.58,5.97-2.76,1.7-5.58,3.29-8.45,4.81l.11-.17-1.84,24.18-.06.84-.58-.62-14.45-15.46.55.08c-8.55,4.89-17.37,9.33-26.39,13.29-27.07,11.86-55.81,19.71-85,24.18h0Z"/>
    </g>
    <path d="M4319.66,524.68c-8.95-4.17-12.06.03-18.23,5.82-2.6,2.39-5.43,4.56-8.48,6.37-3.06,1.78-6.29,3.53-9.87,3.86-13.93,1.23-29.36-7.52-33.95-21.01-4.34-12.34,3.4-32.42,17.32-34.68,10.83-1.91,20.68,4.48,31.13,5.68,3.85.44,6.79-1.63,7.65-5.42,0,0,.1.02.1.02-1.79,9.05-12.09,5.32-18.14,3.58-9.53-2.94-21.6-6.19-29.57,1.75-7.06,7.37-10.88,18.86-7.72,28.82,4.4,13.21,19.53,21.85,33.13,20.74,3.53-.31,6.68-1.99,9.71-3.71,3.04-1.77,5.87-3.88,8.48-6.23,2.31-2.08,5.39-5.33,8.23-6.65,3.21-1.53,7.44-.57,10.22,1.07h0Z"/>
  </g>
  <g id="Cabello">
    <path class="cls-33" d="M4626.74,303.8c-35.23,15.84-82.96,22.64-118.66,5.07l15.49,42.66c-15.75-29.51-47.6-53.98-75.21-71.82,12.91,38.58,20.58,73.07,64.81,86-61.09,9.36-92.39-28.25-116.62-73.19-4.36-6.67-8.39-18.02-12.91-24.37,0,0-13.49-14.18-13.49-14.18,3.36,30.11,20.78,66.14,39.68,89.54-58.13-19.06-118.68-48.84-141.56-134.24-37.72,29.54-88.1,80.46-87.09,138.6-11.43-13.84-19.31-22.64-25.83-44.68-3.86-13.67-3.53-21.4-5.64-18.29-17.93,23.16-26.55,57.29-18.98,86.18-77.73-144.2-51.23-202.16,48.1-229.98-10.01-16.27-14.6-28.21-14.6-47.58,34.15,29.59,85.2-43.36,118.32-6.41,24.46-30.42,44.61-29.68,47.2-31.7,13.46-10.5,29.23-13.64,56.2-52.39,1.68,16.34.11,43.48-3.51,59.49,49.73-15.21,111.1-14.44,159.45,4.45-12.54,7.65-46.05,12.03-41.39,23.17,6.24,11.46,37.01,14.61,50.45,18.28,2.89.66,24.85,11.72,27.26,13.44l25.65,24.05,29.47,19.05c-13.48.27-36.21-4.81-48.96-9.19,13.48,11.79,36.28,34.59,52.97,41.32-7.77,3.03-18.76,1.04-26.48-1.27,13.45,8.86,24.53,30.67,28.21,46.05,10.32,15.89,23.53,35.95,40.09,47.12-22.76-3.32-51.51-22.8-69.3-36.52,10.98,22.1,27.97,46.38,54.01,62.07-9.66-1.48-28.25-6.72-37.15-10.71Z"/>
    <g id="Detalles">
      <path class="cls-38" d="M4292.29,187.05s-107.88,75.55-113.84,155.92c-15.12-72.38,48.05-136.6,113.84-155.92Z"/>
      <path class="cls-38" d="M4316.21,134.25c25.06,29.5,63.37,62.41,127.54,69.5-56.94-2.44-86.02,1.81-127.54-69.5Z"/>
      <path class="cls-38" d="M4423,87.47s8.26,9.52,63.14,45.44c18.87,12.35,60.88,10.35,75.3,8.53-56.93,22.98-111.02-12.65-138.44-53.97Z"/>
      <path class="cls-38" d="M4349.27,117.59c11.94-5.7,39.99-83.88,23.98-97.24q9.4-12.7,9.4-12.7s12.7,71.53-33.38,109.95Z"/>
      <path class="cls-38" d="M4091.79,215.68c18.41-32.33,39.09-57.17,99.4-62.58-5.1-2.88-9.66-6.76-12.74-11.78,0,0-73.38,10.89-86.66,74.37Z"/>
      <path class="cls-38" d="M4406.05,341.41c-29.81-25.39-45.85-64.49-37.17-103.31-.45,37.84,13.7,73.93,37.17,103.31Z"/>
      <path class="cls-38" d="M4506.23,365.28c-46.18-5.36-74.15-52.01-66.03-111.06,5.4,23.9,21.36,66.97,34.57,90.94,0,0,31.46,20.12,31.46,20.12Z"/>
      <path class="cls-38" d="M4128.05,366.06c-15.8-26.54-6.35-69.23,20.42-79.65-31.12,41.5-20.42,79.65-20.42,79.65Z"/>
      <path class="cls-38" d="M4165.57,97.68c2.85,20.52,31.52,21.14,44.71,10.01,21.09-14.34,46.66-19.51,71.75-21.05-39.3-35.02-81.29,35.87-116.46,11.04Z"/>
      <path class="cls-38" d="M4413.52,56.32c41.59-8.22,82.27-1.65,121.82,11.71-14.71,7.86-62.26-5.85-82.57-9.5,0,0-39.25-2.21-39.25-2.21Z"/>
      <path class="cls-38" d="M4517.27,173.96s49.36-1,69.95,75.97c-28.87-56.36-24.77-50.2-69.95-75.97Z"/>
      <path class="cls-38" d="M4580.19,154.38s44,43.2,54.21,41.93c-20.54-5.03-48.39-19-54.21-41.93Z"/>
      <path class="cls-38" d="M4576,123s45.35,39.24,54.21,41.93c-18.75-2.54-51.04-25.43-54.21-41.93Z"/>
      <path class="cls-38" d="M4503.23,313.1c2.77,8.38,7.13,16.14,12.87,22.85,0,0-14.64-47.49-19.95-52.44.82,9.12,4.15,20.73,7.08,29.6Z"/>
      <path class="cls-38" d="M4617.34,203.08c14.57,15.36,28.54,70.72,56.89,84-33.29-16.06-52.57-42.74-56.89-84Z"/>
      <path class="cls-38" d="M4600.9,228.76c-1.44,40.45,22.9,59.28,52.08,81.58-24.73-25.94-41.5-46.41-52.08-81.58Z"/>
    </g>
    <g id="Contorno">
      <path d="M4168.88,203.75c-25.2,40.41-25.18,88.12.29,128.38,3.44,5.45,7.21,10.75,11.52,15.51l-.55.28c-1.28-14.15,2.48-28.27,7.48-41.39,16-39.77,46.85-71.49,79.63-98.16,6.97,34.2,26.31,65.12,52.64,87.83,19.53,17.01,42.29,30.15,66.32,39.7,8.03,3.16,16.21,6,24.56,8.12l-.26.49c-10.53-10.93-18.68-23.97-25.22-37.61-10.84-22.81-16.26-48.05-16.52-73.26.45,30.23,8.49,60.41,24.07,86.38,5.37,8.89,11.44,17.49,18.82,24.82-8.76-2.15-17.28-5.07-25.66-8.34-56.15-21.6-107.11-66.18-119.54-127.11,0,0,.8.28.8.28-10.95,8.83-21.49,18.18-31.38,28.18-24.27,24.95-46.24,54.48-53.62,89.11-1.41,7.17-2.31,14.63-1.35,21.9-4.64-5.04-8.63-10.61-12.25-16.39-25.53-40.49-25.31-88.28.22-128.71h0Z"/>
      <path d="M4178.45,141.32c-44.32,9.22-82.2,32.66-89.13,80.59-7.15,52.7,18.9,112.06,45.52,156.55-27.19-43.87-53.79-104.19-46.43-156.69,7.21-48.13,45.25-71.88,90.03-80.45h0Z"/>
      <path d="M4436.52,245.9c2.67,5.63,4.71,11.53,6.64,17.44,5.71,17.75,10.5,35.88,17.93,53.01,9.46,22.51,25.63,45.16,51.43,48.91,0,0,2.78.45,2.78.45l-2.78.44c-35.08,6.33-65.08-3.36-88.05-30.99-15.97-18.76-26.37-41.22-39.26-62-4.35-6.88-9.14-13.57-15.07-19.19,6,5.56,10.87,12.2,15.3,19.04,25.88,41.83,45.78,91.48,102.64,93.95,8.12.28,16.24-.44,24.28-1.7v.9c-12.44-1.95-23.88-8.55-32.34-17.8-16.94-18.69-24.54-43.44-31.74-67.06-3.61-11.9-6.65-24.04-11.78-35.4h0Z"/>
      <path d="M4494.16,279.72c12.5,23.18,23.25,47.57,29.17,73.32-6.11-12.68-15.21-23.66-25.17-33.52-9.07-8.98-18.85-17.22-28.98-24.97-6.77-5.16-13.67-10.17-20.8-14.83,7.23,4.51,14.27,9.33,21.12,14.4,20.02,15.22,40.8,32.53,52.86,54.99,0,0-.88.32-.88.32-1.46-6.07-3.19-12.07-5.17-18-6.05-17.76-13.58-35.01-22.14-51.71h0Z"/>
      <path d="M4508.08,308.88c27.39,13.62,60.2,12.81,89.21,5.05,9.81-2.62,19.39-6.08,28.73-10.13-4.61,2.17-9.27,4.22-14.02,6.05-32.51,12.45-72.42,16.11-103.92-.98h0Z"/>
      <path d="M4542.01,257.62c22.2,1.47,41.08,19.67,59.28,31.06,14.06,9.34,29.17,17.28,45.47,21.83,5.42,1.49,10.92,2.66,16.47,3.54l-.29.89c-25.25-14.96-43.93-39.61-55.18-66.42-3.69-9.02-6.6-18.34-8.75-27.83,2.84,11.82,6.95,23.33,12.15,34.3,11.99,24.59,30.3,47.21,54.59,60.4-23.48-2.86-45.45-12.92-64.85-26.14-17.8-11.27-37.39-30.02-58.9-31.63h0Z"/>
      <path d="M4599.91,190.35c39.36,13.3,33.73,72.88,80.49,99.27-25.02-1.92-52.12-21.4-70.79-37.39,10.08,8.47,20.88,16.09,32.25,22.72,11.32,6.43,23.54,12.23,36.62,13.57,0,0-.27.85-.27.85-9.28-5.57-17.4-13.03-23.81-21.74-6.45-8.7-11.37-18.37-15.93-28.1-8.91-18.78-17.17-41.77-38.57-49.16h0Z"/>
      <path d="M4498.78,84.94c-.63,2.1.15,4.37,1.38,6.09,4.7,6.06,12.63,8.27,19.68,10.38,0,0,3.16.73,3.16.73,6.22,1.5,12.92,2.36,19.14,3.18,9.3.41,17.6,5.28,25.2,10.21,15.18,10.2,28.52,22.78,42.69,34.26,7.06,5.56,14.24,11.54,22.72,14.7,0,0,2.43.86,2.43.86l-2.56.08c-16.36.49-32.49-3.4-47.88-8.61,0,0,.38-.62.38-.62,11.84,11.5,24.01,22.79,37.29,32.62,4.46,3.12,9.01,6.46,14.26,8.07,0,0,.52.15.52.15l-.49.2c-8.12,3.09-17.21,1.63-25.14-1.35-1.13-.46-2.25-.95-3.37-1.43,6.67,2.94,13.99,4.77,21.31,4.09,2.41-.24,4.84-.7,7.04-1.65l.04.35c-2.7-.73-5.18-2.04-7.56-3.43-16.8-10.64-31.24-24.57-45.59-38.23,8.2,2.78,16.54,5.2,25.03,6.82,7.95,1.52,16.05,2.34,24.14,2.05l-.13.94c-4.4-1.53-8.36-3.95-12.11-6.57-22.3-15.7-40.55-37.26-65.19-49.51-4.12-1.87-8.51-3.29-13.02-3.45-4.3-.61-8.62-1.09-12.87-1.96-2.85-.46-6.7-1.46-9.51-2.14-7.06-2.21-15-4.54-19.65-10.69-1.22-1.75-1.97-4.04-1.31-6.14h0Z"/>
      <path d="M4381.71,62.5c25.86-8.45,53.23-12.44,80.44-11.01,27.66,1.29,54.82,7.54,81.21,15.67-.59.18-7.8,2.75-8.6,3.02-7.17,2.61-14.95,5.61-21.89,8.66-9.55,4.22-19.15,8.63-27.7,14.68,12.79-9.17,27.47-15.35,41.99-21.24,3.64-1.42,11.05-4.18,14.74-5.48,0,0,.01.79.01.79-13-3.91-26.15-7.36-39.46-9.99-39.89-8.36-81.73-7.35-120.72,4.91h0Z"/>
      <path d="M4381.71,62.5c-.09,0,0-.08.04-.1l.14-.07.3-.12c2.99-.98,6.22-1.76,9.26-2.51,9.96-2.41,20.03-4.3,30.16-5.86,20.22-2.89,40.96-5.02,61.3-1.9,5.91.99,11.83,2.54,17.13,5.39,0,0,2.33,1.02,2.33,1.02,6.23,2.7,12.76,4.78,19.4,6.25,6.64,1.49,13.42,2.49,20.25,2.59-6.83.07-13.65-.77-20.35-2.11-6.71-1.38-13.28-3.38-19.6-6.02,0,0-2.38-1-2.38-1-5.28-2.75-11.07-4.27-16.92-5.22-20.25-2.97-40.86-.92-61.04,1.76-10.13,1.42-20.21,3.21-30.21,5.34-3.06.67-6.31,1.38-9.31,2.29,0,0-.3.11-.3.11l-.15.07s-.13.08-.04.09h0Z"/>
      <path d="M4282.31,86.82c-20.76-22.8-51.51-2.56-73.86,7.08-11.93,5.05-26.34,11.68-38.94,5.06-2.41-1.32-4.55-3.1-6.36-5.13l.83-.31c.06,3.89.47,7.81,1.05,11.68,2.92,19.87,12.3,41.39,31.93,49.52,6.33,2.76,13.23,3.81,20.1,3.96-7.86-.02-15.85-1.3-22.94-4.83-22.02-10.84-30.17-37.35-31.08-60.32,0,0-.03-1.28-.03-1.28,3.59,4.42,8.72,7.63,14.42,8.27,31.19,3.55,75.86-45.94,104.89-13.68h0Z"/>
      <path d="M4275.95,96.64c25.36-47.71,78.58-35.42,109.41-96.64,3.96,37.37-.31,85.56-29.49,112.42-4.24,3.74-8.92,6.95-13.88,9.65,4.92-2.77,9.54-6.04,13.72-9.83,28.48-27.2,32.59-73.35,28.86-110.59,0,0,.91.16.91.16-8.45,16.51-21.09,30.8-36.68,40.88-26,17.06-57.4,24.17-72.86,53.94h0Z"/>
      <path d="M4275.95,177.09c25.02,18.45,52.81,35.2,84.09,39.52,31.25,4.36,62.48-3.6,92.19-12.74,0,0,.07.92.07.92-12.97-2.02-25.9-4.4-38.62-7.69-39.92-9.63-71.85-30.93-97.48-62.83,37.87,45.69,78.88,61.43,136.23,69.59,0,0,2.01.3,2.01.3l-1.94.61c-71.68,23.19-116.17,19.03-176.57-27.67h0Z"/>
      <path d="M4419.69,84.94c26.55,19.77,51.44,44.65,84.31,53.22,19.45,5.18,39.9,4.73,59.84,3.3,0,0,.7-.05.7-.05-.49,1.51-1.39,2.84-2.32,4.06-8.66,10.24-24.78,15.98-37.41,19.59-11.25,3.26-23.8,5.39-35.41,7.08,0,0-.15-.81-.15-.81,11.71-2.15,23.82-1.31,35.25,1.85,17.23,4.72,32.2,15.93,42.61,30.33,10.39,14.4,16.82,31.35,20.85,48.54-3.52-14.29-8.63-28.34-16.37-40.89-13.91-23.42-37.17-38.86-64.64-40.12-5.85-.27-11.79-.04-17.51,1.1l-.15-.81c3.67-.63,11.74-1.74,15.23-2.52,15.03-2.87,30.3-6.78,43.92-13.89,4.45-2.47,8.83-5.24,12.24-9.05,1.04-1.15,2.2-2.67,2.77-4.09,0,0,.46.57.46.57-18.37,1.33-37.08,1.54-55.2-2.26-8.15-1.9-16.24-4.64-23.8-8.2-2.58-1.28-5.26-2.76-7.82-4.08-20.66-12.09-38.58-28.22-57.4-42.87h0Z"/>
      <path d="M4587.97,252.05c-16.62-26.11-41.17-43.86-73.27-37.26-9.58,1.98-18.86,5.67-27.13,10.93,16.16-11.07,37.17-16.43,56.38-11.11,19.38,5.2,34.06,20.65,44.02,37.44h0Z"/>
      <path d="M4141.66,387.59c-6.59-6.36-10.66-14.97-12.92-23.77-4.45-17.92-.53-36.8,6.61-53.48,3.63-8.37,8.09-16.35,13.11-23.94-3.39,5.71-6.85,12.04-9.66,18.01-8.5,18.31-13.96,39.16-9.32,59.23,2.07,8.77,5.94,17.33,12.17,23.94h0Z"/>
    </g>
  </g>
  <g id="Mecho">
    <path class="cls-33" d="M4546.13,309.23l46.28-10.22c14.33,25.74,47.02,74.03,85.46,84.91-15.08,3.08-42.53,3.99-57.81,2.17,14.8,18.32,5.8,42.18,6.86,67.24-.63,22.4,4.22,53.6,11.46,74.8-12.92-9.2-25.48-24.11-33.29-37.87-4.12,20.86-14.36,43.67-24.72,62.11-6.63-79.41-14.6-157.89-77.33-178.73-18.73-16.71-76.13-81.99-83.36-106.03l126.44,41.63Z"/>
    <path class="cls-38" d="M4582.43,545.84l-1.17-14.39,23.72-42.06s-4.97,33.69-22.54,56.45Z"/>
    <path class="cls-38" d="M4626.8,416.46c-9.95,34.66-13.97,75,7.61,106.56-8.92-23.78-7.84-81.17-7.61-106.56Z"/>
    <path class="cls-38" d="M4620.91,343.63l-.06,11.16s22.37,39.94,58.32,28.68c-29.16-5.25-44.71-26.84-58.27-39.83Z"/>
    <path d="M4601.6,313.11c19.37,28.57,41.13,60.68,76.28,70.19,0,0,2.04.55,2.04.55l-2.07.42c-32.24,5.98-79.05,7.62-102.02-19.9,18.33,21.02,48.87,23.49,75.03,22.31,8.99-.52,17.97-1.59,26.77-3.38l-.02.96c-8.61-2.33-16.78-6.18-24.19-11.11-22.34-14.95-37.43-37.88-51.83-60.04h0Z"/>
    <path d="M4615.34,385.18c17.02,6.58,13.38,35.88,13.17,50.77-.82,18.46-1.88,37.06.41,55.44,1.58,12.63,4.7,25.15,10.31,36.6-14.4-6.8-25.11-20.29-32.57-34.01-1.63-3.03-3.7-7.35-4.94-10.5-.66-1.57-1.63-3.78-2.11-5.4-.33-.97-2.05-5.99-2.33-6.86-.26-.93-.86-3.26-1.12-4.2,0,0-1.49-5.6-1.49-5.6l-2.25-11.37,2.43,11.32c.74,2.61,2.04,7.19,2.76,9.74,1.36,3.68,2.95,8.63,4.6,12.16,7.17,16.94,19.52,34.82,36.23,43.33,0,0-.59.62-.59.62-10.8-22.58-11.88-48.21-10.97-72.79.41-12.36,1.52-24.68,1.49-37.02-.22-11.56-.69-27.01-13.03-32.23h0Z"/>
    <path d="M4496.76,373.5c8.88.2,17.35,3.92,24.72,8.69,22.3,15.07,34.53,40.66,42.82,65.49,10.82,33.75,14.85,69.26,16.38,104.53l-.76-.23c8.66-12.67,14.64-27.1,19.45-41.63,2.14-6.55,4.04-13.53,5.61-20.23-.62,2.73-1.18,5.48-1.84,8.2-1.32,5.26-2.86,11.05-4.62,16.17-4.5,13.28-10.06,26.3-17.92,37.99,0,0-.71,1.02-.71,1.02l-.06-1.26c-2.91-50.41-8.9-109.78-39.59-151.52-10.56-13.65-25.56-26.23-43.48-27.23h0Z"/>
  </g>
  <g id="ManoD">
    <path class="cls-35" d="M4070.24,243.94s47.48-2.12,27.47,29.49l-9.9,19.46c-10.55,24.84-21.03,39.87-27.16,38.43-23.29-5.47-11.95-29.5-7.41-40.53,4.21-10.23,6.85-22.26,8.71-25.1"/>
    <path class="cls-35" d="M4102.76,261.25l12.78,2.43c6.3,1.2,11.45,6.3,11.88,12.7.18,2.68-.38,5.44-1.76,7.97l-25.92,49.51c-1.57,3-3.55,5.73-5.87,8.13-5.89,6.1-16.01,4.86-20.17-2.53-2.49-4.42-4.56-9.43-4.27-13.53h0"/>
    <path class="cls-35" d="M4126.77,280.68l17.29,6.34c6.73,3.26,7,8.19,5.37,13.35-4.4,13.97-16.9,38.71-27.77,54.01-5.15,7.25-16.43,6.43-20.17-1.64-2.47-5.33-3.76-11.03-2.27-15.5l1.3-3.89"/>
    <path class="cls-35" d="M4181.57,381.14c8.9.12,9.56-20.05-14.85-31.93-15.3-7.45-27.06-11.46-36.4-5.05-1.17.8-34.76-37.91-66.45-61.53l6.33-32.92c1.2-6.81-3.11-15.27-10.08-17.27l-7.09-1.88c-6.77-2.83-14.28.4-17.81,6.89l-26.39,37.87c-11.7,21.53-22.84,69.68-18.97,93.88l8.72,34.43-10.94,16.83c-5.69,8.75-2.75,20.49,6.39,25.53l25.15,13.87c10.29,5.68,23.23,1.15,27.73-9.7l8.17-19.66c12.34-3.66,29.23-16.35,39.11-24.41,9.14-7.45,24.54-23.03,35.81-26.51,19.12-5.91,39.84,1.39,51.58,1.55Z"/>
    <path class="cls-37" d="M4064.44,337.21s-17.1,35.3-43.89,39.53c-8.11,1.28-15.82.33-15.82.33h0c24.42,5.67,48.02,14.48,70.13,26.3,3.55,1.9,5.78,3.03,5.78,3.03,0,0-11.46-15.48-14.92-25.06-5.17-14.32-4.39-20.91-2.53-36.02.66-5.34,1.25-8.1,1.25-8.1Z"/>
    <g id="Contorno-2" data-name="Contorno">
      <path class="cls-2" d="M3998.71,409.3l-9.97-39.38c-3.87-24.2,7.27-72.35,18.97-93.88l26.38-37.87c3.53-6.49,11.04-9.73,18.18-7.83l7.09,1.88c7.91,2.1,12.37,10.47,9.71,18.21l-24.93,50.99c-3.14,6.42-11.03,8.88-17.26,5.37l-.48-.27c-1.71-.96-2.4-3.77-3.77-6.91-7.71-17.68,12.61-51.35,12.61-51.35"/>
      <path class="cls-2" d="M4069.75,244.26s47.48-2.12,27.47,29.49l-9.9,19.46c-10.55,24.84-21.03,39.87-27.16,38.43-23.29-5.47-11.95-29.5-7.41-40.53,4.21-10.23,6.85-22.26,8.71-25.1"/>
      <path class="cls-2" d="M4102.42,261.47l12.78,2.43c6.3,1.2,11.45,6.3,11.88,12.7.18,2.68-.38,5.44-1.76,7.97l-25.92,49.51c-1.57,3-3.55,5.73-5.87,8.13-5.89,6.1-16.01,4.86-20.17-2.53-2.49-4.42-4.56-9.43-4.27-13.53h0"/>
      <path class="cls-2" d="M4127.37,282.05l15.81,5.6c2.73.96,5.29,2.49,7.09,4.76,2.6,3.28-14.26,38.63-26.82,58.36-3.73,5.87-20.02,9.25-22.98,2.96-2.54-5.4-3.9-11.2-2.38-15.75l1.3-3.89"/>
      <path class="cls-2" d="M4049.54,432.54l4.41-1.31c12.34-3.66,29.23-16.35,39.11-24.41,9.14-7.45,24.55-23.03,35.81-26.51,19.12-5.91,39.84,1.39,51.58,1.55,8.9.12,9.56-20.05-14.85-31.93-18.22-8.87-31.42-12.87-41.5-.2"/>
    </g>
    <g id="Uas">
      <path class="cls-24" d="M4174.2,371.57c-4.21-2.31-9.53.99-9.06,5.76.04.44.12.77.25.95,1.86,2.56,7.41,3.29,10.52,2.73,2.64-.47,6.38.62,6.81-.41h0c-1.59-3.6-4.3-6.61-7.71-8.57-.4-.23-.69-.39-.81-.46Z"/>
      <path class="cls-24" d="M4101.87,339.81h0c-.2.48-.99,2.33-.36,5.12.41,1.81,1.25,3.36,2.14,4.58,1.86,2.56,4.92,4.2,8.03,3.64,2.64-.47,4.05-2.16,4.48-3.19l.72-1.71c.73-1.75.15-3.77-1.4-4.86l-7.54-5.32c-2.11-1.49-5.06-.64-6.06,1.75Z"/>
      <path class="cls-24" d="M4075.12,328.23h0c-.2.48-.99,2.33-.36,5.12.41,1.81,1.25,3.36,2.14,4.58,1.86,2.56,4.92,4.2,8.03,3.64,2.64-.47,4.05-2.16,4.48-3.19l.72-1.71c.73-1.75.15-3.77-1.4-4.86l-7.54-5.32c-2.11-1.49-5.06-.64-6.06,1.75Z"/>
      <path class="cls-24" d="M4051.12,313.41h0c-.2.48-.99,2.33-.36,5.12.41,1.81,1.25,3.36,2.14,4.58,1.86,2.56,4.92,4.2,8.03,3.64,2.64-.47,5.5-3.06,5.5-3.06,1.49-2.14-.16-5.62-1.71-6.71l-7.54-5.32c-2.11-1.49-5.06-.64-6.06,1.75Z"/>
      <path class="cls-24" d="M4025.47,290.16h0c-.2.48-.91,2.31-.36,5.12,1.68,8.54,8.89,10.21,11.73,8.78,4.57-2.3,6.13-8.65,2.23-10.33l-7.54-5.32c-2.11-1.49-5.06-.64-6.06,1.75Z"/>
    </g>
  </g>
  <g>
    <path class="cls-5" d="M4309.01,324.6c-21.11-49.15-90-47.25-107.87,3.04,26.14,30.14,86.7,25.33,107.87-3.04Z"/>
    <path d="M4218.36,315.14c-1.2,49,69.04,47.58,68.95-.3,1.2-49-69.04-47.58-68.95.3Z"/>
    <path class="cls-28" d="M4258.61,297.45c-4.16,9.59-8.32,19.18-12.48,28.77,3.41-.06,6.83-.12,10.24-.18.13,4.41.26,8.83.39,13.24,1.04-.14,2.08-.27,3.12-.41-.42-13.81-.85-27.62-1.27-41.43Z"/>
    <path class="cls-22" d="M4311.1,324.97c-13.25-35.72-63.11-88.44-99.19-28.45,1.68-1.75,5.08-3.87,7.17-4.56-9.7,7.99-19.33,28.18-20.08,36.34,3.26,3.43,23.36,23.9,55.48,23.5,33.65-.41,53.71-23.4,56.61-26.83Z"/>
  </g>
  <g id="Banda">
    <path id="Banda-2" data-name="Banda" class="cls-9" d="M4157.59,302.64l73.72-5.05c22.76,14.03,49.72-1,103.89-.21,0,0,45.22,3.18,45.22,3.18,93.3,5.12,144.16,27.73,213.95,43.85,16.72,1.68,4.96,47.74,8.28,52.64,0,1.51-3.5,2.54-6.69,1.97l-56.16-11.96c-48.65-12.43-132.78-22.66-186.82-29.64-13.74-1.58-102.34-3.89-116.47-3.22l-95.98,5.92c-2.63.12-11.74-1.79-7.65-10.83l13.66-41.3c.56-2.66,5.07-4.83,11.05-5.33Z"/>
    <g id="Detalles-2" data-name="Detalles">
      <path class="cls-15" d="M4224.75,354.35c-35.64,2.15-58.4,3.52-73.27,5.12-22.74,1.32-20.84-2.86-11.01-27.74,11.33-33.51-3.24-27.34,58.8-31.44,5.79-.38,11.62-.53,18.84-1.14,0,0-22.76,4.25-46.18,7.32-11.01,1.45-13.3,4.25-15.28,9.21-5.62,14.03-13.88,20.99-10.49,28.11,7.63-6.05,15.51-13.09,15.51-13.09-11.26,20.67,6.92,19.21,63.09,23.65Z"/>
      <path class="cls-15" d="M4230.65,298.28l-12.97.9c30.62,8.35,32.18,41.87,31.8,14.17.45-8.74,31.42-4.21,46.6-13.25-20.73,1.94-48.63,8.97-65.44-1.82Z"/>
      <path class="cls-15" d="M4307.58,354.66c33.76.68,65.54,4.42,114.06,11.06,14.35-4.79,43.79-9.38,69.45-8.05-27.81-5.04-51.82,2.61-77.11.26-22.99-2.1-77.56-6.04-106.4-3.26Z"/>
      <path d="M4587.53,356.5c-17.28-9.68-36.68-14.72-55.68-19.87,12.18,2.21,24.2,5.48,35.78,9.87,6.91,2.64,13.81,5.78,19.9,10h0Z"/>
      <path d="M4289.84,346.85c-35-1.7-70.12.74-104.88,4.86-4.98.57-9.94,1.24-14.9,1.93,22.17-3.97,44.7-6.3,67.2-7.5,17.48-.83,35.15-.84,52.58.71h0Z"/>
      <path d="M4398.28,319.27c-17.51-.45-51.93-2.38-66.93,5.79,1.12-.87,2.41-1.51,3.71-2.06,18-6.93,44.1-5.52,63.22-3.73h0Z"/>
      <path class="cls-15" d="M4331.55,324.98c21.05-3.06,44.32-4.63,66.36-5.73-21.91.08-49.27-1.99-66.36,5.73Z"/>
      <path class="cls-15" d="M4591.22,344.13c4.27,1.06,7.11,1.47,9.04,5.97,2.1,5.94,1.71,9.61,1.71,20.09-11.87-23.37-27.93-23.17-64.29-39.85,4.76,1.27,23.19,6.43,38.45,10.36"/>
      <path class="cls-15" d="M4497.47,377.87l13.96,2.16c5.48-1.15,56.52-1.15,68.48.43-8.23-2.99-49.94-6.55-67.58-5.19-.87.07-1.72-.15-1.92-.53-3.01-5.88-.6-15.01-.6-15.01-.37,1.73-10.16,15.77-12.35,18.14Z"/>
      <path class="cls-15" d="M4400.4,302.91c31.07.82,92.86,13.97,114.12,21.11,0,0-39.48-4.97-46.51,16.72-6.02-20.22-32.3-29.6-58.4-27.84,13.39-2.64-9.22-9.98-9.22-9.98Z"/>
      <path class="cls-15" d="M4397.91,319.24c-21.91.08-51.23-1.89-66.36,5.73,21.05-3.06,44.32-4.63,66.36-5.73"/>
    </g>
  </g>
  <g id="AntebrazoD">
    <path id="AntebrazoD-2" data-name="AntebrazoD" class="cls-15" d="M4109.03,767.09s-89.92-100.04-86.84-105.27c49.62-84.36,68.91-157.65,50.01-193.88-1.97-9.11,6.65-20.33.3-27.16-20.52-22.02-74.91-27.86-86.27-31.72-20.68-7.02-18.29,14.82-22.56,19.67-43.64-3.11-70.04,62.05-88.32,91.43-47.1,64.43-114.9,263.82-7.61,291.94,4.2,1.1,12.49-9.75,17.25-9.37,156.24,12.69,252.17,5.31,256.64,5.48"/>
    <path class="cls-23" d="M4072.2,466.35c3.39,71.45-48.06,156.84-69.86,219.58,0,0,34.14-44.4,57.24-98.72,12.59-41.3,30.3-84.21,12.62-120.86Z"/>
    <path class="cls-23" d="M3975.53,430.98c-31.69-19.02-72.19,22.71-83.37,58.22-15.9,22.48-41.11,65.58-52.04,91.07,0,0-21.99,71.36-21.99,71.36,37.02-59.49,89.89-189.21,157.41-220.66Z"/>
    <path class="cls-23" d="M3815.96,665.8c21.96,161.31,122.4,195.04,215.97,241.83-48.91-11.34-46.79-17.01-87.2-33.32-46.08-10.63-73.74-35.97-105.63-68.76-34.78-40.76-31.47-104.62-23.15-139.75Z"/>
    <g>
      <path d="M3964.37,426.81l1.66.44c36.26,9.52,71.58,22.34,105.52,38.28h0"/>
      <path d="M3964.37,426.81c37.32,7.58,73.64,20.66,107.18,38.72-15.61-6.15-37.63-14.9-53.2-20.43-15.51-5.71-38.06-13.05-53.97-18.29h0Z"/>
    </g>
  </g>
</svg>