<?xml version="1.0" encoding="UTF-8"?>
<svg id="pBase" xmlns="http://www.w3.org/2000/svg" viewBox="0 0 4844.84 2735.75">
  <defs>
    <style>
      .cls-1 {
        fill: #d1aa07;
      }

      .cls-2 {
        fill: none;
      }

      .cls-2, .cls-3, .cls-4, .cls-5, .cls-6, .cls-7 {
        stroke: #000;
        stroke-miterlimit: 10;
      }

      .cls-8, .cls-5, .cls-6, .cls-7 {
        fill: #ffd93a;
      }

      .cls-9 {
        fill: #0c5113;
      }

      .cls-10 {
        fill: #04160d;
      }

      .cls-11 {
        fill: #1a7b1d;
      }

      .cls-12 {
        fill: #19661b;
      }

      .cls-3, .cls-13 {
        fill: #601075;
      }

      .cls-14 {
        fill: #062410;
      }

      .cls-15 {
        fill: #1e781c;
      }

      .cls-16 {
        fill: #043010;
      }

      .cls-17 {
        fill: #004500;
      }

      .cls-18 {
        fill: #04581e;
      }

      .cls-19 {
        fill: #fff;
      }

      .cls-20 {
        fill: #600f74;
      }

      .cls-21 {
        fill: #2a023d;
      }

      .cls-22 {
        fill: #022100;
      }

      .cls-23 {
        fill: #1f7a1c;
      }

      .cls-24 {
        fill: #1a751c;
      }

      .cls-25 {
        fill: #0a4b12;
      }

      .cls-4, .cls-6 {
        stroke-width: .5px;
      }

      .cls-26 {
        fill: #ffd73a;
      }

      .cls-27 {
        fill: #999;
      }

      .cls-28 {
        fill: #004240;
      }

      .cls-29 {
        fill: #eda06b;
      }

      .cls-30 {
        fill: #a74535;
      }

      .cls-31 {
        fill: #079408;
      }

      .cls-32 {
        fill: #663612;
      }

      .cls-33 {
        fill: #a623b5;
      }

      .cls-34 {
        fill: #257c1d;
      }

      .cls-35 {
        fill: #f5b88d;
      }

      .cls-36 {
        fill: #005e00;
      }

      .cls-7 {
        stroke-width: .75px;
      }

      .cls-37 {
        fill: #bc7d51;
      }

      .cls-38 {
        fill: #c1682d;
      }
    </style>
  </defs>
  <g>
    <path class="cls-31" d="M4189.18,441.79c2.17-10.59,12.45-17.08,21.49-21.46,5.57-2.7,11.51-4.23,17.71-3.22s11.48,3.67,16.38,7.16c5.63,4.02,10.45,9.06,15.23,14.03,1.34,1.39,3.46-.73,2.12-2.12-8.93-9.27-18.71-19.16-31.86-21.77-6.51-1.29-12.78-.32-18.83,2.29-5.39,2.33-10.62,5.36-15.16,9.09-4.77,3.93-8.72,9.05-9.98,15.2-.39,1.88,2.51,2.69,2.89.8h0Z"/>
    <path class="cls-31" d="M4186.96,444.27c6.24,7.87,16.43,11.39,26.21,11.69,5.92.18,11.84-.73,17.6-2.02,5.3-1.19,10.64-2.57,15.72-4.52,5.2-2,10.13-4.71,14.03-8.75,1.34-1.39-.78-3.51-2.12-2.12-6.7,6.96-16.5,9.59-25.59,11.84-10.18,2.51-21.05,4.06-31.18.5-4.9-1.72-9.3-4.64-12.53-8.72-1.2-1.51-3.31.62-2.12,2.12h0Z"/>
    <path class="cls-31" d="M4256.65,437.01c-2.85,8.1-12.26,11.27-19.79,13.29-10.4,2.79-21.72,5.38-32.3,1.97-4.91-1.58-9.48-4.46-12.47-8.73-.93-1.32-3.25-.57-2.74,1.16,2.72,9.22,14.2,11.19,22.26,12.79,5.75,1.14,11.63,2.2,17.49,2.5,5.21.27,10.62-.31,15.24-2.88,4.35-2.42,7.96-6.56,8.72-11.59.19-1.27-1.47-2.8-2.51-1.46-4.96,6.37-11.98,10.84-19.79,12.84-8.39,2.15-16.96,1.16-24.78-2.5-5-2.34-9.61-5.4-14.19-8.46-1.51-1.01-2.84,1.13-1.82,2.36,6.14,7.37,16.66,8.5,25.6,9.21,10.52.83,21.61.2,30.94-5.23,4.5-2.62,8.39-6.29,10.97-10.84l-2.8-.76c-.47,7.41-7.45,11.91-13.74,14.25-7.23,2.7-15.46,5.04-23.17,3.21-1.88-.45-2.68,2.45-.8,2.89,8.61,2.05,17.96-.44,25.98-3.68,7.22-2.91,14.19-8.3,14.72-16.67.1-1.51-2.09-2.01-2.8-.76-4.4,7.79-12.72,12.26-21.27,13.95-5.16,1.02-10.46,1.1-15.7.8-4.65-.27-9.36-.69-13.89-1.79-4.55-1.11-8.88-3.04-11.93-6.7-.61.79-1.21,1.57-1.82,2.36,8.21,5.48,16.76,10.99,26.77,12.24,8.47,1.06,17.26-.87,24.64-5.12,4.22-2.43,7.99-5.64,10.98-9.49l-2.51-1.46c-.61,4-3.17,7.24-6.56,9.34-4.07,2.52-8.89,3.12-13.59,2.97-5.19-.16-10.38-1.08-15.48-2.02-4.47-.83-9.06-1.65-13.34-3.23-3.82-1.41-7.74-3.74-8.95-7.87l-2.74,1.16c6.25,8.9,17.4,12.21,27.85,11.79,6.28-.25,12.46-1.64,18.53-3.19,4.66-1.2,9.32-2.59,13.58-4.88,4.54-2.45,8.34-6.03,10.08-10.97.64-1.82-2.25-2.61-2.89-.8h0Z"/>
    <path class="cls-31" d="M4327.69,431.05c5.32-11.07,15.96-19.11,28-21.4,7.23-1.38,14.72-.19,21.89,1.02s14.41,2.99,20.82,6.55,12.08,9.14,15.86,15.68c.96,1.67,3.56.16,2.59-1.51-3.52-6.11-8.45-11.34-14.35-15.2-6.52-4.26-14.1-6.55-21.69-7.98-7.57-1.43-15.62-2.86-23.33-1.86-6.44.83-12.65,3.19-18.04,6.82-6.1,4.1-11.15,9.73-14.34,16.37-.83,1.73,1.75,3.26,2.59,1.51h0Z"/>
    <path class="cls-31" d="M4326.8,438.79c20.92,12.82,48.6,15.8,71.31,5.94,6.22-2.7,11.99-6.62,16.22-11.98,1.19-1.5-.92-3.64-2.12-2.12-7.3,9.23-18.85,13.71-30.13,15.74-11.71,2.1-23.91,1.34-35.32-1.99-6.49-1.9-12.69-4.65-18.46-8.18-1.65-1.01-3.16,1.58-1.51,2.59h0Z"/>
    <path class="cls-31" d="M4328.59,435.43c1.76-14.76,14.55-25.66,27.83-30.48,15.92-5.78,35.01-4.49,48.93,5.6,7.01,5.08,12.52,12.31,15.1,20.61.57,1.84,3.47,1.05,2.89-.8-5.21-16.74-20.66-28.27-37.63-31.03-16.93-2.75-35.45,1.78-48.17,13.57-6.43,5.97-10.91,13.75-11.96,22.52-.23,1.91,2.77,1.9,3,0h0Z"/>
    <path class="cls-31" d="M4409.22,428.49c-.07,7.13-7.81,13.03-14.7,11.21-1.87-.49-2.67,2.4-.8,2.89,8.78,2.32,18.41-5.02,18.5-14.1.02-1.93-2.98-1.93-3,0h0Z"/>
    <path class="cls-31" d="M4393.04,443.28c7.92,3.37,17.61-.64,20.81-8.64.3-.75-.33-1.65-1.05-1.85-.85-.23-1.54.29-1.85,1.05-2.42,6.05-10.39,9.4-16.4,6.84-.74-.32-1.61-.22-2.05.54-.37.63-.21,1.73.54,2.05h0Z"/>
    <path class="cls-31" d="M4404.85,436.83c-1.13,1.57-.19,3.81,1.39,4.65,1.89,1.01,4.18.19,6.02-.53,3.65-1.42,6.96-3.58,9.71-6.37,1.36-1.38-.76-3.5-2.12-2.12-2.02,2.05-4.36,3.73-6.96,4.98-1.23.59-2.54,1.12-3.88,1.42-.43.1-1.13.21-1.48-.1-.06-.05-.16-.26-.16-.27.05.08-.02-.03-.01-.12-.01.13-.05.16.09-.03.47-.66.11-1.67-.54-2.05-.76-.44-1.58-.12-2.05.54h0Z"/>
    <path class="cls-31" d="M4414.68,432.76c-5.8,8.54-17.15,12.56-27.05,9.72-1.86-.53-2.65,2.36-.8,2.89,11.24,3.23,23.89-1.45,30.43-11.1,1.09-1.6-1.51-3.1-2.59-1.51h0Z"/>
    <path class="cls-31" d="M4389.63,439.7c-5.86,2.84-12.71,3.02-18.77.69-.76-.29-1.64.32-1.85,1.05-.24.84.3,1.56,1.05,1.85,6.82,2.63,14.52,2.19,21.08-.99,1.74-.84.22-3.43-1.51-2.59h0Z"/>
    <path class="cls-31" d="M4365.89,426.05c-.99.33-1.98.66-2.98.99-.37.12-.7.35-.9.69-.19.32-.27.8-.15,1.16s.34.71.69.9.77.28,1.16.15c.99-.33,1.98-.66,2.98-.99.37-.12.7-.35.9-.69.19-.32.27-.8.15-1.16s-.34-.71-.69-.9-.77-.28-1.16-.15h0Z"/>
    <path class="cls-31" d="M4368.74,415.81c-9.36,3.62-18.53,7.71-27.47,12.27.5.86,1.01,1.73,1.51,2.59,4.98-2.92,9.95-5.84,14.93-8.76,1.44-.84.5-3.26-1.16-2.74-3.62,1.13-6.99,2.88-9.98,5.21-1.44,1.12-2.79,2.36-4,3.72s-2.69,2.94-3.29,4.66c-.63,1.79.26,3.56,2.11,4.06,1.56.42,3.39.09,4.9-.37,3.42-1.04,6.34-3.42,8.04-6.57.35-.65.19-1.27-.23-1.82-3.24-4.18-10.27-2.3-11.69,2.52-1.63,5.51,3.18,10.6,8.63,10.4,2.73-.1,5.94-1.32,7.46-3.72,1.42-2.24.54-4.81-1.65-6.12-2.47-1.48-5.08-.86-7.78-.89-1.17-.01-2.54-.23-3.11-1.4-.46-.95-.26-2.14.16-3.06,1.18-2.62,4.42-3.25,7-3.49,1.07-.1,3.21-.58,4.13.14.8.63.79,2.05.64,2.94-.45,2.73-2.57,5.1-4.57,6.87-2.21,1.94-4.96,3.74-7.94,4.14-6.38.84-7.86-6.68-5.8-11.29,2.06-4.64,7.06-8.06,12.2-7.77,4.69.26,8.56,4,10.07,8.28,1.55,4.42.84,10.04-3.61,12.48-1.91,1.05-4.63,1.01-5.49-1.35-.71-1.92.15-4.3,1.55-5.69,2.11-2.09,5.51-2.27,8.3-2.07,2.28.16,6.7.3,7.42,3.05.76,2.92-1.98,5.27-4.03,6.81-2.37,1.79-5.24,4.18-8.39,4.05-2.61-.11-4.8-2.09-3.7-4.81,1.14-2.79,4.09-4.91,6.39-6.71,4.79-3.78,10.53-7.03,16.74-7.42,2.46-.15,6.32,0,5.9,3.43-.36,2.91-3.34,4.26-5.85,4.93-3.85,1.04-10.74,1.6-12.39-3.19-.94-2.74.83-5.52,2.63-7.45,2.06-2.21,4.63-3.9,7.29-5.31,2.71-1.44,5.81-2.53,8.93-2.09,2.54.36,5.09,1.72,6.16,4.16,2.59,5.9-3.11,11.13-8.02,13.13-.93.38-5.39,2.28-5.78.4l-.39,1.46c3.5-3.23,8.11-6.47,13.14-5.3,2.1.49,3.99,1.75,4.77,3.82.63,1.68.57,3.88-.79,5.19-1.07,1.04-2.82,1.15-4.15.57-1.85-.81-2.07-2.71-1.17-4.39,1.22-2.28,3.57-4.01,5.65-5.46,1.2-.83,3.43-2.39,5.03-1.62s-2.29,4-3,4.48c-2.21,1.5-4.78,2.2-7.44,2.03l.76,2.8c4.01-2.31,9-2.01,12.78.62-.18-.68-.36-1.37-.54-2.05-.52,1.01-1.36,1.65-2.52,1.7-1.92.07-1.93,3.07,0,3,2.17-.08,4.11-1.23,5.11-3.18.39-.77.16-1.57-.54-2.05-4.64-3.23-10.93-3.43-15.81-.62-1.35.78-.68,2.71.76,2.8,4.27.26,8.64-1.47,11.53-4.64,1.35-1.49,2.85-3.51,2.11-5.62-.57-1.62-2.22-2.29-3.82-2.35-1.76-.07-3.51.55-4.98,1.5-2.08,1.34-4.17,2.89-5.85,4.71-2.72,2.94-4.25,7.75-.39,10.48,2.73,1.92,6.88,1.59,9.02-1.05,2.48-3.06,1.94-7.69-.56-10.56-2.84-3.26-7.77-3.93-11.76-2.81-2.28.64-4.39,1.81-6.28,3.22-.89.67-1.75,1.37-2.58,2.11-.95.86-1.33,1.69-.71,2.9,1.92,3.73,7.5,1.58,10.26.36,4.01-1.76,7.57-4.71,9.04-8.95,1.37-3.96.54-8.56-2.81-11.26s-7.92-3.11-11.96-1.97c-4.4,1.25-8.83,3.96-12.07,7.17-2.9,2.88-5.43,7.12-3.84,11.29,1.38,3.64,4.92,5.29,8.59,5.67s8.35-.39,11.57-2.48,5.36-6.78,2.66-10.18c-2.77-3.48-8.77-2.53-12.51-1.56-4.52,1.17-8.7,3.51-12.43,6.28-1.87,1.39-3.72,2.87-5.41,4.5s-3.2,3.48-3.66,5.72c-.9,4.35,2.77,7.53,6.87,7.68,2.27.08,4.5-.85,6.4-2.01s3.98-2.65,5.7-4.22c3-2.73,5.13-7.95,1.54-11.18-1.59-1.43-3.77-1.87-5.82-2.18-2.28-.34-4.57-.53-6.86-.22-4.03.55-7.61,2.83-8.73,6.9-.96,3.49.43,7.48,4.15,8.56,3.82,1.11,7.82-1.58,9.79-4.7,1.96-3.08,2.24-7.06,1.41-10.55-1.73-7.28-8.48-12.96-16.14-11.83s-14.26,8.61-13.29,16.5c.53,4.29,3.3,8,7.81,8.43s8.71-2.24,11.89-5.04c2.98-2.61,5.97-6.58,5.45-10.77-.23-1.83-1.2-3.52-3-4.17-2-.72-4.7-.2-6.75.12-4.09.64-7.94,3-8.39,7.45-.18,1.79.41,3.64,1.81,4.82,1.7,1.44,3.95,1.51,6.06,1.38,1.65-.11,3.77-.42,5.12.82,1.62,1.49-1.35,3.12-2.56,3.55-3.75,1.31-8.44-.85-8.04-5.3.3-3.37,4.76-4.77,6.85-2.08l-.23-1.82c-1.21,2.25-3.15,4.04-5.55,4.95-1.05.4-2.65.94-3.78.66-.66-.16-.19-.49.12-.98.39-.6.83-1.18,1.28-1.73,3.51-4.32,8.23-7.53,13.55-9.19-.39-.91-.77-1.83-1.16-2.74-4.98,2.92-9.95,5.84-14.93,8.76-1.68.98-.2,3.46,1.51,2.59,8.71-4.44,17.64-8.44,26.76-11.97,1.78-.69,1.01-3.59-.8-2.89h0Z"/>
    <path class="cls-31" d="M4224.72,437.34c-3.57,2.09-8.65,5.03-12.63,2.14-1.37-1-1.97-2.62-1.39-4.25.78-2.22,2.76-1.91,4.68-1.4,2.02.54,4.38,1.44,5.08,3.62.68,2.1-.86,3.32-2.81,3.43s-3.96-.37-5.83-.87-3.86-1.19-5.67-2.1c-3.98-2-7.49-5.04-8.94-9.36l-.69,1.69c4.76-2.41,11.62,1.39,11.98,6.77.36,5.42-6.51,10.7-11.62,8.14-.05-.03-.15.39-.09.15.03-.14.32-.35.4-.41.3-.23.65-.37,1-.49,1.1-.35,2.34-.48,3.49-.58,2.55-.22,5.09-.06,7.59.46.59.12,1.43-.07,1.69-.69,1.52-3.52,3.43-7.37,6.82-9.43,2.71-1.65,6.45-1.48,8.71.92,2.01,2.14,1.04,5.03-1.58,6.01-2.66,1-5.63-.03-6.36-2.93-.73-2.91.96-6.35,3.72-7.53,3.45-1.47,7.55.08,9.94,2.75,1.24,1.39,2.38,3.62,1.55,5.48-.66,1.48-2.38,2.03-3.88,2.16-1.73.15-3.93-.04-5.44-.95-1.41-.85-1.44-2.47-.82-3.86,1.8-4.01,7.3-3.2,10.81-2.7,2.06.29,4.51.59,6.1,2.07,1.16,1.08,1.97,3.14.61,4.39-1.37,1.25-3.76,1.21-5.49,1.18-2.22-.03-4.4-.4-6.51-1.07s-4.11-1.65-5.95-2.9c-1.54-1.05-3.62-2.58-2.67-4.68.91-2.03,3.32-2.58,5.33-2.67,2.45-.11,4.97.13,7.38.54,1.98.34,3.94.78,5.61,1.95,1.22.86,2.38,2.32,1.29,3.76-1.1,1.46-3.45,2.12-5.11,2.64-1.92.59-3.89.96-5.89,1.08-4.13.26-8.33-.41-12.14-2.04-2.59-1.11-9.4-4.27-5.67-7.69,1.7-1.56,4.06-1.29,6.11-.65,1.09.34,2.15.8,3.19,1.28.71.33,1.79.73,2.18,1.46s-.39,1.37-1.08,1.55c-1.24.33-2.72-.35-3.86-.78s-3.27-1.29-2.69-2.83c.54-1.42,2.78-2.05,4.1-2.21,2.26-.28,4.66-.07,6.87.44s4.4,1.38,6.41,2.56c1.67.98,3.18-1.61,1.51-2.59-2.78-1.63-5.84-2.75-9.03-3.22-2.84-.41-6.01-.58-8.72.51-2.15.86-4.29,2.59-4.23,5.11.06,2.75,2.57,4.19,4.83,5.07,2.73,1.06,6.31,1.81,8.29-.99,1.72-2.43.08-4.97-2.19-6.22-4.65-2.56-12.56-4.75-15.37,1.53-2.59,5.8,5.55,9.53,9.8,11.06,5.42,1.95,11.47,2.24,17.06.83,2.56-.64,5.66-1.6,7.54-3.55,1.77-1.84,2.01-4.54.51-6.62-1.47-2.04-3.95-3.3-6.35-3.9-3.19-.8-6.66-1.17-9.94-1.09-2.91.07-5.92.8-7.75,3.25s-1.55,5.29.41,7.47,4.82,3.66,7.47,4.74c2.8,1.14,5.82,1.77,8.84,1.87,2.6.08,5.68-.07,7.77-1.83,2.12-1.79,2.27-4.71,1.01-7.06-1.43-2.65-4.32-3.84-7.14-4.37-2.99-.56-6.2-1.05-9.23-.61-2.65.39-5.07,1.66-6.42,4.05-1.11,1.97-1.45,4.56-.19,6.55,1.45,2.3,4.49,2.96,7.01,3.15,2.37.18,4.98-.24,6.85-1.81,4.77-4.01.76-10.76-3.45-13.31s-10.46-2.55-13.82,1.64c-2.82,3.52-3.29,9.39.55,12.4,3.24,2.54,8.55,1.83,11.08-1.39,3.05-3.89.45-8.83-3.62-10.6-4.94-2.15-9.92,0-13.16,4.01-1.74,2.15-3.01,4.6-4.1,7.13l1.69-.69c-2.91-.61-5.89-.83-8.86-.52-2.38.25-5.27.53-6.8,2.62s.11,4.1,2.26,4.79c1.94.62,4.1.57,6.05,0,3.86-1.11,7.26-4.18,8.4-8.07,1.15-3.91-.4-8.07-3.47-10.66-3.51-2.97-8.45-4.02-12.64-1.89-.56.28-.89,1.1-.69,1.69,1.78,5.29,5.99,9.13,10.96,11.47,2.49,1.17,5.12,2.03,7.82,2.57,2.54.51,5.49.97,7.87-.35,2.55-1.41,3.21-4.48,2.13-7.06-1.2-2.86-4.07-4.28-6.92-5.04s-5.75-.84-7.58,1.84c-1.36,2-1.51,4.86-.27,6.95,1.57,2.64,4.72,3.9,7.69,3.92,3.72.02,7.11-1.89,10.22-3.72,1.67-.97.16-3.57-1.51-2.59h0Z"/>
    <path class="cls-31" d="M4346.08,426.32c3.49,5.4,8.85,9.43,15.01,11.28s13.02,1.2,18.9-1.59c3.36-1.6,6.39-3.92,8.79-6.76,1.24-1.46-.87-3.6-2.12-2.12-4.86,5.73-12.25,9-19.78,8.51s-14.25-4.68-18.21-10.82c-1.04-1.62-3.64-.11-2.59,1.51h0Z"/>
    <path class="cls-31" d="M4235.94,436.01c3.61.78,7.15,1.87,10.54,3.33,1.7.73,3.33,1.59,4.98,2.44,1,.51,1.6.3,2.66,0s2.11-.6,3.16-.9c1.28-.36,1.43-2.05.36-2.74-1.55-1-3.1-2-4.65-3-1.63-1.05-3.13,1.55-1.51,2.59s3.1,2,4.65,3l.36-2.74c-1.45.41-2.9.82-4.34,1.23l1.16.15c-5.19-2.88-10.77-4.99-16.56-6.25-1.88-.41-2.69,2.48-.8,2.89h0Z"/>
    <path class="cls-26" d="M4327.78,430.66c5.82,8.29,14.29,14.41,23.88,17.61,4.82,1.6,9.94,2.44,15.02,2.41,5.7-.03,11.25-1.32,16.66-3.06,7.14-2.3,14.19-4.92,21.27-7.41,1.81-.64,1.03-3.53-.8-2.89-6.05,2.12-12.1,4.28-18.16,6.37-5.3,1.83-10.73,3.52-16.36,3.9-9.55.64-19.17-2.02-27.19-7.21-4.57-2.96-8.6-6.77-11.73-11.24-1.1-1.57-3.7-.07-2.59,1.51h0Z"/>
    <path class="cls-26" d="M4363.8,405.37c5.23.75,10.46,1.5,15.69,2.24,4.71.67,9.45,1.27,14.1,2.32,8.29,1.87,16.47,5.57,20.36,13.59,1.83,3.77,2.39,8.3.62,12.2-.79,1.75,1.8,3.27,2.59,1.51,3.58-7.93.02-17.06-6.22-22.58-7.38-6.53-17.65-8.08-27.04-9.42-6.44-.92-12.87-1.84-19.31-2.76-.81-.12-1.6.2-1.85,1.05-.2.7.25,1.73,1.05,1.85h0Z"/>
    <path class="cls-26" d="M4370.6,424.86c-7.32-4.59-16.45-5.85-24.75-3.43-1.85.54-1.06,3.43.8,2.89,7.56-2.2,15.77-1.05,22.43,3.13,1.64,1.03,3.15-1.57,1.51-2.59h0Z"/>
    <path class="cls-26" d="M4188.22,440.23c8.57-13.99,25.62-21.66,41.76-18.89,5.7.98,11.2,2.8,16.86,3.97,1.88.39,2.69-2.5.8-2.89-5.27-1.09-10.42-2.75-15.71-3.76-4.51-.86-9.07-1.17-13.63-.62-8.51,1.03-16.56,4.48-23.22,9.88-3.74,3.03-6.94,6.7-9.45,10.8-1.01,1.65,1.58,3.16,2.59,1.51h0Z"/>
    <path class="cls-26" d="M4196.9,447.44c4.65,6.59,12.03,10.91,20.08,11.59s16.64-2.77,22.16-8.88c1.29-1.43-.82-3.56-2.12-2.12-4.96,5.48-12.26,8.53-19.66,8.03s-13.81-4.36-17.88-10.13c-1.1-1.57-3.71-.07-2.59,1.51h0Z"/>
    <path class="cls-26" d="M4218.49,434.13c6.32.5,12.56,2.16,18.28,4.9,2.8,1.34,5.59,2.9,8.06,4.78.98.75,2.15,1.75,2.42,3.03.15.73-.28,2.44-1.33,2.25-1.89-.33-2.7,2.56-.8,2.89,3.61.63,6.03-3.25,4.86-6.48-1.25-3.44-5.27-5.56-8.26-7.27-7.11-4.07-15.07-6.46-23.23-7.11-1.92-.15-1.91,2.85,0,3h0Z"/>
    <path class="cls-26" d="M4249.24,434.77c2.42-.25,4.77.91,5.89,3.12,1.03,2.01.58,4.72-.99,6.39-1.32,1.41.8,3.53,2.12,2.12,2.48-2.64,3.1-6.61,1.54-9.87s-5.14-5.11-8.56-4.76c-.81.08-1.5.63-1.5,1.5,0,.75.69,1.58,1.5,1.5h0Z"/>
    <path class="cls-33" d="M4189.13,440.97c8.59,9.41,22.49,13.28,34.72,9.72,1.85-.54,1.06-3.43-.8-2.89-11.25,3.28-23.9-.3-31.8-8.95-1.3-1.43-3.42.7-2.12,2.12h0Z"/>
    <path class="cls-33" d="M4205.93,426.75c5.77-2.4,12.16-2.63,18.08-.61,1.83.62,2.62-2.27.8-2.89-6.36-2.17-13.47-1.97-19.68.61-.75.31-1.28.99-1.05,1.85.19.71,1.09,1.36,1.85,1.05h0Z"/>
    <path class="cls-33" d="M4230.86,437.19c7.97-4.51,19.1-1.79,24.04,5.94,1.04,1.62,3.63.12,2.59-1.51-5.82-9.11-18.72-12.36-28.15-7.02-1.68.95-.17,3.54,1.51,2.59h0Z"/>
    <path class="cls-33" d="M4232.35,457.46c4.36.3,8.71-1.27,11.96-4.17.6-.54.55-1.57,0-2.12-.6-.6-1.51-.54-2.12,0-2.68,2.39-6.25,3.54-9.84,3.29-.81-.06-1.5.73-1.5,1.5,0,.86.69,1.44,1.5,1.5h0Z"/>
    <path class="cls-33" d="M4327.57,434.41c-.71-2.11.9-4.11,2.19-5.64,1.5-1.79,3.09-3.52,4.73-5.18,3.25-3.28,6.75-6.3,10.48-9.01,1.55-1.13.05-3.73-1.51-2.59-4.25,3.09-8.24,6.52-11.89,10.3-1.78,1.85-3.56,3.76-5.1,5.82-1.51,2.03-2.64,4.56-1.79,7.1.61,1.82,3.51,1.04,2.89-.8h0Z"/>
    <path class="cls-33" d="M4341.32,444.31c14.24,9.13,32.7,10.97,48.61,5.41,4.46-1.56,8.71-3.68,12.61-6.35,1.58-1.09.08-3.69-1.51-2.59-13.28,9.12-30.6,11.41-45.93,6.66-4.33-1.34-8.44-3.27-12.26-5.72-1.63-1.05-3.14,1.55-1.51,2.59h0Z"/>
    <path class="cls-33" d="M4358.79,432.05c12.08-5.42,25.75-7.13,38.8-4.87,1.89.33,2.7-2.56.8-2.89-13.91-2.41-28.23-.6-41.11,5.18-1.76.79-.23,3.37,1.51,2.59h0Z"/>
    <path class="cls-33" d="M4365.2,409.2c14.78-8.63,33.44-7.94,47.53,1.76,3.73,2.57,7.09,5.73,9.85,9.32.5.65,1.28.98,2.05.54.64-.36,1.03-1.41.54-2.05-10.99-14.27-29.21-21.25-46.91-17.71-5.12,1.02-10.06,2.93-14.57,5.56-1.67.97-.16,3.57,1.51,2.59h0Z"/>
    <path class="cls-26" d="M4362.59,413.36c-1.48.63-1.67,2.31-1.01,3.61.77,1.5,2.12,2.28,3.65,2.8,3.55,1.21,7.24,1.96,10.92,2.68,7.36,1.44,14.99,2.72,21.19,7.22,1.57,1.13,3.06-1.47,1.51-2.59-5.28-3.82-11.65-5.48-17.95-6.74-3.16-.64-6.34-1.2-9.49-1.94-1.56-.37-3.11-.78-4.64-1.27-.67-.21-1.42-.37-1.97-.83-.17-.15-.34-.5-.52-.6-.05-.07-.09-.15-.12-.24-.46.55-.49.71-.08.49.75-.32.9-1.41.54-2.05-.44-.78-1.31-.85-2.05-.54h0Z"/>
    <path class="cls-26" d="M4382.3,401.2c5.37,2.82,10.75,5.63,16.12,8.45,1.71.9,3.23-1.69,1.51-2.59-5.37-2.82-10.75-5.63-16.12-8.45-1.71-.9-3.23,1.69-1.51,2.59h0Z"/>
    <path class="cls-26" d="M4343.25,421.28c-3.73,1.14-5.4,5.21-4.91,8.85.59,4.36,4.15,7.49,7.34,10.15.62.52,1.51.61,2.12,0,.53-.53.63-1.6,0-2.12-2.54-2.11-5.61-4.53-6.41-7.91-.53-2.22.23-5.34,2.65-6.08,1.84-.56,1.06-3.46-.8-2.89h0Z"/>
    <path class="cls-26" d="M4372.77,442.86c-1.34.22-2.44,1.24-2.89,2.51s-.36,3.12,1.06,3.67c1.32.5,3.06.55,4.46.63,1.55.1,3.11.05,4.66-.13,6.19-.71,12.01-3.32,16.54-7.61,1.41-1.33-.72-3.45-2.12-2.12-5.99,5.67-14.69,8.1-22.74,6.33l1.05,1.05c-.3-.73,0-1.31.78-1.44,1.9-.31,1.09-3.2-.8-2.89h0Z"/>
    <path class="cls-26" d="M4214.54,427.81c9.16-.07,18.06,2.97,25.31,8.56.65.5,1.67.09,2.05-.54.46-.77.1-1.56-.54-2.05-7.64-5.89-17.19-9.04-26.83-8.97-1.93.02-1.93,3.02,0,3h0Z"/>
  </g>
  <g id="ManoD">
    <path class="cls-35" d="M3967.36,886.28c-3.74-4.01-3.33-10.95-4.38-16.34l-8.43-57.7c-1.39-7.14-11.39-31.25-17.26-42-4.53-8.3-34.77-14.93-39.74-24.92l-30.86-62.1c-2.59-5.21-8.83-7.43-14.12-5.02l-2.54,1.16c-4.25,1.93-12.75,4.37-7.86,18.15l31.89,71.23-56.2-68.97c-4.15-5.57-11.9-6.97-17.74-3.22l-3.69,2.37c-6.06,3.9-8,11.87-4.4,18.11l55.69,68.7-52.83-35.71c-5.51-5.09-13.71-5.93-20.14-2.07l-2.97,2.9c-5.19,5.07-5.79,13.21-1.41,18.99l46.9,39.67-41.56-22.05c-3.97-2.28-9.01-1.31-11.85,2.28l-2.82,3.57c-3.05,3.86-2.96,9.34.23,13.09l58.67,45.78c4.36,4.16,7.21,9.69,21.34,19.56,2.94,2.05,63.76,45.13,67.21,46.1"/>
    <path class="cls-2" d="M3965.77,888.98l-9.84-67.37c-.93-6.34-2.24-12.64-3.91-18.82-9.42-34.78-9.43-29.25-39.45-46.5-6.61-3.8-12.67-6.27-15-10.96l-30.86-62.1c-2.59-5.21-8.83-7.43-14.12-5.02l-2.54,1.16c-4.25,1.93-12.75,4.37-7.86,18.15l31.89,71.23-56.2-68.97c-4.15-5.57-11.9-6.97-17.74-3.22l-3.69,2.37c-6.06,3.9-8,11.87-4.4,18.11l55.69,68.7-52.83-35.71c-5.51-5.09-13.71-5.93-20.14-2.07l-2.97,2.9c-5.19,5.07-5.79,13.21-1.41,18.99l46.9,39.67-41.56-22.05c-3.97-2.28-9.01-1.31-11.85,2.28l-2.82,3.57c-3.05,3.86-2.96,9.34.23,13.09l58.67,45.78c4.36,4.16,7.21,9.69,21.34,19.56,2.94,2.05,67.32,49.13,70.77,50.1"/>
    <path d="M3937.3,770.25l-11.09-1.72c-5.34-.85-11.28-2-16.61-.65-5.46,1.13-10.52,3.77-14.91,7.16-2.55,1.92-5.98,5.21-8.47,7.31-12.74,10.86-11.87,13.17-9.68,29.08.78,5.48,1.27,11.18,1.96,16.67,1.65,5.1,5.05,10.06,9.4,13.22,4.08,2.46,12.06.27,14.45-3.8.89-1.55.86-3.45.81-5.3l-.22-11.22c0-1.7-.17-3.97.07-5.64.28-1.88,1.11-3.67,2.32-5.12,2.61-2.71,5.3-5.29,7.94-7.94-2.58,2.7-5.24,5.36-7.75,8.1-1.16,1.44-1.92,3.19-2.15,5.02-.2,1.6.03,3.94.06,5.57,0,0,.36,11.21.36,11.21.07,1.84.16,3.88-.83,5.65-2.57,4.22-8.06,5.61-12.72,5.23-3-.37-5.14-2.82-7.01-4.91-1.22-1.45-2.32-3-3.29-4.63-1.48-2.38-2.65-5.22-2.71-8.07,0,0-.3-2.79-.3-2.79-.74-7.47-2.12-14.8-2.61-22.32-.86-8.66,5.54-13.51,11.32-18.66,2.55-2.1,5.94-5.33,8.58-7.27,4.51-3.39,9.69-6.02,15.26-7.1,5.4-1.31,11.4-.03,16.76.96,0,0,11.05,1.96,11.05,1.96h0Z"/>
  </g>
  <g id="ZapatoD">
    <g id="TenniD">
      <path class="cls-29" d="M4198.53,2336.83c10.45,14.62,22.67,7.07,44.01,24.67,24.31,20.05,30.6,48.13,39.56,45.93,4.13-1.01,2.68-6.94,8.45-11.53,9.54-7.6,53.49,25.74,73.34,22.32,20.04,4.49,17.66,1.18,14.5-14.73-4.31-21.66-20.84-39.07-42.4-43.87-9.29-2.07-10.73-5.42-18.73-16.11,0-24.3,13.06-71.08-8.81-94.47-7.88-2.25-15.54-3.53-22.81-3.78-34.74,83.89-57.41,78.96-87.1,91.57Z"/>
      <path class="cls-3" d="M4336.53,2418.51c-115.77-10.79-36.22-87.41-220.75-99.29,0,0-46.93,41.99-83.67,53.41-18.99,5.9-69.22,12.12-52.56,80.79.98,4.04,4.37,7.05,8.5,7.5,25.62-3.1,491.48,43.02,426.88-42.38,0-.01-78.4-.01-78.4-.01Z"/>
      <path d="M4417.1,2386.56c-94.22,31.87-64.39-1.88-122.29,1.63-10.64,1.48-14.36,17.73-12.69,18.34,1.03,28.63,41.8,30.44,66.37,25.94,23.67-3.72,50.35-31.69,68.61-45.92Z"/>
      <path class="cls-21" d="M3987.4,2397.76s-2.24,1.48-4.29,6.69c10.8,13.11,50.75,26,53.13,23.34-9.43-3.67-49.97-24.05-48.85-30.03Z"/>
      <path class="cls-8" d="M3984.68,2401.15s-1.19,2.39-3.23,7.6c8.89,12.76,26.6,16.89,42.3,17.15-11.88-3.07-39.22-19.88-39.07-24.75Z"/>
      <path class="cls-21" d="M4052.75,2425.93c35.96,33.13,188.42-37.29,184.2-38.82-5.74,3.16-143.74,48.07-184.2,38.82Z"/>
      <path class="cls-8" d="M4056.09,2429.91c-2.61,4.81,32.37,10.84,54.9,7.11,26.46-5.89,54.9-22.95,54.9-22.95,0,0-33.33,14.08-76.23,15.81-12.16.49-33.57.02-33.57.02Z"/>
    </g>
    <path class="cls-5" d="M3980.47,2455.74c1.53,19.36.25,37.26,24.58,35.5,6.54.21,113.68,5.26,116.2,4.61,68.46.97,217.55-.08,284.63-6.41,19.88-.64,13.77-27.93,14.3-40.58-33.45,18.33-126.65,15.85-150.92,18.94-83.35.27-180.6-.58-275.01-6.2-5.15-.23-10.03-2.32-13.77-5.87Z"/>
    <g id="Detalle">
      <path d="M4048.09,2378.86c.41,8.29-28.41,8.29-28,0-.41-8.29,28.41-8.29,28,0Z"/>
      <path d="M4126.09,2363.69c.3,6.02-20.96,6.02-20.65,0-.3-6.02,20.96-6.02,20.65,0Z"/>
      <path d="M4150.52,2383.14c1.66,8.16-27.39,12.56-28.21,4.27-1.66-8.16,27.39-12.56,28.21-4.27Z"/>
      <path d="M4155.04,2358.95c.81,4.8-16.23,6.81-16.55,1.95-.81-4.8,16.23-6.81,16.55-1.95Z"/>
      <path d="M4110.99,2347.68c.17,3.44-11.96,3.44-11.79,0-.17-3.44,11.96-3.44,11.79,0Z"/>
      <path d="M4103.43,2381.51c.36,7.19-25.03,7.19-24.67,0-.36-7.19,25.03-7.19,24.67,0Z"/>
      <path d="M4079.57,2361.78c1.36,5.43-18.86,9.37-19.63,3.82-1.36-5.43,18.86-9.37,19.63-3.82Z"/>
    </g>
    <path class="cls-21" d="M4120.16,2331.76c34.84,8.74,72.68,14.93,101.36,37.31"/>
  </g>
  <g id="ZapatoI">
    <path class="cls-29" d="M4495.79,2347.71c10.45,14.62,22.67,7.07,44.01,24.67,24.31,20.05,30.6,48.13,39.56,45.93,4.13-1.01,2.68-6.94,8.45-11.53,9.54-7.6,53.49,25.74,73.34,22.32,30.23,6.78,25-4.62,27.48-49.83,2.97-54.13-30.8-104.48-82.94-119.34-7.88-2.25-15.54-3.53-22.81-3.78-34.74,83.89-57.41,78.96-87.1,91.57Z"/>
    <path class="cls-3" d="M4631,2423.6c-115.77-10.79-36.22-87.41-220.75-99.29,0,0-46.93,41.99-83.67,53.41-18.99,5.9-69.22,12.12-52.56,80.79.98,4.04,4.35,7.41,8.5,7.5,288.6,6.23,471.8,35.26,426.88-42.38,0-.01-78.4-.01-78.4-.01Z"/>
    <path class="cls-4" d="M4711.57,2391.65c-94.22,31.87-64.39-1.88-122.29,1.63-10.64,1.48-14.36,17.73-12.69,18.34,1.03,28.63,41.8,30.44,66.37,25.94,23.67-3.72,50.35-31.69,68.61-45.92Z"/>
    <path class="cls-6" d="M4711.57,2391.65c-49.91,25.3-70.47,32.19-134.97,19.98,1.03,28.63,41.81,30.45,66.37,25.94,23.64-3.74,50.37-31.67,68.61-45.92Z"/>
    <path class="cls-21" d="M4344.3,2431.6c-3.06,5.32,32.31,10.64,54.9,7.11,110.95-21.22,127.84-50.2,127.84-50.2-17.66,10.58-128.56,50.88-182.74,43.08Z"/>
    <path class="cls-21" d="M4281.67,2403.18s-2.24,1.48-4.29,6.69c13.64,14.06,48.09,27.88,53.13,23.34-15.36-4.93-46.02-19.81-48.85-30.03Z"/>
    <path class="cls-8" d="M4278.48,2407.55s-1.5,2.58-3.54,7.8c8.89,12.76,26.6,16.89,42.3,17.15-12.32-3.29-38.65-19.52-38.76-24.95Z"/>
    <path class="cls-8" d="M4348.39,2435.85c-2.61,4.81,32.37,10.84,54.9,7.11,26.46-5.89,54.9-22.95,54.9-22.95,0,0-33.33,14.08-76.23,15.81-12.16.49-33.57.02-33.57.02Z"/>
    <path class="cls-21" d="M4422.31,2340.03c34.84,8.74,72.68,14.93,101.36,37.31"/>
    <path class="cls-5" d="M4274.94,2460.83c1.53,19.36.25,37.26,24.58,35.5,6.54.21,113.68,5.26,116.2,4.61,68.46.97,217.55-.08,284.63-6.41,19.88-.64,13.77-27.93,14.3-40.58-33.45,18.33-126.65,15.85-150.92,18.94-83.35.27-180.6-.58-275.01-6.2-5.15-.23-10.03-2.32-13.77-5.87Z"/>
    <g id="Detalle-2" data-name="Detalle">
      <path d="M4344.3,2385.86c.41,8.29-28.41,8.29-28,0-.41-8.29,28.41-8.29,28,0Z"/>
      <path d="M4422.31,2370.69c.3,6.02-20.96,6.02-20.65,0-.3-6.02,20.96-6.02,20.65,0Z"/>
      <path d="M4446.74,2390.15c1.66,8.16-27.39,12.56-28.21,4.27-1.66-8.16,27.39-12.56,28.21-4.27Z"/>
      <path d="M4451.26,2365.95c.81,4.8-16.23,6.81-16.55,1.95-.81-4.8,16.23-6.81,16.55-1.95Z"/>
      <path d="M4407.2,2354.68c.17,3.44-11.96,3.44-11.79,0-.17-3.44,11.96-3.44,11.79,0Z"/>
      <path d="M4399.64,2388.51c.36,7.19-25.03,7.19-24.67,0-.36-7.19,25.03-7.19,24.67,0Z"/>
      <path d="M4375.79,2368.78c1.36,5.43-18.86,9.37-19.63,3.82-1.36-5.43,18.86-9.37,19.63-3.82Z"/>
    </g>
  </g>
  <g id="Tren_inferior" data-name="Tren inferior">
    <g id="PantoD">
      <path class="cls-17" d="M4208.52,1856.54c-1.3,10.04-15.58,212.21-19.05,213.78,0,0-44.58,120.34-44.58,120.34l-29.13,126.68,48.65,5.35c8.7.96,17.26,2.65,25.57,5.03,38.35,10.99,67.82,39.84,87.88,73.47l1.15-1.19c16.35-15.88,26.8-18.46,47.96-23.33l12.17-5.33c-12.8-17.34,8.29-409.37.93-446.71l-14.66-38.82c-1.49-6.86-4.57-30.5-10.65-51.85-5.37-18.87-18.37-34.66-35.63-44l-21.78-11.8c-20.66-11.19-39.84,56.67-48.84,78.37h0Z"/>
      <path class="cls-22" d="M4115.76,2317.35c13.13,1.84,28.92,3.41,44.1,4.81,33.93,4.86,67.66,18.18,89.94,44.08,9.76,11.35,17.64,24.21,28.06,34.96,6.19-141.79-100.92-77.15-104.34-193.97-.34-12.22,6.44-70.61-5.91-77.9-2.98,13.76-12.07,22.36-22.72,61.33-5.62,31.16-28.28,92.34-29.13,126.68Z"/>
      <g id="Bolsillo2">
        <path class="cls-36" d="M4249.57,1976.68c-.35-8.29-5.31-15.69-12.86-19.13-7.57-3.45-16.74-7.14-22.57-7.34-9.93-.35-18.85,5.92-22.94,14.97-5,11.08-7.82,24.7,1.78,32.91,0,0-5.51,27.93-5.32,68.45.04,7.86,1.82,15.68,5.19,22.78,7.91,16.65,17.05,26.49,25.02,29.65,6.42,2.84,12.77-1.63,14.34-8.48,3.29-14.41,18.91-96.54,17.36-133.82Z"/>
        <path class="cls-22" d="M4193.23,2095.61c6.69,20.51,14.7,26.42,30.4,24.05-3.39-26-29.01-73.6-33.61-97.21,0,0-2.17,15.36-2.3,36.59-.07,12.39,1.65,24.79,5.5,36.57Z"/>
        <path d="M4187.13,1989.3c5.86,5.62,11.4,11.7,18.61,15.55,3.51,1.98,7.27,3.35,11.15,4.4,3.79,1.03,8.23,2,11.81,2.86,3.07.45,6.13.91,9.19,1.4,2.66.46,6.54,1.1,9.17,1.63-2.65-.1-6.59-.41-9.29-.58-3.12-.25-6.23-.51-9.34-.82-8.04-1.58-16.48-2.95-23.62-7.27-7.28-4.16-12.59-10.68-17.68-17.16h0Z"/>
      </g>
    </g>
    <g id="MusloD">
      <path id="MusloD-2" data-name="MusloD" class="cls-17" d="M4261.03,1304.69s-59.74,398.63-54.4,525.31l18.73,101.52,13.2,4.56c11.75,12.02,17.92,28.45,16.89,45.22-1.37,22.46-8.72,49.42,7.25,52.45h0c26.29,4.99,52.39-9.51,62.05-34.47l16.58-53.32,7.28-219.75c5.43-109.83,43.46-153.41,97.23-249.33,7.56-13.49-.31-100.59,4.33-156.28,0,0-97.67-9.6-189.13-15.91Z"/>
      <path class="cls-22" d="M4298.14,1314.12c24.39,7.78,29.39,4.03,43.03,9.17-8.81,29.22-41.91,47.38-73.04,81.17,20.78-22.56,43.34-74.27,30-90.33Z"/>
      <path d="M4251.58,1419.9c23.9-23.17,49.57-56.01,49.63-90.73-.05-5.05-.75-10.08-1.88-15.05,1.57,4.85,2.47,9.9,2.86,15.02,1.42,35.47-24.62,69.07-50.61,90.77h0Z"/>
      <path class="cls-22" d="M4235.27,1492.4c-12.13,93.74-30.8,246.65-28.64,337.6,0,0,17.05,8.97,35.6,18.65,3.43-43.09,1.47-98.95,1.41-142.52-.11-80.75-7.48-220.63-8.37-213.73Z"/>
    </g>
    <g id="MusloI">
      <path class="cls-17" d="M4424.02,1317.91l223.5-15.7,5,54.12,1.69,16.96c.94,13.92,3.41,45.38,3.2,59.61,9.91,131,19.44,330.6,52.42,463.8,2.41,9.75-3.82,19.51-13.69,21.35h0c-43.05,8.02-77.59,40.64-87.41,83.32-29.2,127-111.32,67.85-144.56,51.57h0c-43.48-21.3-59.31-53.42-71.8-95.23-7.28-24.35-51.11-61.86-51.11-61.86,2.5-32.03,3.16-110.31,5.13-167.69,3.17-92.61,25.44-183.82,67.49-266.39,11.01-21.63-56.44-55.48-57.03-69,0,0-9.24-29.82,11.56-50.9,15.25-15.46,55.62-23.95,55.62-23.95Z"/>
      <path class="cls-22" d="M4651.96,1530.95c-13.28-60.63-41.94-117.09-84.39-162.37-13.36-14.25-26.6-24.7-40.22-48.09,21.37,27.14,97.21,72.02,128.19,71.65,1.54,26.09,2.33,55.98,4.83,83.41,3.96,43.48,6.91,84.36,7.41,122.58-5.32-20.28-10.67-43.67-15.82-67.17Z"/>
      <path class="cls-22" d="M4369.07,1577.83c-27.19,84.07-29.58,267.88-27.02,295.77,18.72,11.61,85.48,17.62,194.5,44.9-47.1-22.25-151.15-83.91-145.49-151.44,3.61-130.27,7.24-213.23,15.39-290.17-6.46,9.23-33.07,87.62-37.38,100.95Z"/>
      <path d="M4536.38,1330.09c.07-.05.14-.04.21,0,.5.29.9.68,1.32,1.05.87.78,3.29,3.09,4.17,3.94,27.53,26.42,61.97,45.21,99.07,54.15-37.83-6.33-73.32-25.74-99.44-53.78,0,0-2.61-2.8-2.61-2.8-.36-.4-1.56-1.7-1.96-2.08-.11-.11-.23-.22-.35-.32-.12-.07-.26-.25-.4-.16h0Z"/>
      <path d="M4633.04,1391.34c3.23,3.98,4.83,9.13,5.71,14.12.91,4.95.87,10.36.4,15.38-1.34,13.11-6.1,25.64-12.34,37.17.96-2.75,2.03-5.44,3.04-8.15,6.1-17.49,12.54-41.23,3.18-58.52h0Z"/>
      <path d="M4476.3,1335.09c-10.09,13.32-11.26,31.33-7.15,47.07,7.14,26.87,25.65,48.74,44.05,68.95-16.72-14.67-31.91-31.91-41.27-52.3-9.34-19.87-11.61-46.61,4.38-63.72h0Z"/>
      <path class="cls-22" d="M4509.22,1447.19c-65.86-24.69-66.12-83.24-32.91-112.09-19.14,16.63-8.14,75.8,32.91,112.09Z"/>
      <path class="cls-22" d="M4403.49,1362.06c-4.71,11.59-5.84,16.4-4.03,28.79,3.76,25.64,6.44,30.54,54.23,38.02-37.94-15.54-31.03-99.91-31.03-99.91,0,0-9.6,9.56-19.17,33.1Z"/>
      <path d="M4453.69,1428.86c-44.42-.03-70.09-26.59-50.64-70.09,4.92-10.91,11.84-20.78,19.61-29.82-7.1,9.48-13.58,19.52-18.18,30.44-18.08,43.31,6.19,66.65,49.21,69.47h0Z"/>
    </g>
    <g id="PantoI">
      <path class="cls-17" d="M4341.92,1895.85c.1-1.33,1.72-2.43,4.54-3.52,45.43-17.58,81.55-52.93,104.25-96.04,9.25-17.56,18.39-30.72,23.79-30.35l106.68-4.77c27.67,1.87,50.59,77.71,65.72,100.95,13.32,20.47,39.01,21.78,50.96,40.29,10.55,16.34,6.8,59.05,6.57,78.5-.47,39.4-.92,93.21-.72,122.04,0,.87-.42,1.66-1.14,2.16h0c-12.16,8.48-18.98,22.7-17.97,37.49,1.33,19.36,2.99,44.01,4.29,64.64,1.4,22.31,5.83,44.3,13.17,65.41h0c1.83,5.25,2.76,10.78,2.76,16.34v103.98c-3.23.83-11.29,5.06-24.95,8.17-12.67,1.6-25.84,6.36-39.56,2.33-12.75-3.74-23.44-8.58-32.58-9.98-19.67-3.01-23.87-1.21-30.66,11.25-21.11-9.54-24.77-43.27-74.72-64.71-20.95-8.99-47.42-14.59-92.01-17.79-27.17,23.11-35.65,33.29-76.03,51.54-11.81-67.47-8.07-179.13-6.92-247.21,2.5-66.09,9.15-159.54,14.55-230.71Z"/>
      <path class="cls-22" d="M4381.16,2346.9c-12.38,9.17-36.85,23.5-50.86,28.31-3.16-38-6.86-81.28-6.45-119.4.35-32.32,12.68-195.72,17.83-353.98,29.67,30.43,66.41,131.17,69.68,222.64,1.18,33.14,33.57,68.44,66.81,99.88,33.38,31.57,58.94,70.5,74.24,113.83,11.73,33.2,24.63,66.56,24.63,66.56,0,0-4.26-1.09-12.33-9.74-.43-.46-3.02-3.45-3.36-3.98-10.98-17.56-35.27-40.41-54.08-48.74-15.29-9.58-75.86-19.08-96.97-20.03-13.52,13.31-1.59,1.36-29.17,24.67Z"/>
      <g id="Bolsillo1">
        <path class="cls-36" d="M4601.01,2078.14c-.93-4.07-1.19-8.26-1.19-12.44,0-15.22,0-60.16,0-60.16-7.33-2.05-2-.89-11.09-4.96-.33-9.69,17.68-46.4,33.96-48.07,22.41-1.7,98.4-11.48,100.01,27.49,4.44,26.56.59,24.01-9.65,44.7,0,0,0,33.11,0,49.61,0,6.98-2.67,29.5-6.75,35.17-27.93,38.85-95.96,9.67-105.3-31.34Z"/>
        <path class="cls-22" d="M4599.82,2043.14c.25,11.2-.92,24.97,1.19,35,4.49,21.35,21.58,35.27,41.81,43.44,10.79,4.35,22.62,5.96,30.9,5.95-.32-.23-.65-.47-.97-.7-35.7-25.8-60.68-63.67-71.05-106.48-.63-2.62-1.26-5.09-1.89-7.38.33,7.08.06,24.8,0,30.17Z"/>
        <path d="M4588.73,2000.58c12.9,3.78,25.7,7.69,39.05,9.13,29.28,3.79,58.84,4.75,88.18,8.11-26.84-1.2-53.73-1.97-80.42-5.25-8.02-.99-16.06-2.12-23.87-4.25-7.8-2.11-15.38-4.92-22.93-7.75h0Z"/>
      </g>
    </g>
    <path class="cls-22" d="M4710.36,1906.85c-6.21,17.34-25.63,14.52-40.5,16.22-28.03-174.74-42.76-116.15-.43-301.37"/>
  </g>
  <path class="cls-13" d="M4416.37,647.21h-.83c.25-.08.54,0,.83,0Z"/>
  <path class="cls-13" d="M4727.32,660.9c-86.42-43.56-181.71-54.1-277.34-38.91-60.28,9.54-119.4,35.64-147.65,58-11.2,8.84-17.88,19.17-16.22,33.36.87,7.51,2.03,15.27,2.99,20.41-5.31,11.57-85.3,10.95-84.3,48.71-.87,7.92-2.36,16.43-3.98,24.19-3.69,17.63,9.04,32.11,19.66,46.63,9,12.32,17.63,26.92,15.64,35.51-22.15,95.96-41.65,204.86,17.42,379.73,5.14,5.93,9.79,14.77,1.29,29.91-5.68,11.45,7.55,12.94,19.87,16.35,45.51,18.38,132.68,11.41,159.31,12.2,48.04-1.78,77.41-.91,98.32-3.19,60.45-6.55,92.81-6.89,109.48-13.52,1.87-.75,3.19-2.49,3.49-4.48,6.26-45.47,10.83-90.36,13.82-130.35.04-.87.12-1.78.17-2.66.25-2.9.46-5.81.62-8.63,1.04-14.4,1.78-28.05,2.41-40.74,1.91-41.4,1.62-72.77-.58-86.5-27.17-153.17-27.63-201.38-32.86-223.49-.08-.29,0-.58.21-.75.25-.41.95-.5,1.37,0,16.14,21.2,43.52,42.19,84.92,49.78,12.24,2.28,25.72,3.36,40.49,2.86,2.95-.04,5.97-.21,9.04-.41,2.82-.21,8.3-1.08,15.1-2.9.08,0,.17,0,.25-.04,13.44-3.61,31.82-10.87,44.47-23.94,48.91-50.32-2.66-129.4-97.41-177.11ZM4585.81,741.8c-.91-.08-2.36-.83-3.98-1-1.78-.21-3.44-.75-4.52-.91-.17-.04-.33-.08-.46-.08-1-.12-2.03.08-2.99,0-2.7-.29-5.31-.75-7.97-1-2.49-.29-4.77-.79-6.97-1-2.49-.25-5.14-.83-6.97-1-7.51-.75-15.43-1.58-22.9-1.99-2.32-.12-4.69.12-6.97,0-1-.08-2.03.04-2.99,0-1.33-.08-2.7.04-3.98,0-1-.04-2.03,0-2.99,0-1.66,1.78-5.48.95-7.97,1-2.32,0-4.69.04-6.97,0-1.33-.04-2.7.08-3.98,0-2.7,1.91-7.47.87-10.95,1-3.07.08-7.55,1-9.46,1h-16.93c-6.8,0-16.14,1.58-23.4,1.99-.66.04-1.37-.04-1.99,0-1.33.04-2.7-.08-3.98,0-1,.04-2.03-.08-2.99,0-2.41.12-5.06.83-7.97,1-1,.04-2.03-.08-2.99,0-1.99.08-4.02-.12-5.97,0-2.28.08-5.73.87-8.96,1-2.99.08-6.02-.04-8.96,0-1.66,1.78-5.48.95-7.97,1-2.99,0-6.02-.04-8.96,0-1.66,1.78-5.48.95-7.97,1-14.23.17-29.79,4.11-43.1-1.24-9.83-3.94-15.72-11.04-19.62-20.66v-12.94c1.24-2.2,1.87-4.6,2.99-6.97,1.91-4.15,2.99-5.6,5.97-8.96,1.41-1.62,2.28-4.02,4.98-3.98.12-.29-.17-.75,0-1,1.2-2.12,3.57-2.12,4.98-2.99,1.62-1.08,3.36-1.95,4.98-2.99,3.03-1.99,5.64-4.23,8.96-5.97,1.29-.7,4.31-2.78,4.98-2.99.58-2.82,3.78-1.53,4.98-1.99,2.16-.91,5.23-2.78,7.97-3.98-1.08-2.9,3.82-2.99,5.97-2.99,1.95-1,3.98-1.99,5.97-2.99,2.07-1.12,4.07-4.19,6.97-1.99.33-.21.62-.83,1-1,1.53-.83,2.9-2.16,4.98-2.99,3.78-1.58,8.46-1.91,11.95-2.99,2.45-.79,4.98-2.16,7.97-2.99,3.28-.95,6.68-2.16,9.96-2.99,1.58-.41,3.32-.62,4.98-1,3.24-.79,6.68-1.29,9.96-1.99,2.03-.46,4.44-1.7,6.97-1.99,1.62-.21,3.32.12,4.98,0,5.73-1.66,10.75-2.99,16.93-3.98,1.62-.29,3.53-.87,4.98-1,.91-.12,2.03-.08,2.99,0,.46-1.37,1.91-.91,2.99-1,2.66-.29,5.27-.83,7.97-1,1.24-.08,2.7-.08,3.98,0,.46-1.33,1.87-.95,2.99-1,1.29-.08,2.66.12,3.98,0,5.27-.58,11.2-1.66,16.93-1.99,1.08-.08,2.49.29,2.99-1h53.77v1c1.29,0,2.66-.04,3.98,0,3.53.04,6.47.62,9.96,1,.62.04,1.33-.08,1.99,0,2.49.29,5.52.5,7.97,1,1.74.33,3.69.54,4.98,1.99h1c4.31-.12,2.74-1.04,7.97,1,3.19-1.53,9.29,1.08,12.94,1.99,3.82.29,8.46-.25,11.95,1.99,2.86.37,6.22,1.49,8.96,1.99,2.74.5,6.6-.25,8.96,1.99,2.49.25,4.9,1.53,6.97,1.99,1.45.29,2.57.62,3.98,1,1.33.33,2.57.58,3.98,1,1.12.29,2.12.75,2.99,1,4.07,1.12,7.01,3.07,9.96,3.98.71.21,3.15.08,5.97,1,1.62.54,3.65.54,4.98,1,3.36,1.12,6.64,2.78,9.96,3.98,2.78,1,4.56,1.99,6.97,2.99,1.16.46,2.82.46,3.98,1,2.41,1.08,4.48,1.62,6.97,2.99.37.21.66.83,1,1,3.65-.04,6.72,2.61,9.96,3.98,7.43,3.07,14.6,6.1,21.9,9.96,7.01,3.69,14.94,7.76,20.91,12.94,3.32.46,10.91,6.68,13.94,8.96,4.19,1.83,6.89,4.69,9.96,7.97,2.24.62,3.19,1.62,4.98,2.99,1.53,1.16,1.99,2.12,2.99,2.99.79.7,1.33,1.41,1.99,1.99.33.29.62.66,1,1,1.08,1,1.91,1.95,2.99,2.99,4.56,4.56,7.01,6.39,10.95,11.95.87,1.24,1.08,1.33,1.99,2.99.91,1.66,1.08.83,1.99,3.98.25,1,1.2,1.41,1.08,3.48-.08,1.54-.87,1.87-1.08,2.49-1.45,3.86-1.66,2.07-2.99,2.99-2.36,1.53-3.32,2.07-5.97,2.99-1.29.42-2.7.62-3.98,1-2.66.66-3.53.62-5.97,1-.46.04-1.37.83-2.99,1-1.95.17-4.02-.08-5.97,0-1.66,1.78-5.48.95-7.97,1h-2.99c-11.78.04-23.56-.46-34.85-1-.66-.04-1.37.04-1.99,0-1-.08-2.03.04-2.99,0-.66-.04-1.37,0-1.99,0-2.2-.12-8.42.79-8.96-1h-2.99c-1.33-.04-2.7,0-3.98,0-1.91-.04-4.9.66-5.97-1-6.02-.08-11.08-.5-16.93-1-1.87-.17-3.82-.79-4.69-.95-.08-.04-.21-.04-.29-.04-1.66-.17-3.36.12-4.98,0-1.83-.21-3.73-.87-4.98-1-1.33-.17-2.7.12-3.98,0-3.03-.33-5.97-.66-8.96-1-2.99-.33-6.02-.66-8.96-1-2.7-.33-5.31-.7-7.97-1-4.36-.54-8.71-1.45-12.94-1.99-9.96-1.24-20.16-1.41-29.87-3.98h-2.99c-2.78,0-6.02-.75-8.96-1-1-.08-2.03.08-2.99,0Z"/>
  <path class="cls-21" d="M4627.68,811.07c67.63-33.04,144.79-22.76,212.23,1.8-10.35,21.33-26.2,44.04-73.86,51.59-95.37,10.12-130.11-44.76-138.37-53.39Z"/>
  <path class="cls-21" d="M4230.26,910.36c10.07,88.59-2.42,236.83,35.22,318.42,31.85,57.51,227.29,66.58,281.08,73.85-43.66,2.14-206.64-3.57-250.01-9.9-3.38-1.32-35.43-8.05-37.09-11.75-10.46-18.7-25.64-49.75-29.6-70.99-15.92-85.49-25.56-171.97.41-299.63Z"/>
  <path class="cls-21" d="M4336.22,809.44c-.06-.22-15.91-3-42.8-38.34,56.73,13.13,110.52,80.8,99.27,117.7,0,0-2.1-16.1-14.65-22.35-40.07-18.57-68.97-64.06-95.26-98.01,16.5,19.5,20.38,4.76,53.44,41.01Z"/>
  <path class="cls-21" d="M4480.63,807.12c.06-.22,15.91-3,42.8-38.34-56.73,13.13-110.52,80.8-99.27,117.7,0,0,2.1-16.1,14.65-22.35,40.07-18.57,68.97-64.06,95.26-98.01-16.5,19.5-20.38,4.76-53.44,41.01Z"/>
  <path d="M4282.38,741.44c-3.89,6.66-6.78,16.12-.71,22.35,2.36,2.37,6.68,5.56,9.34,7.77,22.41,17.61,45.36,35.03,65.66,55.1,15.47,15.61,37.03,38.84,36.01,62.15.03-38.17-65.07-85.01-93.01-108.48-3.05-2.49-11.25-9.21-14.17-11.7,0,0-2.33-1.99-2.33-1.99-8.62-6.61-6.07-17.29-.79-25.19h0Z"/>
  <path d="M4536.63,737.39c5.4,8.12,7.83,18.76-1.08,25.44,0,0-2.36,2.02-2.36,2.02-2.94,2.5-11.26,9.31-14.37,11.85-28.02,23.53-94.65,71.64-94.65,109.79-.12-2.07-.05-4.14.18-6.21,5.42-37.92,64.29-81.41,93.48-104.81,3.16-2.46,11.58-9.06,14.61-11.52,0,0,2.4-1.96,2.4-1.96,8.81-6.29,6.56-16.41,1.79-24.6h0Z"/>
  <path class="cls-21" d="M4527.72,855.09c-1.11,1.79,31.48-37.64,62.78-48.28-43.28,1.86-80.99,39.47-73.76,67.84,16.77-25.27,47.19-38.46,83.07-57.69-9.05,2.67-58.75,16.58-72.09,38.13Z"/>
  <path class="cls-21" d="M4627.68,811.07c67.63-33.04,144.79-22.76,212.23,1.8-8.42,21.57-26.2,44.04-73.86,51.59l-138.37-53.39Z"/>
  <path d="M4527.05,855.09c27.34-31.66,73.31-62.49,116.41-61.77-43.18,2.31-86.66,31.85-116.41,61.77h0Z"/>
  <path class="cls-21" d="M4521.17,751.1l-111.93,87.57.26-1.59c13.66-27.2,66.93-64,107.94-85.51l3.73-.47Z"/>
  <path class="cls-21" d="M4301.45,751.58l108.2,87.09-.26-1.59c-27.74-36.21-66.93-64-107.94-85.51h0Z"/>
  <path class="cls-21" d="M4597.23,951.65l-1.89,140.8c.06,12.3-1.28,24.56-4,36.56l-18.99,86.5,47.11-102.15-12.33-69.58-4.39-24.78-5.51-67.35Z"/>
  <g id="BrazoD">
    <path id="BrazoD-2" data-name="BrazoD" class="cls-13" d="M3969.7,1144.22c6.42-5.69,86.08,195.91,195.28,59.27,57.22-75.18,52.53-196.87,63.54-266.6,2.19-21.89,9.78-49.56,14.78-70.3,19.52-33.09,25.66-81.89,15.13-120.77-114.89,18.31-116.73,117.5-151.15,198.11-24.29,56.87-105.11,97.09-108.53,103.54"/>
    <path class="cls-21" d="M4258.42,745.83c-.06-.22-19.99,4.06-19.99,4.06-31.6,7.68-63.11,34.39-71.23,45.78-48.24,67.63-38.96,128.71-76.45,175.58,33.66,9.57,61.66-58.95,80.23-112.39,10.64-30.62,29.63-57.65,54.7-78.21,12.14-9.96,35.42-27.61,32.74-34.82Z"/>
  </g>
  <g id="AntebrazoD">
    <path id="AntebrazoD-2" data-name="AntebrazoD" class="cls-13" d="M4142.95,939.41s-45.55,128.82-43.65,123.08c28.53-86.06-62.66-168.74-102.62-176.49-8.33-4.11-11.72-17.8-20.98-17.08-29.89,2.33-68.19,41.1-78.23,47.56-18.3,11.77.21,23.45,1.33,29.78-29.5,32.09,4.91,93.09,16.47,125.55,21,76.68,127.41,242.79,215.88,176.61,3.46-2.59,7.08-5.36,10.34-8.84,106.81-113.9,76.79-259.78,79.69-263.17"/>
    <path class="cls-21" d="M3996.68,886.01c57.79,41.68,100.3,108.46,101.7,180.85,0,0,16.33-67.49-12-103.18-24.38-35.43-50.16-68.72-89.7-77.67Z"/>
    <path class="cls-21" d="M3909.15,939.41c-34.48,12.9-27.08,70.36-6.34,101.1,7.66,26.34,25.61,72.72,38.7,97.06,0,0,41.97,61.41,41.97,61.41-23.4-65.76-91.71-187.43-74.33-259.56Z"/>
    <path class="cls-21" d="M3993.19,1209.45c139.35,82.95,178.33-24.09,228-134.77-9.91,50.46-21.41,77.58-44.56,116.41-18.7,33.76-42.58,68.4-87.92,72.91-53.34,1.82-73.31-26.28-95.52-54.56Z"/>
    <g>
      <path d="M3898.98,945.54l1.37-1.02c29.92-22.36,61.82-41.93,95.29-58.49h0"/>
      <path d="M3898.98,945.54c29.06-24.39,61.78-44.59,96.66-59.52-14.48,8.35-34.95,20.09-48.92,28.8-14.07,8.54-33.79,21.57-47.74,30.72h0Z"/>
    </g>
  </g>
  <g id="BrazoI">
    <path id="BraziI" class="cls-13" d="M4646.06,1035.01c-11.56,35.67-30.14,97.53-36.37,106.38-9.72,13.79-26.66,43.98-49.76,108.14-12.7,35.26-22.86,50.69-7.41,68.42-.32,8.17-16.29,16.22-9.07,20.04h0c17.44,16.85,37.32,30.97,58.96,41.91l9.53,3.75c7.6,2.99,16.17,2.03,22.98-2.48,5.06-3.35,9.51-7.01,13.34-8.92,52.26,11,134.23-101.21,153.68-175.83,1.46-5.59,2.56-10.96,3.28-16.06.47-3.32-11.32-67.41-18.53-110.46-2.08-12.43-10.74-23.22-22.89-26.56"/>
    <path class="cls-21" d="M4800.06,1203.23c-17.54,54.58-50.27,114.57-111.52,159.6-11.71,8.61-26.66,12.39-40.79,8.96-4.98-1.21-9.82-3.14-14.34-5.79-10.06-5.9-29.36-13.17-40-18.37-42.22-40.46-78.93-18.41-21.21-130.58-8.55,16.61,4.42,31.24,1.02,49.27-3.17,23.32,18.63,34.45,37.61,45.86,75.9,45.6,114.93-12.34,144.35-43.35,4.43-4.57,38.89-63.46,44.88-65.6Z"/>
    <path d="M4543.21,1304.88l2.43,3.67c3.87,6.21,8.91,11.56,14.79,15.92,11.45,8.93,23.18,18.12,35.72,25.37,20.17,11.77,42.28,20.54,65.73,22.67-11.73-.4-23.45-2.47-34.65-6.18-22.37-7.55-42.78-20.17-60.83-35.23-4.51-3.79-9.27-7.29-13.29-11.63-4.06-4.32-7.05-9.44-9.9-14.58h0Z"/>
  </g>
  <g id="AntebrazoI">
    <path id="AntebrazoI-2" data-name="AntebrazoI" class="cls-13" d="M4694.53,1204.02c0-1.84-4.69-7.07-11.35-13.74-26.55-26.58-47.92-57.91-62.99-92.32-1.22-2.79-2.14-4.89-2.61-5.96-24-55.34-17.59-153.07-24.25-200,0,0,34.65-81.35,34.65-81.35,126.29,2.4,150.17,3.27,165.32,110.59,5.49,80.56,17.4,134.39,22.34,247.14.16,3.68-4.5,39.56-36.73,63.83l-84.37-28.18Z"/>
    <path class="cls-21" d="M4652.16,820.47c3.59,1.46,7.24,3.09,10.92,4.88,54.85,26.68,94.01,77.55,108.17,136.88,15.59,65.34,36.44,154.3,43.05,179.65-4.46-55.96-13.35-157.23-19.58-212.98-9.1-72.27-19.77-139-166.73-118.26l24.17,9.82Z"/>
    <g>
      <path class="cls-21" d="M4694.53,1204.02c-79.19-44.69-93.9-156.17-97.9-244.79l97.9,244.79Z"/>
      <path d="M4596.63,959.23c6.59,33.51,7.86,67.87,14.79,101.34,8.65,44.23,24.94,88.84,57.11,121.46,7.9,8.16,16.68,15.45,26,21.99-9.58-6.17-18.52-13.34-26.7-21.3-41.5-40.61-56.73-99.67-63.4-155.62-2.91-22.6-3.95-45.4-7.81-67.87h0Z"/>
    </g>
  </g>
  <g id="Serpiente">
    <path class="cls-10" d="M4335.05,1148.52c-23.36-25.28-29.59-54.91-8.93-85.28,16.77-24.65,37.92-21.76,59.49-34.28,23.5-13.65-.44-45.94-5.5-64.36-12.87-46.93,58.44-79.63,82.05-27.95,8.59,18.8,3.99,21.59-.55,38.47-9.3,34.52-5.22,62.5-38.91,84.93-14.85,9.89-42.42,15.2-52.7,24.24-11.5,10.12-7.41,29.15,9.82,26.7,32.6-4.64,46.26-61.31,85.8-65.74,4.51-.51,19.94,1.57,20.8.98,1.65.42,6.18,2.13,11.01,4.16,10.45,4.38,19.53,11.64,25.8,21.07,1.15,1.73,2.09,3.34,2.66,4.64,13.11,35.83,10.44,68.57-44.43,92-15.71,6.71-50.28,7.2-55.68,27.28-1.12,4.17.62,11.57,3.66,14.48,1.68,1.61,5.21,3.06,6.88,3.85,5.09,2.42,10.85,2.9,15.94,6.95,9.69,7.72,6.95,26.85-1.53,35.81-6.22-13-4.67-11.13-5.29-13.55-.83-3.25-3.66-5.64-7-6-7.22-.78-17.82.76-23.7-2.78-3.38-2.03-14.18-12.67-16.5-15.96-11.79-16.74-6.92-38.48,4.13-54.02,4.21-2.02,10.21-10.26,14.53-13.72,5.34-4.28,16.55-11.17,22.74-13.93,14.1-6.29,24.75-5.56,37.27-16.83,7.41-6.67,17.05-20.5,6.64-28.88-15.7-12.63-34.29,22.45-42.74,31.85-10.52,11.71-27.85,26.18-42.43,32.11-20.92,8.5-44.6,6.28-63.34-6.23ZM4446.03,980.57c2.73-3.32,9.18-6.79,12.17-11.27,9.8-14.7-1.02-38.81-14.55-47.81-28.92-19.25-63.69,7.44-59.21,39.97,1.42,10.29,11.09,14.41,16.74,21.73,3.11,4.03,2.6,10.28,10.3,11.39,5.55.8,8.29-2.2,12.05-2.33,4.26-.16,6.17,3.89,12.57,1.84,6.46-2.07,6.74-9.66,9.93-13.52ZM4437.24,999.44c-1.61.58-10.53-.82-8.41,4.2,2.41,5.71,8.57-1.31,9.61-1.79,1.08-.5,3.17-.06,5.23-1.35,6.55-4.09,11.65-13.96,12.79-21.5-9.19,3.53-9.9,17.08-19.22,20.44ZM4404.78,999.44c4.25,3.35,12.07,9.64,10.83,0-3.27.89-6.95-1.19-9.62-1.21-5.93-5.5-7.57-13.51-14.42-18.03,2.16,7.98,6.84,14.21,13.21,19.23ZM4425.22,1027.69v-30.66c-9.28-1.67-5.38,9.78-6.03,16.22-1.11,11.12-7.53,19.07-10.84,24.04,6.05-4.19,6.75-4.19,7.2-4.58,5.27-4.6,3.45,3.09,4.25,7.59M4439.65,1034.3c4.75-4.03,8.04-12.77,9.55-18.72,1.06-4.2-4.67,1.36-4.73-1.71,5-1.48,7.15-9.57,7.19-14.44-3.35,2.03-5.32,5.44-8.76,7.46-3.12,1.84-11.04,3.18-11.51,3.56-.61.49.02,1.91-.17,2.2-4.7,7.37-2.17,21.16-7.21,31.26-.82,1.65-9.02,7.19-9.62,7.21l-.6-10.81c-1.45,2.31-5.23,3.48-6.5,5.52-2.32,3.74.63,6.37-3.73,6.49-1.2-2.07-1.58-4.9-1.2-7.21.37-2.26,3.34-6.71,3.02-9.59-3.54,2.94-7.55,4.84-9.03,9.59-4.57-1.54,4-8.53,3.61-10.2-.4-1.68-4.79-.83-3.6-4.22,4.85,1.87,10.12,1.62,13.3-2.98,1.22-1.76.79-3.66,1.12-4.24.38-.68,2.1-1.16,3.01-3.58,4.61-12.3,1.25-8.68-6.64-11.43-2.34-.82-3.39-3.29-5.98-3.02-.62.7.54,9.7,0,12.02-4.65,19.71-37.73,23.57-53.26,32.7-9.38,5.51-11.97,9.05-17.67,17.8-10.69,16.39-13.42,28.33-8.42,48.09,2.17,8.57,8.69,22.98,18.03,25.25.16,4.42,3.62,4.52,6.01,6.01,11.94,7.43,22.53,8.02,36.07,6.01.39-.06.81.07,1.2,0,38.25-6.79,50-36.02,73.34-60.11,6.77-6.99,17.49-14.38,27.65-9.62,2.23,1.04,7.95,7.62,8.42,9.62.5,2.18.23,9.37,0,12.02-1.69,19.7-24.85,26.1-39.67,32.46-23.89,10.25-53.86,23.98-56.51,54.1-.13,1.51-.07,3.28,0,4.81.63,13.76,10.48,26.79,23.4,31.3,7.49,2.62,15.76,2.36,22.73,5.45,1.96.87,3.51,2.49,4.4,4.45l4.76,10.49c5.51-14.26,3.44-19.81-9.6-26.44-6.21-3.16-12.9-3.75-18.03-8.42-.48-2.07-1.76-5-3.61-6.01-2.27-6.28-1.39-12.32,1.74-18.1,1.69-3.11,12.33-14.03,15.09-15.57,13.82-7.7,36.01-6.78,52.9-15.63,3.23-1.69,3.31-2.61,4.81-3.61,4.4-2.91,7.35-1.93,9.62-8.42.73-.15,1.86.22,2.4,0,9.64-3.82,18.74-30.62,19.25-40.33.19-3.58-1.1-5.12-1.21-6.55-1.2-15.75-1.45-19.43-12.02-31.26-11.18-12.51-26.11-18.74-43.28-18.03-19.82.82-29.29,13.2-40.88,26.45-16.05,18.36-31.81,43.68-60.11,39.67-.66-.09-2.58-1.96-4.81-2.4l-4.81-4.81c-1.21-7.51-.84-11.11-1.2-18.01.3-.57.64-1.22.95-1.79,2.41-1.7,3.37-4.71,5.61-6.71,12.48-11.11,30.77-13.6,45.16-20.97,4.28-2.19,13-6.89,14.41-11.44,1.37-.42,2.21.14,4.23-1.13,2.16-1.36,11.35-11.03,11.4-13.29,0-.4.1-1.01,0-1.2Z"/>
    <path class="cls-11" d="M4446.03,980.57c-3.19,3.87-3.47,11.45-9.93,13.52-6.4,2.05-8.31-1.99-12.57-1.84-3.77.14-6.5,3.13-12.05,2.33-7.7-1.11-7.19-7.37-10.3-11.39-5.65-7.32-15.32-11.44-16.74-21.73-4.48-32.53,30.29-59.22,59.21-39.97,13.53,9,24.35,33.11,14.55,47.81-2.99,4.48-9.43,7.95-12.17,11.27ZM4444.45,968.19c19.55,1.05,10.14-41.45-3.62-21.06-4.76,7.06-5.57,24.44,4.82,25.85l-1.21-4.79ZM4432.42,954.96,4428.81,964.57,4418,982.63c-.44-.55-7.44-3.27-8.4-2.42-1.84,1.63,1.98,5.51,4.48,5.83,2.68.35,5.13-1.89,3.92-3.41Z"/>
    <path class="cls-34" d="M4351.88,1055.95v8.42c4.39.09,8.83-.14,13.22,0l1.2,4.81c-16.42-.86-16.55,10.94-8.42,21.64.37,6.91,0,10.51,1.2,18.03.24,1.48-.18,3.27,0,4.82,1.52.21,3.41-.29,4.82,0,2.23.45,4.15,2.31,4.81,2.4-1.47,5.53,2.12,4.48,2.4,4.81.16.19-.19,1.6.33,2.02,1.44,1.16,2.94.97,3.74,1.49,4.74,3.04-12.15,5.19-9.98,10.2.37.85,9.49,7.47,10.71,7.93l-1.2,4.81c-2.8.02-5.61-.01-8.42,0-3.64-1.06-7.01-2.87-10.82-3.61-1.54-.3-5.07.57-5.88-.13-.3-.26-.51-3.59-1.48-5.11-2.66-4.17-7.95-8.74-13.08-9.18l-13.22-13.22c-5-19.76-2.28-31.7,8.42-48.09.8.35,5.71,1.23,6.01,1.2-1.78,5.24-6.28,7.39-5.95,13.65.19,3.69,5.42,18.78,10.12,17.61.84-.21,9.82-11.87,10.2-13.88.62-3.34-1.12-15.97-2.58-18.98-1.08-2.23-3.21-1.8-3.37-2-.08-.1-.08-1.88,0-2.4.4-2.51,3.7-6.01,6.01-7.21.04.07.81,0,1.2,0ZM4323.04,1086.01c-.8,7.86.9,12.9,7.81,16.8l-4.82-8.39-3-8.41ZM4354.28,1108.84c.93-.87-2.06-3.78-2.37-5.43-.48-2.53,1.31-7.85-1.22-8.98-4.97,3.52-.93,18.61,3.59,14.41ZM4331.43,1117.26l-1.79-13.22c-3.36,3.4-2.44,11,1.79,13.22ZM4365.1,1125.7c-.14-.17-2.47-.39-3.64-1.73-1.79-2.05-1.79-4.72-3.06-6.6-2.15-3.16-17.39-13.21-19.73-10.93-1.39,12.76.57,21.91,14.98,22.89,1.61.11,14.65.07,11.46-3.63ZM4368.72,1140.12c-.52-.48-11.3-3.96-13.22-4.82.33,4.73,7.44,7.29,11.39,7.26,1.91-.02,3.24-1.14,1.83-2.44Z"/>
    <path class="cls-23" d="M4498.56,1067.97c2.02,7.03,1.26,13.44,2.66,18.38.87,3.08,7.42,8.1,8.79,11.73,6.69,1.26,6.31-18.8,4.51-22.61-.35-.75-4.39-4.61-5.14-5.09.52-1.72,1.85-2.39,3.61-2.4,10.57,11.83,10.82,15.51,12.02,31.26-1.91,3.92-4.58,7.95-6.01,12.02-1.52,4.32-2.49,8.62-2.4,13.22-.98-.25-2.49.17-3.61,0,.7-2.83.24-18.47-3.02-19.23-1.13-.26-16.1,13.65-16.84,15.61-1.73,4.59-2.25,11.85-4.18,16.85,7.61-1.75,18.02-5.57,22.84-12.02.09,1.19-.13,2.43,0,3.61-4.62,6.08-13,9.29-18.07,13.79-3.51,3.11-4.07,7.07-5.97,9.06-.61.64-3.61,1.77-4.81,2.4-1.1.13-3.03-1.24-3.61-1.2.87-1.07,1.5-2.64,2.4-3.61,2.51-2.65,7.51-7.41,4.65-11.87-.32-.49-9.92-2.6-11.34-2.61-6.71-.07-12.23,10.08-17.33,13.88,4.66,4.61,12.8,5.39,19.21,5.41l1.2,2.4c-3.61.36-9.58.02-13.22,0-3.27-.02-6.69-1.2-8.42-1.2,1.3-1.23.94-4.94-.26-5.77-.35-.25-7.73-2.58-8.16-2.64.71-3.97,5.74-4.15,4.81-9.62,14.82-6.36,37.99-12.76,39.67-32.46l4.79-3.6v7.2c8.49-1.4.53-9.71.27-12.81-.17-2.01,2.52-5.02,2.23-9.4-.39-5.85-3.48-9.88-9.7-9.03-1.73-1.47-.9-2.97-4.81-3.61-2.19-.36-4.98.32-7.21,0v-1.2c1.84-1.09,5.64-5.89,8.42-6.01,2.29-.1,8.49,2.5,12.02,1.2ZM4520.18,1095.61l1.21-9.6c-1.67.52-3.57,9.23-1.21,9.6ZM4514.2,1108.84c3.37-2.21,4.21-8.29,4.78-12.02-4.69,2.34-5.24,7.31-4.78,12.02Z"/>
    <path class="cls-15" d="M4410.79,1023.48c-.33.58.1,2.48-1.12,4.24-3.18,4.6-8.45,4.84-13.3,2.98-1.19,3.39,3.21,2.54,3.6,4.22.39,1.68-8.18,8.66-3.61,10.2h6.01c-.38,2.32,0,5.14,1.2,7.21-.39.01-.82.04-1.2,0-9.85-1.1-10.48-3.85-18.07,4.22-.95,1.01-.89,2.65-1.17,2.99-.21.26-6.88,1.02,0,2.4-.09.42.14.94,0,1.2-1.46.23-3.54-.33-4.81,0,1.83-2.87,2.97-15.74,3.61-16.83.14-.24,3.66.83,2.39-3.61-1.98-.11-2.18,3.47-2.39,3.61-1.09.71-13.35-3.66-21.58,1.86-3.33,2.24-5.09,7.8-8.48,7.75-.39,0-1.16.07-1.2,0-.26-.45.31-2.15,0-2.4-2.69-2.11-8.61,8.68-8.43,11.4l2.42-1.79c-.08.52-.08,2.3,0,2.4-2.26,2.61-5.15,3.33-8.42,3.61-.31.03-5.21-.85-6.01-1.2,5.7-8.75,8.29-12.28,17.67-17.8,15.54-9.13,48.62-12.99,53.26-32.7,1.99,2.89,6.29,4.81,9.62,6.01ZM4392.76,1037.92c-2.9-.14-7.47,1.17-7.21,4.79.86.85,6.86-3.25,7.21-4.79Z"/>
    <path class="cls-9" d="M4456.48,1093.22c-23.34,24.09-35.08,53.32-73.34,60.11-.24-2.38-3.06-3.94-1.2-6.01,7.82-1.02,8.52-5.66,13.22-6.01.06,0-.17,1.12.56,1.08,5.25-.29,6.76-4.39,7.86-8.29.3-1.06-.84-2.79,1.19-2.39,0,6.32,9.31-3.07,13.24-2.41-.31.94-2.48,2.7-.61,3.6,3.52-3.06,4.16-8.05,6.62-12.02.76-1.23,1.61-2.4,2.4-3.61,2.77-4.03,15.47-7.63,10.82-13.22,1.36-1.78,2.71-6.1,3.61-7.21,1.36-1.68,5.78-3.34,6.01-3.61l2.39,3.6c1.41-4.69.79-10.77,6.03-13.22.97,3.57.42,6.1,1.2,9.62Z"/>
    <path class="cls-23" d="M4421.61,1122.07c-1.16,1.39-3,5.38-3.61,7.21-3.93-.66-13.24,8.74-13.24,2.41-2.03-.39-.89,1.34-1.19,2.39l-8.42,7.21c-4.71.35-5.4,4.99-13.22,6.01-2.15.28-4.92-.01-7.21,0l1.2-4.81c6.55,2.51,15.83-2.38,19.13-7.99,2.02-3.43-.06-4.53.1-6.44,6.57.8,19.46-.85,22.84-7.21l3.61,1.2Z"/>
    <path class="cls-23" d="M4431.23,1078.79c-3.82,4.54-10.04,17.35-6.65,22.88,2.05,3.33,11.59-5.17,15.06-4.84h1.2c-.9,1.11-2.24,5.43-3.61,7.21-.34.44-.87.77-1.2,1.2-5.46.01-7.29,5.11-13.22,2.4.4-9.06-10.73-4.86-15.57-1.75-6.76,4.34-11.42,14.47-12.08,22.18-5.06-.61-8.2-5.21-11.62-5.64s-7.8,1.7-12.43-1.57c-.29-.33-3.87.72-2.4-4.81,28.3,4,44.06-21.32,60.11-39.67l2.4,2.4Z"/>
    <path class="cls-15" d="M4452.87,1137.7c.93,5.47-4.09,5.65-4.81,9.62-12.95-2.02-18.11,7.85-21.64,18.03-.93,2.67-2.35,3.4-2.4,3.61-18.31-.49-22.59,10.27-16.83,26.45-1.19.08-2.41-.05-3.61,0-.02-.4.04-.81,0-1.2-.11-1.18.08-2.42,0-3.6-3.93-.21-1.16,4.29-7.21,1.2,2.65-30.12,32.62-43.85,56.51-54.1Z"/>
    <path class="cls-9" d="M4424.02,1049.93c-1.41,4.56-10.13,9.25-14.41,11.44-14.39,7.37-32.68,9.85-45.16,20.97-2.51,2.24-3.41,5.75-6.56,7.27-.56-13.63-7.06-15.71,9.06-16.84,2.3-.16,4.83,1.33,4.17-2.39,1.2-.01,2.41.02,3.61,0l-.02,3.6c-.44-4.29,6.8-1.65,9.63-3.61.18-2.05-4.74-1.29-6-1.19,1.2-2.35,3.6-3.66,4.81-6.01.14-.26-.09-.78,0-1.2.08-.38-.06-.81,0-1.2,7.65-5.65,5.34-8.97,15.63-7.21,2.8,10,11.22-2.23,15.63-2.4.6-.02,3.75-.63,4.42-.7,1.62-.17,4.25-.21,5.2-.5Z"/>
    <path class="cls-9" d="M4401.18,1196.61c-.45,4.14-.99,8.39,2.4,10.82.25.18,1.69-.48,2.21.22.84,1.12-1.06,4.32,2.6,3.39.1,7.9,6.8,11.12,14.03,11.98,1.64.19,2.65-1.18,2.8-1.16,4.64.6,12.36,3.09,16.83,4.81,4.35,1.67,8.56,5.25,2.95,8.41-7.53-4.96-16.57-4.13-25.23-7.16-12.92-4.52-22.77-17.55-23.4-31.3h4.81Z"/>
    <path class="cls-25" d="M4490.14,1158.14c-16.89,8.85-39.08,7.93-52.9,15.63l-.94-.74.94-4.07c2.08-.47,6.94-3.05,9.88-3.95,4.5-1.37,9.26-2.16,12.64-3.68l5.13-4.4c3.64.02,9.62.36,13.22,0,4.56-.46,3.38-1.65,4.81-2.4,1.2-.63,4.2-1.77,4.81-2.4l2.4,6.01Z"/>
    <path class="cls-24" d="M4512.99,1067.97c-1.75.02-3.08.68-3.61,2.4-1.85-1.17-6.49-1.93-8.73-3.57-1.47-1.08-2.02-3.36-3.91-4.83-.47-.37-2.59-.64-1.03,1.12,1.8,2.04,1.99,1.91,2.85,4.88-3.53,1.3-9.73-1.3-12.02-1.2,1.86-2.38.9-2.91-.53-4.85-3.33-4.54-10.43-11.68-16.31-9.58v-2.4c17.18-.71,32.1,5.53,43.28,18.03Z"/>
    <path class="cls-30" d="M4419.77,998.91l5.45-1.87c0,3.23-2.35,41.3-5.42,43.28-1.32-3.04,1.02-12.19-4.25-7.59-.45.39-7.2,4.58-7.2,4.58,0,0,9.73-12.92,10.84-24.04.64-6.44-.88-7.81.58-14.34Z"/>
    <path class="cls-9" d="M4431.23,1012.66c.18-.29-.44-1.7.17-2.2.47-.38,8.38-1.73,11.51-3.56,3.44-2.02,5.4-5.44,8.76-7.46-.04,4.87-2.19,12.96-7.19,14.44.06,3.07,5.79-2.49,4.73,1.71-1.51,5.95-4.8,14.69-9.55,18.72-.15-.28-1.93-.77-2.41-1.74-2.34-4.65-2.58-5.22-1.2-10.29.35-1.29,2.56-2.42,2.29-4.04-.23-1.38-5.08-5.79-7.1-5.58Z"/>
    <path class="cls-25" d="M4476.92,1072.78c.13.58.64,1.12,1.2,1.2,2.24.32,5.03-.36,7.21,0l-1.2,9.62c-10.17-4.76-20.88,2.63-27.65,9.62-.78-3.51-.23-6.04-1.2-9.62-.18-.65.12-1.64,0-2.4,3.91-3.34,9.75-4.63,13.22-8.42,1.41.5,3.12,2.09,4.41,2.18,1.75.11,2.69-1.47,4-2.18Z"/>
    <path class="cls-11" d="M4469.7,1049.93v2.4c-2.17.78-10.47,7.72-12.02,9.62l-.66-1.17c-1.93,1.48-6.38,1.68-7.76,2.37-2.68,1.33-4.67,4.21-4.81,7.21-2.18-.53-3.07,2.13-3.61,2.4-3.47,1.76-6.31,2.08-9.62,6.01l-2.4-2.4c11.58-13.25,21.05-25.63,40.88-26.45Z"/>
    <path class="cls-9" d="M4506.97,1146.11c.34-2.93.49-7.27,1.52-9.9,1.28-3.26,3.77-2.6,3.29-6.93-.13-1.18.09-2.42,0-3.61.34-.46,1.17-1.07,1.2-1.2,1.12.17,2.63-.25,3.61,0,.18.05.81,1.74,2.4,1.2-1.16-4.73,2-10.82,0-14.42,1.43-4.07,4.11-8.1,6.01-12.02.11,1.43,1.4,2.97,1.21,6.55-.5,9.71-9.61,36.51-19.25,40.33Z"/>
    <path class="cls-9" d="M4437.24,1173.77c-2.76,1.54-13.4,12.46-15.09,15.57-3.13,5.77-4.01,11.81-1.74,18.1-1.03-.56-3.5-1.05-6.01-2.4v-13.22c4.85-4.16,7.11-7.35,8.42-13.22,1.46-1.97,2.88-3.3,4.81-4.81l.73,1.14c3.5-.11,6.87-2.51,7.68-5.95.03.05.9.07,1.2,0l-.94,4.07.94.74Z"/>
    <path class="cls-9" d="M4366.31,1147.32c5.16,1.51,11.97,2.39,15.63,6.01-13.53,2.01-24.13,1.42-36.07-6.01,2.69-3.32,10.68,1.48,9.62-3.61,3.81.74,7.18,2.54,10.82,3.61Z"/>
    <path class="cls-9" d="M4401.18,1017.47c.55-2.31-.61-11.32,0-12.02,2.59-.27,3.64,2.21,5.98,3.02,7.89,2.75,11.25-.87,6.64,11.43-.9,2.41-2.62,2.89-3.01,3.58-3.33-1.2-7.63-3.12-9.62-6.01Z"/>
    <path class="cls-15" d="M4436.04,1022.28c-6.27.31-2.22,7.97-2.4,10.82-.1,1.48-4.11,8.07-5.37,9.66-.8,1.01-3.4,3.87-4.25,1.16,5.04-10.1,2.51-23.88,7.21-31.26,2.02-.21,6.86,4.2,7.1,5.58.27,1.61-1.93,2.75-2.29,4.04Z"/>
    <path class="cls-9" d="M4321.83,1116.06l13.22,13.22c3.44,3.04,7.93,5.73,8.42,10.82v1.2c-1.12-.16-2.61.24-3.61,0-9.34-2.27-15.87-16.68-18.03-25.25Z"/>
    <path class="cls-16" d="M4408.39,1211.04c-.03-2.38.6-10.42,3.59-8.39.17.12-.79.65,2.42,2.38,2.51,1.35,4.98,1.84,6.01,2.4,1.85,1.01,3.13,3.94,3.61,6.01.02.09-1,.82-.86,1.6.41,2.33,1.84,4.42,2.06,6.81-.15-.02-1.16,1.35-2.8,1.16-7.23-.86-13.93-4.08-14.03-11.98ZM4410.8,1207.44c-.83,8.47,3.76,11.8,11.43,13.19-1.49-5.64-4.8-12.39-11.43-13.19Z"/>
    <path class="cls-9" d="M4490.14,1077.59c4.56,3.87,13.26,13.93,2.4,15.63-.46-2-6.18-8.57-8.42-9.62l1.2-9.62c3.91.64,3.08,2.14,4.81,3.61Z"/>
    <path class="cls-23" d="M4442.05,1221.86c13.04,6.63,15.12,12.18,9.6,26.44l-6.66-13.22c5.61-3.16,1.41-6.74-2.95-8.41v-4.81Z"/>
    <path class="cls-9" d="M4494.95,1154.53c-9.17,1.42-3.43-5.84-.02-9.04,1.17-1.1,10.06-7.44,10.84-6.58-.33,2.09-.54,5.34-1.2,7.21-2.27,6.48-5.22,5.5-9.62,8.42Z"/>
    <path class="cls-16" d="M4490.14,1077.59c6.21-.85,9.31,3.19,9.7,9.03.29,4.38-2.4,7.39-2.23,9.4.26,3.11,8.22,11.42-.25,12.81v-7.2s-4.81,3.6-4.81,3.6c.23-2.66.5-9.85,0-12.02,10.86-1.7,2.15-11.76-2.4-15.63Z"/>
    <path class="cls-16" d="M4438.45,1001.84l-1.2-2.4c9.32-3.35,10.03-16.91,19.22-20.44-1.14,7.54-6.24,17.41-12.79,21.5-2.06,1.29-4.16.84-5.23,1.35Z"/>
    <path class="cls-16" d="M4506.97,1146.11c-.54.22-1.67-.15-2.4,0,.65-1.87.86-5.12,1.2-7.21-.77-.86-9.67,5.48-10.84,6.58-3.41,3.2-9.15,10.46.02,9.04-1.5.99-1.58,1.91-4.81,3.61l-2.4-6.01c1.9-1.99,2.46-5.95,5.97-9.06,5.08-4.5,13.46-7.7,18.07-13.79.48,4.33-2.01,3.67-3.29,6.93-1.03,2.63-1.18,6.97-1.52,9.9Z"/>
    <path class="cls-12" d="M4439.65,1035.51c-.05,2.27-9.24,11.94-11.4,13.29-2.02,1.27-2.87.72-4.23,1.13-.95.29-8.75.89-9.62,1.2,3.5-2.07,8.79-5.56,9.62-7.21.85,2.71,3.46-.15,4.25-1.16,1.26-1.59,5.27-8.18,5.37-9.66l6.01,2.4Z"/>
    <path class="cls-12" d="M4442.05,1221.86v4.81c-4.47-1.72-12.19-4.21-16.83-4.81-.22-2.4-1.65-4.48-2.06-6.81-.14-.78.88-1.51.86-1.6,5.14,4.67,11.83,5.26,18.03,8.42Z"/>
    <path class="cls-12" d="M4414.4,1051.14c-4.41.18-12.82,12.4-15.63,2.4,1.61.27,3.07,1.39,4.81,1.19l-1.2-2.39c.38.04.81.01,1.2,0,4.36-.12,1.4-2.75,3.73-6.49,1.27-2.04,5.04-3.22,6.5-5.52l.6,10.81Z"/>
    <path class="cls-16" d="M4335.05,1129.28c5.13.44,10.42,5.01,13.08,9.18.97,1.53,1.18,4.86,1.48,5.11.81.7,4.34-.16,5.88.13,1.06,5.09-6.93.29-9.62,3.61-2.39-1.49-5.86-1.59-6.01-6.01,1,.24,2.48-.16,3.61,0,3.41.48,3.41-1.69,0-1.2-.48-5.09-4.97-7.78-8.42-10.82Z"/>
    <path class="cls-16" d="M4366.31,1069.17c.53.03,2.11,1.24,4.81,1.2.67,3.73-1.87,2.23-4.17,2.39-16.12,1.14-9.61,3.22-9.06,16.84.02.4-.02.8,0,1.2-8.14-10.7-8-22.5,8.42-21.64Z"/>
    <path class="cls-16" d="M4404.78,999.44c-6.38-5.02-11.06-11.25-13.21-19.23,6.85,4.51,8.49,12.52,14.42,18.03-.54,0-1.42.48-1.2,1.2Z"/>
    <path class="cls-9" d="M4437.24,999.44l1.2,2.4c-1.04.49-7.19,7.5-9.61,1.79-2.12-5.02,6.8-3.62,8.41-4.2Z"/>
    <path class="cls-9" d="M4405.98,998.24c2.68.03,6.36,2.11,9.62,1.21,1.25,9.63-6.57,3.34-10.83,0-.22-.72.66-1.21,1.2-1.2Z"/>
    <path class="cls-16" d="M4374.73,1147.32c2.29-.01,5.07.28,7.21,0-1.86,2.07.96,3.63,1.2,6.01-.39.07-.81-.06-1.2,0-3.66-3.62-10.47-4.5-15.63-6.01,2.8-.01,5.61.02,8.42,0Z"/>
    <path class="cls-12" d="M4402.38,1045.12h-6.01c1.47-4.75,5.49-6.66,9.03-9.59.32,2.88-2.65,7.33-3.02,9.59Z"/>
    <path class="cls-16" d="M4436.04,1022.28c-1.39,5.07-1.14,5.64,1.2,10.29.49.97,2.26,1.46,2.41,1.74.1.19,0,.8,0,1.2l-6.01-2.4c.19-2.85-3.86-10.51,2.4-10.82Z"/>
    <path class="cls-12" d="M4396.37,1191.8c6.05,3.09,3.28-1.41,7.21-1.2.09,1.18-.1,2.42,0,3.6-2.52-.42-2.2.52-2.4,2.4h-4.81c-.07-1.53-.13-3.3,0-4.81Z"/>
    <path class="cls-23" d="M4363.91,1113.65c-1.4-.28-3.29.21-4.82,0-.18-1.55.25-3.33,0-4.82l4.81,4.81Z"/>
    <path class="cls-1" d="M4444.45,968.19l1.21,4.79c-10.4-1.41-9.58-18.8-4.82-25.85,13.76-20.39,23.16,22.11,3.62,21.06Z"/>
    <path class="cls-1" d="M4404.93,968.19l-1.21,4.79c10.4-1.41,9.58-18.8,4.82-25.85-13.76-20.39-23.16,22.11-3.62,21.06Z"/>
    <path class="cls-14" d="M4418,982.63c1.21,1.52-1.24,3.75-3.92,3.41-2.5-.32-6.32-4.2-4.48-5.83.96-.85,7.96,1.87,8.4,2.42Z"/>
    <path class="cls-14" d="M4429.94,982.63c-1.21,1.52,1.24,3.75,3.92,3.41,2.5-.32,6.32-4.2,4.48-5.83-.96-.85-7.96,1.87-8.4,2.42Z"/>
    <path class="cls-25" d="M4427.98,966.76s-.22-11.99,4.43-11.6c.14,1.45-4.43,11.6-4.43,11.6Z"/>
    <path class="cls-25" d="M4422.09,966.76s.22-11.99-4.43-11.6c-.14,1.45,4.43,11.6,4.43,11.6Z"/>
    <path class="cls-16" d="M4336.25,1069.17c3.26-.28,6.16-1,8.42-3.61.16.2,2.28-.23,3.37,2,1.46,3.02,3.21,15.64,2.58,18.98-.37,2.01-9.36,13.68-10.2,13.88-4.7,1.17-9.93-13.91-10.12-17.61-.33-6.26,4.17-8.41,5.95-13.65ZM4344.66,1069.17c-.68-.84-9.95,7.2-10.56,9.26-1.6,5.39.44,22.1,7.47,14.69,6.6-6.96,4.21-15.38,3.09-23.95Z"/>
    <path class="cls-16" d="M4381.94,1046.33c.21-.14.42-3.72,2.39-3.61,1.27,4.44-2.25,3.37-2.39,3.61-.63,1.1-1.77,13.96-3.61,16.83-7.54,1.99-5.49,1.44-13.22,1.2-4.39-.13-8.84.1-13.23,0v-8.42c3.39.05,5.15-5.52,8.48-7.75,8.23-5.52,20.49-1.15,21.58-1.86ZM4379.53,1048.74c-10.24-1.05-20.96-.09-22.83,12.01,3.9-1.33,14.21,1.78,16.78.66,3.72-1.63,5.45-8.94,6.05-12.67Z"/>
    <path class="cls-16" d="M4365.1,1125.7c3.19,3.7-9.85,3.74-11.46,3.63-14.4-.98-16.37-10.13-14.98-22.89,2.34-2.28,17.58,7.76,19.73,10.93,1.27,1.88,1.27,4.55,3.06,6.6,1.18,1.35,3.5,1.57,3.64,1.73ZM4357.89,1125.66c-2.37-8.41-7.54-11.86-15.62-14.41-2.17,12.14,4.92,14.81,15.62,14.41Z"/>
    <path class="cls-16" d="M4395.16,1128.08c-.16,1.91,1.91,3.01-.1,6.44-3.3,5.61-12.58,10.5-19.13,7.99-1.22-.47-10.35-7.08-10.71-7.93-2.17-5.01,14.72-7.16,9.98-10.2-.8-.51-2.3-.32-3.74-1.49-.53-.43-.17-1.83-.33-2.02,4.63,3.27,8.92,1.13,12.43,1.57s6.56,5.03,11.62,5.64ZM4381.62,1127.08c-1.39.21-11.49,5.53-11.7,6.43-.47,1.98,9.62,7.72,11.41,7.72,3.2.01,8.71-5.67,11.4-7.74-2.32-2.69-7.36-6.97-11.11-6.41Z"/>
    <path class="cls-16" d="M4422.82,1107.64c-.03.7-4.34,12.35-4.81,13.22-3.38,6.36-16.27,8.01-22.84,7.21.66-7.71,5.32-17.84,12.08-22.18,4.84-3.11,15.97-7.32,15.57,1.75ZM4419.2,1106.45c-10.47-.38-17.91,8.11-19.22,18.02,12.68.66,15.93-7.65,19.22-18.02Z"/>
    <path class="cls-24" d="M4383.14,1063.16c-1.21,2.35-3.61,3.67-4.81,6.01-1.36.11-3.01,1.19-3.61,1.2-1.2.02-2.4-.01-3.61,0-2.69.03-4.28-1.17-4.81-1.2l-1.2-4.81c7.74.23,5.68.79,13.22-1.2,1.27-.33,3.35.23,4.81,0Z"/>
    <path class="cls-16" d="M4354.28,1108.84c-4.52,4.2-8.55-10.9-3.59-14.41,2.53,1.13.74,6.45,1.22,8.98.31,1.65,3.3,4.57,2.37,5.43Z"/>
    <path class="cls-25" d="M4368.72,1140.12c1.41,1.3.08,2.42-1.83,2.44-3.95.03-11.06-2.53-11.39-7.26,1.92.86,12.7,4.34,13.22,4.82Z"/>
    <path class="cls-9" d="M4323.04,1086.01l3,8.41,4.82,8.39c-6.92-3.9-8.61-8.94-7.81-16.8Z"/>
    <path class="cls-16" d="M4331.43,1117.26c-4.23-2.22-5.15-9.82-1.79-13.22l1.79,13.22Z"/>
    <path class="cls-25" d="M4344.67,1063.16l-2.42,1.79c-.18-2.72,5.74-13.51,8.43-11.4.32.25-.25,1.95,0,2.4-2.31,1.2-5.62,4.7-6.01,7.21Z"/>
    <path class="cls-16" d="M4512.99,1124.47c-.03.14-.86.75-1.2,1.2-4.81,6.45-15.23,10.27-22.84,12.02,1.93-5,2.45-12.26,4.18-16.85.74-1.96,15.71-15.87,16.84-15.61,3.27.76,3.73,16.41,3.02,19.23ZM4509.37,1111.25c-9.58,3.52-14.8,11.79-15.62,21.63,11.27-2.7,17.05-9.77,15.62-21.63Z"/>
    <path class="cls-16" d="M4486.54,1066.77c-2.78.12-6.58,4.92-8.42,6.01-.29.17-.89-.17-1.2,0-1.31.7-2.25,2.29-4,2.18-1.29-.08-3-1.68-4.41-2.18-2.43-.86-11.78-4.43-12.71-5.98-.51-.85,1.28-4.09,1.89-4.84,1.55-1.9,9.85-8.84,12.02-9.62,5.87-2.1,12.97,5.04,16.31,9.58,1.42,1.94,2.39,2.46.53,4.85ZM4461.35,1066.7c.34.49,9.76,3.74,11.29,3.64,2.29-.15,8.85-4.99,8.86-6.57.01-1.7-6.83-9.39-9.93-9.09-2.46.24-11.93,9.55-10.22,12.02Z"/>
    <path class="cls-16" d="M4448.06,1147.32c.42.07,7.81,2.4,8.16,2.64,1.2.84,1.56,4.54.26,5.77-3.8-.01-5.71,5.45-9.55,6.68-5.71,1.83-14.42,1.09-20.51,2.94,3.53-10.18,8.69-20.05,21.64-18.03ZM4431.23,1160.53c7.62-.04,18.35.93,21.63-7.78-8.19-6.59-17.84-.36-21.63,7.78Z"/>
    <path class="cls-16" d="M4498.56,1067.97c-.85-2.97-1.05-2.84-2.85-4.88-1.56-1.76.55-1.49,1.03-1.12,1.88,1.48,2.44,3.76,3.91,4.83,2.24,1.64,6.89,2.4,8.73,3.57.75.47,4.78,4.34,5.14,5.09,1.8,3.82,2.18,23.88-4.51,22.61-1.36-3.63-7.91-8.64-8.79-11.73-1.4-4.93-.64-11.34-2.66-18.38ZM4511.77,1094.41c2.69-11.16,3.24-18.23-8.39-22.84.23,8.3.02,18.36,8.39,22.84Z"/>
    <path class="cls-24" d="M4456.48,1155.73c1.72,0,5.15,1.19,8.42,1.2l-5.13,4.4c-3.38,1.52-8.15,2.31-12.64,3.68-2.94.9-7.79,3.47-9.88,3.95-.3.07-1.17.05-1.2,0-.23-.42.19-1.68-.01-2.4-1.76-.36-1.31,2.25-2.93,3.66-1.44,1.25-3.62,2.1-5.47,3.55-1.93,1.51-3.35,2.84-4.81,4.81.73-3.31.62-7.35,1.2-9.62.05-.21,1.48-.94,2.4-3.61,6.09-1.85,14.8-1.1,20.51-2.94,3.84-1.23,5.76-6.69,9.55-6.68Z"/>
    <path class="cls-16" d="M4476.92,1154.53c-6.42-.02-14.56-.8-19.21-5.41,5.1-3.8,10.62-13.95,17.33-13.88,1.42.01,11.03,2.12,11.34,2.61,2.86,4.45-2.14,9.21-4.65,11.87.39-.4,3.09-9.41,2.41-10.82-6.99-2.05-17.61,2.46-20.43,9.03-1,2.33,5.17,2.92,6.63,2.99,1.86.1,10.7-.49,11.4-1.2-.91.96-1.53,2.54-2.4,3.61-1.29.08-2.27,1.2-2.4,1.2Z"/>
    <path class="cls-25" d="M4514.2,1108.84c-.45-4.72.09-9.69,4.78-12.02-.57,3.73-1.41,9.81-4.78,12.02Z"/>
    <path class="cls-16" d="M4519,1111.25c2,3.6-1.17,9.69,0,14.42-1.58.54-2.22-1.15-2.4-1.2-.09-4.6.88-8.91,2.4-13.22Z"/>
    <path class="cls-25" d="M4520.18,1095.61c-2.37-.37-.47-9.08,1.21-9.6l-1.21,9.6Z"/>
    <path class="cls-24" d="M4479.32,1153.33c.57-.03,2.51,1.33,3.61,1.2-1.43.76-.25,1.94-4.81,2.4l-1.2-2.4c.13,0,1.12-1.12,2.4-1.2Z"/>
    <path class="cls-24" d="M4478.12,1073.98c-.57-.08-1.07-.62-1.2-1.2.31-.17.91.17,1.2,0v1.2Z"/>
    <path class="cls-16" d="M4402.38,1052.34l1.2,2.39c-1.73.2-3.2-.92-4.81-1.19-10.29-1.75-7.98,1.56-15.63,7.21v-1.2c.28-.34.21-1.98,1.17-2.99,7.59-8.08,8.21-5.33,18.07-4.22Z"/>
    <path class="cls-16" d="M4392.76,1037.92c-.34,1.54-6.35,5.64-7.21,4.79-.27-3.62,4.3-4.93,7.21-4.79Z"/>
    <path class="cls-24" d="M4383.14,1059.55v1.2c-.06.39.08.82,0,1.2-6.88-1.38-.21-2.15,0-2.4Z"/>
    <path class="cls-34" d="M4457.68,1061.96c-.61.75-2.4,3.99-1.89,4.84.93,1.56,10.29,5.12,12.71,5.98-3.47,3.78-9.31,5.07-13.22,8.42-4.4,3.76-6.06,9.29-8.42,12.02-.23.27-4.65,1.93-6.01,3.61h-1.2c4.51-7.21,2-16.16,1.2-24.05.53-.27,1.42-2.94,3.61-2.4-.34,7.43,6.46,6.13,12.02,6-1.57-2.72-7.28-1.38-9.09-4.79-1.67-3.14,2.43-4.98,1.88-8.43,1.38-.68,5.83-.89,7.76-2.37l.66,1.17Z"/>
    <path class="cls-15" d="M4436.04,1105.24c-3.02,3.97-6.92,7.96-9.62,12.02-.8,1.2-1.65,2.38-2.4,3.61-.63.46-2.02.74-2.4,1.2l-3.61-1.2c.46-.87,4.78-12.52,4.81-13.22,5.93,2.7,7.77-2.39,13.22-2.4Z"/>
    <path class="cls-16" d="M4437.24,1104.04c4.65,5.6-8.05,9.19-10.82,13.22,2.7-4.06,6.6-8.05,9.62-12.02.33-.43.86-.76,1.2-1.2Z"/>
    <path class="cls-16" d="M4395.16,1141.31l8.42-7.21c-1.09,3.9-2.61,8-7.86,8.29-.73.04-.5-1.08-.56-1.08Z"/>
    <path class="cls-16" d="M4455.28,1083.6c-5.23,2.45-4.62,8.52-6.03,13.22l-2.39-3.6c2.35-2.73,4.02-8.26,8.42-12.02.12.76-.18,1.75,0,2.4Z"/>
    <path class="cls-16" d="M4424.02,1120.87c-2.45,3.97-3.09,8.96-6.62,12.02-1.87-.91.3-2.66.61-3.6.6-1.84,2.44-5.82,3.61-7.21.39-.46,1.78-.74,2.4-1.2Z"/>
    <path class="cls-16" d="M4440.85,1072.78c.79,7.88,3.31,16.84-1.2,24.05-3.47-.32-13.02,8.18-15.06,4.84-3.4-5.53,2.83-18.33,6.65-22.88,3.3-3.93,6.15-4.25,9.62-6.01ZM4426.43,1099.22c11.54-4.28,13.54-9.62,12-21.63-7.51,4.93-11.3,12.84-12,21.63Z"/>
    <path class="cls-16" d="M4424.02,1168.96c-.58,2.27-.47,6.31-1.2,9.62-1.31,5.87-3.57,9.07-8.42,13.22-2.63,2.26-3.64,3.36-7.21,3.61-5.76-16.18-1.48-26.94,16.83-26.45ZM4419.2,1172.57c-10.61,1.08-15.65,8.61-9.01,18,5.72-5.27,10.65-9.27,9.01-18Z"/>
    <path class="cls-12" d="M4414.4,1205.02c-3.22-1.73-2.25-2.27-2.42-2.38-2.99-2.03-3.62,6.01-3.59,8.39-3.65.93-1.76-2.27-2.6-3.39-.53-.7-1.96-.04-2.21-.22-.13-3.99.18-8.04,0-12.02,1.2-.05,2.41.08,3.61,0,3.57-.24,4.58-1.35,7.21-3.61v13.22Z"/>
    <path class="cls-25" d="M4403.58,1194.2c.04.4-.02.8,0,1.2.18,3.98-.13,8.03,0,12.02-3.39-2.43-2.86-6.69-2.4-10.82.21-1.89-.11-2.83,2.4-2.4Z"/>
    <path class="cls-16" d="M4378.33,1069.17c1.26-.1,6.18-.87,6,1.19-2.82,1.96-10.07-.68-9.63,3.61l.02-3.6c.59,0,2.25-1.09,3.61-1.2Z"/>
    <path class="cls-16" d="M4449.27,1063.16c.55,3.45-3.55,5.29-1.88,8.43,1.81,3.4,7.52,2.07,9.09,4.79-5.56.13-12.35,1.44-12.02-6,.14-3,2.13-5.88,4.81-7.21Z"/>
    <path class="cls-25" d="M4436.04,1168.96c-.81,3.44-4.19,5.84-7.68,5.95l-.73-1.14c1.85-1.45,4.03-2.3,5.47-3.55,1.63-1.41,1.18-4.02,2.93-3.66.2.72-.22,1.98.01,2.4Z"/>
    <path class="cls-25" d="M4343.47,1140.1c3.41-.48,3.41,1.69,0,1.2v-1.2Z"/>
    <path class="cls-18" d="M4410.8,1207.44c6.62.8,9.94,7.55,11.43,13.19-7.67-1.39-12.26-4.72-11.43-13.19Z"/>
    <path class="cls-18" d="M4344.66,1069.17c1.13,8.57,3.52,16.99-3.09,23.95-7.03,7.41-9.07-9.29-7.47-14.69.61-2.06,9.88-10.1,10.56-9.26Z"/>
    <path class="cls-18" d="M4379.53,1048.74c-.61,3.72-2.34,11.03-6.05,12.67-2.57,1.13-12.87-1.98-16.78-.66,1.87-12.1,12.6-13.06,22.83-12.01Z"/>
    <path class="cls-18" d="M4357.89,1125.66c-10.7.4-17.78-2.27-15.62-14.41,8.07,2.56,13.25,6.01,15.62,14.41Z"/>
    <path class="cls-18" d="M4381.62,1127.08c3.75-.56,8.79,3.72,11.11,6.41-2.69,2.07-8.21,7.75-11.4,7.74-1.79,0-11.89-5.75-11.41-7.72.21-.89,10.32-6.22,11.7-6.43Z"/>
    <path class="cls-18" d="M4509.37,1111.25c1.43,11.86-4.35,18.92-15.62,21.63.82-9.84,6.04-18.11,15.62-21.63Z"/>
    <path class="cls-18" d="M4461.35,1066.7c-1.7-2.47,7.77-11.78,10.22-12.02,3.1-.3,9.95,7.39,9.93,9.09-.01,1.58-6.57,6.42-8.86,6.57-1.53.1-10.96-3.15-11.29-3.64Z"/>
    <path class="cls-18" d="M4431.23,1160.53c3.79-8.15,13.44-14.38,21.63-7.78-3.29,8.71-14.01,7.74-21.63,7.78Z"/>
    <path class="cls-18" d="M4511.77,1094.41c-8.37-4.48-8.16-14.54-8.39-22.84,11.63,4.61,11.08,11.68,8.39,22.84Z"/>
    <path class="cls-18" d="M4481.73,1149.72c-.7.72-9.53,1.3-11.4,1.2-1.46-.08-7.63-.66-6.63-2.99,2.83-6.57,13.45-11.09,20.43-9.03.68,1.41-2.02,10.42-2.41,10.82Z"/>
    <path class="cls-18" d="M4419.2,1106.45c-3.3,10.37-6.54,18.68-19.22,18.02,1.31-9.91,8.75-18.4,19.22-18.02Z"/>
    <path class="cls-18" d="M4426.43,1099.22c.71-8.79,4.49-16.71,12-21.63,1.54,12.02-.46,17.35-12,21.63Z"/>
    <path class="cls-18" d="M4419.2,1172.57c1.64,8.74-3.29,12.73-9.01,18-6.64-9.39-1.6-16.93,9.01-18Z"/>
    <path class="cls-30" d="M4418.74,997.03c2.21-.35,6.48,0,6.48,0,3.88,32.87-3.79,37.87-5.42,43.28"/>
  </g>
  <g id="Cuello">
    <path class="cls-29" d="M4415.6,785.6c44.51-26.47,85.57-46.83,96.57-55.04-4.89-.22-31.07-6.72-37.56-11.1-22.14-16.8-25.32-69.41-16.5-97.96l-99.57,48.01-4.46,43.42c-.84,8.14-5.33,15.46-12.22,19.89l-11.86,7.62"/>
    <path class="cls-28" d="M4528.01,746.93c-6.81.94-107.87,62.99-111.51,87.57-25.34-36.78-68.08-60.45-104.42-84.86l17.93-9.2c91.83,50.37,108.73,21.5,182.17-9.88,12.48,10.93,15.84,16.37,15.84,16.37Z"/>
    <path class="cls-37" d="M4455.82,630.77c-2.22,18.11-2.13,51,4.43,67.07,14.25,31.76,26.69,23.55,51.92,32.72-26,14.77-45.45,21.69-75.45,33.7-.03-13.79,13.92-16.12,3.34-57.91-3.6-14.22-30.9-49.78-30.9-49.78,0,0,26.88-12.92,46.66-25.81Z"/>
  </g>
  <g>
    <g id="Cara">
      <path class="cls-29" d="M4590.57,326.91s20-22.65-11.12-80.9c-31.45-58.87-142.42-50.57-158.23-49.78-107.74,3.28-301.11,25.39-272.07,128.03,9.83,31.94,28.05,154.83,34.68,197.35,19.62,72.89,70.4,137.74,148.98,157.57,70.9-9.46,144.58-62.77,186.03-94.42,44.47-34.52,62.11-92.76,53.06-147.15,10.74-.66,24.56-2.16,28.83-13.94,1.62-6.89,16.64-51.53,16.39-57.79,7.43-29.21-8.8-41.24-26.55-38.96ZM4258.31,290.19c8.71-.25,16.97,1.41,24.44,4.73,7.26,4.02,13.98,9.42,19.96,15.14,3.28,3.94,6.06,8.42,8.3,13.36-10,12.61-29.21,20.87-50.41,21.66-21.37.71-40.78-6.22-52.27-18.75,8.17-21.61,27.22-35.43,49.99-36.14Z"/>
      <g id="Sonrisa">
        <path class="cls-19" d="M4286.16,587.84c83.55-26.29,110.58-69.06,134-74.61,14.72-6.25,70.57-17.77,86.14-.09,3.95,4.49,19.1,28.32-24.24,62.33-31.03,29.97-171.77,58.39-195.91,12.36Z"/>
        <path class="cls-27" d="M4289.14,589.13s31.97-11.11,54.45-22.67c-14.57,13.14-42.17,39.13-54.45,22.67Z"/>
        <path class="cls-27" d="M4490.33,532.65c4.77-7.64,3.27-17.27-.82-25.32,16.5.64,33.84,16.95,17.45,37.13,5.35-6.59-6.79-13.13-16.62-11.8Z"/>
        <path class="cls-2" d="M4286.16,587.84c75.25-19.74,81.13-50.01,133.67-76.28,40.06-19.07,145.45-11.7,62.24,63.92-31.1,29.99-171.76,58.38-195.91,12.36Z"/>
        <path d="M4352.76,584.95c38.61-6.9,76.62-18.88,110.82-38.28,0,0,.24.26.24.26l14.28,15.5-.64.22,2.16-24.06v-.12s.11-.05.11-.05c2.87-1.45,5.71-2.97,8.49-4.6,2.67-1.71,5.75-3.17,7.66-5.77-1.86,2.65-4.91,4.18-7.55,5.95-2.75,1.69-5.56,3.27-8.41,4.79l.11-.17-1.84,24.09-.06.84-.58-.62-14.39-15.4.55.08c-8.52,4.87-17.3,9.3-26.29,13.24-26.97,11.82-55.6,19.63-84.67,24.08h0Z"/>
      </g>
      <path d="M4319.91,530.38c-8.91-4.15-12.01.03-18.16,5.8-2.59,2.38-5.41,4.54-8.45,6.34-3.05,1.78-6.27,3.52-9.83,3.84-13.87,1.23-29.25-7.49-33.82-20.93-4.33-12.3,3.39-32.29,17.25-34.55,10.79-1.91,20.6,4.46,31.01,5.66,3.83.44,6.76-1.62,7.62-5.4,0,0,.1.02.1.02-.77,3.96-3.73,6.14-7.74,5.84-10.38-1-20.2-7.09-30.81-5.15-13.15,2.07-20.77,21.66-16.68,33.32,4.38,13.16,19.45,21.77,33,20.66,3.52-.3,6.66-1.99,9.67-3.69,3.03-1.76,5.84-3.86,8.45-6.21,2.3-2.07,5.37-5.31,8.19-6.63,3.19-1.53,7.42-.56,10.18,1.07h0Z"/>
    </g>
    <g>
      <path d="M4315.31,322.93c-.71-1.62-1.45-3.19-2.28-4.73-10.87-20.74-31.49-32.98-54.85-32.15-24.89.79-45.59,16.1-54.14,39.91,0,.04-.04.08-.04.12l-.42,1.12.79.91c11.74,13.57,30.87,21.16,52.81,21.16,1.16,0,2.36,0,3.53-.04,22.98-.87,43.81-10.16,54.35-24.27l.71-.95-.46-1.08ZM4260.59,345.08c-21.37.71-40.78-6.22-52.27-18.75,8.17-21.61,27.22-35.43,49.99-36.14,8.71-.25,16.97,1.41,24.44,4.73,7.68,3.36,14.48,8.5,19.96,15.14,3.28,3.94,6.06,8.42,8.3,13.36-10,12.61-29.21,20.87-50.41,21.66Z"/>
      <path class="cls-20" d="M4315.48,324.09c-3.73-4.56-8.01-9.42-12.78-14.02-5.97-5.73-12.69-11.12-19.96-15.14-23.07-12.94-51.61-12.36-78.91,32.48.04-.46.12-.91.21-1.45,1.58-8.8,10.66-27.17,19.79-34.72-2.12.66-5.48,2.78-7.18,4.52,34.02-56.51,80.32-12.57,96.37,22.44.91,1.99,1.74,3.98,2.45,5.89Z"/>
    </g>
  </g>
  <g id="Cabello">
    <path class="cls-32" d="M4627.22,305.2c-35.1,15.78-82.64,22.56-118.2,5.05l15.43,42.49c-15.69-29.4-47.41-53.77-74.92-71.54,12.86,38.43,20.5,72.79,64.56,85.67-60.85,9.32-92.03-28.14-116.17-72.9-4.34-6.64-8.36-17.95-12.86-24.28,0,0-13.44-14.13-13.44-14.13,3.35,29.99,20.7,65.89,39.53,89.19-57.91-18.98-118.22-48.65-141.02-133.72-37.58,29.43-87.76,80.15-86.76,138.06-11.39-13.78-19.24-22.55-25.73-44.51-3.85-13.62-3.52-21.32-5.62-18.21-17.86,23.07-26.45,57.07-18.91,85.84-77.43-143.64-51.04-201.38,47.91-229.09-9.98-16.2-14.54-28.1-14.54-47.4,34.01,29.47,84.87-43.19,117.86-6.39,24.36-30.3,44.44-29.56,47.02-31.58,13.41-10.46,29.11-13.59,55.98-52.19,1.67,16.28.11,43.31-3.5,59.26,49.54-15.15,110.67-14.38,158.83,4.43-12.49,7.62-45.88,11.99-41.23,23.08,6.21,11.41,36.87,14.55,50.26,18.21,2.88.66,24.75,11.67,27.16,13.39l25.55,23.96,29.36,18.98c-13.43.27-36.07-4.79-48.77-9.15,13.42,11.75,36.14,34.46,52.77,41.16-7.74,3.02-18.69,1.04-26.38-1.26,13.39,8.82,24.44,30.55,28.11,45.87,10.28,15.82,23.44,35.81,39.93,46.94-22.67-3.31-51.31-22.71-69.03-36.37,10.94,22.01,27.87,46.2,53.8,61.83-9.62-1.47-28.14-6.69-37-10.67Z"/>
    <g id="Detalles">
      <path class="cls-38" d="M4294.06,188.89s-107.46,75.26-113.4,155.32c-15.06-72.09,47.86-136.07,113.4-155.32Z"/>
      <path class="cls-38" d="M4317.89,136.3c24.96,29.39,63.12,62.17,127.05,69.23-56.72-2.43-85.68,1.8-127.05-69.23Z"/>
      <path class="cls-38" d="M4424.27,89.7s8.22,9.48,62.9,45.27c18.79,12.3,60.65,10.31,75.01,8.49-56.71,22.89-110.59-12.6-137.91-53.76Z"/>
      <path class="cls-38" d="M4350.82,119.7c11.89-5.68,39.83-83.55,23.89-96.86q9.36-12.65,9.36-12.66s12.65,71.25-33.25,109.52Z"/>
      <path class="cls-38" d="M4094.34,217.42c18.34-32.21,38.93-56.95,99.01-62.34-5.08-2.87-9.63-6.73-12.69-11.74,0,0-73.1,10.85-86.32,74.08Z"/>
      <path class="cls-38" d="M4407.38,342.65c-29.7-25.3-45.67-64.24-37.03-102.91-.45,37.7,13.64,73.64,37.03,102.91Z"/>
      <path class="cls-38" d="M4507.17,366.44c-46.01-5.34-73.86-51.81-65.77-110.63,5.38,23.81,21.27,66.71,34.43,90.59,0,0,31.34,20.04,31.34,20.04Z"/>
      <path class="cls-38" d="M4130.46,367.21c-15.74-26.44-6.32-68.96,20.34-79.34-31,41.34-20.34,79.34-20.34,79.34Z"/>
      <path class="cls-38" d="M4167.84,99.87c2.84,20.44,31.4,21.06,44.53,9.98,21.01-14.28,46.48-19.44,71.47-20.97-39.14-34.88-80.97,35.73-116.01,10.99Z"/>
      <path class="cls-38" d="M4414.83,58.67c41.43-8.19,81.95-1.64,121.35,11.67-14.65,7.83-62.02-5.83-82.25-9.47,0,0-39.1-2.2-39.1-2.2Z"/>
      <path class="cls-38" d="M4518.17,175.85s49.17-1,69.68,75.68c-28.75-56.14-24.67-50.01-69.68-75.68Z"/>
      <path class="cls-38" d="M4580.85,156.35s43.83,43.04,54,41.77c-20.47-5.01-48.2-18.93-54-41.77Z"/>
      <path class="cls-38" d="M4576.68,125.1s45.18,39.09,54,41.77c-18.68-2.53-50.84-25.34-54-41.77Z"/>
      <path class="cls-38" d="M4504.19,314.45c2.76,8.35,7.1,16.07,12.82,22.76,0,0-14.58-47.3-19.87-52.24.82,9.08,4.13,20.65,7.05,29.48Z"/>
      <path class="cls-38" d="M4617.85,204.86c14.51,15.3,28.43,70.44,56.67,83.68-33.16-15.99-52.36-42.58-56.67-83.68Z"/>
      <path class="cls-38" d="M4601.48,230.45c-1.44,40.29,22.81,59.05,51.88,81.26-24.63-25.84-41.33-46.23-51.88-81.26Z"/>
    </g>
    <g id="Contorno">
      <path d="M4171.13,205.53c-25.11,40.25-25.08,87.77.29,127.89,3.42,5.43,7.18,10.71,11.48,15.45l-.55.28c-1.27-14.09,2.47-28.16,7.46-41.23,15.94-39.62,46.67-71.22,79.32-97.78,6.95,34.07,26.21,64.87,52.43,87.49,19.45,16.95,42.13,30.03,66.07,39.55,8,3.15,16.15,5.98,24.47,8.09l-.26.49c-10.49-10.89-18.61-23.88-25.13-37.47-10.8-22.72-16.2-47.86-16.46-72.98.5,35.1,11.4,70.22,32.29,98.56,3.2,4.29,6.61,8.46,10.42,12.2,0,0-1-.25-1-.25-65.67-17.54-129.35-65.22-143.64-134.68,0,0,.8.28.8.28-10.91,8.79-21.4,18.11-31.26,28.07-24.18,24.85-46.06,54.26-53.42,88.76-1.4,7.15-2.3,14.58-1.34,21.82-4.62-5.02-8.6-10.57-12.2-16.33-25.43-40.34-25.22-87.94.22-128.21h0Z"/>
      <path d="M4180.66,143.34c-44.15,9.18-81.88,32.54-88.78,80.28-7.12,52.49,18.83,111.62,45.34,155.95-27.09-43.7-53.58-103.78-46.25-156.08,7.18-47.95,45.08-71.61,89.68-80.14h0Z"/>
      <path d="M4437.73,247.52c2.66,5.61,4.69,11.48,6.62,17.37,5.69,17.68,10.46,35.74,17.86,52.8,9.43,22.42,25.53,44.98,51.23,48.72,0,0,2.78.45,2.78.45l-2.78.44c-34.94,6.3-64.83-3.35-87.71-30.87-15.9-18.69-26.27-41.06-39.11-61.76-4.33-6.86-9.1-13.51-15.01-19.12,5.97,5.53,10.83,12.15,15.24,18.97,25.78,41.66,45.6,91.13,102.24,93.59,8.09.28,16.18-.44,24.18-1.69v.9c-12.4-1.94-23.79-8.52-32.22-17.73-16.87-18.61-24.44-43.27-31.62-66.81-3.59-11.85-6.63-23.94-11.73-35.26h0Z"/>
      <path d="M4495.15,281.2c12.45,23.1,23.16,47.39,29.06,73.05-6.09-12.64-15.16-23.58-25.08-33.4-9.03-8.95-18.77-17.15-28.87-24.88-6.74-5.14-13.61-10.13-20.72-14.77,7.2,4.49,14.21,9.3,21.04,14.34,19.94,15.16,40.65,32.4,52.66,54.78,0,0-.88.32-.88.32-1.45-6.05-3.18-12.03-5.15-17.93-6.02-17.69-13.53-34.88-22.06-51.51h0Z"/>
      <path d="M4509.02,310.25c27.33,13.57,59.93,12.76,88.86,5.03,9.77-2.61,19.32-6.06,28.62-10.09-4.59,2.16-9.23,4.2-13.96,6.03-32.38,12.4-72.14,16.05-103.51-.98h0Z"/>
      <path d="M4542.82,259.19c22.11,1.46,40.92,19.59,59.05,30.93,14,9.31,29.06,17.21,45.29,21.74,5.4,1.49,10.88,2.65,16.41,3.53l-.29.89c-25.16-14.9-43.76-39.45-54.97-66.16-3.68-8.98-6.58-18.27-8.71-27.72,2.83,11.77,6.92,23.24,12.11,34.16,11.94,24.5,30.18,47.04,54.38,60.17-23.39-2.85-45.28-12.87-64.61-26.04-17.74-11.22-37.25-29.9-58.67-31.51h0Z"/>
      <path d="M4600.49,192.18c39.21,13.24,33.6,72.6,80.19,98.89-24.93-1.91-51.92-21.32-70.52-37.25,10.04,8.43,20.8,16.03,32.13,22.63,11.28,6.4,23.45,12.18,36.48,13.52,0,0-.27.85-.27.85-9.25-5.55-17.33-12.98-23.71-21.66-6.43-8.66-11.32-18.3-15.87-27.99-8.87-18.71-17.1-41.61-38.42-48.97h0Z"/>
      <path d="M4499.76,87.18c-.63,2.09.15,4.35,1.38,6.07,4.68,6.03,12.58,8.23,19.6,10.34,0,0,3.14.72,3.14.72,6.2,1.5,12.87,2.35,19.06,3.17,9.26.41,17.53,5.26,25.11,10.17,15.12,10.16,28.41,22.69,42.53,34.12,7.03,5.54,14.19,11.5,22.63,14.64,0,0,2.43.86,2.43.86l-2.56.08c-16.3.49-32.36-3.39-47.7-8.57,0,0,.38-.62.38-.62,11.8,11.45,23.91,22.7,37.14,32.49,4.44,3.11,8.98,6.44,14.2,8.04,0,0,.52.15.52.15l-.49.2c-8.09,3.08-17.15,1.62-25.04-1.34-1.13-.45-2.24-.95-3.36-1.42,6.64,2.93,13.93,4.76,21.22,4.07,2.4-.24,4.82-.7,7.01-1.64l.04.35c-2.69-.73-5.16-2.04-7.53-3.42-16.74-10.6-31.12-24.48-45.42-38.09,8.17,2.77,16.48,5.18,24.94,6.79,7.92,1.51,15.99,2.33,24.04,2.05l-.13.94c-4.38-1.53-8.33-3.94-12.07-6.54-22.22-15.64-40.39-37.12-64.94-49.32-4.11-1.86-8.49-3.28-13-3.44-6.36-.86-12.89-1.71-19.12-3.32,0,0-3.15-.77-3.15-.77l-3.09-.96c-6.03-1.98-12.56-4.43-16.48-9.69-1.21-1.74-1.97-4.03-1.31-6.11h0Z"/>
      <path d="M4383.13,64.83c25.76-8.42,53.02-12.4,80.12-10.97,27.55,1.29,54.62,7.51,80.9,15.61-.59.18-7.78,2.74-8.58,3.01-7.14,2.6-14.89,5.59-21.81,8.63-9.52,4.21-19.07,8.59-27.59,14.62,12.74-9.14,27.36-15.3,41.82-21.16,3.62-1.42,11.01-4.16,14.68-5.46,0,0,.01.79.01.79-12.95-3.9-26.05-7.33-39.31-9.95-39.74-8.33-81.41-7.32-120.25,4.89h0Z"/>
      <path d="M4383.13,64.83c-.09,0,0-.08.04-.1l.14-.07.3-.12c2.98-.98,6.19-1.76,9.23-2.5,9.92-2.4,19.95-4.28,30.04-5.84,20.14-2.88,40.81-5,61.07-1.9,5.88.98,11.78,2.53,17.06,5.37,0,0,2.32,1.01,2.32,1.01,6.21,2.69,12.71,4.76,19.32,6.22,6.61,1.49,13.37,2.48,20.17,2.58-6.8.07-13.6-.76-20.27-2.1-6.68-1.38-13.22-3.37-19.53-6,0,0-2.37-1-2.37-1-5.26-2.74-11.02-4.26-16.86-5.2-20.17-2.96-40.7-.92-60.81,1.76-10.09,1.42-20.13,3.2-30.1,5.32-3.05.67-6.28,1.37-9.28,2.28,0,0-.3.11-.3.11l-.15.06s-.13.08-.04.09h0Z"/>
      <path d="M4284.12,89.05c-20.68-22.72-51.31-2.55-73.57,7.05-11.88,5.03-26.24,11.63-38.79,5.04-2.4-1.31-4.53-3.08-6.33-5.11l.83-.31c.06,3.87.47,7.78,1.04,11.63,2.9,19.79,12.25,41.23,31.81,49.32,6.3,2.75,13.17,3.79,20.02,3.94-7.83-.02-15.79-1.29-22.85-4.81-21.94-10.8-30.05-37.21-30.96-60.09,0,0-.02-1.28-.02-1.28,3.58,4.4,8.68,7.61,14.36,8.24,31.07,3.53,75.57-45.77,104.48-13.63h0Z"/>
      <path d="M4277.79,98.83c25.26-47.53,78.28-35.28,108.98-96.27,3.95,37.23-.31,85.23-29.37,111.99-4.23,3.73-8.88,6.92-13.82,9.61,4.9-2.76,9.5-6.01,13.66-9.79,28.37-27.1,32.46-73.07,28.75-110.16,0,0,.91.16.91.16-8.42,16.44-21.01,30.68-36.54,40.72-25.9,17-57.18,24.08-72.58,53.73h0Z"/>
      <path d="M4277.79,178.97c24.93,18.38,52.6,35.07,83.77,39.36,31.13,4.35,62.24-3.59,91.84-12.7,0,0,.07.92.07.92-12.92-2.01-25.8-4.38-38.47-7.66-39.77-9.59-71.57-30.81-97.1-62.59,37.73,45.52,78.58,61.19,135.71,69.32,0,0,2.01.3,2.01.3l-1.94.61c-71.4,23.1-115.73,18.96-175.88-27.56h0Z"/>
      <path d="M4420.97,87.18c26.45,19.7,51.24,44.47,83.98,53.02,19.37,5.16,39.75,4.71,59.6,3.28,0,0,.7-.05.7-.05-.49,1.5-1.38,2.83-2.31,4.05-8.63,10.2-24.68,15.92-37.26,19.51-11.2,3.24-23.71,5.37-35.27,7.06,0,0-.15-.81-.15-.81,11.66-2.15,23.73-1.3,35.11,1.85,17.16,4.7,32.08,15.87,42.45,30.21,10.35,14.35,16.75,31.23,20.77,48.35-3.5-14.23-8.6-28.23-16.3-40.73-13.85-23.33-37.02-38.71-64.39-39.97-5.83-.27-11.75-.04-17.45,1.09l-.15-.81c3.65-.63,11.69-1.73,15.17-2.51,14.97-2.86,30.19-6.75,43.74-13.84,4.43-2.46,8.8-5.22,12.19-9.02,1.04-1.15,2.2-2.66,2.75-4.07,0,0,.46.57.46.57-18.3,1.33-36.94,1.53-54.99-2.25-8.11-1.89-16.17-4.62-23.71-8.17-2.57-1.27-5.24-2.75-7.79-4.07-20.58-12.04-38.43-28.11-57.18-42.7h0Z"/>
      <path d="M4588.59,253.64c-16.56-26.01-41.01-43.68-72.99-37.11-9.55,1.97-18.78,5.65-27.02,10.88,16.09-11.03,37.03-16.37,56.16-11.07,19.3,5.18,33.92,20.57,43.85,37.3h0Z"/>
      <path d="M4144.01,388.66c-6.56-6.34-10.62-14.91-12.87-23.67-4.44-17.85-.53-36.66,6.59-53.28,3.62-8.34,8.06-16.29,13.06-23.84-3.38,5.69-6.82,11.99-9.62,17.94-8.46,18.23-13.9,39.01-9.28,59,2.06,8.73,5.91,17.27,12.12,23.85h0Z"/>
    </g>
  </g>
  <g id="Mecho">
    <path class="cls-32" d="M4546.92,310.6l46.1-10.18c14.28,25.64,46.84,73.74,85.13,84.58-15.03,3.07-42.36,3.98-57.59,2.16,14.74,18.25,5.78,42.01,6.83,66.98-.63,22.32,4.2,53.39,11.42,74.51-12.87-9.17-25.38-24.02-33.16-37.72-4.11,20.77-14.31,43.5-24.62,61.87-6.6-79.1-14.54-157.28-77.03-178.04-18.66-16.65-75.83-81.68-83.04-105.62l125.95,41.47Z"/>
    <path class="cls-38" d="M4583.08,546.29l-1.17-14.34,23.62-41.89s-4.96,33.56-22.46,56.23Z"/>
    <path class="cls-38" d="M4627.28,417.42c-9.91,34.53-13.92,74.71,7.58,106.15-8.88-23.69-7.81-80.85-7.58-106.15Z"/>
    <path class="cls-38" d="M4621.41,344.87l-.06,11.11s22.28,39.78,58.1,28.57c-29.05-5.23-44.54-26.74-58.04-39.68Z"/>
    <path d="M4602.17,314.46c19.3,28.46,40.97,60.44,75.99,69.92,0,0,2.04.55,2.04.55l-2.07.42c-32.12,5.95-78.74,7.59-101.62-19.82,18.26,20.94,48.68,23.39,74.74,22.22,8.95-.52,17.9-1.59,26.67-3.37l-.02.96c-8.58-2.32-16.72-6.16-24.1-11.07-22.25-14.9-37.28-37.73-51.63-59.81h0Z"/>
    <path d="M4615.86,386.25c16.95,6.56,13.33,35.74,13.12,50.57-.82,18.39-1.88,36.92.41,55.23,1.58,12.58,4.68,25.05,10.27,36.46-14.36-6.78-25.01-20.2-32.45-33.88-1.62-3.02-3.68-7.32-4.92-10.46-.66-1.57-1.63-3.77-2.1-5.38-.33-.97-2.04-5.97-2.33-6.84-.25-.92-.86-3.24-1.11-4.19,0,0-1.49-5.58-1.49-5.58l-2.24-11.32,2.42,11.28c.74,2.6,2.03,7.16,2.75,9.7,1.35,3.66,2.93,8.6,4.58,12.12,7.14,16.87,19.44,34.69,36.09,43.16,0,0-.59.62-.59.62-10.75-22.49-11.83-48.02-10.93-72.51.41-12.31,1.51-24.58,1.48-36.87-.22-11.51-.69-26.91-12.98-32.11h0Z"/>
    <path d="M4497.74,374.62c8.85.2,17.29,3.91,24.62,8.66,22.22,15.01,34.4,40.5,42.66,65.23,10.78,33.62,14.79,68.99,16.31,104.13l-.76-.23c8.62-12.62,14.58-26.99,19.37-41.47,2.13-6.53,4.03-13.48,5.59-20.15-.61,2.72-1.18,5.46-1.83,8.17-1.32,5.23-2.85,11.01-4.6,16.11-4.49,13.23-10.02,26.2-17.85,37.84,0,0-.71,1.02-.71,1.02l-.06-1.26c-2.9-50.21-8.87-109.36-39.44-150.93-10.52-13.59-25.46-26.13-43.31-27.13h0Z"/>
  </g>
  <g id="Banda">
    <path id="Banda-2" data-name="Banda" class="cls-7" d="M4177.93,490.43l73.44,11.49c22.67-31.91,49.53,2.27,103.48.48,0,0,45.05-7.23,45.05-7.23,92.93-11.64,143.61-63.09,213.12-99.76,16.66-3.83,4.94-108.61,8.25-119.74,0-3.44-3.48-5.78-6.67-4.48l-55.94,27.21c-48.46,28.28-132.27,51.56-186.1,67.42-13.68,3.6-101.94,8.84-116.01,7.34l-95.61-13.46c-2.62-.28-11.69,4.07-7.62,24.65l13.6,93.96c.56,6.04,5.05,10.98,11.01,12.12Z"/>
    <g id="Detalles-2" data-name="Detalles">
      <path class="cls-13" d="M4244.84,372.78c-35.5-4.88-58.17-8-72.99-11.66-22.65-3.01-20.76,6.51-10.96,63.12,11.28,76.23-3.23,62.18,58.58,71.52,5.77.87,11.57,1.21,18.77,2.6,0,0-22.67-9.66-46.01-16.66-10.97-3.29-13.25-9.67-15.22-20.95-5.59-31.91-13.83-47.75-10.45-63.95,7.6,13.75,15.45,29.78,15.45,29.78-11.21-47.01,6.89-43.69,62.84-53.79Z"/>
      <path class="cls-13" d="M4250.71,500.34l-12.92-2.04c30.5-19,32.06-95.24,31.68-32.24.45,19.89,31.3,9.58,46.42,30.15-20.65-4.42-48.44-20.41-65.18,4.14Z"/>
      <path class="cls-13" d="M4327.35,372.07c33.63-1.54,65.28-10.05,113.62-25.16,14.29,10.9,43.62,21.33,69.18,18.32-27.7,11.47-51.62-5.93-76.81-.58-22.9,4.77-77.26,13.75-105.99,7.42Z"/>
      <path d="M4606.21,367.9c-13.03,19.96-34.15,35.07-55.46,45.2,2.65-1.43,5.28-2.89,7.85-4.46,17.96-10.79,35.1-23.77,47.61-40.74h0Z"/>
      <path d="M4309.68,389.84c-39.03,6.75-82.55-1.66-119.32-15.45,9.56,3.32,19.31,6.09,29.13,8.51,29.37,7.13,60.08,11.09,90.19,6.94h0Z"/>
      <path d="M4417.69,452.59c-3.66.6-7.32,1.35-11.01,1.77-1.36.13-5.24.51-6.67.65-2.55.26-6.33.19-8.93.29,0,0-4.47-.2-4.47-.2-2.59-.01-6.3-.59-8.91-.94,0,0-4.39-.94-4.39-.94-5.8-1.36-11.48-3.7-16.3-7.24,0,0-1.74-1.42-1.74-1.42l-1.61-1.56c-1-1.11-1.99-2.24-2.66-3.58,1.63,2.49,3.86,4.5,6.3,6.16,4.54,3.17,9.82,5.09,15.13,6.53.67.14,4.65.95,5.42,1.11,0,0,4.39.54,4.39.54,11.78,1.39,23.71.23,35.43-1.16h0Z"/>
      <path class="cls-13" d="M4351.22,439.61c20.97,6.96,44.14,10.53,66.1,13.04-21.83-.19-49.08,4.53-66.1-13.04Z"/>
      <path class="cls-13" d="M4609.88,396.03c4.25-2.42,7.08-3.33,9-13.59,2.09-13.5,1.7-21.86,1.7-45.7-11.83,53.15-27.82,52.71-64.04,90.65,4.74-2.89,23.1-14.64,38.3-23.57"/>
      <path class="cls-13" d="M4516.5,319.29l13.91-4.91c5.46,2.61,56.3,2.61,68.22-.98-8.2,6.8-49.74,14.9-67.32,11.81-.87-.15-1.72.34-1.91,1.21-3,13.38-.6,34.15-.6,34.15-.37-3.92-10.12-35.87-12.3-41.28Z"/>
      <path class="cls-13" d="M4419.8,489.81c30.95-1.86,92.5-31.79,113.68-48.02,0,0-39.33,11.3-46.33-38.04-6,46.01-32.17,67.34-58.17,63.34,13.34,6-9.18,22.71-9.18,22.71Z"/>
      <path class="cls-13" d="M4417.32,452.65c-21.83-.19-51.03,4.31-66.1-13.04,20.97,6.96,44.14,10.53,66.1,13.04"/>
    </g>
  </g>
</svg>