<?xml version="1.0" encoding="UTF-8"?>
<svg id="pPose2" xmlns="http://www.w3.org/2000/svg" viewBox="0 0 4844.84 2735.75">
  <defs>
    <style>
      .cls-1 {
        fill: #d1aa07;
      }

      .cls-2, .cls-3 {
        fill: none;
      }

      .cls-2, .cls-3, .cls-4, .cls-5, .cls-6, .cls-7, .cls-8 {
        stroke: #000;
        stroke-miterlimit: 10;
      }

      .cls-2, .cls-5, .cls-7 {
        stroke-width: .5px;
      }

      .cls-9, .cls-6, .cls-7, .cls-8 {
        fill: #ffd93a;
      }

      .cls-10 {
        fill: #0c5113;
      }

      .cls-11 {
        fill: #04160d;
      }

      .cls-12 {
        fill: #1a7b1d;
      }

      .cls-13 {
        fill: #19661b;
      }

      .cls-4, .cls-14 {
        fill: #601075;
      }

      .cls-15 {
        fill: #062410;
      }

      .cls-16 {
        fill: #1e781c;
      }

      .cls-17 {
        fill: #043010;
      }

      .cls-18 {
        fill: #004500;
      }

      .cls-19 {
        fill: #04581e;
      }

      .cls-20 {
        fill: #fff;
      }

      .cls-21 {
        fill: #600f74;
      }

      .cls-22 {
        fill: #2a023d;
      }

      .cls-23 {
        fill: #022100;
      }

      .cls-24 {
        fill: #1f7a1c;
      }

      .cls-25 {
        fill: #1a751c;
      }

      .cls-26 {
        fill: #0a4b12;
      }

      .cls-27 {
        fill: #ffd73a;
      }

      .cls-28 {
        fill: #999;
      }

      .cls-29 {
        fill: #004240;
      }

      .cls-30 {
        fill: #eda06b;
      }

      .cls-31 {
        fill: #a74535;
      }

      .cls-32 {
        fill: #079408;
      }

      .cls-33 {
        fill: #663612;
      }

      .cls-34 {
        fill: #a623b5;
      }

      .cls-35 {
        fill: #257c1d;
      }

      .cls-36 {
        fill: #f5b88d;
      }

      .cls-37 {
        fill: #005e00;
      }

      .cls-8 {
        stroke-width: .75px;
      }

      .cls-38 {
        fill: #bc7d51;
      }

      .cls-39 {
        fill: #c1682d;
      }
    </style>
  </defs>
  <g>
    <path class="cls-32" d="M4192.32,440.64c2.16-10.56,12.41-17.03,21.43-21.4,5.56-2.69,11.48-4.22,17.66-3.21,5.96.97,11.45,3.66,16.33,7.14,5.62,4.01,10.42,9.04,15.19,13.99,1.34,1.39,3.46-.73,2.12-2.12-8.91-9.25-18.66-19.11-31.78-21.71-6.49-1.29-12.74-.32-18.78,2.29-5.37,2.32-10.59,5.34-15.12,9.07-4.76,3.92-8.69,9.02-9.95,15.16-.39,1.88,2.51,2.69,2.89.8h0Z"/>
    <path class="cls-32" d="M4190.1,443.12c6.17,7.79,16.22,11.31,25.9,11.65,5.98.21,11.97-.7,17.79-2.01,5.21-1.17,10.44-2.53,15.44-4.42,5.27-2,10.28-4.73,14.22-8.82,1.34-1.39-.78-3.51-2.12-2.12-6.79,7.05-16.78,9.67-25.99,11.92-10.07,2.46-20.82,3.89-30.8.31-4.81-1.72-9.13-4.61-12.31-8.63-1.2-1.51-3.31.62-2.12,2.12h0Z"/>
    <path class="cls-32" d="M4259.6,435.87c-2.84,8.07-12.23,11.24-19.73,13.25-10.38,2.78-21.66,5.36-32.21,1.97-4.89-1.58-9.45-4.45-12.44-8.7-.93-1.32-3.25-.57-2.74,1.16,2.71,9.19,14.16,11.16,22.2,12.76,5.73,1.14,11.6,2.2,17.44,2.5,5.19.27,10.59-.31,15.2-2.87,4.34-2.41,7.94-6.54,8.7-11.56.19-1.27-1.47-2.8-2.51-1.46-4.95,6.36-11.95,10.8-19.73,12.81-8.33,2.15-16.86,1.16-24.63-2.46-5.01-2.33-9.63-5.41-14.22-8.47-1.51-1.01-2.84,1.13-1.82,2.36,6.13,7.35,16.61,8.48,25.53,9.19,10.49.83,21.55.2,30.85-5.22,4.49-2.62,8.37-6.27,10.94-10.81l-2.8-.76c-.47,7.3-7.29,11.79-13.49,14.13-7.26,2.74-15.56,5.11-23.31,3.27-1.88-.45-2.68,2.45-.8,2.89,8.64,2.06,18.07-.46,26.11-3.75,7.13-2.92,13.96-8.28,14.49-16.55.1-1.51-2.09-2.01-2.8-.76-4.38,7.76-12.68,12.22-21.2,13.91-5.14,1.02-10.43,1.1-15.65.79-4.63-.27-9.33-.69-13.85-1.78s-8.85-3.03-11.9-6.68l-1.82,2.36c8.3,5.54,16.93,11.07,27.06,12.25,8.38.98,17.1-1.01,24.37-5.24,4.15-2.41,7.84-5.58,10.79-9.37l-2.51-1.46c-.6,3.99-3.16,7.21-6.54,9.31-4.05,2.51-8.86,3.11-13.55,2.96-5.18-.16-10.35-1.07-15.44-2.02-4.46-.83-9.04-1.64-13.31-3.22-3.81-1.4-7.71-3.73-8.93-7.85l-2.74,1.16c6.23,8.88,17.35,12.18,27.78,11.76,6.27-.25,12.43-1.63,18.48-3.19,4.65-1.19,9.3-2.58,13.54-4.87,4.53-2.44,8.32-6.02,10.05-10.94.64-1.82-2.25-2.61-2.89-.8h0Z"/>
    <path class="cls-32" d="M4330.45,429.93c5.3-11.04,15.91-19.05,27.92-21.34,7.21-1.38,14.67-.19,21.83,1.02s14.37,2.98,20.76,6.53c6.59,3.67,12.05,9.11,15.81,15.64.96,1.67,3.56.16,2.59-1.51-3.51-6.09-8.43-11.31-14.31-15.16-6.5-4.25-14.06-6.53-21.63-7.96s-15.58-2.85-23.27-1.86c-6.42.83-12.62,3.18-17.99,6.8-6.08,4.09-11.12,9.7-14.3,16.32-.83,1.73,1.75,3.26,2.59,1.51h0Z"/>
    <path class="cls-32" d="M4329.56,437.66c20.96,12.85,48.79,15.82,71.49,5.76,6.06-2.68,11.68-6.55,15.81-11.78,1.19-1.5-.92-3.64-2.12-2.12-7.24,9.16-18.69,13.63-29.88,15.66-11.75,2.14-24.01,1.39-35.45-1.97-6.45-1.89-12.6-4.63-18.33-8.14-1.65-1.01-3.16,1.58-1.51,2.59h0Z"/>
    <path class="cls-32" d="M4331.35,434.29c1.76-14.77,14.59-25.65,27.88-30.44,15.85-5.7,34.82-4.4,48.66,5.63,6.99,5.07,12.48,12.28,15.05,20.55.57,1.84,3.47,1.05,2.89-.8-5.2-16.7-20.6-28.18-37.53-30.94s-35.36,1.78-48.04,13.54c-6.41,5.95-10.88,13.71-11.92,22.46-.23,1.91,2.77,1.9,3,0h0Z"/>
    <path class="cls-32" d="M4411.75,427.38c-.07,7.11-7.78,12.99-14.65,11.17-1.87-.49-2.67,2.4-.8,2.89,8.76,2.31,18.36-5,18.45-14.06.02-1.93-2.98-1.93-3,0h0Z"/>
    <path class="cls-32" d="M4395.61,442.13c7.9,3.36,17.56-.63,20.75-8.62.3-.75-.33-1.65-1.05-1.85-.85-.23-1.54.29-1.85,1.05-2.41,6.03-10.36,9.37-16.35,6.82-.74-.32-1.61-.22-2.05.54-.37.63-.21,1.73.54,2.05h0Z"/>
    <path class="cls-32" d="M4407.39,435.69c-1.13,1.57-.19,3.8,1.39,4.65,1.89,1.01,4.17.19,6.01-.53,3.64-1.42,6.94-3.57,9.68-6.36,1.36-1.38-.76-3.5-2.12-2.12-2.02,2.05-4.35,3.72-6.94,4.96-1.23.59-2.54,1.12-3.87,1.42-.43.1-1.12.21-1.47-.1-.06-.05-.16-.26-.16-.26.05.08-.02-.02-.01-.11-.02.13-.06.17.09-.03.47-.66.11-1.67-.54-2.05-.76-.44-1.58-.12-2.05.54h0Z"/>
    <path class="cls-32" d="M4417.19,431.64c-5.78,8.52-17.1,12.53-26.97,9.69-1.86-.53-2.65,2.36-.8,2.89,11.21,3.22,23.83-1.45,30.35-11.07,1.09-1.6-1.51-3.1-2.59-1.51h0Z"/>
    <path class="cls-32" d="M4392.21,438.56c-5.84,2.84-12.67,3.01-18.71.68-.76-.29-1.64.32-1.85,1.05-.24.84.3,1.56,1.05,1.85,6.8,2.62,14.49,2.19,21.02-.99,1.74-.84.22-3.43-1.51-2.59h0Z"/>
    <path class="cls-32" d="M4368.54,424.94l-2.97.99c-.37.12-.7.35-.9.69-.19.32-.27.8-.15,1.16s.34.71.69.9.77.28,1.16.15l2.97-.99c.37-.12.7-.35.9-.69.19-.32.27-.8.15-1.16s-.34-.71-.69-.9-.77-.28-1.16-.15h0Z"/>
    <path class="cls-32" d="M4371.38,414.73c-9.33,3.61-18.48,7.69-27.4,12.24.5.86,1.01,1.73,1.51,2.59,4.96-2.91,9.93-5.82,14.89-8.74,1.44-.84.5-3.26-1.16-2.74-3.61,1.13-6.97,2.87-9.95,5.19-1.44,1.12-2.78,2.35-3.99,3.71-1.2,1.34-2.68,2.94-3.28,4.65-.63,1.79.26,3.56,2.11,4.05,1.55.42,3.38.09,4.89-.37,3.41-1.04,6.33-3.41,8.02-6.55.35-.65.19-1.27-.23-1.82-3.18-4.11-10.11-2.36-11.61,2.36-1.76,5.52,3.05,10.74,8.56,10.53,2.65-.1,5.6-1.23,7.22-3.41,1.71-2.29.86-5.14-1.56-6.48-2.46-1.37-4.97-.79-7.63-.82-1.17-.01-2.51-.24-3.09-1.39-.49-.98-.23-2.26.23-3.19,1.27-2.56,4.54-3.13,7.1-3.35,1.07-.09,3-.57,3.92.16.8.63.78,2.04.64,2.93-.47,2.86-2.74,5.3-4.86,7.1-2.14,1.82-4.78,3.49-7.62,3.87-6.36.84-7.83-6.66-5.78-11.26,2.01-4.52,6.82-7.9,11.82-7.76s8.73,3.79,10.32,8.12c1.62,4.43.95,10.12-3.55,12.59-1.82,1-4.44,1.06-5.4-1.14-.89-2.02.11-4.67,1.67-6.06,2.14-1.9,5.36-2.06,8.07-1.87,2.26.16,6.68.3,7.39,3.04.76,2.9-1.98,5.26-4.02,6.79-2.36,1.78-5.22,4.17-8.36,4.04-2.72-.11-4.84-2.22-3.61-4.97,1.2-2.69,4.04-4.74,6.29-6.51,4.78-3.76,10.5-7.01,16.69-7.4,2.45-.15,6.3,0,5.88,3.42-.35,2.88-3.29,4.22-5.77,4.9-3.87,1.06-10.98,1.64-12.46-3.34-.81-2.7.91-5.36,2.68-7.26,2.15-2.3,4.86-4.07,7.65-5.5,2.6-1.33,5.56-2.3,8.51-1.88,2.58.36,5.21,1.77,6.21,4.29,2.35,5.88-3.17,10.94-8.07,12.93-.94.38-5.37,2.27-5.76.4l-.39,1.46c3.49-3.22,8.08-6.45,13.1-5.28,2.07.48,3.95,1.71,4.73,3.75.66,1.72.61,4.02-.86,5.33-1.11.99-2.86,1.03-4.17.41-1.85-.89-1.86-2.85-.94-4.48,1.27-2.25,3.64-3.96,5.73-5.39,1.14-.78,3.32-2.23,4.83-1.49s-2.26,3.96-2.99,4.46c-2.2,1.5-4.76,2.19-7.42,2.03.25.93.5,1.86.76,2.8,4-2.3,8.98-2.01,12.74.62l-.54-2.05c-.52,1.01-1.36,1.64-2.51,1.69-1.92.07-1.93,3.07,0,3,2.17-.08,4.1-1.22,5.1-3.17.39-.77.16-1.57-.54-2.05-4.62-3.23-10.9-3.42-15.77-.62-1.35.78-.68,2.71.76,2.8,4.26.26,8.62-1.46,11.5-4.63,1.35-1.48,2.85-3.51,2.1-5.61-.57-1.61-2.21-2.29-3.81-2.35-1.76-.07-3.51.55-4.97,1.49-2.07,1.34-4.15,2.88-5.83,4.69-2.73,2.94-4.22,7.73-.39,10.45,2.66,1.89,6.77,1.61,8.91-.93,2.6-3.09,2.05-7.85-.57-10.76-2.89-3.22-7.86-3.81-11.83-2.64-2.27.67-4.35,1.85-6.23,3.27-.89.67-1.74,1.38-2.57,2.12-.89.8-1.13,1.66-.55,2.76,1.94,3.71,7.46,1.59,10.24.36,4-1.76,7.55-4.7,9.01-8.93,1.36-3.95.54-8.54-2.8-11.24-3.35-2.69-7.9-3.1-11.93-1.96-4.39,1.23-8.81,3.96-12.04,7.16-2.91,2.87-5.4,7.1-3.83,11.26,2.84,7.55,14.59,6.8,20.18,3.14,3.23-2.12,5.33-6.91,2.48-10.24s-8.68-2.39-12.38-1.43c-4.51,1.17-8.68,3.5-12.4,6.26-3.37,2.51-8.13,5.78-9.05,10.19-.9,4.34,2.76,7.52,6.86,7.67,2.27.08,4.48-.85,6.39-2.01s3.97-2.64,5.69-4.21c3.01-2.73,5.1-7.92,1.54-11.15-1.58-1.44-3.77-1.87-5.81-2.18-2.2-.33-4.42-.53-6.64-.25-4.08.51-7.75,2.75-8.9,6.89-.98,3.54.46,7.61,4.28,8.6s7.67-1.64,9.62-4.72c1.95-3.08,2.24-7.04,1.41-10.52-1.73-7.26-8.46-12.93-16.1-11.8s-14.22,8.59-13.25,16.46c.53,4.28,3.29,7.98,7.79,8.41s8.56-2.17,11.71-4.89c3-2.59,6.04-6.52,5.6-10.72-.19-1.81-1.09-3.52-2.83-4.24-1.97-.82-4.68-.29-6.72.01-3.98.59-7.88,2.75-8.51,7.06-.26,1.81.16,3.71,1.52,5.01,1.57,1.52,3.82,1.71,5.89,1.6,1.76-.1,3.91-.5,5.41.72,1.79,1.46-1.24,3.18-2.47,3.6-3.73,1.29-8.41-.84-8.02-5.28.3-3.35,4.74-4.75,6.82-2.07l-.23-1.82c-1.2,2.24-3.14,4.03-5.53,4.94-1.01.38-2.68.97-3.77.66-.64-.18-.2-.46.13-.98.39-.6.83-1.18,1.27-1.73,3.5-4.31,8.21-7.51,13.51-9.17-.39-.91-.77-1.83-1.16-2.74-4.96,2.91-9.93,5.82-14.89,8.74-1.68.98-.2,3.46,1.51,2.59,8.69-4.43,17.59-8.42,26.68-11.94,1.78-.69,1.01-3.59-.8-2.89h0Z"/>
    <path class="cls-32" d="M4227.76,436.2c-3.56,2.08-8.71,5.06-12.65,2.09-1.37-1.03-1.92-2.71-1.28-4.33.83-2.1,2.79-1.74,4.61-1.25,2.01.54,4.36,1.44,5.06,3.6.68,2.1-.85,3.3-2.8,3.42s-4.07-.39-5.99-.91-3.84-1.21-5.64-2.12c-3.9-1.99-7.33-5.01-8.76-9.25l-.69,1.69c4.74-2.4,11.58,1.39,11.94,6.75.36,5.45-6.47,10.59-11.58,8.12-.05-.02-.15.4-.09.15.04-.14.31-.34.4-.41.3-.23.65-.37,1-.49,1.1-.35,2.33-.48,3.48-.58,2.54-.22,5.08-.06,7.57.46.59.12,1.43-.07,1.69-.69,1.51-3.51,3.42-7.34,6.8-9.4,2.69-1.64,6.43-1.48,8.68.92,1.95,2.08,1.09,4.92-1.45,5.94s-5.64.13-6.43-2.74c-.79-2.89.81-6.33,3.53-7.59,3.38-1.56,7.53-.05,9.93,2.55,1.26,1.36,2.46,3.56,1.73,5.45-.59,1.51-2.27,2.12-3.76,2.28-1.7.18-3.69-.03-5.24-.75s-1.86-2.26-1.26-3.78c1.63-4.17,7.13-3.45,10.67-2.96,2.02.28,4.38.55,6.03,1.86,1.2.95,2.23,2.99,1.09,4.36s-3.63,1.41-5.29,1.42c-2.21,0-4.39-.32-6.51-.95s-4.13-1.57-5.98-2.78c-1.5-.98-3.82-2.48-3.13-4.59.69-2.09,3.05-2.81,5.01-2.95,2.34-.17,4.76.05,7.08.4,2.04.31,4.08.69,5.86,1.78,1.2.73,2.7,2.06,1.97,3.61s-3.12,2.3-4.64,2.82c-1.98.67-4.04,1.11-6.12,1.28-4.18.33-8.42-.3-12.31-1.89-2.55-1.05-9.53-4.18-6.04-7.65,1.63-1.62,3.96-1.44,6.01-.83,1.1.33,2.15.78,3.19,1.25.75.34,1.91.74,2.35,1.5s-.31,1.4-1.04,1.59c-1.24.33-2.7-.34-3.84-.78s-3.38-1.37-2.61-2.94c.68-1.39,2.83-1.96,4.23-2.1,2.21-.22,4.48-.04,6.64.45,2.26.52,4.39,1.38,6.39,2.55,1.67.98,3.18-1.61,1.51-2.59-2.71-1.59-5.69-2.7-8.79-3.18-2.82-.44-6.04-.64-8.76.41-2.14.83-4.37,2.49-4.38,5.02-.01,2.83,2.5,4.3,4.82,5.2,2.72,1.06,6.3,1.8,8.28-.99,1.81-2.55-.07-5.12-2.43-6.34-2.71-1.4-5.95-2.77-9.06-2.47-2.67.25-5.21,1.93-6.17,4.5-2.17,5.78,6.19,9.41,10.39,10.84,5.45,1.85,11.5,2.05,17.05.53,2.49-.68,5.5-1.65,7.24-3.66s1.64-4.65.05-6.65-4.04-3.12-6.42-3.66c-3.23-.74-6.7-1.15-10.01-1-2.91.13-5.82,1-7.53,3.52-1.67,2.47-1.14,5.38.89,7.44,4.12,4.16,10.68,6.24,16.41,6.32,2.57.04,5.62-.18,7.59-2.06s1.97-4.88.59-7.12c-1.55-2.52-4.37-3.6-7.16-4.1-3-.53-6.17-1.02-9.21-.54-2.67.42-5.1,1.82-6.35,4.28-1.03,2.02-1.26,4.57.12,6.5,1.56,2.18,4.64,2.8,7.16,2.92,2.36.11,4.94-.38,6.73-2.03,4.53-4.19.29-10.86-3.97-13.26s-10.32-2.26-13.57,1.93c-2.73,3.51-3.15,9.29.64,12.26,3.23,2.53,8.53,1.83,11.06-1.39,3.05-3.88.45-8.81-3.61-10.57-4.93-2.14-9.9,0-13.13,4-1.74,2.15-3,4.58-4.09,7.11l1.69-.69c-2.9-.61-5.88-.83-8.83-.52-2.37.25-5.25.53-6.78,2.61s.11,4.1,2.26,4.79c1.94.62,4.09.57,6.04,0,3.85-1.1,7.24-4.17,8.38-8.05,1.14-3.9-.4-8.05-3.46-10.64-3.5-2.96-8.43-4.01-12.62-1.89-.56.28-.89,1.1-.69,1.69,1.75,5.22,5.88,9.03,10.77,11.36,2.53,1.21,5.21,2.09,7.96,2.64,2.53.51,5.48.97,7.85-.35,2.55-1.41,3.2-4.47,2.13-7.04-1.2-2.85-4.06-4.27-6.9-5.03s-5.66-.85-7.48,1.72c-1.37,1.94-1.59,4.68-.49,6.79,1.45,2.79,4.74,4.14,7.76,4.17,3.73.04,7.12-1.88,10.25-3.71,1.67-.97.16-3.57-1.51-2.59h0Z"/>
    <path class="cls-32" d="M4348.78,425.21c3.44,5.33,8.71,9.32,14.79,11.19,6.31,1.94,13.12,1.27,19.05-1.54,3.35-1.59,6.36-3.91,8.75-6.74,1.24-1.46-.87-3.6-2.12-2.12-4.89,5.77-12.34,9.02-19.91,8.47s-14.05-4.71-17.97-10.78c-1.04-1.62-3.64-.11-2.59,1.51h0Z"/>
    <path class="cls-32" d="M4238.95,434.88c3.59.78,7.13,1.87,10.51,3.32,1.7.73,3.32,1.59,4.97,2.43,1,.51,1.6.3,2.66,0s2.1-.6,3.15-.89c1.28-.36,1.43-2.05.36-2.74-1.55-1-3.09-1.99-4.64-2.99-1.63-1.05-3.13,1.55-1.51,2.59s3.09,1.99,4.64,2.99l.36-2.74c-1.44.41-2.89.82-4.33,1.23l1.16.15c-5.17-2.87-10.74-4.98-16.52-6.23-1.88-.41-2.69,2.48-.8,2.89h0Z"/>
    <path class="cls-27" d="M4330.54,429.54c5.8,8.27,14.25,14.38,23.82,17.56,4.81,1.6,9.91,2.44,14.98,2.41,5.69-.03,11.22-1.31,16.61-3.05,7.12-2.3,14.15-4.91,21.21-7.39,1.81-.64,1.03-3.53-.8-2.89-6.04,2.12-12.06,4.27-18.11,6.35-5.29,1.82-10.7,3.51-16.32,3.89-9.52.63-19.11-2.01-27.11-7.19-4.56-2.95-8.57-6.75-11.7-11.2-1.1-1.57-3.7-.07-2.59,1.51h0Z"/>
    <path class="cls-27" d="M4366.46,404.33c5.27.75,10.53,1.51,15.8,2.26,4.72.67,9.46,1.27,14.11,2.33,8.2,1.88,16.25,5.58,20.1,13.51,1.82,3.76,2.38,8.28.62,12.16-.79,1.75,1.8,3.27,2.59,1.51,3.58-7.92.01-17.01-6.2-22.52-7.29-6.46-17.47-8.03-26.76-9.37-6.49-.93-12.98-1.86-19.47-2.78-.81-.12-1.6.2-1.85,1.05-.2.7.25,1.73,1.05,1.85h0Z"/>
    <path class="cls-27" d="M4373.24,423.76c-7.3-4.57-16.41-5.83-24.68-3.43-1.85.54-1.06,3.43.8,2.89,7.54-2.19,15.72-1.04,22.37,3.12,1.64,1.03,3.15-1.57,1.51-2.59h0Z"/>
    <path class="cls-27" d="M4191.36,439.09c8.6-14.04,25.7-21.64,41.87-18.8,5.6.98,11.02,2.77,16.58,3.92,1.88.39,2.69-2.5.8-2.89-5.26-1.09-10.39-2.74-15.66-3.75-4.52-.87-9.09-1.16-13.67-.61-8.42,1.03-16.4,4.45-23,9.77-3.76,3.04-6.98,6.72-9.51,10.84-1.01,1.65,1.58,3.16,2.59,1.51h0Z"/>
    <path class="cls-27" d="M4200.01,446.27c4.64,6.57,12,10.88,20.03,11.56s16.6-2.76,22.11-8.85c1.29-1.43-.82-3.56-2.12-2.12-4.94,5.46-12.23,8.51-19.6,8.01s-13.76-4.35-17.82-10.1c-1.1-1.57-3.71-.07-2.59,1.51h0Z"/>
    <path class="cls-27" d="M4221.55,433.01c6.3.5,12.53,2.15,18.23,4.88,2.79,1.33,5.58,2.89,8.04,4.77.98.75,2.15,1.75,2.41,3.02.15.73-.28,2.43-1.33,2.24-1.89-.33-2.7,2.56-.8,2.89,3.6.63,6.02-3.24,4.85-6.46-1.25-3.43-5.25-5.55-8.24-7.25-7.09-4.06-15.03-6.44-23.17-7.09-1.92-.15-1.91,2.85,0,3h0Z"/>
    <path class="cls-27" d="M4252.21,433.65c2.41-.25,4.75.91,5.87,3.11,1.02,2,.58,4.7-.99,6.37-1.32,1.41.8,3.53,2.12,2.12,2.47-2.63,3.09-6.59,1.54-9.85-1.49-3.11-5.13-5.09-8.54-4.75-.81.08-1.5.63-1.5,1.5,0,.75.69,1.58,1.5,1.5h0Z"/>
    <path class="cls-34" d="M4192.26,439.82c8.57,9.39,22.43,13.25,34.63,9.7,1.85-.54,1.06-3.43-.8-2.89-11.22,3.27-23.83-.3-31.71-8.93-1.3-1.43-3.42.7-2.12,2.12h0Z"/>
    <path class="cls-34" d="M4209.02,425.64c5.76-2.39,12.13-2.63,18.03-.61,1.83.62,2.62-2.27.8-2.89-6.34-2.16-13.43-1.96-19.63.61-.75.31-1.28.99-1.05,1.85.19.71,1.09,1.36,1.85,1.05h0Z"/>
    <path class="cls-34" d="M4233.89,436.06c7.95-4.5,19.04-1.78,23.97,5.92,1.04,1.62,3.63.12,2.59-1.51-5.81-9.09-18.67-12.32-28.07-7-1.68.95-.17,3.54,1.51,2.59h0Z"/>
    <path class="cls-34" d="M4235.36,456.27c4.35.3,8.69-1.27,11.93-4.16.6-.54.55-1.57,0-2.12-.6-.6-1.51-.54-2.12,0-2.67,2.38-6.23,3.53-9.81,3.28-.81-.06-1.5.73-1.5,1.5,0,.86.69,1.44,1.5,1.5h0Z"/>
    <path class="cls-34" d="M4330.33,433.28c-.7-2.1.9-4.1,2.18-5.62,1.5-1.79,3.08-3.51,4.72-5.17,3.24-3.27,6.73-6.28,10.45-8.99,1.55-1.13.05-3.73-1.51-2.59-4.24,3.08-8.22,6.5-11.85,10.27-1.78,1.84-3.55,3.75-5.09,5.81-1.51,2.03-2.64,4.55-1.79,7.09.61,1.82,3.51,1.04,2.89-.8h0Z"/>
    <path class="cls-34" d="M4344.03,443.16c14.18,9.09,32.55,10.93,48.4,5.43,4.48-1.55,8.75-3.68,12.65-6.36,1.58-1.09.08-3.69-1.51-2.59-13.22,9.07-30.45,11.37-45.72,6.66-4.35-1.34-8.48-3.27-12.31-5.73-1.63-1.05-3.14,1.55-1.51,2.59h0Z"/>
    <path class="cls-34" d="M4361.46,430.93c12.05-5.4,25.68-7.11,38.69-4.86,1.89.33,2.7-2.56.8-2.89-13.87-2.4-28.15-.6-41,5.16-1.76.79-.23,3.37,1.51,2.59h0Z"/>
    <path class="cls-34" d="M4367.85,408.14c14.74-8.6,33.34-7.92,47.39,1.75,3.72,2.56,7.07,5.72,9.82,9.29.5.65,1.28.98,2.05.54.64-.36,1.03-1.41.54-2.05-10.96-14.24-29.13-21.19-46.79-17.67-5.11,1.02-10.03,2.92-14.53,5.54-1.67.97-.16,3.57,1.51,2.59h0Z"/>
    <path class="cls-27" d="M4365.24,412.29c-1.47.63-1.67,2.3-1.01,3.6.76,1.5,2.12,2.28,3.65,2.8,3.61,1.22,7.35,1.98,11.09,2.71,7.27,1.42,14.8,2.71,20.94,7.16,1.57,1.13,3.06-1.47,1.51-2.59-5.27-3.81-11.62-5.46-17.9-6.73-3.16-.63-6.33-1.19-9.46-1.93-1.56-.37-3.1-.78-4.62-1.26-.69-.22-1.47-.38-2.02-.88-.14-.13-.36-.55-.5-.61-.03-.05-.06-.1-.07-.15-.47.55-.5.71-.08.47,1.77-.76.24-3.34-1.51-2.59h0Z"/>
    <path class="cls-27" d="M4384.9,400.17c5.36,2.81,10.72,5.62,16.07,8.43,1.71.9,3.23-1.69,1.51-2.59-5.36-2.81-10.72-5.62-16.07-8.43-1.71-.9-3.23,1.69-1.51,2.59h0Z"/>
    <path class="cls-27" d="M4345.96,420.19c-3.72,1.14-5.39,5.2-4.9,8.83.59,4.35,4.14,7.47,7.33,10.12.62.52,1.51.61,2.12,0,.53-.53.63-1.6,0-2.12-2.54-2.11-5.59-4.51-6.39-7.89-.52-2.21.23-5.32,2.64-6.05,1.84-.56,1.06-3.46-.8-2.89h0Z"/>
    <path class="cls-27" d="M4375.4,441.71c-1.34.22-2.43,1.24-2.88,2.5s-.36,3.12,1.06,3.66c1.31.5,3.05.54,4.45.63,1.55.1,3.1.05,4.65-.13,6.17-.71,11.98-3.31,16.5-7.59,1.41-1.33-.72-3.45-2.12-2.12-5.97,5.65-14.64,8.08-22.68,6.32l1.05,1.05c-.3-.72,0-1.3.77-1.43,1.9-.31,1.09-3.2-.8-2.89h0Z"/>
    <path class="cls-27" d="M4217.61,426.71c9.13-.07,18.01,2.96,25.24,8.53.65.5,1.67.09,2.05-.54.46-.77.1-1.56-.54-2.05-7.62-5.87-17.14-9.02-26.75-8.94-1.93.02-1.93,3.02,0,3h0Z"/>
  </g>
  <g id="ZapatoD">
    <g id="TenniD">
      <path class="cls-30" d="M4201.64,2330.46c10.42,14.58,22.61,7.05,43.88,24.6,24.24,20,30.52,47.99,39.45,45.8,4.12-1.01,2.68-6.92,8.42-11.5,9.51-7.58,53.34,25.67,73.14,22.26,19.98,4.48,17.61,1.17,14.46-14.69-4.3-21.6-20.78-38.97-42.28-43.75-9.26-2.06-10.7-5.4-18.68-16.06,0-24.24,13.03-70.88-8.79-94.21-7.86-2.24-15.5-3.52-22.74-3.77-34.64,83.65-57.25,78.74-86.86,91.31Z"/>
      <path class="cls-4" d="M4339.26,2411.9c-115.45-10.76-36.12-87.17-220.14-99.02,0,0-46.8,41.87-83.43,53.26-18.94,5.89-69.03,12.08-52.42,80.56.98,4.03,4.36,7.03,8.48,7.48,25.55-3.09,490.12,42.91,425.7-42.27,0-.01-78.19-.01-78.19-.01Z"/>
      <path d="M4419.61,2380.04c-93.96,31.78-64.22-1.87-121.95,1.63-10.61,1.48-14.32,17.68-12.65,18.29,1.03,28.55,41.69,30.36,66.18,25.87,23.6-3.71,50.21-31.6,68.42-45.79Z"/>
      <path class="cls-22" d="M3991.09,2391.21s-2.24,1.48-4.27,6.67c10.77,13.07,50.61,25.93,52.99,23.27-9.4-3.65-49.83-23.98-48.71-29.95Z"/>
      <path class="cls-9" d="M3988.38,2394.59s-1.19,2.38-3.22,7.58c8.87,12.73,26.52,16.84,42.19,17.1-11.84-3.06-39.11-19.82-38.96-24.68Z"/>
      <path class="cls-22" d="M4056.27,2419.3c35.86,33.04,187.9-37.19,183.69-38.71-5.72,3.16-143.34,47.94-183.69,38.71Z"/>
      <path class="cls-9" d="M4059.59,2423.28c-2.6,4.8,32.28,10.81,54.75,7.1,26.39-5.87,54.75-22.88,54.75-22.88,0,0-33.24,14.05-76.02,15.77-12.12.49-33.48.02-33.48.02Z"/>
    </g>
    <path class="cls-6" d="M3984.18,2449.03c1.52,19.31.25,37.15,24.51,35.4,6.53.21,113.37,5.25,115.88,4.6,68.27.96,216.95-.08,283.85-6.39,19.83-.64,13.73-27.85,14.26-40.47-33.36,18.28-126.3,15.81-150.5,18.89-83.12.27-180.1-.58-274.25-6.18-5.14-.23-10-2.31-13.74-5.85Z"/>
    <g id="Detalle">
      <path d="M4051.61,2372.36c.41,8.26-28.34,8.26-27.93,0-.41-8.26,28.34-8.26,27.93,0Z"/>
      <path d="M4129.4,2357.24c.3,6.01-20.9,6.01-20.6,0-.3-6.01,20.9-6.01,20.6,0Z"/>
      <path d="M4153.77,2376.64c1.65,8.14-27.31,12.52-28.14,4.25-1.65-8.14,27.31-12.52,28.14-4.25Z"/>
      <path d="M4158.28,2352.51c.81,4.79-16.18,6.79-16.51,1.95-.81-4.78,16.18-6.79,16.51-1.95Z"/>
      <path d="M4114.34,2341.27c.17,3.43-11.93,3.43-11.75,0-.17-3.43,11.93-3.43,11.75,0Z"/>
      <path d="M4106.8,2375.01c.36,7.17-24.97,7.17-24.6,0-.36-7.17,24.97-7.17,24.6,0Z"/>
      <path d="M4083.01,2355.33c1.36,5.42-18.81,9.34-19.58,3.81-1.36-5.42,18.81-9.34,19.58-3.81Z"/>
    </g>
    <path class="cls-22" d="M4123.49,2325.4c34.74,8.72,72.48,14.89,101.08,37.21"/>
  </g>
  <g id="ZapatoI">
    <path class="cls-30" d="M4498.08,2341.3c10.42,14.58,22.61,7.05,43.88,24.6,24.24,20,30.52,47.99,39.45,45.8,4.12-1.01,2.68-6.92,8.42-11.5,9.51-7.58,53.34,25.67,73.14,22.26,30.15,6.76,24.93-4.61,27.41-49.69,2.96-53.98-30.72-104.19-82.71-119.01-7.86-2.24-15.5-3.52-22.74-3.77-34.64,83.65-57.25,78.74-86.86,91.31Z"/>
    <path class="cls-4" d="M4632.91,2416.98c-115.45-10.76-36.12-87.17-220.14-99.02,0,0-46.8,41.87-83.43,53.26-18.94,5.89-69.03,12.08-52.42,80.56.98,4.03,4.34,7.39,8.48,7.48,287.81,6.22,470.49,35.16,425.7-42.27,0-.01-78.19-.01-78.19-.01Z"/>
    <path class="cls-5" d="M4713.26,2385.12c-93.96,31.78-64.22-1.87-121.95,1.63-10.61,1.48-14.32,17.68-12.65,18.29,1.03,28.55,41.69,30.36,66.18,25.87,23.6-3.71,50.21-31.6,68.42-45.79Z"/>
    <path class="cls-7" d="M4713.26,2385.12c-49.77,25.23-70.28,32.1-134.6,19.92,1.02,28.55,41.69,30.36,66.18,25.87,23.58-3.73,50.23-31.58,68.42-45.79Z"/>
    <path class="cls-22" d="M4347.01,2424.96c-3.05,5.3,32.22,10.61,54.75,7.1,110.64-21.16,127.48-50.06,127.48-50.06-17.61,10.56-128.21,50.74-182.24,42.96Z"/>
    <path class="cls-22" d="M4284.55,2396.62s-2.24,1.48-4.27,6.67c13.61,14.03,47.96,27.8,52.99,23.27-15.32-4.92-45.89-19.76-48.71-29.95Z"/>
    <path class="cls-9" d="M4281.37,2400.97s-1.5,2.58-3.53,7.78c8.87,12.73,26.52,16.84,42.19,17.1-12.29-3.28-38.54-19.47-38.65-24.88Z"/>
    <path class="cls-9" d="M4351.09,2429.2c-2.6,4.8,32.28,10.81,54.75,7.1,26.39-5.87,54.75-22.88,54.75-22.88,0,0-33.24,14.05-76.02,15.77-12.12.49-33.48.02-33.48.02Z"/>
    <path class="cls-22" d="M4424.8,2333.64c34.74,8.72,72.48,14.89,101.08,37.21"/>
    <path class="cls-6" d="M4277.84,2454.11c1.52,19.31.25,37.15,24.51,35.4,6.53.21,113.37,5.25,115.88,4.6,68.27.96,216.95-.08,283.85-6.39,19.83-.64,13.73-27.85,14.26-40.47-33.36,18.28-126.3,15.81-150.5,18.89-83.12.27-180.1-.58-274.25-6.18-5.14-.23-10-2.31-13.74-5.85Z"/>
    <g id="Detalle-2" data-name="Detalle">
      <path d="M4347.01,2379.35c.41,8.26-28.34,8.26-27.93,0-.41-8.26,28.34-8.26,27.93,0Z"/>
      <path d="M4424.8,2364.22c.3,6.01-20.9,6.01-20.6,0-.3-6.01,20.9-6.01,20.6,0Z"/>
      <path d="M4449.17,2383.62c1.65,8.14-27.31,12.52-28.14,4.25-1.65-8.14,27.31-12.52,28.14-4.25Z"/>
      <path d="M4453.67,2359.49c.81,4.79-16.18,6.79-16.51,1.95-.81-4.78,16.18-6.79,16.51-1.95Z"/>
      <path d="M4409.74,2348.25c.17,3.43-11.93,3.43-11.75,0-.17-3.43,11.93-3.43,11.75,0Z"/>
      <path d="M4402.2,2381.99c.36,7.17-24.97,7.17-24.6,0-.36-7.17,24.97-7.17,24.6,0Z"/>
      <path d="M4378.41,2362.32c1.36,5.42-18.81,9.34-19.58,3.81-1.36-5.42,18.81-9.34,19.58-3.81Z"/>
    </g>
  </g>
  <g id="Tren_inferior" data-name="Tren inferior">
    <g id="PantoD">
      <path class="cls-18" d="M4211.6,1851.48c-1.3,10.01-15.54,211.63-19,213.19,0,0-44.46,120.01-44.46,120.01l-29.05,126.33,48.52,5.34c8.68.96,17.21,2.64,25.5,5.02,38.24,10.96,67.63,39.73,87.63,73.27l1.15-1.19c16.3-15.84,26.72-18.41,47.83-23.26l12.13-5.32c-12.76-17.29,8.27-408.25.93-445.48l-14.62-38.72c-1.49-6.84-4.56-30.42-10.62-51.71-5.36-18.82-18.32-34.56-35.53-43.88l-21.72-11.76c-20.61-11.16-39.73,56.51-48.71,78.16h0Z"/>
      <path class="cls-23" d="M4119.1,2311.02c13.1,1.84,28.84,3.4,43.98,4.8,33.84,4.84,67.48,18.13,89.69,43.96,9.73,11.32,17.59,24.14,27.98,34.87,6.17-141.4-100.65-76.94-104.05-193.44-.34-12.19,6.42-70.42-5.89-77.68-2.97,13.72-12.04,22.3-22.66,61.16-5.6,31.07-28.21,92.08-29.05,126.33Z"/>
      <g id="Bolsillo2">
        <path class="cls-37" d="M4252.54,1971.29c-.34-8.27-5.29-15.64-12.82-19.08-7.54-3.44-16.7-7.12-22.51-7.32-9.9-.35-18.8,5.9-22.88,14.93-4.99,11.04-7.8,24.63,1.77,32.82,0,0-5.5,27.86-5.3,68.26.04,7.84,1.82,15.64,5.18,22.72,7.89,16.6,17,26.42,24.95,29.57,6.41,2.83,12.74-1.63,14.3-8.46,3.28-14.37,18.86-96.28,17.31-133.45Z"/>
        <path class="cls-23" d="M4196.35,2089.9c6.68,20.45,14.66,26.35,30.32,23.98-3.38-25.93-28.92-73.4-33.51-96.95,0,0-2.16,15.32-2.29,36.49-.07,12.36,1.65,24.72,5.49,36.47Z"/>
        <path d="M4190.27,1983.88c5.85,5.6,11.37,11.67,18.56,15.5,3.5,1.97,7.25,3.34,11.12,4.39,3.78,1.02,8.21,1.99,11.78,2.85,3.06.45,6.11.9,9.17,1.4,2.65.46,6.52,1.1,9.14,1.62-2.65-.09-6.57-.41-9.26-.58-3.11-.24-6.21-.51-9.31-.81-8.02-1.57-16.44-2.94-23.55-7.25-7.26-4.15-12.56-10.65-17.63-17.12h0Z"/>
      </g>
    </g>
    <g id="MusloD">
      <path id="MusloD-2" data-name="MusloD" class="cls-18" d="M4263.97,1301.16s-59.57,397.53-54.25,523.86l18.68,101.24,13.16,4.55c11.72,11.99,17.87,28.37,16.84,45.1-1.37,22.4-8.7,49.29,7.23,52.31h0c26.22,4.97,52.24-9.49,61.87-34.37l16.53-53.17,7.26-219.14c5.42-109.53,43.34-152.99,96.96-248.65,7.54-13.46-.31-100.31,4.31-155.85,0,0-97.4-9.57-188.6-15.87Z"/>
      <path class="cls-23" d="M4300.98,1310.56c24.32,7.76,29.31,4.02,42.91,9.14-8.78,29.14-41.8,47.25-72.84,80.94,20.72-22.5,43.22-74.07,29.92-90.08Z"/>
      <path d="M4254.55,1416.05c23.83-23.11,49.43-55.86,49.5-90.48-.05-5.04-.75-10.05-1.87-15.01,1.56,4.83,2.47,9.87,2.85,14.97,1.42,35.37-24.55,68.89-50.48,90.51h0Z"/>
      <path class="cls-23" d="M4238.28,1488.35c-12.1,93.48-30.72,245.97-28.56,336.67,0,0,17.01,8.95,35.51,18.6,3.42-42.97,1.46-98.67,1.4-142.13-.11-80.53-7.46-220.02-8.35-213.14Z"/>
    </g>
    <g id="MusloI">
      <path class="cls-18" d="M4426.51,1314.35l222.89-15.66,4.99,53.97,1.69,16.91c.93,13.88,3.4,45.25,3.19,59.44,9.88,130.64,19.39,329.68,52.28,462.52,2.41,9.73-3.81,19.46-13.66,21.29h0c-42.94,7.99-77.38,40.52-87.16,83.09-29.12,126.65-111.02,67.67-144.16,51.43h0c-43.36-21.24-59.14-53.27-71.6-94.96-7.26-24.29-50.97-61.69-50.97-61.69,2.5-31.94,3.15-110.01,5.11-167.23,3.16-92.35,25.37-183.32,67.3-265.66,10.98-21.57-56.28-55.33-56.87-68.81,0,0-9.21-29.74,11.53-50.76,15.21-15.42,55.46-23.88,55.46-23.88Z"/>
      <path class="cls-23" d="M4653.82,1526.79c-13.24-60.47-41.83-116.76-84.16-161.93-13.32-14.21-26.53-24.63-40.11-47.96,21.32,27.07,96.94,71.82,127.83,71.45,1.54,26.02,2.32,55.82,4.81,83.18,3.95,43.36,6.89,84.13,7.39,122.24-5.31-20.23-10.64-43.55-15.78-66.99Z"/>
      <path class="cls-23" d="M4371.71,1573.55c-27.11,83.84-29.5,267.14-26.95,294.95,18.67,11.58,85.24,17.57,193.97,44.77-46.97-22.19-150.74-83.68-145.09-151.03,3.6-129.91,7.22-212.64,15.35-289.37-6.44,9.2-32.98,87.38-37.28,100.67Z"/>
      <path d="M4538.56,1326.49c.07-.05.14-.04.21,0,.5.29.9.68,1.32,1.05.87.78,3.28,3.08,4.16,3.93,27.45,26.35,61.8,45.08,98.79,54.01-37.73-6.31-73.12-25.66-99.16-53.63,0,0-2.6-2.79-2.6-2.79-.36-.4-1.55-1.69-1.96-2.08-.11-.11-.23-.22-.35-.32-.12-.07-.26-.25-.4-.16h0Z"/>
      <path d="M4634.95,1387.57c3.22,3.96,4.82,9.11,5.7,14.09.91,4.94.87,10.33.4,15.34-1.34,13.07-6.09,25.57-12.31,37.06.96-2.74,2.02-5.43,3.03-8.13,6.09-17.44,12.5-41.11,3.18-58.36h0Z"/>
      <path d="M4478.65,1331.48c-10.06,13.28-11.22,31.25-7.13,46.94,7.12,26.8,25.57,48.6,43.92,68.76-16.68-14.63-31.83-31.82-41.16-52.15-9.31-19.82-11.57-46.49,4.37-63.54h0Z"/>
      <path class="cls-23" d="M4511.47,1443.26c-65.67-24.63-65.94-83.01-32.82-111.78-19.09,16.58-8.12,75.59,32.82,111.78Z"/>
      <path class="cls-23" d="M4406.04,1358.37c-4.7,11.56-5.83,16.36-4.02,28.71,3.75,25.57,6.43,30.45,54.08,37.91-37.84-15.49-30.94-99.63-30.94-99.63,0,0-9.57,9.53-19.12,33.01Z"/>
      <path d="M4456.1,1424.98c-44.3-.02-69.9-26.52-50.5-69.9,4.9-10.88,11.81-20.72,19.56-29.73-7.08,9.46-13.54,19.46-18.13,30.36-18.03,43.19,6.17,66.46,49.07,69.28h0Z"/>
    </g>
    <g id="PantoI">
      <path class="cls-18" d="M4344.64,1890.69c.1-1.33,1.72-2.42,4.53-3.51,45.31-17.53,81.32-52.79,103.96-95.77,9.22-17.51,18.34-30.64,23.72-30.27l106.39-4.76c27.6,1.86,50.45,77.49,65.54,100.67,13.28,20.41,38.9,21.72,50.82,40.18,10.52,16.3,6.78,58.89,6.55,78.28-.47,39.29-.91,92.95-.72,121.7,0,.87-.42,1.66-1.13,2.15h0c-12.13,8.46-18.93,22.64-17.92,37.39,1.32,19.3,2.99,43.89,4.27,64.46,1.39,22.25,5.81,44.18,13.13,65.23h0c1.82,5.24,2.75,10.75,2.75,16.29v103.69c-3.22.83-11.26,5.04-24.89,8.15-12.63,1.59-25.77,6.34-39.45,2.33-12.71-3.73-23.38-8.56-32.49-9.95-19.62-3.01-23.8-1.2-30.57,11.22-21.05-9.51-24.7-43.15-74.52-64.53-20.9-8.97-47.29-14.55-91.75-17.74-27.1,23.05-35.55,33.2-75.82,51.4-11.78-67.29-8.05-178.63-6.9-246.53,2.49-65.91,9.12-159.1,14.51-230.08Z"/>
      <path class="cls-23" d="M4383.77,2340.5c-12.34,9.14-36.75,23.44-50.72,28.23-3.15-37.89-6.84-81.05-6.43-119.08.35-32.23,12.64-195.18,17.78-353,29.59,30.34,66.23,130.8,69.49,222.02,1.18,33.05,33.48,68.26,66.63,99.6,33.29,31.48,58.77,70.31,74.04,113.51,11.7,33.11,24.57,66.38,24.57,66.38,0,0-4.24-1.09-12.29-9.72-.43-.46-3.01-3.44-3.35-3.97-10.95-17.51-35.17-40.3-53.93-48.61-15.25-9.56-75.65-19.03-96.7-19.97-13.48,13.28-1.59,1.35-29.09,24.6Z"/>
      <g id="Bolsillo1">
        <path class="cls-37" d="M4603.01,2072.47c-.93-4.06-1.19-8.24-1.19-12.41,0-15.17,0-59.99,0-59.99-7.31-2.05-2-.89-11.06-4.94-.33-9.66,17.63-46.27,33.87-47.94,22.35-1.69,98.13-11.45,99.73,27.41,4.43,26.49.59,23.94-9.62,44.58,0,0,0,33.02,0,49.47,0,6.96-2.66,29.41-6.73,35.07-27.85,38.74-95.69,9.64-105.01-31.26Z"/>
        <path class="cls-23" d="M4601.82,2037.57c.25,11.17-.91,24.9,1.19,34.9,4.48,21.29,21.52,35.18,41.7,43.32,10.76,4.34,22.56,5.95,30.82,5.93-.32-.23-.65-.47-.97-.7-35.6-25.73-60.52-63.49-70.85-106.18-.63-2.61-1.26-5.08-1.88-7.36.33,7.06.06,24.74,0,30.09Z"/>
        <path d="M4590.77,1995.13c12.87,3.77,25.63,7.67,38.94,9.11,29.2,3.78,58.68,4.74,87.93,8.09-26.77-1.2-53.58-1.96-80.2-5.23-8-.99-16.01-2.11-23.81-4.24-7.78-2.11-15.34-4.91-22.87-7.73h0Z"/>
      </g>
    </g>
    <path class="cls-23" d="M4712.05,1901.66c-6.19,17.29-25.55,14.48-40.38,16.18-27.95-174.26-42.64-115.83-.43-300.53"/>
  </g>
  <path class="cls-14" d="M4418.88,645.49h-.83c.25-.08.54,0,.83,0Z"/>
  <path class="cls-14" d="M4728.97,659.15c-86.18-43.44-181.21-53.95-276.57-38.81-60.11,9.52-119.07,35.54-147.24,57.84-11.17,8.81-17.83,19.11-16.18,33.26.87,7.49,2.03,15.23,2.98,20.36-5.3,11.54-85.06,10.92-84.07,48.57-.87,7.9-2.36,16.38-3.97,24.12-3.68,17.58,9.02,32.02,19.61,46.5,8.98,12.29,17.58,26.85,15.6,35.41-22.09,95.69-41.54,204.3,17.38,378.68,5.13,5.92,9.76,14.73,1.28,29.83-5.67,11.42,7.53,12.91,19.82,16.3,45.39,18.33,132.31,11.38,158.87,12.16,47.91-1.78,77.2-.91,98.05-3.19,60.28-6.54,92.55-6.87,109.18-13.49,1.86-.74,3.19-2.48,3.48-4.47,6.25-45.34,10.8-90.11,13.78-129.99.04-.87.12-1.78.17-2.65.25-2.9.46-5.79.62-8.61,1.03-14.36,1.78-27.97,2.4-40.63,1.9-41.29,1.61-72.57-.58-86.26-27.1-152.75-27.55-200.82-32.77-222.87-.08-.29,0-.58.21-.74.25-.41.95-.5,1.37,0,16.09,21.14,43.4,42.08,84.69,49.65,12.2,2.28,25.65,3.35,40.38,2.85,2.94-.04,5.96-.21,9.02-.41,2.81-.21,8.27-1.08,15.06-2.9.08,0,.17,0,.25-.04,13.4-3.6,31.73-10.84,44.35-23.87,48.78-50.18-2.65-129.04-97.14-176.62ZM4587.85,739.82c-.91-.08-2.36-.83-3.97-.99-1.78-.21-3.43-.74-4.51-.91-.17-.04-.33-.08-.46-.08-.99-.12-2.03.08-2.98,0-2.69-.29-5.3-.74-7.94-.99-2.48-.29-4.76-.79-6.95-.99-2.48-.25-5.13-.83-6.95-.99-7.49-.74-15.39-1.57-22.84-1.99-2.32-.12-4.68.12-6.95,0-.99-.08-2.03.04-2.98,0-1.32-.08-2.69.04-3.97,0-.99-.04-2.03,0-2.98,0-1.65,1.78-5.46.95-7.94.99-2.32,0-4.68.04-6.95,0-1.32-.04-2.69.08-3.97,0-2.69,1.9-7.45.87-10.92.99-3.06.08-7.53.99-9.43.99h-16.88c-6.79,0-16.09,1.57-23.33,1.99-.66.04-1.37-.04-1.99,0-1.32.04-2.69-.08-3.97,0-.99.04-2.03-.08-2.98,0-2.4.12-5.05.83-7.94.99-.99.04-2.03-.08-2.98,0-1.99.08-4.01-.12-5.96,0-2.28.08-5.71.87-8.94.99-2.98.08-6-.04-8.94,0-1.65,1.78-5.46.95-7.94.99-2.98,0-6-.04-8.94,0-1.65,1.78-5.46.95-7.94.99-14.19.17-29.71,4.1-42.99-1.24-9.81-3.93-15.68-11.01-19.57-20.6v-12.91c1.24-2.19,1.86-4.59,2.98-6.95,1.9-4.14,2.98-5.59,5.96-8.94,1.41-1.61,2.28-4.01,4.96-3.97.12-.29-.17-.74,0-.99,1.2-2.11,3.56-2.11,4.96-2.98,1.61-1.08,3.35-1.94,4.96-2.98,3.02-1.99,5.63-4.22,8.94-5.96,1.28-.7,4.3-2.77,4.96-2.98.58-2.81,3.76-1.53,4.96-1.99,2.15-.91,5.21-2.77,7.94-3.97-1.08-2.9,3.81-2.98,5.96-2.98,1.94-.99,3.97-1.99,5.96-2.98,2.07-1.12,4.05-4.18,6.95-1.99.33-.21.62-.83.99-.99,1.53-.83,2.9-2.15,4.96-2.98,3.76-1.57,8.44-1.9,11.92-2.98,2.44-.79,4.96-2.15,7.94-2.98,3.27-.95,6.66-2.15,9.93-2.98,1.57-.41,3.31-.62,4.96-.99,3.23-.79,6.66-1.28,9.93-1.99,2.03-.46,4.43-1.7,6.95-1.99,1.61-.21,3.31.12,4.96,0,5.71-1.65,10.72-2.98,16.88-3.97,1.61-.29,3.52-.87,4.96-.99.91-.12,2.03-.08,2.98,0,.46-1.37,1.9-.91,2.98-.99,2.65-.29,5.25-.83,7.94-.99,1.24-.08,2.69-.08,3.97,0,.46-1.32,1.86-.95,2.98-.99,1.28-.08,2.65.12,3.97,0,5.25-.58,11.17-1.65,16.88-1.99,1.08-.08,2.48.29,2.98-.99h53.62v.99c1.28,0,2.65-.04,3.97,0,3.52.04,6.45.62,9.93.99.62.04,1.32-.08,1.99,0,2.48.29,5.5.5,7.94.99,1.74.33,3.68.54,4.96,1.99h.99c4.3-.12,2.73-1.03,7.94.99,3.19-1.53,9.27,1.08,12.91,1.99,3.81.29,8.44-.25,11.92,1.99,2.85.37,6.21,1.49,8.94,1.99,2.73.5,6.58-.25,8.94,1.99,2.48.25,4.88,1.53,6.95,1.99,1.45.29,2.57.62,3.97.99,1.32.33,2.57.58,3.97.99,1.12.29,2.11.74,2.98.99,4.05,1.12,6.99,3.06,9.93,3.97.7.21,3.14.08,5.96.99,1.61.54,3.64.54,4.96.99,3.35,1.12,6.62,2.77,9.93,3.97,2.77.99,4.55,1.99,6.95,2.98,1.16.46,2.81.46,3.97.99,2.4,1.08,4.47,1.61,6.95,2.98.37.21.66.83.99.99,3.64-.04,6.7,2.61,9.93,3.97,7.41,3.06,14.56,6.08,21.84,9.93,6.99,3.68,14.89,7.74,20.85,12.91,3.31.45,10.88,6.66,13.9,8.94,4.18,1.82,6.87,4.68,9.93,7.94,2.23.62,3.19,1.61,4.96,2.98,1.53,1.16,1.99,2.11,2.98,2.98.79.7,1.32,1.41,1.99,1.99.33.29.62.66.99.99,1.08.99,1.9,1.94,2.98,2.98,4.55,4.55,6.99,6.37,10.92,11.92.87,1.24,1.08,1.32,1.99,2.98.91,1.65,1.08.83,1.99,3.97.25.99,1.2,1.41,1.08,3.47-.08,1.53-.87,1.86-1.08,2.48-1.45,3.85-1.65,2.07-2.98,2.98-2.36,1.53-3.31,2.07-5.96,2.98-1.28.41-2.69.62-3.97.99-2.65.66-3.52.62-5.96.99-.46.04-1.37.83-2.98.99-1.94.17-4.01-.08-5.96,0-1.65,1.78-5.46.95-7.94.99h-2.98c-11.75.04-23.5-.45-34.75-.99-.66-.04-1.37.04-1.99,0-.99-.08-2.03.04-2.98,0-.66-.04-1.37,0-1.99,0-2.19-.12-8.4.79-8.94-.99h-2.98c-1.32-.04-2.69,0-3.97,0-1.9-.04-4.88.66-5.96-.99-6-.08-11.05-.5-16.88-.99-1.86-.17-3.81-.79-4.68-.95-.08-.04-.21-.04-.29-.04-1.65-.17-3.35.12-4.96,0-1.82-.21-3.72-.87-4.96-.99-1.32-.17-2.69.12-3.97,0-3.02-.33-5.96-.66-8.94-.99-2.98-.33-6-.66-8.94-.99-2.69-.33-5.3-.7-7.94-.99-4.34-.54-8.69-1.45-12.91-1.99-9.93-1.24-20.11-1.41-29.79-3.97h-2.98c-2.77,0-6-.74-8.94-.99-.99-.08-2.03.08-2.98,0Z"/>
  <path class="cls-22" d="M4629.61,808.9c67.45-32.95,144.39-22.7,211.64,1.79-10.32,21.27-26.13,43.92-73.65,51.45-95.1,10.09-129.76-44.63-137.99-53.24Z"/>
  <path class="cls-22" d="M4233.29,907.92c10.05,88.35-2.41,236.18,35.12,317.54,31.76,57.35,226.67,66.4,280.3,73.64-43.54,2.13-206.07-3.56-249.32-9.87-3.38-1.32-35.33-8.03-36.99-11.71-10.43-18.65-25.57-49.61-29.52-70.79-15.87-85.26-25.49-171.5.41-298.8Z"/>
  <path class="cls-22" d="M4338.95,807.28c-.06-.22-15.87-2.99-42.69-38.23,56.57,13.09,110.22,80.58,98.99,117.37,0,0-2.1-16.06-14.61-22.29-39.96-18.52-68.78-63.89-94.99-97.74,16.46,19.45,20.32,4.75,53.29,40.89Z"/>
  <path class="cls-22" d="M4482.96,804.97c.06-.22,15.87-2.99,42.69-38.23-56.57,13.09-110.22,80.58-98.99,117.37,0,0,2.1-16.06,14.6-22.29,39.96-18.52,68.78-63.89,94.99-97.74-16.46,19.45-20.32,4.75-53.29,40.89Z"/>
  <path d="M4285.26,739.47c-3.88,6.64-6.76,16.07-.71,22.28,2.35,2.37,6.66,5.55,9.32,7.75,22.35,17.56,45.23,34.93,65.48,54.95,15.43,15.57,36.93,38.73,35.91,61.98.03-38.07-64.89-84.77-92.76-108.18-3.04-2.49-11.22-9.18-14.13-11.67,0,0-2.32-1.99-2.32-1.99-8.6-6.59-6.06-17.24-.79-25.12h0Z"/>
  <path d="M4538.8,735.43c5.39,8.1,7.81,18.71-1.08,25.37,0,0-2.36,2.01-2.36,2.01-2.93,2.5-11.23,9.28-14.33,11.82-27.94,23.47-94.39,71.44-94.39,109.48-.12-2.06-.05-4.13.18-6.19,5.41-37.82,64.11-81.19,93.22-104.52,3.15-2.46,11.55-9.03,14.57-11.49,0,0,2.39-1.95,2.39-1.95,8.79-6.27,6.54-16.37,1.79-24.53h0Z"/>
  <path class="cls-22" d="M4529.92,852.8c-1.11,1.79,31.39-37.53,62.61-48.15-43.16,1.85-80.77,39.36-73.56,67.66,16.73-25.2,47.06-38.35,82.84-57.53-9.02,2.67-58.58,16.54-71.89,38.02Z"/>
  <path class="cls-22" d="M4629.61,808.9c67.45-32.95,144.39-22.7,211.64,1.79-8.4,21.51-26.13,43.92-73.65,51.45l-137.99-53.24Z"/>
  <path d="M4529.25,852.8c27.26-31.58,73.1-62.32,116.09-61.6-43.06,2.31-86.42,31.76-116.09,61.6h0Z"/>
  <path class="cls-22" d="M4523.39,749.1l-111.62,87.33.26-1.58c13.62-27.13,66.74-63.83,107.64-85.27l3.72-.47Z"/>
  <path class="cls-22" d="M4304.28,749.57l107.9,86.85-.26-1.58c-27.66-36.11-66.74-63.83-107.64-85.27h0Z"/>
  <path class="cls-22" d="M4599.24,949.1l-1.88,140.41c.06,12.26-1.28,24.49-3.99,36.45l-18.94,86.26,46.98-101.86-12.29-69.39-4.38-24.71-5.49-67.17Z"/>
  <g id="BrazoD">
    <path id="BrazoD-2" data-name="BrazoD" class="cls-14" d="M3896.98,744.53c7.91,3.27-137.96,162.8,32.25,200.94,92.41,18.42,203.28,35.02,270.58,14.41,20.58-7.61,82.04-1.05,102.81-5.63,38.19,3.03-4.18-121.45,26.06-147.88-66.64-94.97-104.75-30.47-192.05-26.09-61.59,3.09-132.97-51.76-140.25-52.01"/>
    <path class="cls-22" d="M4376.57,847.2c.17-.15-8.66-34.2-8.66-34.2-20.7-24.96-58.41-41.53-72.18-43.83-81.7-13.68-132.39,21.35-190.8,8.23,6.14,34.35,79.8,29.49,135.81,22.78,32.1-3.85,58.55,3.96,87.93,17.44,14.24,6.53,42.6,35.13,47.89,29.58Z"/>
  </g>
  <g id="BrazoI">
    <path id="BraziI" class="cls-14" d="M4647.94,1032.22c-11.53,35.57-30.06,97.27-36.27,106.09-9.69,13.76-26.59,43.86-49.63,107.84-12.66,35.16-22.8,50.55-7.39,68.23-.31,8.14-16.25,16.18-9.04,19.99h0c17.39,16.8,37.21,30.89,58.8,41.79l9.51,3.74c7.58,2.98,16.12,2.03,22.91-2.47,5.04-3.34,9.49-6.99,13.31-8.9,52.12,10.97,133.86-100.93,153.26-175.34,1.45-5.57,2.55-10.93,3.27-16.01.47-3.31-11.29-67.23-18.48-110.15-2.08-12.4-10.71-23.16-22.83-26.49"/>
    <path class="cls-22" d="M4801.51,1199.98c-17.49,54.43-50.13,114.25-111.21,159.16-11.68,8.59-26.59,12.35-40.68,8.94-4.97-1.2-9.79-3.13-14.3-5.78-10.04-5.88-29.27-13.13-39.89-18.32-42.1-40.35-78.71-18.36-21.15-130.22-8.52,16.56,4.41,31.16,1.02,49.13-3.16,23.25,18.58,34.36,37.51,45.73,75.69,45.47,114.62-12.31,143.96-43.23,4.42-4.55,38.78-63.28,44.75-65.42Z"/>
    <path d="M4545.37,1301.34l2.43,3.66c3.86,6.2,8.88,11.53,14.75,15.88,11.42,8.91,23.12,18.07,35.62,25.3,20.12,11.74,42.16,20.49,65.54,22.61-11.7-.4-23.39-2.46-34.56-6.16-22.31-7.53-42.66-20.12-60.66-35.14-4.5-3.78-9.24-7.27-13.25-11.6-4.05-4.31-7.03-9.42-9.87-14.54h0Z"/>
  </g>
  <g id="AntebrazoI">
    <path id="AntebrazoI-2" data-name="AntebrazoI" class="cls-14" d="M4696.28,1200.77c0-1.84-4.68-7.05-11.32-13.7-26.48-26.5-47.79-57.75-62.82-92.06-1.22-2.78-2.13-4.88-2.6-5.95-23.94-55.19-17.54-152.64-24.18-199.45,0,0,34.55-81.13,34.55-81.13,125.94,2.4,149.76,3.26,164.86,110.29,5.47,80.34,17.35,134.02,22.28,246.46.16,3.67-4.49,39.45-36.63,63.65l-84.14-28.1Z"/>
    <path class="cls-22" d="M4654.02,818.27c3.58,1.45,7.22,3.08,10.89,4.87,54.7,26.6,93.76,77.34,107.87,136.5,15.55,65.16,36.34,153.88,42.93,179.16-4.45-55.81-13.32-156.8-19.53-212.39-9.08-72.07-19.72-138.62-166.27-117.94l24.11,9.79Z"/>
    <g>
      <path class="cls-22" d="M4696.28,1200.77c-78.97-44.57-93.64-155.74-97.63-244.12l97.63,244.12Z"/>
      <path d="M4598.64,956.65c6.57,33.41,7.84,67.68,14.75,101.06,8.62,44.11,24.87,88.59,56.95,121.12,7.88,8.13,16.63,15.41,25.93,21.93-9.56-6.15-18.47-13.3-26.63-21.24-41.38-40.5-56.58-99.39-63.22-155.19-2.9-22.54-3.94-45.28-7.79-67.68h0Z"/>
    </g>
  </g>
  <g id="Serpiente">
    <path class="cls-11" d="M4337.79,1145.42c-23.29-25.21-29.51-54.76-8.91-85.04,16.72-24.58,37.82-21.7,59.33-34.19,23.44-13.61-.44-45.81-5.48-64.18-12.84-46.8,58.28-79.41,81.83-27.87,8.57,18.75,3.98,21.53-.55,38.36-9.28,34.43-5.2,62.33-38.8,84.69-14.81,9.86-42.3,15.16-52.55,24.18-11.47,10.09-7.39,29.07,9.79,26.63,32.51-4.63,46.14-61.14,85.56-65.56,4.5-.5,19.89,1.57,20.74.98,1.65.41,6.16,2.13,10.98,4.15,10.42,4.37,19.47,11.61,25.73,21.02,1.15,1.72,2.09,3.33,2.65,4.62,13.07,35.74,10.41,68.38-44.31,91.74-15.67,6.69-50.14,7.18-55.53,27.2-1.12,4.16.62,11.54,3.65,14.44,1.68,1.61,5.2,3.05,6.86,3.84,5.08,2.41,10.82,2.89,15.9,6.93,9.66,7.69,6.93,26.78-1.52,35.71-6.2-12.96-4.66-11.1-5.28-13.51-.83-3.24-3.65-5.63-6.98-5.99-7.2-.78-17.77.75-23.64-2.77-3.37-2.03-14.14-12.63-16.46-15.91-11.76-16.69-6.9-38.37,4.12-53.88,4.2-2.01,10.18-10.24,14.49-13.69,5.33-4.27,16.51-11.13,22.68-13.89,14.06-6.28,24.69-5.54,37.17-16.79,7.39-6.66,17.01-20.44,6.62-28.8-15.66-12.6-34.2,22.39-42.62,31.77-10.49,11.67-27.77,26.11-42.31,32.02-20.86,8.48-44.48,6.26-63.16-6.21ZM4448.46,977.93c2.73-3.31,9.16-6.77,12.13-11.24,9.77-14.66-1.02-38.7-14.51-47.68-28.84-19.19-63.51,7.42-59.04,39.86,1.41,10.26,11.06,14.37,16.69,21.67,3.1,4.01,2.59,10.26,10.27,11.36,5.53.8,8.26-2.19,12.02-2.33,4.24-.16,6.15,3.88,12.53,1.83,6.44-2.06,6.72-9.63,9.9-13.49ZM4439.7,996.75c-1.6.58-10.5-.82-8.38,4.19,2.41,5.69,8.55-1.3,9.58-1.79,1.07-.5,3.17-.06,5.22-1.34,6.53-4.08,11.62-13.92,12.75-21.44-9.17,3.52-9.88,17.04-19.17,20.38ZM4407.32,996.75c4.24,3.34,12.04,9.62,10.8,0-3.26.89-6.93-1.18-9.6-1.21-5.91-5.49-7.55-13.48-14.38-17.98,2.15,7.96,6.82,14.17,13.18,19.18ZM4427.71,1024.93v-30.57c-9.25-1.66-5.37,9.75-6.01,16.17-1.11,11.09-7.5,19.02-10.81,23.97,6.03-4.18,6.74-4.18,7.18-4.56,5.25-4.59,3.44,3.08,4.24,7.57M4442.09,1031.52c4.73-4.02,8.02-12.73,9.52-18.66,1.06-4.19-4.66,1.35-4.72-1.7,4.98-1.47,7.13-9.55,7.17-14.4-3.34,2.02-5.31,5.43-8.73,7.44-3.11,1.83-11.01,3.18-11.47,3.55-.61.49.02,1.91-.17,2.19-4.69,7.35-2.17,21.1-7.19,31.17-.82,1.65-8.99,7.17-9.59,7.19l-.59-10.78c-1.45,2.3-5.22,3.47-6.48,5.51-2.32,3.73.63,6.36-3.72,6.48-1.19-2.07-1.57-4.88-1.2-7.19s3.33-6.69,3.01-9.57c-3.53,2.93-7.53,4.83-9,9.57-4.56-1.54,3.99-8.5,3.6-10.18-.39-1.68-4.78-.83-3.59-4.21,4.83,1.86,10.09,1.61,13.26-2.97,1.21-1.75.79-3.65,1.12-4.23.38-.68,2.09-1.16,3-3.57,4.6-12.26,1.25-8.66-6.62-11.4-2.33-.81-3.38-3.28-5.96-3.02-.62.7.54,9.68,0,11.98-4.63,19.65-37.62,23.5-53.12,32.61-9.35,5.5-11.93,9.03-17.62,17.75-10.66,16.35-13.38,28.25-8.39,47.96,2.16,8.54,8.67,22.92,17.98,25.18.16,4.41,3.61,4.51,5.99,5.99,11.91,7.41,22.47,8,35.97,5.99.39-.06.81.07,1.2,0,38.15-6.77,49.86-35.92,73.14-59.95,6.75-6.97,17.44-14.34,27.58-9.59,2.23,1.04,7.93,7.6,8.39,9.59.5,2.17.23,9.34,0,11.99-1.68,19.65-24.78,26.03-39.56,32.37-23.82,10.22-53.71,23.92-56.35,53.95-.13,1.5-.07,3.27,0,4.8.63,13.72,10.45,26.71,23.33,31.22,7.47,2.61,15.72,2.35,22.67,5.43,1.96.87,3.5,2.48,4.39,4.43l4.75,10.46c5.5-14.22,3.43-19.75-9.58-26.37-6.19-3.15-12.86-3.74-17.98-8.39-.48-2.07-1.75-4.99-3.6-5.99-2.26-6.27-1.39-12.29,1.74-18.05,1.68-3.1,12.3-13.99,15.05-15.52,13.78-7.68,35.91-6.76,52.75-15.59,3.22-1.69,3.3-2.61,4.8-3.6,4.39-2.91,7.33-1.93,9.59-8.39.73-.14,1.85.22,2.4,0,9.61-3.81,18.69-30.54,19.19-40.22.19-3.57-1.1-5.11-1.21-6.54-1.2-15.7-1.45-19.38-11.99-31.17-11.15-12.47-26.03-18.69-43.16-17.98-19.77.82-29.21,13.16-40.76,26.38-16,18.31-31.73,43.56-59.95,39.56-.65-.09-2.57-1.95-4.8-2.4l-4.8-4.8c-1.21-7.49-.83-11.08-1.2-17.96.3-.57.64-1.22.94-1.78,2.4-1.7,3.36-4.7,5.6-6.69,12.44-11.08,30.68-13.56,45.03-20.91,4.27-2.18,12.96-6.87,14.37-11.41,1.36-.42,2.2.14,4.22-1.13,2.15-1.35,11.32-11,11.36-13.26,0-.4.1-1.01,0-1.2Z"/>
    <path class="cls-12" d="M4448.46,977.93c-3.18,3.86-3.46,11.42-9.9,13.49-6.38,2.04-8.29-1.99-12.53-1.83-3.75.14-6.49,3.12-12.02,2.33-7.68-1.11-7.17-7.35-10.27-11.36-5.63-7.3-15.28-11.41-16.69-21.67-4.47-32.44,30.2-59.05,59.04-39.86,13.49,8.98,24.28,33.01,14.51,47.68-2.98,4.47-9.41,7.93-12.13,11.24ZM4446.88,965.58c19.49,1.05,10.11-41.34-3.61-21-4.75,7.04-5.56,24.38,4.81,25.78l-1.2-4.78ZM4434.89,952.39,4431.28,961.98,4420.5,979.99c-.44-.55-7.42-3.26-8.38-2.41-1.83,1.62,1.97,5.49,4.47,5.81,2.67.35,5.12-1.88,3.91-3.4Z"/>
    <path class="cls-35" d="M4354.57,1053.1v8.4c4.37.09,8.81-.14,13.19,0l1.2,4.8c-16.37-.85-16.51,10.91-8.39,21.58.37,6.89,0,10.48,1.2,17.98.24,1.48-.18,3.26,0,4.8,1.52.21,3.4-.29,4.8,0,2.22.45,4.14,2.31,4.8,2.4-1.47,5.51,2.11,4.47,2.4,4.8.16.19-.19,1.59.33,2.02,1.44,1.16,2.93.97,3.73,1.48,4.73,3.03-12.11,5.17-9.95,10.17.37.85,9.47,7.44,10.68,7.91l-1.2,4.8c-2.79.02-5.6-.01-8.39,0-3.63-1.06-6.99-2.86-10.79-3.6-1.54-.3-5.05.57-5.86-.13-.3-.26-.5-3.58-1.48-5.1-2.65-4.16-7.93-8.71-13.04-9.15l-13.19-13.19c-4.99-19.7-2.27-31.61,8.39-47.96.8.35,5.69,1.22,5.99,1.2-1.77,5.23-6.26,7.37-5.94,13.61.19,3.68,5.41,18.73,10.09,17.56.83-.21,9.8-11.84,10.17-13.85.62-3.33-1.12-15.92-2.58-18.93-1.08-2.23-3.2-1.8-3.36-1.99-.08-.1-.08-1.88,0-2.4.39-2.51,3.69-6,5.99-7.19.04.07.81,0,1.2,0ZM4325.81,1083.08c-.8,7.83.89,12.87,7.79,16.76l-4.8-8.37-2.99-8.38ZM4356.96,1105.85c.93-.86-2.05-3.77-2.36-5.42-.48-2.52,1.31-7.83-1.21-8.95-4.95,3.51-.93,18.56,3.58,14.37ZM4334.18,1114.25l-1.78-13.18c-3.35,3.39-2.43,10.97,1.78,13.18ZM4367.75,1122.66c-.14-.16-2.46-.39-3.63-1.73-1.79-2.04-1.78-4.71-3.05-6.58-2.14-3.15-17.34-13.18-19.67-10.9-1.39,12.73.57,21.85,14.93,22.83,1.61.11,14.61.07,11.43-3.62ZM4371.36,1137.04c-.52-.48-11.27-3.94-13.18-4.8.33,4.72,7.42,7.27,11.36,7.24,1.9-.02,3.23-1.14,1.83-2.43Z"/>
    <path class="cls-24" d="M4500.84,1065.09c2.02,7.02,1.26,13.41,2.65,18.33.87,3.08,7.4,8.08,8.76,11.7,6.67,1.26,6.3-18.74,4.5-22.55-.35-.75-4.37-4.6-5.12-5.08.52-1.72,1.85-2.38,3.6-2.4,10.54,11.79,10.79,15.47,11.99,31.17-1.9,3.91-4.56,7.93-5.99,11.99-1.52,4.3-2.48,8.6-2.4,13.19-.98-.25-2.48.17-3.6,0,.7-2.82.24-18.42-3.02-19.18-1.12-.26-16.06,13.61-16.79,15.56-1.72,4.57-2.25,11.82-4.17,16.8,7.59-1.74,17.97-5.55,22.77-11.98.09,1.18-.13,2.42,0,3.6-4.6,6.06-12.96,9.26-18.02,13.75-3.5,3.1-4.06,7.05-5.95,9.03-.61.63-3.6,1.77-4.8,2.4-1.09.13-3.02-1.23-3.6-1.2.87-1.06,1.49-2.64,2.4-3.6,2.5-2.65,7.49-7.39,4.64-11.83-.32-.49-9.9-2.59-11.31-2.61-6.69-.07-12.19,10.05-17.28,13.84,4.64,4.59,12.76,5.38,19.16,5.4l1.2,2.4c-3.6.36-9.56.02-13.19,0-3.26-.02-6.68-1.19-8.39-1.2,1.3-1.23.94-4.92-.26-5.76-.35-.24-7.71-2.57-8.14-2.63.71-3.96,5.73-4.13,4.8-9.59,14.78-6.34,37.88-12.72,39.56-32.37l4.78-3.59v7.18c8.46-1.39.53-9.68.27-12.78-.17-2.01,2.51-5,2.22-9.37-.39-5.83-3.47-9.86-9.67-9.01-1.72-1.46-.9-2.96-4.8-3.6-2.18-.36-4.96.32-7.19,0v-1.2c1.83-1.08,5.62-5.87,8.39-5.99,2.29-.1,8.47,2.5,11.99,1.2ZM4522.41,1092.66l1.2-9.58c-1.67.52-3.56,9.21-1.2,9.58ZM4516.44,1105.85c3.36-2.21,4.2-8.27,4.77-11.99-4.68,2.33-5.22,7.29-4.77,11.99Z"/>
    <path class="cls-16" d="M4413.32,1020.73c-.33.58.1,2.48-1.12,4.23-3.17,4.58-8.43,4.83-13.26,2.97-1.19,3.38,3.2,2.53,3.59,4.21.39,1.67-8.16,8.64-3.6,10.18h5.99c-.38,2.31,0,5.13,1.2,7.19-.39.01-.82.04-1.2,0-9.83-1.1-10.45-3.84-18.02,4.21-.95,1.01-.89,2.64-1.16,2.98-.21.26-6.86,1.02,0,2.4-.09.42.14.94,0,1.2-1.45.23-3.53-.33-4.8,0,1.83-2.87,2.97-15.69,3.6-16.79.14-.24,3.65.83,2.39-3.6-1.97-.11-2.17,3.46-2.39,3.6-1.08.71-13.31-3.65-21.52,1.86-3.33,2.23-5.08,7.78-8.45,7.73-.39,0-1.16.07-1.2,0-.26-.45.31-2.14,0-2.39-2.68-2.1-8.58,8.65-8.4,11.37l2.41-1.78c-.08.52-.08,2.3,0,2.4-2.25,2.6-5.14,3.32-8.39,3.6-.3.03-5.19-.85-5.99-1.2,5.69-8.72,8.27-12.25,17.62-17.75,15.49-9.11,48.48-12.96,53.12-32.61,1.98,2.89,6.28,4.8,9.59,5.99ZM4395.33,1035.13c-2.9-.14-7.45,1.17-7.19,4.78.86.85,6.84-3.24,7.19-4.78Z"/>
    <path class="cls-10" d="M4458.88,1090.27c-23.28,24.03-34.99,53.18-73.14,59.95-.24-2.37-3.05-3.93-1.2-5.99,7.8-1.01,8.49-5.64,13.19-5.99.06,0-.17,1.11.56,1.07,5.24-.29,6.74-4.38,7.83-8.27.3-1.06-.84-2.78,1.18-2.39,0,6.3,9.29-3.06,13.2-2.41-.31.93-2.47,2.69-.61,3.59,3.51-3.05,4.15-8.03,6.6-11.98.76-1.22,1.6-2.4,2.4-3.6,2.76-4.02,15.43-7.61,10.79-13.19,1.36-1.78,2.7-6.09,3.6-7.19,1.36-1.67,5.77-3.33,5.99-3.6l2.38,3.59c1.41-4.68.79-10.74,6.01-13.18.97,3.56.42,6.09,1.2,9.59Z"/>
    <path class="cls-24" d="M4424.11,1119.04c-1.16,1.39-2.99,5.36-3.6,7.19-3.92-.65-13.21,8.71-13.2,2.41-2.02-.39-.89,1.33-1.18,2.39l-8.39,7.19c-4.7.35-5.39,4.98-13.19,5.99-2.14.28-4.91-.01-7.19,0l1.2-4.8c6.53,2.5,15.78-2.37,19.08-7.97,2.01-3.42-.06-4.52.1-6.42,6.55.79,19.41-.85,22.78-7.19l3.6,1.2Z"/>
    <path class="cls-24" d="M4433.7,1075.88c-3.81,4.53-10.02,17.3-6.63,22.82,2.04,3.32,11.56-5.15,15.02-4.83h1.2c-.9,1.11-2.24,5.42-3.6,7.19-.34.44-.87.77-1.2,1.2-5.44.01-7.27,5.09-13.19,2.4.4-9.04-10.7-4.84-15.53-1.74-6.74,4.33-11.39,14.43-12.05,22.12-5.04-.61-8.17-5.2-11.58-5.63s-7.78,1.7-12.39-1.57c-.29-.33-3.86.72-2.4-4.8,28.22,3.99,43.94-21.26,59.95-39.56l2.4,2.4Z"/>
    <path class="cls-16" d="M4455.28,1134.63c.93,5.46-4.08,5.64-4.8,9.59-12.91-2.01-18.06,7.83-21.58,17.98-.92,2.66-2.34,3.39-2.4,3.6-18.26-.49-22.53,10.24-16.79,26.38-1.19.08-2.4-.05-3.6,0-.02-.4.04-.8,0-1.2-.11-1.18.08-2.41,0-3.59-3.92-.21-1.16,4.28-7.19,1.19,2.64-30.04,32.53-43.73,56.35-53.95Z"/>
    <path class="cls-10" d="M4426.51,1047.11c-1.4,4.55-10.1,9.23-14.37,11.41-14.35,7.35-32.59,9.83-45.03,20.91-2.51,2.23-3.41,5.73-6.54,7.25-.55-13.59-7.04-15.66,9.03-16.8,2.29-.16,4.82,1.33,4.15-2.38,1.2-.01,2.4.02,3.6,0l-.02,3.59c-.44-4.28,6.79-1.65,9.6-3.6.18-2.05-4.73-1.29-5.99-1.18,1.2-2.34,3.59-3.65,4.8-5.99.14-.26-.09-.78,0-1.2.08-.38-.06-.81,0-1.2,7.62-5.63,5.32-8.94,15.59-7.19,2.8,9.97,11.19-2.22,15.59-2.4.6-.02,3.74-.63,4.41-.7,1.62-.17,4.23-.21,5.18-.5Z"/>
    <path class="cls-10" d="M4403.73,1193.38c-.45,4.12-.98,8.37,2.4,10.79.25.18,1.68-.48,2.21.22.84,1.11-1.05,4.31,2.59,3.38.1,7.88,6.79,11.09,13.99,11.94,1.64.19,2.64-1.17,2.79-1.15,4.63.6,12.33,3.08,16.79,4.8,4.34,1.67,8.54,5.24,2.94,8.39-7.51-4.95-16.53-4.12-25.16-7.14-12.88-4.51-22.71-17.5-23.33-31.22h4.8Z"/>
    <path class="cls-26" d="M4492.45,1155.01c-16.84,8.83-38.97,7.91-52.75,15.59l-.94-.74.94-4.06c2.08-.47,6.92-3.04,9.85-3.94,4.49-1.37,9.23-2.15,12.61-3.67l5.12-4.38c3.63.02,9.59.36,13.19,0,4.54-.46,3.37-1.64,4.8-2.4,1.19-.63,4.19-1.76,4.8-2.4l2.4,5.99Z"/>
    <path class="cls-25" d="M4515.23,1065.09c-1.75.02-3.08.68-3.6,2.4-1.84-1.16-6.47-1.92-8.71-3.56-1.47-1.08-2.02-3.35-3.9-4.82-.47-.37-2.58-.64-1.03,1.12,1.8,2.03,1.99,1.9,2.84,4.87-3.52,1.3-9.7-1.3-11.99-1.2,1.85-2.38.89-2.9-.52-4.83-3.32-4.53-10.4-11.65-16.26-9.55v-2.4c17.13-.71,32.02,5.51,43.16,17.98Z"/>
    <path class="cls-31" d="M4422.27,996.22l5.44-1.87c0,3.22-2.34,41.19-5.4,43.16-1.32-3.03,1.01-12.16-4.24-7.57-.45.39-7.18,4.56-7.18,4.56,0,0,9.7-12.89,10.81-23.97.64-6.42-.88-7.79.57-14.3Z"/>
    <path class="cls-10" d="M4433.7,1009.94c.18-.28-.44-1.7.17-2.19.47-.38,8.36-1.72,11.47-3.55,3.43-2.02,5.39-5.42,8.73-7.44-.04,4.85-2.19,12.93-7.17,14.4.06,3.06,5.78-2.48,4.72,1.7-1.5,5.93-4.79,14.65-9.52,18.66-.15-.28-1.92-.77-2.4-1.73-2.33-4.63-2.58-5.2-1.19-10.26.35-1.29,2.55-2.42,2.28-4.03-.23-1.37-5.07-5.77-7.08-5.57Z"/>
    <path class="cls-26" d="M4479.26,1069.89c.13.58.64,1.12,1.2,1.2,2.23.32,5.01-.36,7.19,0l-1.2,9.59c-10.14-4.75-20.83,2.63-27.58,9.59-.78-3.5-.23-6.03-1.2-9.59-.18-.65.12-1.64,0-2.4,3.9-3.33,9.73-4.62,13.19-8.39,1.41.5,3.11,2.09,4.4,2.17,1.75.11,2.68-1.47,3.99-2.17Z"/>
    <path class="cls-12" d="M4472.07,1047.11v2.4c-2.16.77-10.45,7.69-11.99,9.59l-.66-1.16c-1.92,1.47-6.36,1.68-7.74,2.36-2.68,1.33-4.66,4.2-4.8,7.19-2.18-.53-3.07,2.13-3.6,2.4-3.46,1.76-6.3,2.08-9.59,5.99l-2.4-2.4c11.55-13.22,20.99-25.56,40.76-26.38Z"/>
    <path class="cls-10" d="M4509.23,1143.02c.34-2.92.49-7.25,1.52-9.87,1.28-3.26,3.76-2.59,3.28-6.91-.13-1.17.09-2.41,0-3.6.34-.45,1.17-1.06,1.2-1.2,1.12.17,2.62-.25,3.6,0,.18.05.81,1.73,2.39,1.19-1.16-4.72,2-10.79,0-14.38,1.43-4.06,4.09-8.08,5.99-11.99.11,1.43,1.39,2.96,1.21,6.54-.5,9.68-9.58,36.41-19.19,40.22Z"/>
    <path class="cls-10" d="M4439.7,1170.6c-2.75,1.53-13.37,12.43-15.05,15.52-3.13,5.76-4,11.78-1.74,18.05-1.03-.56-3.5-1.05-5.99-2.4v-13.19c4.84-4.15,7.09-7.33,8.39-13.19,1.45-1.97,2.87-3.29,4.8-4.8l.73,1.14c3.49-.11,6.85-2.51,7.66-5.94.03.05.9.07,1.2,0l-.94,4.06.94.74Z"/>
    <path class="cls-10" d="M4368.96,1144.22c5.14,1.5,11.93,2.38,15.59,5.99-13.5,2-24.06,1.42-35.97-5.99,2.69-3.31,10.65,1.48,9.59-3.6,3.8.73,7.16,2.54,10.79,3.6Z"/>
    <path class="cls-10" d="M4403.73,1014.73c.54-2.31-.61-11.29,0-11.98,2.58-.27,3.63,2.2,5.96,3.02,7.87,2.74,11.22-.87,6.62,11.4-.9,2.41-2.61,2.89-3,3.57-3.32-1.2-7.61-3.11-9.59-5.99Z"/>
    <path class="cls-16" d="M4438.5,1019.53c-6.25.31-2.21,7.95-2.4,10.79-.1,1.48-4.09,8.04-5.35,9.63-.79,1-3.39,3.86-4.24,1.16,5.03-10.07,2.5-23.82,7.19-31.17,2.01-.21,6.84,4.19,7.08,5.57.27,1.61-1.93,2.74-2.28,4.03Z"/>
    <path class="cls-10" d="M4324.6,1113.05l13.19,13.19c3.43,3.03,7.91,5.71,8.39,10.79v1.2c-1.12-.16-2.6.24-3.6,0-9.31-2.26-15.82-16.63-17.98-25.18Z"/>
    <path class="cls-17" d="M4410.92,1207.76c-.03-2.38.6-10.4,3.58-8.37.17.12-.79.64,2.42,2.37,2.5,1.35,4.97,1.84,5.99,2.4,1.84,1.01,3.12,3.93,3.6,5.99.02.09-.99.82-.86,1.6.41,2.32,1.84,4.41,2.06,6.8-.15-.02-1.15,1.35-2.79,1.15-7.21-.85-13.89-4.07-13.99-11.94ZM4413.33,1204.17c-.83,8.45,3.75,11.77,11.4,13.16-1.48-5.63-4.79-12.35-11.4-13.16Z"/>
    <path class="cls-10" d="M4492.45,1074.68c4.54,3.86,13.22,13.89,2.4,15.59-.46-1.99-6.17-8.55-8.39-9.59l1.2-9.59c3.89.64,3.07,2.13,4.8,3.6Z"/>
    <path class="cls-24" d="M4444.49,1218.55c13.01,6.62,15.07,12.15,9.58,26.37l-6.64-13.18c5.6-3.15,1.4-6.72-2.94-8.39v-4.8Z"/>
    <path class="cls-10" d="M4497.24,1151.41c-9.15,1.42-3.42-5.82-.02-9.01,1.17-1.1,10.04-7.42,10.81-6.57-.33,2.08-.54,5.32-1.19,7.19-2.26,6.46-5.2,5.49-9.59,8.39Z"/>
    <path class="cls-17" d="M4492.45,1074.68c6.2-.85,9.28,3.18,9.67,9.01.29,4.37-2.39,7.37-2.22,9.37.26,3.1,8.2,11.39-.25,12.78v-7.18s-4.8,3.59-4.8,3.59c.23-2.65.5-9.82,0-11.99,10.83-1.69,2.14-11.73-2.4-15.59Z"/>
    <path class="cls-17" d="M4440.89,999.15l-1.2-2.4c9.3-3.35,10-16.86,19.17-20.38-1.14,7.52-6.22,17.36-12.75,21.44-2.05,1.28-4.15.84-5.22,1.34Z"/>
    <path class="cls-17" d="M4509.23,1143.02c-.54.22-1.67-.14-2.4,0,.65-1.86.86-5.1,1.19-7.19-.77-.86-9.64,5.47-10.81,6.57-3.4,3.19-9.12,10.44.02,9.01-1.49.99-1.57,1.91-4.8,3.6l-2.4-5.99c1.9-1.98,2.45-5.93,5.95-9.03,5.06-4.48,13.42-7.68,18.02-13.75.48,4.32-2,3.65-3.28,6.91-1.03,2.63-1.18,6.95-1.52,9.87Z"/>
    <path class="cls-13" d="M4442.09,1032.72c-.05,2.26-9.21,11.9-11.36,13.26-2.02,1.27-2.86.72-4.22,1.13-.95.29-8.72.89-9.59,1.2,3.49-2.07,8.77-5.55,9.59-7.19.85,2.7,3.45-.15,4.24-1.16,1.26-1.59,5.25-8.15,5.35-9.63l5.99,2.4Z"/>
    <path class="cls-13" d="M4444.49,1218.55v4.8c-4.46-1.71-12.16-4.19-16.79-4.8-.22-2.39-1.65-4.47-2.06-6.8-.14-.78.88-1.51.86-1.6,5.12,4.66,11.79,5.24,17.98,8.39Z"/>
    <path class="cls-13" d="M4416.92,1048.3c-4.39.18-12.79,12.37-15.59,2.4,1.61.27,3.07,1.39,4.79,1.19l-1.2-2.39c.38.04.81.01,1.2,0,4.34-.12,1.4-2.74,3.72-6.48,1.26-2.03,5.03-3.21,6.48-5.51l.59,10.78Z"/>
    <path class="cls-17" d="M4337.79,1126.24c5.11.44,10.39,5,13.04,9.15.97,1.52,1.18,4.84,1.48,5.1.81.7,4.33-.16,5.86.13,1.06,5.07-6.91.29-9.59,3.6-2.38-1.48-5.84-1.59-5.99-5.99.99.24,2.48-.16,3.6,0,3.4.48,3.4-1.68,0-1.2-.48-5.08-4.96-7.76-8.39-10.79Z"/>
    <path class="cls-17" d="M4368.96,1066.29c.53.03,2.11,1.23,4.8,1.2.66,3.71-1.86,2.22-4.15,2.38-16.07,1.14-9.59,3.21-9.03,16.8.02.4-.02.8,0,1.2-8.11-10.67-7.98-22.43,8.39-21.58Z"/>
    <path class="cls-17" d="M4407.32,996.75c-6.36-5.01-11.02-11.22-13.18-19.18,6.83,4.5,8.46,12.49,14.38,17.98-.54,0-1.42.48-1.2,1.2Z"/>
    <path class="cls-10" d="M4439.7,996.75l1.2,2.4c-1.03.48-7.18,7.48-9.58,1.79-2.12-5,6.78-3.61,8.38-4.19Z"/>
    <path class="cls-10" d="M4408.52,995.55c2.67.03,6.34,2.1,9.6,1.21,1.24,9.61-6.55,3.33-10.8,0-.22-.72.66-1.2,1.2-1.2Z"/>
    <path class="cls-17" d="M4377.35,1144.22c2.29-.01,5.05.28,7.19,0-1.85,2.07.96,3.62,1.2,5.99-.39.07-.81-.06-1.2,0-3.65-3.61-10.44-4.49-15.59-5.99,2.8-.01,5.6.02,8.39,0Z"/>
    <path class="cls-13" d="M4404.93,1042.31h-5.99c1.47-4.74,5.47-6.64,9-9.57.32,2.88-2.64,7.31-3.01,9.57Z"/>
    <path class="cls-17" d="M4438.5,1019.53c-1.38,5.05-1.14,5.63,1.19,10.26.48.96,2.26,1.45,2.4,1.73.1.19,0,.8,0,1.2l-5.99-2.4c.18-2.84-3.85-10.48,2.4-10.79Z"/>
    <path class="cls-13" d="M4398.93,1188.58c6.03,3.08,3.27-1.41,7.19-1.19.09,1.18-.1,2.41,0,3.59-2.51-.42-2.19.51-2.4,2.4h-4.8c-.07-1.52-.13-3.29,0-4.8Z"/>
    <path class="cls-24" d="M4366.56,1110.65c-1.4-.28-3.29.21-4.8,0-.18-1.54.24-3.32,0-4.8l4.8,4.8Z"/>
    <path class="cls-1" d="M4446.88,965.58l1.2,4.78c-10.37-1.4-9.56-18.75-4.81-25.78,13.72-20.33,23.1,22.05,3.61,21Z"/>
    <path class="cls-1" d="M4407.47,965.58l-1.2,4.78c10.37-1.4,9.56-18.75,4.81-25.78-13.72-20.33-23.1,22.05-3.61,21Z"/>
    <path class="cls-15" d="M4420.5,979.99c1.21,1.52-1.24,3.74-3.91,3.4-2.49-.32-6.3-4.19-4.47-5.81.96-.85,7.94,1.86,8.38,2.41Z"/>
    <path class="cls-15" d="M4432.41,979.99c-1.21,1.52,1.24,3.74,3.91,3.4,2.49-.32,6.3-4.19,4.47-5.81-.96-.85-7.94,1.86-8.38,2.41Z"/>
    <path class="cls-26" d="M4430.46,964.16s-.22-11.96,4.42-11.57c.14,1.45-4.42,11.57-4.42,11.57Z"/>
    <path class="cls-26" d="M4424.58,964.16s.22-11.96-4.42-11.57c-.14,1.45,4.42,11.57,4.42,11.57Z"/>
    <path class="cls-17" d="M4338.98,1066.29c3.25-.28,6.14-1,8.39-3.6.16.2,2.28-.23,3.36,1.99,1.46,3.01,3.2,15.6,2.58,18.93-.37,2.01-9.34,13.64-10.17,13.85-4.69,1.16-9.9-13.88-10.09-17.56-.33-6.25,4.16-8.38,5.94-13.61ZM4347.37,1066.29c-.68-.84-9.92,7.18-10.53,9.23-1.6,5.38.44,22.04,7.45,14.65,6.58-6.94,4.2-15.34,3.08-23.88Z"/>
    <path class="cls-17" d="M4384.54,1043.51c.21-.14.42-3.71,2.39-3.6,1.26,4.43-2.25,3.36-2.39,3.6-.63,1.09-1.77,13.92-3.6,16.79-7.52,1.99-5.47,1.43-13.19,1.2-4.38-.13-8.81.09-13.19,0v-8.4c3.38.05,5.13-5.5,8.46-7.73,8.21-5.51,20.44-1.15,21.52-1.86ZM4382.14,1045.91c-10.21-1.05-20.9-.09-22.77,11.98,3.89-1.32,14.17,1.78,16.73.65,3.71-1.63,5.43-8.92,6.04-12.63Z"/>
    <path class="cls-17" d="M4367.75,1122.66c3.18,3.69-9.82,3.73-11.43,3.62-14.36-.98-16.32-10.1-14.93-22.83,2.33-2.28,17.53,7.74,19.67,10.9,1.27,1.87,1.27,4.54,3.05,6.58,1.18,1.34,3.49,1.57,3.63,1.73ZM4360.57,1122.63c-2.36-8.38-7.52-11.82-15.57-14.37-2.16,12.11,4.9,14.77,15.57,14.37Z"/>
    <path class="cls-17" d="M4397.73,1125.04c-.16,1.9,1.91,3-.1,6.42-3.29,5.6-12.55,10.47-19.08,7.97-1.22-.47-10.32-7.06-10.68-7.91-2.16-5,14.68-7.14,9.95-10.17-.8-.51-2.29-.32-3.73-1.48-.53-.42-.17-1.83-.33-2.02,4.62,3.26,8.89,1.13,12.39,1.57s6.54,5.02,11.58,5.63ZM4384.23,1124.04c-1.38.21-11.46,5.52-11.67,6.41-.47,1.97,9.6,7.7,11.38,7.7,3.19.01,8.69-5.65,11.37-7.72-2.32-2.68-7.34-6.95-11.08-6.39Z"/>
    <path class="cls-17" d="M4425.31,1104.65c-.03.7-4.33,12.32-4.8,13.19-3.37,6.34-16.23,7.99-22.78,7.19.66-7.69,5.3-17.79,12.05-22.12,4.83-3.1,15.93-7.3,15.53,1.74ZM4421.71,1103.46c-10.44-.38-17.86,8.09-19.17,17.97,12.65.66,15.88-7.63,19.17-17.97Z"/>
    <path class="cls-25" d="M4385.74,1060.29c-1.21,2.34-3.6,3.66-4.8,5.99-1.35.11-3.01,1.19-3.6,1.2-1.2.02-2.4-.01-3.6,0-2.69.03-4.26-1.17-4.8-1.2l-1.2-4.8c7.72.23,5.67.79,13.19-1.2,1.26-.33,3.34.23,4.8,0Z"/>
    <path class="cls-17" d="M4356.96,1105.85c-4.51,4.18-8.53-10.87-3.58-14.37,2.52,1.13.74,6.43,1.21,8.95.31,1.65,3.29,4.55,2.36,5.42Z"/>
    <path class="cls-26" d="M4371.36,1137.04c1.4,1.29.08,2.42-1.83,2.43-3.94.03-11.03-2.52-11.36-7.24,1.92.86,12.67,4.33,13.18,4.8Z"/>
    <path class="cls-10" d="M4325.81,1083.08l2.99,8.38,4.8,8.37c-6.9-3.89-8.59-8.92-7.79-16.76Z"/>
    <path class="cls-17" d="M4334.18,1114.25c-4.21-2.21-5.13-9.8-1.78-13.18l1.78,13.18Z"/>
    <path class="cls-26" d="M4347.38,1060.29l-2.41,1.78c-.18-2.71,5.72-13.47,8.4-11.37.31.25-.25,1.94,0,2.39-2.3,1.2-5.6,4.69-5.99,7.19Z"/>
    <path class="cls-17" d="M4515.23,1121.44c-.03.14-.86.74-1.2,1.2-4.8,6.43-15.18,10.24-22.77,11.98,1.92-4.99,2.45-12.23,4.17-16.8.73-1.95,15.67-15.82,16.79-15.56,3.26.76,3.72,16.36,3.02,19.18ZM4511.63,1108.26c-9.55,3.51-14.76,11.75-15.57,21.57,11.24-2.7,17-9.74,15.57-21.57Z"/>
    <path class="cls-17" d="M4488.85,1063.89c-2.77.12-6.56,4.91-8.39,5.99-.29.17-.89-.17-1.2,0-1.31.7-2.24,2.29-3.99,2.17-1.29-.08-2.99-1.67-4.4-2.17-2.42-.86-11.75-4.41-12.68-5.97-.51-.85,1.27-4.07,1.89-4.82,1.54-1.9,9.83-8.82,11.99-9.59,5.86-2.09,12.94,5.03,16.26,9.55,1.42,1.93,2.38,2.46.52,4.83ZM4463.73,1063.83c.34.49,9.73,3.73,11.26,3.63,2.29-.15,8.83-4.98,8.84-6.55.01-1.7-6.81-9.37-9.91-9.07-2.45.24-11.89,9.52-10.2,11.99Z"/>
    <path class="cls-17" d="M4450.49,1144.22c.42.07,7.78,2.39,8.14,2.63,1.2.84,1.56,4.53.26,5.76-3.78-.01-5.69,5.43-9.52,6.66-5.69,1.83-14.38,1.09-20.45,2.93,3.53-10.15,8.67-19.99,21.58-17.98ZM4433.7,1157.4c7.6-.04,18.29.93,21.58-7.76-8.17-6.58-17.79-.36-21.58,7.76Z"/>
    <path class="cls-17" d="M4500.84,1065.09c-.85-2.96-1.04-2.83-2.84-4.87-1.55-1.76.55-1.49,1.03-1.12,1.88,1.48,2.43,3.74,3.9,4.82,2.23,1.64,6.87,2.4,8.71,3.56.75.47,4.77,4.33,5.12,5.08,1.8,3.81,2.17,23.81-4.5,22.55-1.36-3.62-7.89-8.62-8.76-11.7-1.39-4.92-.64-11.31-2.65-18.33ZM4514.02,1091.46c2.68-11.13,3.23-18.18-8.37-22.78.23,8.27.02,18.31,8.37,22.78Z"/>
    <path class="cls-25" d="M4458.88,1152.61c1.72,0,5.14,1.18,8.39,1.2l-5.12,4.38c-3.37,1.52-8.12,2.3-12.61,3.67-2.93.89-7.77,3.46-9.85,3.94-.3.07-1.17.05-1.2,0-.23-.42.19-1.68-.01-2.4-1.75-.36-1.3,2.24-2.93,3.65-1.44,1.25-3.61,2.1-5.46,3.54-1.93,1.5-3.34,2.83-4.8,4.8.73-3.3.62-7.33,1.2-9.59.05-.21,1.47-.93,2.4-3.6,6.07-1.84,14.76-1.1,20.45-2.93,3.83-1.23,5.74-6.68,9.52-6.66Z"/>
    <path class="cls-17" d="M4479.26,1151.41c-6.4-.02-14.52-.8-19.16-5.4,5.09-3.79,10.59-13.91,17.28-13.84,1.42.01,11,2.11,11.31,2.61,2.86,4.44-2.14,9.19-4.64,11.83.39-.4,3.08-9.38,2.4-10.79-6.97-2.05-17.56,2.45-20.38,9.01-1,2.33,5.15,2.91,6.61,2.98,1.86.1,10.67-.49,11.37-1.2-.91.96-1.53,2.53-2.4,3.6-1.28.08-2.26,1.2-2.4,1.2Z"/>
    <path class="cls-26" d="M4516.44,1105.85c-.45-4.7.09-9.66,4.77-11.99-.57,3.72-1.41,9.78-4.77,11.99Z"/>
    <path class="cls-17" d="M4521.22,1108.25c1.99,3.59-1.17,9.66,0,14.38-1.58.54-2.21-1.15-2.39-1.19-.09-4.59.88-8.88,2.4-13.19Z"/>
    <path class="cls-26" d="M4522.41,1092.66c-2.36-.37-.47-9.06,1.2-9.58l-1.2,9.58Z"/>
    <path class="cls-25" d="M4481.66,1150.21c.57-.03,2.5,1.33,3.6,1.2-1.43.75-.25,1.94-4.8,2.4l-1.2-2.4c.13,0,1.11-1.12,2.4-1.2Z"/>
    <path class="cls-25" d="M4480.46,1071.08c-.56-.08-1.07-.62-1.2-1.2.31-.17.91.17,1.2,0v1.2Z"/>
    <path class="cls-17" d="M4404.93,1049.5l1.2,2.39c-1.73.2-3.19-.91-4.79-1.19-10.27-1.75-7.96,1.56-15.59,7.19v-1.2c.28-.34.21-1.97,1.16-2.98,7.57-8.06,8.19-5.31,18.02-4.21Z"/>
    <path class="cls-17" d="M4395.33,1035.13c-.34,1.53-6.33,5.62-7.19,4.78-.27-3.61,4.29-4.92,7.19-4.78Z"/>
    <path class="cls-25" d="M4385.74,1056.7v1.2c-.06.39.08.82,0,1.2-6.86-1.38-.21-2.14,0-2.4Z"/>
    <path class="cls-35" d="M4460.08,1059.1c-.61.75-2.4,3.97-1.89,4.82.93,1.55,10.26,5.11,12.68,5.97-3.46,3.77-9.29,5.06-13.19,8.39-4.39,3.75-6.05,9.27-8.39,11.99-.23.26-4.64,1.92-5.99,3.6h-1.2c4.5-7.19,1.99-16.12,1.2-23.98.53-.27,1.42-2.93,3.6-2.4-.33,7.41,6.44,6.11,11.98,5.98-1.57-2.71-7.26-1.38-9.07-4.77-1.66-3.13,2.42-4.96,1.88-8.4,1.38-.68,5.81-.89,7.74-2.36l.66,1.16Z"/>
    <path class="cls-16" d="M4438.5,1102.26c-3.01,3.96-6.9,7.94-9.59,11.99-.8,1.2-1.64,2.37-2.4,3.6-.62.46-2.01.74-2.4,1.2l-3.6-1.2c.46-.87,4.76-12.49,4.8-13.19,5.92,2.7,7.75-2.39,13.19-2.4Z"/>
    <path class="cls-17" d="M4439.7,1101.06c4.64,5.58-8.03,9.17-10.79,13.19,2.69-4.05,6.58-8.03,9.59-11.99.33-.43.86-.76,1.2-1.2Z"/>
    <path class="cls-17" d="M4397.73,1138.22l8.39-7.19c-1.09,3.88-2.6,7.98-7.83,8.27-.73.04-.5-1.08-.56-1.07Z"/>
    <path class="cls-17" d="M4457.68,1080.68c-5.22,2.44-4.6,8.5-6.01,13.18l-2.38-3.59c2.35-2.72,4-8.24,8.39-11.99.12.76-.18,1.75,0,2.4Z"/>
    <path class="cls-17" d="M4426.51,1117.84c-2.45,3.96-3.09,8.93-6.6,11.98-1.86-.9.3-2.66.61-3.59.6-1.83,2.44-5.81,3.6-7.19.38-.46,1.77-.74,2.4-1.2Z"/>
    <path class="cls-17" d="M4443.29,1069.89c.79,7.86,3.3,16.79-1.2,23.98-3.46-.32-12.98,8.15-15.02,4.83-3.39-5.52,2.82-18.28,6.63-22.82,3.29-3.92,6.13-4.24,9.59-5.99ZM4428.91,1096.26c11.51-4.27,13.51-9.59,11.97-21.57-7.49,4.91-11.27,12.81-11.97,21.57Z"/>
    <path class="cls-17" d="M4426.51,1165.8c-.58,2.26-.47,6.3-1.2,9.59-1.3,5.86-3.56,9.04-8.39,13.19-2.62,2.25-3.63,3.35-7.19,3.6-5.75-16.14-1.47-26.86,16.79-26.38ZM4421.71,1169.4c-10.58,1.08-15.61,8.59-8.99,17.95,5.7-5.26,10.62-9.24,8.99-17.95Z"/>
    <path class="cls-13" d="M4416.92,1201.77c-3.21-1.73-2.25-2.26-2.42-2.37-2.98-2.03-3.61,5.99-3.58,8.37-3.64.93-1.75-2.27-2.59-3.38-.52-.7-1.96-.04-2.21-.22-.13-3.98.18-8.02,0-11.99,1.19-.05,2.41.08,3.6,0,3.56-.24,4.57-1.35,7.19-3.6v13.19Z"/>
    <path class="cls-26" d="M4406.13,1190.98c.04.39-.02.8,0,1.2.18,3.97-.13,8.01,0,11.99-3.38-2.42-2.85-6.67-2.4-10.79.21-1.88-.11-2.82,2.4-2.4Z"/>
    <path class="cls-17" d="M4380.95,1066.29c1.26-.1,6.16-.87,5.99,1.18-2.81,1.95-10.04-.68-9.6,3.6l.02-3.59c.59,0,2.24-1.09,3.6-1.2Z"/>
    <path class="cls-17" d="M4451.68,1060.29c.55,3.44-3.54,5.27-1.88,8.4,1.8,3.39,7.5,2.06,9.07,4.77-5.54.13-12.32,1.43-11.98-5.98.14-3,2.12-5.87,4.8-7.19Z"/>
    <path class="cls-26" d="M4438.5,1165.8c-.81,3.43-4.18,5.82-7.66,5.94l-.73-1.14c1.85-1.44,4.02-2.3,5.46-3.54,1.62-1.41,1.17-4.01,2.93-3.65.2.72-.22,1.97.01,2.4Z"/>
    <path class="cls-26" d="M4346.18,1137.03c3.4-.48,3.4,1.68,0,1.2v-1.2Z"/>
    <path class="cls-19" d="M4413.33,1204.17c6.61.8,9.91,7.53,11.4,13.16-7.64-1.39-12.23-4.71-11.4-13.16Z"/>
    <path class="cls-19" d="M4347.37,1066.29c1.12,8.54,3.51,16.95-3.08,23.88-7.01,7.39-9.05-9.27-7.45-14.65.61-2.06,9.85-10.07,10.53-9.23Z"/>
    <path class="cls-19" d="M4382.14,1045.91c-.61,3.71-2.33,11-6.04,12.63-2.56,1.12-12.84-1.98-16.73-.65,1.87-12.07,12.56-13.02,22.77-11.98Z"/>
    <path class="cls-19" d="M4360.57,1122.63c-10.67.4-17.74-2.27-15.57-14.37,8.05,2.55,13.21,5.99,15.57,14.37Z"/>
    <path class="cls-19" d="M4384.23,1124.04c3.74-.56,8.77,3.71,11.08,6.39-2.68,2.07-8.18,7.73-11.37,7.72-1.79,0-11.85-5.73-11.38-7.7.21-.89,10.29-6.2,11.67-6.41Z"/>
    <path class="cls-19" d="M4511.63,1108.26c1.43,11.83-4.34,18.87-15.57,21.57.82-9.82,6.02-18.06,15.57-21.57Z"/>
    <path class="cls-19" d="M4463.73,1063.83c-1.7-2.46,7.74-11.75,10.2-11.99,3.09-.3,9.92,7.37,9.91,9.07-.01,1.57-6.55,6.4-8.84,6.55-1.53.1-10.93-3.14-11.26-3.63Z"/>
    <path class="cls-19" d="M4433.7,1157.4c3.78-8.12,13.4-14.34,21.58-7.76-3.28,8.69-13.97,7.72-21.58,7.76Z"/>
    <path class="cls-19" d="M4514.02,1091.46c-8.35-4.47-8.14-14.5-8.37-22.78,11.6,4.6,11.05,11.65,8.37,22.78Z"/>
    <path class="cls-19" d="M4484.06,1146.62c-.7.71-9.51,1.3-11.37,1.2-1.45-.08-7.61-.66-6.61-2.98,2.82-6.55,13.41-11.05,20.38-9.01.68,1.41-2.01,10.39-2.4,10.79Z"/>
    <path class="cls-19" d="M4421.71,1103.46c-3.29,10.35-6.52,18.63-19.17,17.97,1.31-9.88,8.73-18.35,19.17-17.97Z"/>
    <path class="cls-19" d="M4428.91,1096.26c.71-8.77,4.48-16.66,11.97-21.57,1.53,11.99-.46,17.31-11.97,21.57Z"/>
    <path class="cls-19" d="M4421.71,1169.4c1.64,8.71-3.28,12.7-8.99,17.95-6.62-9.37-1.59-16.88,8.99-17.95Z"/>
    <path class="cls-31" d="M4421.24,994.35c2.2-.35,6.47,0,6.47,0,3.87,32.78-3.78,37.77-5.4,43.16"/>
  </g>
  <g id="Cuello">
    <path class="cls-30" d="M4418.12,783.5c44.39-26.4,85.33-46.7,96.3-54.89-4.88-.22-30.99-6.7-37.46-11.07-22.08-16.76-25.25-69.22-16.46-97.69l-99.29,47.87-4.44,43.31c-.83,8.12-5.32,15.42-12.19,19.83l-11.83,7.6"/>
    <path class="cls-29" d="M4530.21,744.94c-6.79.94-107.58,62.82-111.21,87.33-25.27-36.68-67.89-60.29-104.13-84.62l17.88-9.17c91.58,50.24,108.43,21.44,181.67-9.85,12.44,10.9,15.79,16.32,15.79,16.32Z"/>
    <path class="cls-38" d="M4458.22,629.1c-2.22,18.06-2.13,50.86,4.42,66.88,14.21,31.67,26.62,23.48,51.77,32.63-25.93,14.73-45.32,21.63-75.25,33.61-.03-13.76,13.89-16.08,3.33-57.75-3.59-14.18-30.81-49.64-30.81-49.64,0,0,26.81-12.88,46.54-25.74Z"/>
  </g>
  <g>
    <g id="Cara">
      <path class="cls-30" d="M4592.6,326.08s19.94-22.59-11.09-80.68c-31.36-58.71-142.03-50.43-157.79-49.65-107.44,3.27-300.28,25.32-271.32,127.68,9.81,31.86,27.97,154.4,34.59,196.81,19.57,72.69,70.21,137.36,148.57,157.13,70.71-9.43,144.18-62.6,185.51-94.16,44.35-34.42,61.93-92.51,52.92-146.75,10.72-.66,24.49-2.15,28.75-13.9,1.61-6.87,16.59-51.38,16.34-57.63,7.41-29.13-8.77-41.12-26.48-38.85ZM4261.25,289.46c8.69-.25,16.92,1.41,24.37,4.72,7.24,4.01,13.94,9.39,19.9,15.1,3.27,3.93,6.04,8.4,8.27,13.32-9.97,12.58-29.13,20.81-50.27,21.6-21.31.7-40.67-6.21-52.13-18.7,8.15-21.56,27.14-35.33,49.85-36.04Z"/>
      <g id="Sonrisa">
        <path class="cls-20" d="M4289.03,586.29c83.32-26.22,110.28-68.87,133.63-74.4,14.68-6.23,70.38-17.72,85.9-.08,3.94,4.48,19.05,28.25-24.17,62.16-30.94,29.89-171.3,58.23-195.37,12.33Z"/>
        <path class="cls-28" d="M4292,587.57s31.88-11.08,54.3-22.61c-14.53,13.11-42.05,39.02-54.3,22.61Z"/>
        <path class="cls-28" d="M4492.63,531.25c4.76-7.62,3.26-17.22-.82-25.25,16.46.64,33.74,16.9,17.4,37.03,5.34-6.57-6.77-13.1-16.58-11.77Z"/>
        <path class="cls-3" d="M4289.03,586.29c75.04-19.68,80.91-49.87,133.3-76.07,39.95-19.01,145.04-11.66,62.07,63.74-31.02,29.91-171.29,58.22-195.37,12.33Z"/>
        <path d="M4355.45,583.41c38.5-6.88,76.4-18.83,110.52-38.18,0,0,.24.26.24.26l14.24,15.45-.64.22,2.16-23.99v-.12s.11-.05.11-.05c2.86-1.44,5.7-2.96,8.47-4.59,2.66-1.7,5.73-3.16,7.64-5.75-1.85,2.64-4.9,4.17-7.53,5.93-2.74,1.68-5.55,3.27-8.39,4.78l.11-.17-1.83,24.02-.06.84-.58-.62-14.35-15.35.55.08c-8.5,4.86-17.25,9.27-26.21,13.21-26.89,11.78-55.45,19.57-84.44,24.02h0Z"/>
      </g>
      <path d="M4322.69,528.99c-8.89-4.14-11.98.03-18.11,5.78-2.59,2.38-5.4,4.53-8.42,6.33-3.04,1.77-6.25,3.51-9.81,3.83-13.84,1.23-29.17-7.47-33.73-20.87-4.32-12.26,3.38-32.2,17.2-34.46,10.76-1.9,20.54,4.45,30.93,5.65,3.82.44,6.74-1.62,7.6-5.38,0,0,.1.02.1.02-.77,3.95-3.72,6.13-7.72,5.83-10.35-.99-20.14-7.07-30.72-5.13-13.11,2.06-20.71,21.6-16.63,33.23,4.37,13.12,19.39,21.71,32.91,20.6,3.51-.3,6.64-1.98,9.65-3.68,3.02-1.75,5.83-3.85,8.43-6.19,2.3-2.06,5.36-5.3,8.17-6.61,3.18-1.52,7.4-.56,10.15,1.07h0Z"/>
    </g>
    <g>
      <path d="M4318.1,322.1c-.7-1.61-1.45-3.19-2.28-4.72-10.84-20.69-31.4-32.89-54.69-32.06-24.82.79-45.47,16.05-53.99,39.8,0,.04-.04.08-.04.12l-.41,1.12.79.91c11.71,13.53,30.78,21.1,52.67,21.1,1.16,0,2.36,0,3.52-.04,22.92-.87,43.69-10.14,54.2-24.2l.7-.95-.46-1.08ZM4263.53,344.2c-21.31.7-40.67-6.21-52.13-18.7,8.15-21.56,27.14-35.33,49.85-36.04,8.69-.25,16.92,1.41,24.37,4.72,7.65,3.35,14.44,8.48,19.9,15.1,3.27,3.93,6.04,8.4,8.27,13.32-9.97,12.58-29.13,20.81-50.27,21.6Z"/>
      <path class="cls-21" d="M4318.26,323.26c-3.72-4.55-7.98-9.39-12.74-13.98-5.96-5.71-12.66-11.09-19.9-15.1-23-12.91-51.47-12.33-78.69,32.39.04-.46.12-.91.21-1.45,1.57-8.77,10.63-27.1,19.73-34.63-2.11.66-5.46,2.77-7.16,4.51,33.93-56.35,80.1-12.54,96.11,22.38.91,1.99,1.74,3.97,2.44,5.88Z"/>
    </g>
  </g>
  <g id="Cabello">
    <path class="cls-33" d="M4629.15,304.42c-35,15.74-82.41,22.49-117.87,5.04l15.39,42.38c-15.64-29.32-47.28-53.62-74.71-71.34,12.83,38.32,20.44,72.59,64.38,85.43-60.68,9.3-91.77-28.06-115.85-72.7-4.33-6.62-8.33-17.9-12.82-24.21,0,0-13.41-14.09-13.41-14.09,3.34,29.91,20.64,65.71,39.42,88.95-57.75-18.93-117.89-48.52-140.63-133.35-37.47,29.35-87.52,79.93-86.52,137.68-11.36-13.75-19.18-22.49-25.66-44.38-3.84-13.58-3.51-21.26-5.6-18.16-17.81,23.01-26.38,56.91-18.86,85.61-77.22-143.25-50.9-200.82,47.78-228.46-9.95-16.16-14.5-28.03-14.5-47.27,33.92,29.39,84.64-43.07,117.53-6.37,24.3-30.21,44.32-29.48,46.89-31.49,13.37-10.43,29.03-13.55,55.83-52.05,1.67,16.23.11,43.19-3.49,59.1,49.41-15.11,110.36-14.34,158.39,4.42-12.46,7.6-45.75,11.95-41.11,23.01,6.19,11.38,36.77,14.51,50.12,18.16,2.88.66,24.68,11.64,27.08,13.35l25.48,23.89,29.28,18.92c-13.39.27-35.97-4.78-48.63-9.13,13.39,11.72,36.04,34.36,52.62,41.05-7.72,3.01-18.64,1.03-26.3-1.26,13.36,8.8,24.37,30.47,28.03,45.74,10.25,15.78,23.38,35.72,39.82,46.81-22.61-3.3-51.17-22.65-68.84-36.27,10.91,21.95,27.79,46.07,53.65,61.66-9.6-1.47-28.06-6.67-36.9-10.64Z"/>
    <g id="Detalles">
      <path class="cls-39" d="M4296.91,188.44s-107.16,75.05-113.09,154.89c-15.02-71.9,47.73-135.7,113.09-154.89Z"/>
      <path class="cls-39" d="M4320.67,135.99c24.89,29.31,62.95,62,126.7,69.04-56.56-2.42-85.45,1.8-126.7-69.04Z"/>
      <path class="cls-39" d="M4426.76,89.52s8.2,9.45,62.72,45.14c18.74,12.27,60.48,10.29,74.8,8.47-56.56,22.83-110.28-12.57-137.53-53.61Z"/>
      <path class="cls-39" d="M4353.51,119.44c11.86-5.67,39.72-83.32,23.82-96.6q9.33-12.61,9.33-12.62s12.62,71.06-33.16,109.22Z"/>
      <path class="cls-39" d="M4097.74,216.89c18.29-32.12,38.83-56.79,98.74-62.17-5.06-2.86-9.6-6.71-12.66-11.7,0,0-72.9,10.82-86.08,73.87Z"/>
      <path class="cls-39" d="M4409.92,341.78c-29.61-25.23-45.54-64.06-36.93-102.63-.45,37.59,13.61,73.44,36.93,102.63Z"/>
      <path class="cls-39" d="M4509.43,365.49c-45.88-5.32-73.66-51.66-65.59-110.32,5.37,23.74,21.21,66.52,34.34,90.34,0,0,31.25,19.98,31.25,19.98Z"/>
      <path class="cls-39" d="M4133.75,366.27c-15.7-26.37-6.31-68.77,20.28-79.12-30.92,41.22-20.28,79.12-20.28,79.12Z"/>
      <path class="cls-39" d="M4171.03,99.67c2.83,20.39,31.31,21,44.41,9.95,20.95-14.24,46.35-19.38,71.28-20.91-39.04-34.78-80.75,35.63-115.69,10.96Z"/>
      <path class="cls-39" d="M4417.34,58.58c41.31-8.17,81.73-1.64,121.01,11.64-14.61,7.8-61.84-5.81-82.02-9.44,0,0-38.99-2.19-38.99-2.19Z"/>
      <path class="cls-39" d="M4520.4,175.44s49.04-1,69.48,75.47c-28.68-55.98-24.6-49.87-69.48-75.47Z"/>
      <path class="cls-39" d="M4582.9,155.99s43.71,42.92,53.86,41.66c-20.41-5-48.07-18.88-53.86-41.66Z"/>
      <path class="cls-39" d="M4578.74,124.82s45.05,38.98,53.86,41.66c-18.63-2.52-50.7-25.27-53.86-41.66Z"/>
      <path class="cls-39" d="M4506.45,313.65c2.75,8.33,7.08,16.03,12.79,22.69,0,0-14.54-47.17-19.82-52.1.82,9.06,4.12,20.59,7.03,29.4Z"/>
      <path class="cls-39" d="M4619.81,204.36c14.47,15.25,28.35,70.25,56.52,83.45-33.07-15.95-52.22-42.46-56.52-83.45Z"/>
      <path class="cls-39" d="M4603.47,229.88c-1.43,40.18,22.75,58.89,51.74,81.04-24.56-25.77-41.22-46.11-51.74-81.04Z"/>
    </g>
    <g id="Contorno">
      <path d="M4174.31,205.03c-25.04,40.14-25.01,87.53.29,127.53,3.41,5.42,7.16,10.68,11.45,15.41l-.55.28c-1.27-14.05,2.46-28.09,7.44-41.11,15.89-39.51,46.54-71.02,79.11-97.52,6.93,33.97,26.13,64.69,52.29,87.25,19.4,16.9,42.01,29.95,65.88,39.44,7.97,3.14,16.1,5.96,24.4,8.06l-.26.49c-10.46-10.86-18.56-23.81-25.06-37.36-10.77-22.66-16.15-47.73-16.41-72.78.5,35.01,11.37,70.03,32.21,98.29,3.19,4.28,6.59,8.44,10.4,12.17,0,0-1-.25-1-.25-65.49-17.49-128.99-65.04-143.25-134.31,0,0,.8.28.8.28-10.88,8.77-21.34,18.06-31.17,27.99-24.11,24.78-45.93,54.11-53.27,88.52-1.4,7.13-2.29,14.54-1.34,21.76-4.61-5.01-8.57-10.54-12.17-16.29-25.36-40.22-25.15-87.7.22-127.85h0Z"/>
      <path d="M4183.82,143.01c-44.02,9.16-81.65,32.45-88.53,80.06-7.1,52.35,18.77,111.32,45.22,155.52-27.01-43.57-53.43-103.5-46.12-155.65,7.16-47.81,44.95-71.41,89.44-79.92h0Z"/>
      <path d="M4440.18,246.9c2.65,5.59,4.68,11.45,6.6,17.33,5.68,17.63,10.43,35.64,17.81,52.66,9.4,22.36,25.46,44.86,51.09,48.59,0,0,2.78.45,2.78.45l-2.78.44c-34.85,6.29-64.65-3.34-87.47-30.79-15.86-18.64-26.2-40.95-39-61.59-4.32-6.84-9.07-13.48-14.97-19.06,5.96,5.52,10.8,12.12,15.2,18.91,25.71,41.55,45.48,90.88,101.96,93.33,8.07.28,16.13-.44,24.12-1.69v.9c-12.36-1.94-23.72-8.49-32.13-17.68-16.83-18.56-24.37-43.15-31.53-66.62-3.58-11.82-6.61-23.88-11.7-35.17h0Z"/>
      <path d="M4497.44,280.49c12.42,23.03,23.1,47.27,28.99,72.85-6.07-12.61-15.12-23.52-25.02-33.32-9.01-8.92-18.72-17.11-28.79-24.81-6.72-5.13-13.57-10.1-20.66-14.73,7.18,4.48,14.17,9.27,20.98,14.3,19.89,15.12,40.53,32.31,52.52,54.63,0,0-.88.32-.88.32-1.45-6.03-3.17-11.99-5.14-17.88-6.01-17.64-13.49-34.78-22-51.37h0Z"/>
      <path d="M4511.27,309.46c27.25,13.53,59.77,12.72,88.62,5.02,9.74-2.61,19.26-6.04,28.54-10.06-4.58,2.15-9.21,4.19-13.92,6.02-32.33,12.37-71.9,16.01-103.23-.97h0Z"/>
      <path d="M4544.98,258.54c22.05,1.46,40.81,19.54,58.88,30.85,13.96,9.28,28.98,17.16,45.17,21.68,5.38,1.48,10.85,2.65,16.37,3.52l-.29.89c-25.09-14.86-43.64-39.35-54.82-65.98-3.67-8.96-6.56-18.22-8.69-27.65,2.82,11.74,6.9,23.17,12.08,34.07,11.91,24.43,30.1,46.91,54.24,60.01-23.33-2.84-45.16-12.83-64.44-25.97-17.69-11.19-37.15-29.82-58.5-31.42h0Z"/>
      <path d="M4602.5,191.72c38.52,12.93,33.95,71.44,78.25,97.57,0,0,1.72,1.05,1.72,1.05l-1.99-.2c-24.2-2.69-50.17-21.39-68.34-36.95,10.01,8.41,20.75,15.99,32.04,22.56,11.25,6.39,23.39,12.14,36.38,13.48,0,0-.27.85-.27.85-9.22-5.53-17.28-12.95-23.65-21.6-6.41-8.64-11.29-18.25-15.82-27.92-8.85-18.66-17.05-41.49-38.31-48.84h0Z"/>
      <path d="M4502.04,87c-.63,2.08.15,4.34,1.37,6.05,4.67,6.01,12.55,8.21,19.55,10.31,0,0,3.14.72,3.14.72,6.18,1.49,12.83,2.35,19.01,3.16,9.24.41,17.48,5.24,25.04,10.14,15.08,10.13,28.34,22.63,42.41,34.03,7.01,5.52,14.15,11.47,22.57,14.6,0,0,2.43.86,2.43.86l-2.56.08c-16.26.49-32.27-3.38-47.57-8.55,0,0,.38-.62.38-.62,11.77,11.42,23.85,22.64,37.04,32.4,4.43,3.1,8.95,6.42,14.16,8.02,0,0,.52.15.52.15l-.49.2c-8.07,3.07-17.1,1.62-24.97-1.34-1.13-.45-2.23-.95-3.35-1.42,6.62,2.92,13.89,4.74,21.17,4.06,2.39-.24,4.81-.7,7-1.64l.04.35c-2.69-.73-5.14-2.03-7.51-3.41-16.7-10.57-31.04-24.41-45.3-37.99,8.15,2.76,16.43,5.17,24.88,6.77,7.9,1.51,15.95,2.32,23.98,2.04l-.13.94c-4.37-1.52-8.31-3.92-12.03-6.53-22.16-15.6-40.28-37.01-64.76-49.19-4.1-1.86-8.47-3.27-12.96-3.43-6.34-.86-12.85-1.71-19.07-3.31,0,0-3.14-.77-3.14-.77-7.01-2.2-14.91-4.51-19.52-10.62-1.21-1.74-1.96-4.01-1.3-6.1h0Z"/>
      <path d="M4385.73,64.72c25.69-8.39,52.88-12.36,79.9-10.94,27.48,1.28,54.47,7.49,80.68,15.57-.58.19-7.76,2.73-8.55,3-7.12,2.59-14.85,5.57-21.75,8.6-9.49,4.19-19.02,8.57-27.52,14.58,12.71-9.11,27.28-15.25,41.71-21.1,3.61-1.41,10.98-4.15,14.64-5.44,0,0,.01.79.01.79-12.92-3.89-25.98-7.31-39.2-9.93-39.63-8.31-81.18-7.3-119.92,4.88h0Z"/>
      <path d="M4385.73,64.72c-.09,0,0-.08.04-.09l.14-.07.3-.12c2.97-.98,6.18-1.75,9.2-2.5,9.89-2.39,19.9-4.27,29.96-5.82,20.09-2.88,40.69-4.99,60.9-1.89,5.87.98,11.75,2.52,17.02,5.36,0,0,2.31,1.01,2.31,1.01,6.19,2.68,12.67,4.74,19.27,6.21,6.59,1.49,13.33,2.48,20.11,2.57-6.78.07-13.56-.76-20.22-2.09-6.66-1.37-13.19-3.36-19.47-5.98,0,0-2.36-.99-2.36-.99-5.24-2.73-10.99-4.24-16.81-5.18-20.11-2.95-40.59-.92-60.64,1.75-10.06,1.41-20.08,3.19-30.02,5.3-3.04.67-6.27,1.37-9.25,2.27,0,0-.3.11-.3.11l-.14.06s-.13.08-.04.09h0Z"/>
      <path d="M4286.99,88.88c-20.62-22.65-51.17-2.54-73.37,7.03-11.85,5.02-26.17,11.6-38.69,5.03-2.39-1.31-4.52-3.08-6.32-5.1l.83-.31c.06,3.86.47,7.76,1.04,11.6,2.9,19.74,12.22,41.12,31.72,49.19,6.28,2.74,13.14,3.78,19.96,3.93-7.81-.02-15.75-1.29-22.79-4.79-21.88-10.77-29.97-37.11-30.88-59.92,0,0-.02-1.28-.02-1.28,3.57,4.39,8.66,7.59,14.32,8.22,31.01,3.52,75.36-45.64,104.19-13.59h0Z"/>
      <path d="M4280.68,98.63c25.19-47.4,78.06-35.18,108.68-96.01,3.94,37.13-.31,85-29.29,111.69-4.21,3.72-8.86,6.91-13.78,9.59,4.89-2.75,9.48-6,13.63-9.76,28.29-27.03,32.37-72.87,28.67-109.86,0,0,.91.16.91.16-8.4,16.4-20.95,30.6-36.44,40.61-25.83,16.95-57.02,24.01-72.38,53.59h0Z"/>
      <path d="M4280.68,178.54c24.86,18.33,52.46,34.97,83.53,39.25,31.04,4.33,62.07-3.58,91.58-12.66,0,0,.07.92.07.92-12.88-2.01-25.73-4.37-38.36-7.64-39.66-9.57-71.38-30.73-96.83-62.42,37.62,45.39,78.36,61.02,135.33,69.13,0,0,2.01.3,2.01.3l-1.94.61c-71.2,23.03-115.41,18.91-175.4-27.49h0Z"/>
      <path d="M4423.47,87c26.38,19.64,51.1,44.35,83.75,52.87,19.32,5.15,39.64,4.7,59.44,3.27,0,0,.7-.05.7-.05-.49,1.5-1.38,2.83-2.3,4.04-8.61,10.17-24.61,15.88-37.16,19.46-11.17,3.23-23.64,5.35-35.17,7.04,0,0-.15-.81-.15-.81,11.63-2.14,23.66-1.3,35.02,1.84,17.11,4.69,31.99,15.83,42.33,30.13,10.32,14.31,16.71,31.14,20.71,48.22-4.16-17.04-10.74-33.7-21.12-47.92-13.86-19.25-35.56-31.53-59.35-32.56-5.82-.27-11.72-.04-17.4,1.09l-.15-.81c3.64-.63,11.66-1.73,15.13-2.51,14.93-2.85,30.1-6.73,43.62-13.8,4.42-2.45,8.77-5.21,12.16-8.99,1.03-1.14,2.19-2.65,2.75-4.06,0,0,.46.57.46.57-18.25,1.32-36.84,1.53-54.83-2.24-8.09-1.89-16.13-4.61-23.64-8.15-2.56-1.27-5.23-2.74-7.77-4.06-20.52-12.01-38.32-28.03-57.02-42.58h0Z"/>
      <path d="M4590.63,253.01c-16.52-25.93-40.9-43.56-72.79-37.01-9.52,1.96-18.73,5.63-26.95,10.85,16.05-11,36.93-16.32,56.01-11.04,19.25,5.16,33.83,20.51,43.73,37.2h0Z"/>
      <path d="M4147.27,387.66c-6.55-6.32-10.6-14.87-12.83-23.61-4.43-17.8-.53-36.56,6.57-53.13,3.61-8.31,8.04-16.24,13.02-23.78-3.37,5.68-6.8,11.96-9.6,17.89-8.44,18.18-13.87,38.9-9.25,58.84,2.05,8.71,5.9,17.22,12.09,23.79h0Z"/>
    </g>
  </g>
  <g id="Mecho">
    <path class="cls-33" d="M4549.07,309.81l45.97-10.16c14.24,25.57,46.71,73.54,84.9,84.35-14.98,3.06-42.24,3.97-57.43,2.16,14.7,18.2,5.76,41.9,6.81,66.8-.63,22.26,4.19,53.24,11.39,74.3-12.83-9.14-25.31-23.95-33.07-37.62-4.1,20.72-14.27,43.38-24.55,61.7-6.59-78.88-14.5-156.84-76.81-177.55-18.61-16.6-75.62-81.45-82.81-105.33l125.6,41.35Z"/>
    <path class="cls-39" d="M4585.13,544.85l-1.16-14.3,23.56-41.78s-4.94,33.47-22.4,56.07Z"/>
    <path class="cls-39" d="M4629.2,416.33c-9.88,34.43-13.88,74.5,7.56,105.86-8.86-23.62-7.79-80.63-7.56-105.86Z"/>
    <path class="cls-39" d="M4623.35,343.99l-.06,11.08s22.22,39.67,57.94,28.49c-28.97-5.22-44.42-26.67-57.88-39.57Z"/>
    <path d="M4604.17,313.67c19.25,28.38,40.86,60.27,75.78,69.72,0,0,2.04.55,2.04.55l-2.07.42c-32.03,5.94-78.52,7.56-101.34-19.77,18.21,20.88,48.54,23.33,74.53,22.16,8.93-.52,17.85-1.58,26.59-3.36l-.02.96c-8.56-2.32-16.67-6.14-24.03-11.04-22.19-14.86-37.18-37.63-51.49-59.65h0Z"/>
    <path d="M4617.82,385.26c16.91,6.54,13.3,35.65,13.09,50.43-.81,18.34-1.87,36.82.41,55.08,1.57,12.55,4.67,24.98,10.24,36.36-14.32-6.76-24.94-20.15-32.37-33.79-1.61-3.01-3.67-7.3-4.91-10.43-.66-1.56-1.62-3.76-2.09-5.37-.32-.96-2.03-5.95-2.32-6.82-.25-.92-.86-3.23-1.11-4.17,0,0-1.48-5.56-1.48-5.56l-2.23-11.29,2.42,11.25c.73,2.59,2.03,7.14,2.75,9.68,1.35,3.65,2.93,8.57,4.57,12.08,7.12,16.82,19.39,34.59,35.99,43.04,0,0-.59.62-.59.62-10.72-22.43-11.8-47.89-10.9-72.31.41-12.28,1.51-24.51,1.48-36.77-.22-11.48-.69-26.83-12.94-32.02h0Z"/>
    <path d="M4500.03,373.66c8.82.2,17.24,3.9,24.55,8.64,22.16,14.97,34.3,40.39,42.54,65.05,10.75,33.53,14.75,68.8,16.27,103.84,0,0-.76-.23-.76-.23,8.6-12.59,14.54-26.92,19.32-41.35,2.13-6.51,4.01-13.44,5.57-20.09-.61,2.71-1.18,5.44-1.83,8.15-1.31,5.22-2.84,10.98-4.59,16.06-4.47,13.19-10,26.13-17.8,37.74,0,0-.71,1.02-.71,1.02l-.06-1.26c-2.89-50.07-8.84-109.05-39.33-150.51-10.49-13.56-25.39-26.06-43.19-27.05h0Z"/>
  </g>
  <g id="ManoD">
    <path class="cls-36" d="M4102.21,368.44s47.17-2.11,27.29,29.29l-9.84,19.33c-10.48,24.67-20.89,39.6-26.98,38.17-23.13-5.43-11.87-29.3-7.36-40.27,4.19-10.16,6.81-22.12,8.65-24.93"/>
    <path class="cls-36" d="M4134.51,385.64l12.7,2.42c6.26,1.19,11.37,6.26,11.8,12.61.18,2.66-.38,5.4-1.75,7.92l-25.75,49.18c-1.56,2.98-3.53,5.69-5.83,8.08-5.85,6.06-15.9,4.82-20.04-2.52-2.47-4.39-4.53-9.37-4.24-13.44h0"/>
    <path class="cls-36" d="M4158.37,404.94l17.18,6.29c6.68,3.24,6.95,8.14,5.34,13.26-4.37,13.87-16.79,38.45-27.59,53.66-5.12,7.2-16.32,6.39-20.04-1.63-2.45-5.3-3.74-10.96-2.25-15.4l1.29-3.87"/>
    <path class="cls-36" d="M4212.8,504.73c8.84.12,9.49-19.92-14.75-31.72-15.2-7.4-26.88-11.38-36.16-5.02-1.16.79-34.53-37.66-66.01-61.12l6.29-32.7c1.2-6.76-3.09-15.17-10.01-17.16l-7.05-1.87c-6.72-2.82-14.19.4-17.69,6.85l-26.21,37.62c-11.62,21.39-22.69,69.22-18.85,93.26l8.66,34.21-10.87,16.72c-5.65,8.69-2.73,20.35,6.34,25.36l24.98,13.78c10.22,5.64,23.07,1.14,27.55-9.64l8.11-19.53c12.26-3.64,29.03-16.25,38.85-24.25,9.08-7.4,24.38-22.88,35.57-26.33,19-5.87,39.58,1.38,51.24,1.54Z"/>
    <path class="cls-38" d="M4096.44,461.1s-16.98,35.07-43.6,39.26c-8.05,1.27-15.71.33-15.71.33h0c24.26,5.63,47.7,14.38,69.67,26.12,3.52,1.88,5.74,3.01,5.74,3.01,0,0-11.39-15.38-14.82-24.9-5.14-14.23-4.36-20.77-2.51-35.78.65-5.3,1.24-8.05,1.24-8.05Z"/>
    <g id="Contorno-2" data-name="Contorno">
      <path class="cls-2" d="M4031.15,532.71l-9.9-39.12c-3.84-24.04,7.22-71.87,18.85-93.26l26.21-37.62c3.5-6.45,10.97-9.66,18.06-7.78l7.05,1.87c7.86,2.09,12.29,10.4,9.64,18.09l-24.77,50.65c-3.12,6.38-10.96,8.82-17.15,5.34l-.48-.27c-1.69-.95-2.38-3.74-3.74-6.86-7.66-17.56,12.52-51.01,12.52-51.01"/>
      <path class="cls-2" d="M4101.72,368.76s47.17-2.11,27.29,29.29l-9.84,19.33c-10.48,24.67-20.89,39.6-26.98,38.17-23.13-5.43-11.87-29.3-7.36-40.27,4.19-10.16,6.81-22.12,8.65-24.93"/>
      <path class="cls-2" d="M4134.17,385.86l12.7,2.42c6.26,1.19,11.37,6.26,11.8,12.61.18,2.66-.38,5.4-1.75,7.92l-25.75,49.18c-1.56,2.98-3.53,5.69-5.83,8.08-5.85,6.06-15.9,4.82-20.04-2.52-2.47-4.39-4.53-9.37-4.24-13.44h0"/>
      <path class="cls-2" d="M4158.96,406.3l15.71,5.56c2.71.96,5.26,2.47,7.05,4.72,2.58,3.25-14.17,38.37-26.64,57.97-3.71,5.83-19.88,9.19-22.83,2.94-2.53-5.37-3.87-11.13-2.36-15.64l1.29-3.87"/>
      <path class="cls-2" d="M4081.64,555.79l4.38-1.3c12.26-3.64,29.03-16.25,38.85-24.25,9.08-7.4,24.38-22.88,35.57-26.33,19-5.87,39.58,1.38,51.24,1.54,8.84.12,9.49-19.92-14.75-31.72-18.1-8.81-31.21-12.78-41.23-.2"/>
    </g>
    <g id="Uas">
      <path class="cls-23" d="M4205.48,495.23c-4.18-2.3-9.47.98-9,5.73.04.44.12.77.25.94,1.85,2.54,7.36,3.27,10.45,2.71,2.62-.47,6.34.61,6.76-.41h0c-1.58-3.58-4.27-6.57-7.66-8.52-.39-.23-.68-.39-.8-.46Z"/>
      <path class="cls-23" d="M4133.63,463.68h0c-.2.47-.99,2.31-.36,5.09.41,1.8,1.24,3.33,2.12,4.55,1.85,2.54,4.89,4.17,7.98,3.61,2.62-.47,4.02-2.15,4.45-3.17l.71-1.7c.73-1.74.15-3.75-1.39-4.83l-7.49-5.28c-2.1-1.48-5.03-.64-6.02,1.73Z"/>
      <path class="cls-23" d="M4107.05,452.18h0c-.2.47-.99,2.31-.36,5.09.41,1.8,1.24,3.33,2.12,4.55,1.85,2.54,4.89,4.17,7.98,3.61,2.62-.47,4.02-2.15,4.45-3.17l.71-1.7c.73-1.74.15-3.75-1.39-4.83l-7.49-5.28c-2.1-1.48-5.03-.64-6.02,1.73Z"/>
      <path class="cls-23" d="M4083.22,437.46h0c-.2.47-.99,2.31-.36,5.09.41,1.8,1.24,3.33,2.12,4.55,1.85,2.54,4.89,4.17,7.98,3.61,2.62-.47,5.46-3.04,5.46-3.04,1.48-2.13-.16-5.58-1.69-6.67l-7.49-5.28c-2.1-1.48-5.03-.64-6.02,1.73Z"/>
      <path class="cls-23" d="M4057.73,414.36h0c-.2.47-.91,2.3-.36,5.09,1.66,8.49,8.84,10.14,11.65,8.73,4.54-2.28,6.09-8.6,2.22-10.27l-7.49-5.28c-2.1-1.48-5.03-.64-6.02,1.73Z"/>
    </g>
  </g>
  <g id="AntebrazoD">
    <path id="AntebrazoD-2" data-name="AntebrazoD" class="cls-14" d="M4138.55,795.09s-123-17.73-117.34-19.81c84.87-31.18,92.75-153.68,73.97-189.68-1.96-9.05,6.61-20.2.29-26.98-20.38-21.88-74.42-27.68-85.7-31.51-20.55-6.97-18.17,14.73-22.41,19.54-43.35-3.09-69.58,61.64-87.74,90.82-46.79,64-114.14,262.07-7.56,290.01,4.17,1.09,12.4-9.69,17.14-9.3,155.21,12.6,250.39-101.41,254.83-101.25"/>
    <path class="cls-22" d="M4095.18,585.6c3.36,70.97-22.34,145.62-77.95,191.67,0,0,62.81-29.17,73.06-73.44,12.51-41.03,22.46-81.81,4.9-118.22Z"/>
    <path class="cls-22" d="M3999.15,550.47c-31.48-18.89-71.71,22.56-82.82,57.84-15.79,22.33-40.84,65.14-51.7,90.47,0,0-21.85,70.89-21.85,70.89,36.77-59.1,89.3-187.96,156.37-219.19Z"/>
    <path class="cls-22" d="M3840.64,783.74c21.82,160.24,157.46,177.95,274.67,147.97-45.53,23.61-94.76,12.25-139.43,18.31-37.95,6.38-88.04-13.9-119.72-46.48-34.55-40.49-23.79-84.91-15.52-119.8Z"/>
    <g>
      <path d="M3988.06,546.33l1.65.43c36.02,9.46,71.11,22.19,104.82,38.03h0"/>
      <path d="M3988.06,546.33c37.08,7.52,73.16,20.51,106.47,38.46-15.51-6.11-37.38-14.79-52.85-20.28-15.41-5.67-37.81-12.97-53.61-18.18h0Z"/>
    </g>
  </g>
  <g id="Banda">
    <path id="Banda-2" data-name="Banda" class="cls-8" d="M4181.1,489.15l73.23,11.46c22.61-31.82,49.39,2.27,103.2.48,0,0,44.93-7.21,44.93-7.21,92.68-11.61,143.21-62.92,212.53-99.49,16.61-3.82,4.92-108.31,8.23-119.41,0-3.43-3.47-5.76-6.65-4.47l-55.78,27.14c-48.32,28.2-131.9,51.42-185.59,67.24-13.65,3.59-101.66,8.82-115.69,7.32l-95.34-13.42c-2.62-.28-11.66,4.06-7.6,24.58l13.56,93.7c.56,6.02,5.03,10.95,10.98,12.09Z"/>
    <g id="Detalles-2" data-name="Detalles">
      <path class="cls-14" d="M4247.82,371.82c-35.41-4.87-58.01-7.98-72.79-11.62-22.59-3-20.7,6.49-10.93,62.94,11.25,76.02-3.22,62.01,58.41,71.32,5.75.87,11.54,1.21,18.71,2.59,0,0-22.61-9.63-45.88-16.61-10.94-3.28-13.21-9.64-15.18-20.89-5.58-31.82-13.79-47.61-10.42-63.78,7.58,13.72,15.4,29.7,15.4,29.7-11.18-46.88,6.87-43.57,62.67-53.65Z"/>
      <path class="cls-14" d="M4253.68,499.03l-12.88-2.04c30.42-18.95,31.97-94.98,31.59-32.16.45,19.83,31.21,9.55,46.29,30.07-20.59-4.41-48.31-20.35-65,4.13Z"/>
      <path class="cls-14" d="M4330.1,371.12c33.54-1.54,65.1-10.02,113.31-25.09,14.25,10.87,43.5,21.27,68.99,18.27-27.62,11.44-51.48-5.91-76.6-.58-22.84,4.76-77.05,13.71-105.7,7.4Z"/>
      <path d="M4608.2,366.95c-12.99,19.9-34.05,34.97-55.31,45.08,2.64-1.43,5.27-2.89,7.83-4.45,17.91-10.76,35-23.71,47.48-40.63h0Z"/>
      <path d="M4312.48,388.83c-38.92,6.73-82.32-1.66-118.99-15.41,4.77,1.65,9.58,3.2,14.44,4.57,33.77,9.65,69.48,15.6,104.55,10.84h0Z"/>
      <path d="M4420.2,451.41c-3.65.6-7.3,1.35-10.98,1.76-1.36.13-5.23.51-6.65.64-2.54.26-6.31.19-8.91.29,0,0-4.46-.2-4.46-.2-2.59-.01-6.28-.59-8.88-.93,0,0-4.37-.94-4.37-.94-5.79-1.35-11.45-3.69-16.25-7.22,0,0-1.73-1.41-1.73-1.41l-1.6-1.56c-.99-1.11-1.98-2.24-2.65-3.57,1.62,2.48,3.85,4.49,6.28,6.14,4.53,3.16,9.8,5.07,15.09,6.51.67.14,4.64.95,5.4,1.11,0,0,4.38.54,4.38.54,11.74,1.38,23.64.23,35.33-1.16h0Z"/>
      <path class="cls-14" d="M4353.91,438.46c20.91,6.94,44.02,10.5,65.92,13.01-21.77-.19-48.95,4.52-65.92-13.01Z"/>
      <path class="cls-14" d="M4611.86,395.01c4.24-2.41,7.06-3.32,8.98-13.55,2.09-13.46,1.7-21.8,1.7-45.58-11.79,53.01-27.75,52.56-63.86,90.4,4.72-2.88,23.04-14.6,38.2-23.51"/>
      <path class="cls-14" d="M4518.74,318.47l13.87-4.9c5.45,2.6,56.15,2.6,68.03-.98-8.18,6.78-49.61,14.86-67.13,11.78-.87-.15-1.71.34-1.9,1.2-2.99,13.35-.6,34.05-.6,34.05-.37-3.91-10.09-35.77-12.27-41.16Z"/>
      <path class="cls-14" d="M4422.3,488.52c30.87-1.85,92.24-31.7,113.37-47.88,0,0-39.22,11.27-46.2-37.93-5.98,45.88-32.08,67.16-58.01,63.17,13.3,5.98-9.16,22.65-9.16,22.65Z"/>
      <path class="cls-14" d="M4419.83,451.47c-21.77-.19-50.89,4.3-65.92-13.01,20.91,6.94,44.02,10.5,65.92,13.01"/>
    </g>
  </g>
</svg>